<svg width="1404" height="1872" viewBox="-702 0 1404 1872" xmlns="http://www.w3.org/2000/svg" xmlns:xlink="http://www.w3.org/1999/xlink" version="1.2" baseProfile="tiny"><title>Regler</title>\n<g><path fill="none" stroke="#000000" stroke-width="6" stroke-linecap="round" stroke-linejoin="round" d="M-545.928 190.587 L-546.416 190.841 L-546.805 190.425 L-546.711 189.533 L-546.183 188.79 L-546.269 189.441 L-544.082 197.229 L-542.248 207.329 L-541.511 214.288 L-537.763 237.628 L-534.83 247.666 L-535.024 248.443 L-534.71 249.897 L-534.283 249.939 L-534.58 249.523 L-534.279 249.225 L-533.604 243.03 "/></g><g><path fill="none" stroke="#000000" stroke-width="6" stroke-linecap="round" stroke-linejoin="round" d="M-550.192 199.117 L-551.429 198.547 L-551.908 197.818 L-550.81 194.325 L-548.252 191.656 L-545.221 190.042 L-532.543 186.217 L-527.419 185.377 L-522.394 185.24 L-518.453 185.333 L-513.792 186.265 L-507.83 188.876 L-504.152 192.841 L-501.723 196.692 L-500.425 199.511 L-498.878 204.776 L-498.102 209.893 L-497.71 216.013 L-497.795 221.992 L-499.353 228.727 L-504.755 239.108 L-508.792 244.501 L-514.122 252.48 L-516.428 254.621 L-520.664 257.791 L-526.549 260.326 L-531.578 261.25 L-533.053 261.069 L-534.297 260.304 L-534.996 258.835 L-534.765 257.25 L-533.169 254.688 "/></g><g><path fill="none" stroke="#000000" stroke-width="6" stroke-linecap="round" stroke-linejoin="round" d="M-481.899 236.448 L-482.779 235.77 L-481.575 236.073 L-480.208 235.607 L-477.713 235.429 L-473.713 233.903 L-466.248 230.072 L-464.539 229.504 L-459.363 226.705 L-456.523 224.203 L-454.885 221.813 L-455.381 220.577 L-456.316 219.406 L-458.531 217.821 L-461.797 216.344 L-466.283 215.72 L-469.509 216.654 L-471.405 217.646 L-474.786 220.52 L-476.955 223.83 L-478.125 226.764 L-478.786 230.507 L-478.171 234.754 L-475.105 244.258 L-474.094 246.545 L-472.307 249.412 L-469.268 252.921 L-467.105 254.351 L-462.681 255.741 L-457.882 256.488 L-445.856 255.086 L-440.038 253.055 L-434.865 250.306 "/></g><g><path fill="none" stroke="#000000" stroke-width="6" stroke-linecap="round" stroke-linejoin="round" d="M-408.718 192.481 L-409.031 189.81 L-409.954 188.655 L-410.287 188.84 L-410.881 188.485 L-412.311 188.467 L-416.896 188.866 L-418.375 189.96 L-419.089 191.358 L-419.51 193.345 L-419.142 202.409 L-414.107 230.033 L-409.801 245.09 L-404.818 268.071 L-400.136 299.704 L-398.916 301.323 L-397.911 301.238 L-396.536 299.082 L-395.82 296.969 "/></g><g><path fill="none" stroke="#000000" stroke-width="6" stroke-linecap="round" stroke-linejoin="round" d="M-422.646 240.431 L-422.799 239.946 L-422.554 239.572 L-420.194 238.058 L-415.345 236.548 L-411.032 236.212 L-399.036 234.157 L-393.169 232.798 "/></g><g><path fill="none" stroke="#000000" stroke-width="6" stroke-linecap="round" stroke-linejoin="round" d="M-376.758 237.509 L-377 238.125 L-376.694 238.132 L-375.427 237.518 L-372.303 236.768 L-369.096 235.305 L-366.298 233.32 L-362.754 230.08 L-361.135 227.65 L-360.237 225.43 L-359.812 223.171 L-360.045 221.276 L-362.654 218.843 L-364.825 218.177 L-368.209 218.871 L-369.87 220.028 L-371.782 222.144 L-372.953 224.942 L-373.617 230.237 L-373.403 236.931 L-372.48 242.22 L-371.351 246.507 L-369.931 250.049 L-367.393 254.005 L-363.524 256.184 L-360.51 257.385 L-359.107 257.634 L-356.917 257.684 L-352.74 256.901 L-347.833 254.808 L-345.061 253.138 "/></g><g><path fill="none" stroke="#000000" stroke-width="6" stroke-linecap="round" stroke-linejoin="round" d="M-335.241 222.51 L-336.132 225.001 L-336.552 228.411 L-335.978 239.318 L-335.46 242.023 L-334.621 244.135 L-333.463 245.895 L-331.062 248.497 L-329.325 249.577 L-327.813 249.382 L-326.876 248.536 L-325.786 246.048 L-324.069 238.514 L-322.541 228.339 L-321.078 221.537 L-320.038 218.858 L-318.882 217.495 L-318.378 218.275 L-318.477 218.859 L-317.311 223.237 L-316.556 230.731 L-315.396 238.183 L-313.169 245.47 L-311.356 248.433 L-308.128 251.415 L-305.822 252 L-303.204 251.084 "/></g><g><path fill="none" stroke="#000000" stroke-width="6" stroke-linecap="round" stroke-linejoin="round" d="M-280.454 217.672 L-282.575 219.331 L-286.069 224.089 L-288.362 228.452 L-294.119 236.829 L-296.589 241.254 L-298.032 245.038 L-298.172 246.226 L-298.038 248.469 L-297.031 250.075 L-294.136 252.168 L-292.218 252.519 L-286.967 252.003 L-282.731 249.979 L-279.43 247.032 L-275.291 242.018 L-272.243 237.113 L-271.408 234.162 L-271.383 230.931 L-272.567 226.254 L-274.664 221.895 L-283.715 205.613 L-289.881 192.639 L-290.57 191.372 L-291.24 190.919 L-291.294 191.379 L-290.65 192.399 L-286.242 204.856 L-281.751 220.658 L-278.325 230.306 L-276.593 233.886 L-273.651 238.426 L-271.187 241.147 L-267.842 244.066 L-265.183 245.832 L-260.531 250.12 L-258.238 251.809 L-255.122 253.512 L-253.011 253.604 "/></g><g><path fill="none" stroke="#000000" stroke-width="6" stroke-linecap="round" stroke-linejoin="round" d="M-550.975 272.443 L-551.246 273.749 L-550.531 272.824 L-540.576 270.099 L-528.02 267.601 L-523.696 266.988 L-510.778 266.29 L-504.945 266.492 L-498.192 267.186 L-488.808 267.227 L-473.637 268.237 L-461.438 268.008 L-448.526 268.717 L-445.698 268.495 L-426.632 269.183 L-410.869 268.583 L-399.456 269.071 L-394.851 268.814 L-389.793 269.165 L-376.468 268.554 L-363.253 268.614 L-358.959 268.91 L-354.046 268.566 L-333.048 269.606 L-322.621 269.579 L-318.343 269.979 L-309.415 270.042 L-306.121 270.676 L-303.423 270.741 L-299.528 271.586 L-293.996 271.817 L-287.024 271.718 L-282.82 271.315 L-271.98 271.75 L-266.428 270.919 L-263.146 270.89 L-262.76 270.62 L-261.684 270.951 L-256.78 270.995 L-247.813 272.067 L-247.248 271.834 L-245.748 272.032 L-243.549 271.507 L-236.903 271.44 L-234.877 271.139 L-234.569 270.855 L-233.482 270.972 L-229.031 269.497 "/></g><g><path fill="none" stroke="#000000" stroke-width="6" stroke-linecap="round" stroke-linejoin="round" d="M-567.586 343.967 L-567.6 341.378 L-566.938 338.728 L-567.075 338.265 L-567.283 338.947 L-566.877 339.444 L-566.396 341.862 L-565.73 347.992 L-566.019 356.086 L-570.849 399.94 L-570.583 407.607 L-570.138 408.215 L-568.486 408.048 "/></g><g><path fill="none" stroke="#000000" stroke-width="6" stroke-linecap="round" stroke-linejoin="round" d="M-534.769 358.918 L-535.908 359.121 L-536.3 358.63 L-535.071 355.396 L-535.392 351.706 L-535.819 350.9 L-536.196 350.825 L-537.591 348.069 L-539.043 348.448 L-539.815 350.192 L-541.042 356.891 L-541.854 367.486 L-542.175 388.283 L-540.574 422.668 L-540.05 453.724 L-539.946 455.333 L-539.598 455.847 L-539.473 455.581 L-539.716 453.511 L-539.514 451.673 "/></g><g><path fill="none" stroke="#000000" stroke-width="6" stroke-linecap="round" stroke-linejoin="round" d="M-551.508 379.738 L-551.489 379.22 L-550.832 378.957 L-541.7 378.035 L-537.435 378.435 L-535.127 377.901 L-532.611 377.767 L-531.538 377.272 L-529.139 377.348 L-528.981 378.168 "/></g><g><path fill="none" stroke="#000000" stroke-width="6" stroke-linecap="round" stroke-linejoin="round" d="M-446.805 375.291 L-447.637 374.148 L-448.208 372.568 L-448.228 372.882 L-447.541 372.764 L-445.693 373.471 L-442.935 376.007 L-433.742 391.187 L-432.128 394.442 L-429.725 401.216 L-428.994 401.288 "/></g><g><path fill="none" stroke="#000000" stroke-width="6" stroke-linecap="round" stroke-linejoin="round" d="M-416.752 370.174 L-416.836 367.422 L-416.551 366.759 L-415.947 366.851 L-416.202 372.263 L-418.9 386.878 L-422.498 400.305 L-423.702 406.534 L-432.568 439.361 L-433.22 446.727 L-433.319 451.685 L-433.081 452.028 L-432.05 450.799 L-430.839 448.503 "/></g><g><path fill="none" stroke="#000000" stroke-width="6" stroke-linecap="round" stroke-linejoin="round" d="M-387.201 379.224 L-387.952 377.939 L-387.885 377.495 L-388.118 377.661 L-388.272 378.538 L-390.886 383.99 L-393.574 392.007 L-394.669 396.048 L-395.849 403.034 L-395.929 404.001 L-395.372 406.101 L-394.223 406.8 L-392.079 406.64 L-387.286 403 L-386.258 401.58 L-383.674 399.636 L-380.553 395.046 L-377.5 388.848 L-377.535 387.659 L-378.759 385.991 L-384.978 381.816 L-386.682 379.944 L-387.303 378.585 L-387.19 378.011 L-386.619 377.484 "/></g><g><path fill="none" stroke="#000000" stroke-width="6" stroke-linecap="round" stroke-linejoin="round" d="M-361.909 381.438 L-362.344 381.252 L-363.296 381.711 L-361.976 390.797 L-361.645 396.168 L-360.958 398.805 L-360.125 400.16 L-359.496 400.617 L-359.09 400.53 L-357.883 399.733 L-354.34 394.982 L-349.77 387.053 L-348.337 383.846 L-346.083 380.422 L-344.655 376.805 L-344.948 378.927 L-344.295 386.016 L-341.785 395.372 L-340.073 399.163 L-338.453 401.704 L-337.802 401.726 L-336.613 402.885 L-335.895 403.006 L-335.122 403.708 "/></g><g><path fill="none" stroke="#000000" stroke-width="6" stroke-linecap="round" stroke-linejoin="round" d="M-233.626 373.339 L-234.81 370.217 L-241.078 373.68 L-243.619 375.504 L-249.482 382.008 L-251.994 388.31 L-252.363 391.859 L-251.933 393.62 L-248.746 401.196 L-245.908 405.068 L-242.637 406.47 L-240.501 406.633 L-239.339 406.283 L-236.355 406.504 L-231.863 405.818 L-228.444 404.905 "/></g><g><path fill="none" stroke="#000000" stroke-width="6" stroke-linecap="round" stroke-linejoin="round" d="M-213.286 349.461 L-214.451 349.044 L-215.062 349.487 L-214.312 365.974 L-215.629 398.136 L-215.614 408.749 L-215.312 410.756 L-214.457 411.613 L-213.918 411.317 L-212.149 409.447 L-208.827 404.337 L-204.341 394.934 L-199.954 383.186 L-197.291 378.157 L-195.723 375.911 L-195.157 375.633 L-194.74 375.743 L-194.619 376.751 L-194.064 377.735 L-193.646 380.708 L-193.247 387.677 L-193.274 398.233 L-192.921 401.597 L-191.212 405.465 L-190.186 406.524 "/></g><g><path fill="none" stroke="#000000" stroke-width="6" stroke-linecap="round" stroke-linejoin="round" d="M-168.372 381.616 L-169.454 381.94 L-170.842 383.681 L-173.633 390.788 L-174.963 395.792 L-175.732 403.351 L-174.095 407.866 L-172.557 409.761 L-170.056 411.832 L-168.652 412.494 L-166.202 412.556 L-164.399 411.939 L-163.508 411.192 L-161.149 408.953 L-158.755 406.043 L-155.905 401.057 L-155.094 398.848 L-154.841 397.063 L-155.008 393.001 L-155.836 390.53 L-156.978 388.935 L-160.007 386.228 L-163.251 382.294 L-164.345 379.468 L-163.156 380.235 "/></g><g><path fill="none" stroke="#000000" stroke-width="6" stroke-linecap="round" stroke-linejoin="round" d="M-133.691 377.526 L-134.276 377.599 L-134.1 376.888 L-134.793 376.603 L-134.876 377.014 L-135.841 377.567 L-135.743 377.973 L-139.105 382.699 L-140.508 385.255 L-141.935 389.552 L-142.126 391.422 L-141.798 393.844 L-139.865 397.699 L-137.917 399.756 L-134.956 400.475 L-129.459 400.063 L-126.022 400.456 L-123.23 400.008 L-121.854 399.312 L-120.511 398.522 L-117.294 391.442 L-116.252 388.349 L-115.789 385.788 L-115.863 384.38 L-116.472 381.857 L-117.713 379.653 L-123.301 375.109 L-125.072 374.149 L-130.959 371.066 L-132.185 370.972 L-131.999 371.912 "/></g><g><path fill="none" stroke="#000000" stroke-width="6" stroke-linecap="round" stroke-linejoin="round" d="M-94.9957 374.543 L-97.4235 376.55 L-98.0998 376.778 L-99.4868 378.183 L-99.6124 378.851 L-98.3774 379.903 L-96.754 380.484 L-90.587 380.419 L-88.7755 380.777 L-87.0191 381.568 L-84.3312 383.798 L-83.4606 386.501 L-83.8112 388.833 L-84.4793 390.29 L-91.8544 400.47 L-94.0632 402.682 L-95.9796 405.767 L-95.9282 406.307 L-94.8417 405.303 "/></g><g><path fill="none" stroke="#000000" stroke-width="6" stroke-linecap="round" stroke-linejoin="round" d="M-65.5399 389.453 L-65.8088 388.298 L-64.2341 387.628 L-62.6163 386.219 L-59.9152 384.685 L-56.6121 382.162 L-53.3787 379.054 L-50.6483 375.738 L-50.1387 374.563 L-49.9934 372.522 L-50.749 370.586 L-52.4367 369.018 L-53.7808 368.964 L-55.1234 369.371 L-59.0414 371.791 L-63.8597 376.814 L-67.7729 381.963 L-69.4457 384.936 L-70.7109 389.098 L-70.6031 392.663 L-69.3439 395.971 L-68.185 397.715 L-65.452 400.185 L-58.7582 402.627 L-52.7213 404.094 L-36.8305 405.963 "/></g><g><path fill="none" stroke="#000000" stroke-width="6" stroke-linecap="round" stroke-linejoin="round" d="M74.0633 354.12 L71.5309 353.347 L70.7852 353.929 L70.8267 360.173 L70.2017 371.667 L70.1494 376.696 L70.846 386.691 L72.9727 400.677 L74.3463 406.537 L76.1583 409.386 L78.1725 410.029 L80.4554 408.696 L83.941 405.428 "/></g><g><path fill="none" stroke="#000000" stroke-width="6" stroke-linecap="round" stroke-linejoin="round" d="M59.7769 376.767 L58.4856 375.916 L61.1955 374.944 L69.7207 374.039 L82.2797 373.48 "/></g><g><path fill="none" stroke="#000000" stroke-width="6" stroke-linecap="round" stroke-linejoin="round" d="M99.2955 379.342 L98.2888 379.211 L97.2548 379.518 L95.8435 380.901 L94.0488 385.373 L92.5965 390.851 L93.1425 397.165 L93.733 398.963 L94.6879 400.326 L96.4119 401.108 L98.9708 401.051 L104.509 398.769 L108.287 396.683 L113.535 392.84 L115.902 390.668 L118.496 387.57 L118.807 386.662 L118.614 385.793 L115.914 382.57 L108.892 375.841 L107.036 373.115 L106.629 371.663 L106.937 371.743 "/></g><g><path fill="none" stroke="#000000" stroke-width="6" stroke-linecap="round" stroke-linejoin="round" d="M175.466 381.239 L175.05 380.79 L173.788 380.397 L173.642 381.082 L172.744 381.86 L171.711 382.27 L168.543 384.701 L165.739 386.389 L160.918 390.193 L158.833 393.239 L158.762 395.694 L159.613 397.895 L160.569 399.047 L161.586 399.674 L163.941 400.379 L168.241 399.892 L172.311 398.658 L174.873 396.899 L178.526 392.627 L181.01 388.229 L182.395 384.246 L183.025 379.102 L182.365 373.009 L178.01 360.802 L173.093 344.895 L173.623 347.806 L174.081 357.297 L174.847 364.586 L176.057 370.724 L179.148 380.753 L181.042 386.078 L183.162 390.621 L189.625 399.37 L191.036 400.488 L193.716 403.665 "/></g><g><path fill="none" stroke="#000000" stroke-width="6" stroke-linecap="round" stroke-linejoin="round" d="M204.074 386.685 L204.753 385.818 L209.951 383.536 L212.777 382.726 L217.563 379.956 L218.65 378.645 L218.897 377.725 L218.782 376.402 L217.655 374.189 L216.539 372.951 L214.761 371.902 L211.708 371.334 L209.419 371.702 L207.165 373.488 L206.562 374.321 L205.881 376.846 L204.305 380.084 L202.652 384.557 L201.756 389.691 L201.895 393.038 L202.81 397.198 L203.74 399.855 L205.703 402.706 L208.333 405.674 L210.272 407.07 L212.718 407.765 L218.426 408.304 L220.961 408.019 "/></g><g><path fill="none" stroke="#000000" stroke-width="6" stroke-linecap="round" stroke-linejoin="round" d="M245.885 338.581 L244.977 337.634 L245.399 336.403 L244.987 336.746 L243.834 336.374 L242.747 336.591 L239.808 338.363 L238.341 341.013 L237.625 347.372 L237.632 359.453 L238.328 376.277 L239.401 391.789 L241.575 411.982 L242.359 423.906 L242.347 438.098 L241.437 448.186 L241.682 450.948 L241.901 451.524 L242.194 451.047 L242.174 445.246 "/></g><g><path fill="none" stroke="#000000" stroke-width="6" stroke-linecap="round" stroke-linejoin="round" d="M228.108 381.778 L226.7 380.328 L227.234 381.124 L227.621 380.955 L231.182 381.821 L237.939 381.306 L239.427 380.819 L250.274 379.064 L252.73 379.304 "/></g><g><path fill="none" stroke="#000000" stroke-width="6" stroke-linecap="round" stroke-linejoin="round" d="M265.679 384.81 L265.63 384.185 L269.489 383.259 L271.738 382.03 L278.868 376.508 L281.163 373.395 L281.052 372.079 L279.895 371.141 L277.2 370.378 L274.946 370.162 L273.26 370.206 L272.203 370.653 L270.264 372.162 L267.986 374.831 L266.313 376.995 L265.131 379.167 L264.027 381.355 L262.9 386.295 L262.644 389.02 L263.304 393.058 L264.994 398.538 L266.56 401.072 L268.77 402.763 L271.513 403.704 L274.769 404.015 L277.835 403.626 L280.5 402.721 L291.195 396.976 "/></g><g><path fill="none" stroke="#000000" stroke-width="6" stroke-linecap="round" stroke-linejoin="round" d="M294.042 377.085 L292.294 377.457 L291.589 379.131 L291.522 381.972 L291.849 384.294 L293.125 388.895 L295.227 393.514 L296.893 398.637 L298.318 400.633 L299.655 401.015 L302.489 398.931 L304.331 397.114 L306.261 394.167 L309.183 388.16 L312.666 377.787 L313.448 376.079 L314.062 375.428 L314.614 375.308 L316.166 376.98 L316.142 381.081 L315.484 384.008 L315.133 389.682 L315.635 393.359 L317.392 399.608 L317.799 400.299 L320.729 402.633 L322.22 403.076 L323.662 402.846 "/></g><g><path fill="none" stroke="#000000" stroke-width="6" stroke-linecap="round" stroke-linejoin="round" d="M350.777 383.692 L351.015 382.157 L352.091 380.342 L351.705 379.807 L350.787 379.506 L348.616 380.036 L343.948 382.638 L339.315 386.011 L333.326 391.613 L331.424 394.78 L330.864 397.202 L331.162 399.602 L332.112 402.092 L335.427 406.515 L337.716 407.436 L344.022 407.306 L350.578 405.635 L356.379 402.205 L361.615 397.4 L363.911 393.31 L364.736 389.622 L364.305 385.918 L363.592 383.132 L358.507 368.986 L355.582 355.177 L353.243 338.786 L352.406 335.063 L351.426 333.189 L350.703 333.515 L348.715 338.595 L347.995 342.411 L347.901 347.542 L349.667 362.049 L352.047 372.508 L353.847 378.648 L358.631 390.869 L362.966 397.8 L365.307 399.481 L372.759 403.105 L374.453 403.663 L376.484 403.66 "/></g><g><path fill="none" stroke="#000000" stroke-width="6" stroke-linecap="round" stroke-linejoin="round" d="M398.543 396.933 L398.747 395.395 L400.718 395.375 L402.304 396.006 L402.527 397.542 L399.1 405.96 L393.374 416.798 L391.634 422.037 L391.768 422.451 L392.509 422.501 "/></g><g><path fill="none" stroke="#000000" stroke-width="6" stroke-linecap="round" stroke-linejoin="round" d="M-587.454 538.448 L-589.223 537.379 L-588.776 537.176 L-588.377 537.597 L-586.653 541.757 L-584.41 546.058 L-578.435 555.873 L-574.926 560.189 L-572.527 562.365 L-570.152 563.483 L-568.654 563.579 L-566.838 562.13 "/></g><g><path fill="none" stroke="#000000" stroke-width="6" stroke-linecap="round" stroke-linejoin="round" d="M-560.405 533.338 L-560.907 533.31 L-560.481 533.05 L-560.696 534.72 L-562.149 539.876 L-576.579 576.795 L-579.724 585.942 L-582.643 601.77 L-583.085 605.988 L-582.697 606.785 L-582.091 606.563 L-579.735 602.644 "/></g><g><path fill="none" stroke="#000000" stroke-width="6" stroke-linecap="round" stroke-linejoin="round" d="M-536.323 540.079 L-537.633 538.948 L-537.985 537.764 L-540.603 541.003 L-542.937 545.621 L-545.131 553.247 L-546.511 560.331 L-546.567 562.986 L-546.095 565.313 L-544.801 566.911 L-542.166 567.393 L-539.27 566.888 L-534.767 565.332 L-528.867 560.571 L-526.046 555.754 L-525.05 551.124 L-525.367 549.146 L-526.329 547.371 L-528.492 544.775 L-531.253 542.329 L-535.82 539.088 L-536.782 538.011 L-537.501 537.655 L-537.62 538.08 L-536.905 538.776 "/></g><g><path fill="none" stroke="#000000" stroke-width="6" stroke-linecap="round" stroke-linejoin="round" d="M-504.603 536.826 L-505.344 536.1 L-505.201 535.716 L-505.174 536.379 L-505.463 536.758 L-507.405 550.571 L-507.173 553.608 L-506.098 555.17 L-503.965 556.17 L-501.851 556.093 L-501.082 556.03 L-499.069 554.685 L-495.843 551.367 L-492.606 547.142 L-489.076 541.03 L-488.79 539.776 L-489.146 540.718 L-488.418 542.06 L-487.976 544.138 L-486.245 548.815 L-484.621 552 L-480.322 558.661 L-477.225 562.152 L-474.527 563.436 L-472.591 563.463 "/></g><g><path fill="none" stroke="#000000" stroke-width="6" stroke-linecap="round" stroke-linejoin="round" d="M-399.789 511.454 L-400.42 510.765 L-399.462 517.841 L-399.329 524.283 L-400.646 553.871 L-400.377 557.203 L-400.006 557.341 L-399.654 556.903 L-399.777 556.64 L-399.147 555.964 L-395.656 548.881 L-392.494 543.342 L-389.349 539.563 L-387.123 537.459 L-383.069 534.317 L-381.977 533.99 L-380.847 535.219 L-380.109 538.73 L-379.321 550.782 L-377.728 559.124 L-376.397 561.604 L-375.855 561.492 L-375.359 561.884 L-374.116 562.019 L-371.9 561.28 "/></g><g><path fill="none" stroke="#000000" stroke-width="6" stroke-linecap="round" stroke-linejoin="round" d="M-350.356 544.717 L-352.059 544.694 L-354.741 546.732 L-358.092 551.658 L-359.997 555.606 L-360.33 557.551 L-360.262 559.549 L-359.903 560.965 L-359.29 561.828 L-357.177 563.45 L-356.319 563.685 L-353.777 563.226 L-351.787 561.438 L-348.909 557.792 L-345.811 552.296 L-344.498 548.433 L-343.887 545.63 L-344.036 545.206 L-344.583 546.6 L-345.298 550.43 L-345.302 552.305 L-344.601 554.067 L-343.126 555.989 L-342.704 557.107 L-339.689 560.396 L-337.862 561.606 L-335.244 562.443 "/></g><g><path fill="none" stroke="#000000" stroke-width="6" stroke-linecap="round" stroke-linejoin="round" d="M-325.059 546.367 L-325.662 546.071 L-320.744 558.749 L-318.588 561.325 L-317.038 561.768 L-316.225 561.648 L-315.711 561.257 L-310.397 548.298 L-308.745 545.065 L-307.075 542.15 L-305.836 540.682 L-305.163 540.067 L-303.743 539.816 "/></g><g><path fill="none" stroke="#000000" stroke-width="6" stroke-linecap="round" stroke-linejoin="round" d="M-290.934 555.788 L-290.734 555.079 L-288.424 553.644 L-286.025 551.618 L-277.509 542.05 L-276.9 540.683 L-277.107 539.276 L-277.668 538.464 L-279.821 537.688 L-281.385 537.642 L-285.372 538.297 L-287.293 539.562 L-289.348 541.378 L-291.77 545.7 L-294.002 552.165 L-294.428 555.467 L-294.153 558.151 L-293.445 559.932 L-292.4 561.432 L-288.652 564.16 L-284.637 566.116 L-279.083 566.767 L-275.544 566.381 L-270.579 565.227 L-261.914 562.262 L-259.024 560.867 "/></g><g><path fill="none" stroke="#000000" stroke-width="6" stroke-linecap="round" stroke-linejoin="round" d="M-159.183 548.638 L-158.076 544.787 L-158.722 544.413 L-160.896 544.079 L-161.488 544.445 L-162.595 544.489 L-166.94 546.94 L-170.763 550.395 L-176.073 557.78 L-176.779 559.324 L-177.345 561.792 L-176.841 564.019 L-174.581 565.282 L-173.347 565.491 L-170.807 565.284 L-168.862 564.589 L-166.76 563.294 L-162.314 559.644 L-160.154 556.961 L-157.539 552.303 L-155.969 548.167 L-155.681 546.196 L-155.644 546.605 L-155.99 546.875 L-153.656 556.139 L-150.144 563.417 L-147.276 567.447 L-144.87 569.556 "/></g><g><path fill="none" stroke="#000000" stroke-width="6" stroke-linecap="round" stroke-linejoin="round" d="M-49.6066 514.857 L-50.4407 514.579 L-50.3546 514.21 L-50.2834 515.56 L-51.0513 517.29 L-57.4529 526.554 L-58.8196 529.79 L-59.1552 531.51 L-59.2381 534.216 L-58.9148 535.312 L-57.7709 536.408 L-55.8177 536.66 L-44.6105 534.763 L-36.2338 534.273 L-31.8275 535.7 L-30.6169 537.083 L-30.1454 539.183 L-30.9228 542.207 L-33.1279 546.851 L-36.5928 553.078 L-39.9642 558.207 L-43.814 562.137 L-46.3422 562.394 L-47.53 561.987 L-48.0244 561.068 "/></g><g><path fill="none" stroke="#000000" stroke-width="6" stroke-linecap="round" stroke-linejoin="round" d="M-50.5329 519.737 L-51.7642 519.261 L-51.5115 518.793 L-50.7139 519.288 L-49.8116 519.284 L-44.5114 518.086 L-38.7613 517.526 L-33.3483 516.456 L-29.4865 516.394 L-26.3954 516.858 "/></g><g><path fill="none" stroke="#000000" stroke-width="6" stroke-linecap="round" stroke-linejoin="round" d="M16.1945 527.303 L15.5595 526.766 L14.9106 526.919 L14.0148 526.216 L12.9885 526.124 L11.7712 526.616 L8.52899 529.428 L4.73016 534.878 L0.653625 542.501 L-0.511963 547.153 L-0.831177 553.11 L-0.204407 556.362 L0.504578 557.91 L1.79803 559.622 L3.71747 560.674 L6.25671 561.177 L12.1152 561.486 L17.4572 559.919 L19.8937 558.578 L22.0852 556.732 L26.4948 550.344 L27.4362 548.326 L28.351 545.032 L28.1649 542.134 L26.7991 539.538 L25.6299 538.119 L20.4113 533.97 L15.9658 531.756 L15.0616 531.019 L13.3003 530.454 L12.6512 529.873 L8.72858 530.039 "/></g><g><path fill="none" stroke="#000000" stroke-width="6" stroke-linecap="round" stroke-linejoin="round" d="M77.4964 523.217 L76.9198 520.122 L75.2744 521.16 L71.8835 524.635 L67.2292 530.844 L59.7455 544.105 L58.0366 549.069 L57.676 554.435 L58.3212 561.266 L57.8227 562.944 L56.9111 564.273 "/></g><g><path fill="none" stroke="#000000" stroke-width="6" stroke-linecap="round" stroke-linejoin="round" d="M50.2725 507.846 L48.6686 507.286 L47.0294 508.168 L45.3066 511.242 L41.3 515.866 L40.0458 518.568 L40.2059 519.929 L41.0904 520.864 L43.6839 521.089 L45.5224 520.291 L49.3239 517.412 L51.1239 515.794 L52.1708 514.313 L53.6563 511.942 L53.7399 511.157 L53.5426 510.636 L52.0464 509.801 L49.1 509.272 L48.2446 509.494 "/></g><g><path fill="none" stroke="#000000" stroke-width="6" stroke-linecap="round" stroke-linejoin="round" d="M82.9982 559.201 L82.5774 560 L82.6089 559.205 L82.2989 559.05 L81.4978 559.333 L81.247 559.808 L80.9272 560.592 L81.3135 562.753 L82.6959 566.425 L85.4722 569.108 L87.2538 569.465 L88.7792 569.345 L91.967 568.388 L93.8227 567.519 L97.7507 563.676 L99.0223 561.354 L98.4284 560.161 L95.0121 558.988 L91.0128 557.136 L88.6064 556.944 L87.5477 557.482 L86.019 557.562 L83.2519 559.004 L82.0932 560.248 "/></g><g><path fill="none" stroke="#000000" stroke-width="6" stroke-linecap="round" stroke-linejoin="round" d="M186.683 539.737 L187.179 537.48 L187.103 537.965 L186.688 537.536 L185.418 537.593 L181.99 538.715 L176.742 541.767 L175.04 543.716 L174.187 544.24 L171.524 548.499 L170.418 551.951 L170.549 555.34 L171.305 557.721 L172.37 559.68 L174.087 561.093 L176.38 562.339 L178.888 562.807 L183.964 562.83 L190.029 562.455 L196.308 560.457 L197.345 559.883 L197.972 559.011 "/></g><g><path fill="none" stroke="#000000" stroke-width="6" stroke-linecap="round" stroke-linejoin="round" d="M204.092 507.775 L202.696 505.892 L202.35 505.842 L202.639 506.679 L202.587 517.873 L204.562 536.826 L204.993 551.867 L205.854 555.779 L207.128 558.245 L207.358 559.438 L210.425 552.952 L214.434 542.666 L216.02 539.701 L218.579 535.866 L220.261 534.356 L222.168 533.454 L222.811 533.87 L223.554 535.092 L224.635 537.536 L227.063 546.126 L230.248 555.42 L230.895 558.784 L231.71 560.957 L233.43 560.162 L234.839 558.787 "/></g><g><path fill="none" stroke="#000000" stroke-width="6" stroke-linecap="round" stroke-linejoin="round" d="M259.091 535.342 L257.595 535.483 L257.542 536.03 L256.059 538.139 L250.214 544.538 L248.703 546.825 L247.971 549.048 L248.09 553.74 L249.25 557.417 L250.596 558.538 L251.59 558.667 L252.14 558.569 L253.87 557.248 L256.96 554.173 L261.436 547.289 L262.395 543.022 L262.476 540.285 L261.754 537.816 L260.841 535.994 L260.613 536.077 L260.116 535.457 L259.305 538.681 L259.405 541.625 L260.325 544.456 L263.309 550.067 L265.682 552.857 L269.37 555.675 L272.581 558.73 L273.695 559.218 "/></g><g><path fill="none" stroke="#000000" stroke-width="6" stroke-linecap="round" stroke-linejoin="round" d="M279.572 540.127 L278.648 540.814 L279.389 542.028 L280.421 554.793 L281.923 558.76 L283.409 560.717 L283.823 560.691 L284.826 561.432 L286.153 561.026 L287.457 559.748 L293.336 552.588 L298.413 545.045 L302.848 536.469 L304.219 534.606 L303.589 535.867 L303.147 540.713 L302.781 556.239 L303.979 562.96 L305.105 563.908 L306.364 564.133 L307.434 563.866 "/></g><g><path fill="none" stroke="#000000" stroke-width="6" stroke-linecap="round" stroke-linejoin="round" d="M336.967 538.824 L335.276 539.084 L334.804 538.572 L334.776 538.928 L334.494 538.766 L333.832 539.113 L329.953 542.676 L326.471 546.87 L325.442 549.115 L325.068 551.519 L325.047 553.987 L325.565 557.581 L325.908 558.504 L327.888 560.828 L329.436 561.65 L331.644 562.245 L336.111 562.746 L343.167 562.397 L344.563 561.967 "/></g><g><path fill="none" stroke="#000000" stroke-width="6" stroke-linecap="round" stroke-linejoin="round" d="M359.903 550.411 L360.413 550.205 L360.755 550.81 L366.231 548.951 L370.931 546.414 L374.364 544 L375.267 542.462 L375.475 541.384 L374.348 539.124 L373.87 538.621 L372.136 537.874 L369.853 538.109 L367.217 539.41 L361.015 545.173 L359.075 548.341 L358.971 551.679 L359.93 554.978 L362.715 561.087 L364.418 563.513 L367.555 566.056 L369.955 567.169 L371.96 567.843 L378.272 568.975 L382.709 567.878 L388.559 565.595 L394.587 561.556 "/></g><g><path fill="none" stroke="#000000" stroke-width="6" stroke-linecap="round" stroke-linejoin="round" d="M485.971 513.646 L485.124 513.521 L486.499 525.34 L486.565 528.737 L486.489 538.821 L485.564 552.791 L485.602 557.594 L486.71 563.151 L488.263 567.2 L490.32 568.61 L491.056 568.217 L491.367 568.566 L493.081 568.759 L496.741 567.322 L503.005 563.437 L509.342 558.198 L510.278 557.125 L510.403 556.45 "/></g><g><path fill="none" stroke="#000000" stroke-width="6" stroke-linecap="round" stroke-linejoin="round" d="M469.974 534.567 L470.467 533.756 L471.274 533.333 L473.045 532.796 L476.316 532.786 L477.847 532.418 L482.83 530.875 L493.439 526.061 L492.083 527.125 "/></g><g><path fill="none" stroke="#000000" stroke-width="6" stroke-linecap="round" stroke-linejoin="round" d="M545.316 535.762 L545.118 533.63 L544.694 533.639 L539.364 537.672 L537.417 540.154 L535.492 543.441 L532.129 551.153 L530.451 557.658 L530.304 559.816 L532.826 562.619 L535.397 564.83 L538.185 565.543 L541.078 565.486 L543.653 564.92 L549.095 562.823 L556.642 557.597 L558.259 556.211 L560.771 553.248 L561.863 550.254 L561.641 547.5 L559.59 543.839 L556.504 539.907 L549.85 533.613 L548.458 533.036 L547.623 533.225 L545.193 534.755 L542.566 537.058 "/></g><g><path fill="none" stroke="#000000" stroke-width="6" stroke-linecap="round" stroke-linejoin="round" d="M-588.157 687.927 L-588.716 687.59 L-588.515 687.341 L-588.178 688.132 L-587.194 695.165 L-586.272 714.347 L-584.665 723.836 L-584.225 725.413 L-583.381 726.88 L-582.969 727.233 L-582.607 726.943 L-580.657 722.66 L-575.965 706.002 L-574.238 694.6 L-573.38 690.778 L-571.933 686.617 L-571.057 685.026 L-570.117 684.202 L-569.293 685.914 L-567.395 692.273 L-565.706 700.047 L-564.047 711.124 L-562.742 715.191 L-562.057 716.794 L-560.24 719.047 L-557.926 720.57 L-554.703 721.593 "/></g><g><path fill="none" stroke="#000000" stroke-width="6" stroke-linecap="round" stroke-linejoin="round" d="M-539.138 692.391 L-538.803 692.375 L-538.672 692.968 L-539.081 692.954 L-539.113 693.693 L-538.438 698.69 L-538.034 711.545 L-537.148 720.999 L-537.11 724.954 L-536.789 727.974 L-535.951 730.63 L-534.922 731.177 L-534.636 730.852 L-534.544 731.115 L-533.499 731.295 L-532.496 730.636 L-531.349 728.428 L-529.096 722.206 L-526.128 710.638 L-523.532 704.274 L-523.022 701.379 L-522.675 701.347 L-522.845 701.18 L-521.004 704.56 L-518.269 713.902 L-516.163 718.162 L-513.318 726.565 L-511.362 730.511 L-509.289 732.647 L-506.397 734.035 L-504.259 734.568 L-501.931 733.844 "/></g><g><path fill="none" stroke="#000000" stroke-width="6" stroke-linecap="round" stroke-linejoin="round" d="M-493.972 659.181 L-495.303 658.989 L-494.209 661.558 L-493.354 665.6 L-492.033 673.545 L-491.004 683.67 L-490.389 695.203 L-490.576 715.208 L-490.102 724.5 L-488.91 731.161 L-487.804 730.086 L-486.243 727.782 "/></g><g><path fill="none" stroke="#000000" stroke-width="6" stroke-linecap="round" stroke-linejoin="round" d="M-475.19 661.41 L-474.026 673.347 L-472.401 683.798 L-470.703 712.262 L-471.379 724.842 L-471.017 726.238 L-470.166 726.872 "/></g><g><path fill="none" stroke="#000000" stroke-width="6" stroke-linecap="round" stroke-linejoin="round" d="M-452.96 698.284 L-451.926 699.774 L-451.191 703.587 L-450.724 715.774 L-449.157 728.451 L-448.826 728.648 L-448.445 727.647 L-447.929 727.431 "/></g><g><path fill="none" stroke="#000000" stroke-width="6" stroke-linecap="round" stroke-linejoin="round" d="M-453.89 678.268 L-455.054 677.492 L-454.728 677.262 L-454.42 677.562 L-450.637 674.803 "/></g><g><path fill="none" stroke="#000000" stroke-width="6" stroke-linecap="round" stroke-linejoin="round" d="M-404.386 667.034 L-405.44 666.5 L-405.891 665.332 L-407.219 665.314 L-409.095 664.692 L-409.778 664.854 L-412.15 666.333 L-414.056 669.667 L-416.723 679.472 L-419.385 697.816 L-421.645 724.221 L-421.772 738.353 L-421.044 746.267 L-418.336 766.164 L-417.206 777.964 L-416.879 783.117 L-417.091 783.763 L-416.924 781.795 "/></g><g><path fill="none" stroke="#000000" stroke-width="6" stroke-linecap="round" stroke-linejoin="round" d="M-434.787 706.758 L-434.676 705.094 L-434.216 703.917 L-433.217 702.678 L-430.509 702.156 L-428.845 702.397 L-427.031 703.11 L-425.647 704.167 L-418.624 706.449 L-414.267 707.377 L-411.504 707.594 L-410.409 708.085 L-409.093 708.089 "/></g><g><path fill="none" stroke="#000000" stroke-width="6" stroke-linecap="round" stroke-linejoin="round" d="M-393.762 704.131 L-394.829 703.15 L-394.954 703.324 L-394.851 702.913 L-392.361 704.375 L-390.16 707.392 L-382.555 724.177 L-380.5 727.466 L-378.66 729.54 L-376.677 729.354 L-376.052 728.726 L-374.151 724.324 "/></g><g><path fill="none" stroke="#000000" stroke-width="6" stroke-linecap="round" stroke-linejoin="round" d="M-368.093 694.106 L-368.788 693.84 L-368.912 694.249 L-370.062 708.171 L-371.827 717.986 L-376.65 735.35 L-379.139 746.296 L-381.947 756.65 L-383.578 765.278 L-385.504 780.313 L-385.764 789.768 L-385.52 792.399 L-385.112 793.124 L-384.251 792.195 L-384.127 791.318 L-382.56 789.124 "/></g><g><path fill="none" stroke="#000000" stroke-width="6" stroke-linecap="round" stroke-linejoin="round" d="M-291.247 705.598 L-289.709 704.477 L-289.255 704.638 L-287.3 702.688 L-285.674 702.616 L-282.448 703.092 L-280.211 702.82 L-278.056 702.135 L-277.41 701.415 L-275.517 700.623 L-273.708 697.85 L-272.941 695.258 L-273.315 692.61 L-275.064 690.918 L-279.326 689.554 L-281.998 689.761 L-283.174 690.219 L-284.31 691.181 L-285.125 692.436 L-287.568 697.39 L-290.42 705.46 L-292.185 713.247 L-292.612 717.963 L-292.509 720.966 L-290.971 726.186 L-289.865 728.532 L-287.525 731.307 L-284.707 732.552 L-281.415 732.878 L-279.889 732.775 L-273.151 731.113 L-269.531 729.365 L-267.789 727.882 L-262.092 724.684 "/></g><g><path fill="none" stroke="#000000" stroke-width="6" stroke-linecap="round" stroke-linejoin="round" d="M-249.717 695.526 L-250.154 694.75 L-250.747 695.285 L-250.96 697.036 L-250.688 697.682 L-250.066 707.468 L-249.423 711.549 L-248.576 714.419 L-246.87 718.239 L-244.633 721.26 L-244.164 722.505 L-242.587 723.521 L-240.191 726.077 L-239.787 725.963 L-240.094 725.649 L-240.053 725.107 L-238.319 707.826 L-236.194 701.731 L-234.957 699.404 L-229.811 692.105 L-229.215 691.773 L-228.985 691.973 "/></g><g><path fill="none" stroke="#000000" stroke-width="6" stroke-linecap="round" stroke-linejoin="round" d="M-221.652 714.533 L-220.444 713.813 L-214.311 708.358 L-207.91 703.568 L-205.511 700.222 L-204.565 697 L-204.638 695.425 L-205.017 694.497 L-207.734 691.301 L-210.046 690.361 L-211.444 690.502 L-213.169 691.535 L-216.29 694.83 L-220.631 703.628 L-223.409 711.571 L-224.674 716.404 L-224.866 721.189 L-224.029 725.06 L-222.967 727.98 L-221.624 729.193 L-219.666 730.027 L-217.06 729.953 L-215.209 729.391 L-211.79 727.72 L-204.14 722.831 L-201.716 720.87 "/></g><g><path fill="none" stroke="#000000" stroke-width="6" stroke-linecap="round" stroke-linejoin="round" d="M-196.551 704.891 L-196.925 705.387 L-196.964 707.044 L-194.296 718.777 L-194.082 721.99 L-193.28 723.973 L-192.597 724.377 L-186.807 708.541 L-184.124 703.367 L-182.878 701.77 L-179.891 698.985 L-177.186 697.857 L-173.791 697.549 L-170.512 697.912 L-169.441 698.454 L-169.057 699.064 "/></g><g><path fill="none" stroke="#000000" stroke-width="6" stroke-linecap="round" stroke-linejoin="round" d="M-168.118 703.819 L-167.164 708.309 L-165.279 712.649 L-160.461 722.02 L-156.541 728.134 L-153.994 729.557 L-151.844 729.552 L-150.544 728.726 L-149.25 727.262 L-146.271 722.177 L-140.658 710.005 "/></g><g><path fill="none" stroke="#000000" stroke-width="6" stroke-linecap="round" stroke-linejoin="round" d="M-136.241 688.786 L-136.53 688.319 L-137.015 688.291 L-137.549 689.48 L-139.761 696.107 L-142.839 703.683 L-155.011 740.931 L-157.299 749.91 L-161.287 774.123 L-161.753 780.489 L-161.433 781.516 L-161.052 781.686 L-160.138 781.272 "/></g><g><path fill="none" stroke="#000000" stroke-width="6" stroke-linecap="round" stroke-linejoin="round" d="M-52.1375 696.896 L-52.2109 695.743 L-55.5764 696.956 L-56.7579 697.767 L-57.9706 699.096 L-62.6821 706.358 L-67.6499 715.539 L-68.9171 719.585 L-68.8411 723.266 L-67.9022 724.68 L-66.756 725.405 L-64.2892 725.287 L-60.8308 723.49 L-58.7767 721.978 L-56.8084 719.965 L-52.2574 714.008 L-48.8835 707.734 L-47.9982 705.458 L-46.8254 698.01 L-46.9112 696.497 L-47.4539 695.526 L-48.812 697.491 L-48.9953 699.984 L-48.1302 709.826 L-46.2813 722.716 L-45.0353 726.831 L-43.5646 728.708 L-42.3754 728.636 L-39.9775 727.27 "/></g><g><path fill="none" stroke="#000000" stroke-width="6" stroke-linecap="round" stroke-linejoin="round" d="M-22.7869 664.146 L-23.0635 663.877 L-23.1613 665.615 L-22.8716 675.564 L-23.0393 682.214 L-24.6048 695.762 L-25.0374 702.795 L-24.412 715.871 L-23.5275 721.708 L-21.9895 724.365 L-19.8495 724.224 L-18.12 722.605 "/></g><g><path fill="none" stroke="#000000" stroke-width="6" stroke-linecap="round" stroke-linejoin="round" d="M-3.9295 673.374 L-4.19318 673.366 L-4.87201 678.272 L-5.75635 694.226 L-7.03137 705.904 L-7.12823 721.939 L-6.29181 725.553 L-5.49194 726.696 L-4.1958 727.685 L-0.560913 728.219 L0.642212 727.779 L1.57086 726.991 "/></g><g><path fill="none" stroke="#000000" stroke-width="6" stroke-linecap="round" stroke-linejoin="round" d="M-31.4245 692.53 L-30.8627 691.469 L-28.3553 690.658 L-22.0974 690.104 L-17.6576 689.269 L-12.0588 689.421 L-10.1788 689.132 L-6.57916 689.994 L3.39948 691.751 L4.20587 691.672 "/></g><g><path fill="none" stroke="#000000" stroke-width="6" stroke-linecap="round" stroke-linejoin="round" d="M27.5886 700.972 L26.5909 699.561 L26.8928 697.791 L26.8074 698.211 L24.8919 698.313 L21.0298 701.526 L17.9822 704.926 L14.1317 711.045 L12.3587 715.013 L11.693 719.309 L12.2747 721.503 L12.8853 722.429 L14.978 723.634 L16.2868 723.738 L18.8074 723.297 L24.1392 719.981 L29.6096 714.696 L32.9383 709.91 L33.7189 706.986 L32.97 703.97 L31.5286 701.056 L31.5923 702.274 L30.5093 704.927 L29.8698 709.576 L29.9242 714.27 L30.388 717.433 L31.1693 718.873 L33.6525 721.919 L34.5812 722.528 L36.2797 724.58 L37.4302 724.736 "/></g><g><path fill="none" stroke="#000000" stroke-width="6" stroke-linecap="round" stroke-linejoin="round" d="M63.8359 695.807 L63.9532 693.993 L64.4008 693.472 L64.8094 693.615 L59.1254 702.524 L55.3004 710.122 L52.1091 719.324 L51.8063 721.79 L52.1681 724.027 L53.0835 725.723 L55.2244 727.169 L57.0146 727.525 L60.0795 727.534 L62.2883 726.849 L68.8376 723.75 L71.0847 723.049 L71.6495 722.568 "/></g><g><path fill="none" stroke="#000000" stroke-width="6" stroke-linecap="round" stroke-linejoin="round" d="M86.1442 668.999 L85.555 669.549 L85.0933 670.89 L84.5047 677.435 L85.3109 693.857 L85.4045 720.767 L86.1907 726.225 L86.6832 726.769 L88.1646 727.136 L89.5643 726.9 L90.4172 726.271 L91.3506 724.348 L91.7441 721.417 L92.8106 718.17 L95.1068 713.31 L101.047 704.419 L103.759 699.494 L106.592 695.156 L112.517 688.452 L112.238 688.598 L112.284 689.442 L112.194 689.174 L111.243 689.952 L109.99 691.941 L108.242 693.714 L105.045 697.957 L101.5 704.338 L99.3992 711.835 L99.6843 714.615 L100.493 716.758 L100.924 717.744 L102.486 719.18 L106.565 720.918 L114.324 722.989 L119.046 724.845 L120.219 724.874 L122.422 725.932 L124.592 726.248 L125.178 727.015 L126.885 725.954 "/></g><g><path fill="none" stroke="#000000" stroke-width="6" stroke-linecap="round" stroke-linejoin="round" d="M223.795 694.355 L223.899 693.382 L223.584 692.299 L222.12 691.155 L221.662 691.244 L218.144 692.856 L213.552 697.517 L210.266 702.297 L209.434 704.28 L208.54 708.336 L208.67 710.077 L209.361 711.637 L212.025 713.047 L213.724 713.526 L217.099 713.344 L222.568 710.508 L227.26 706.885 L231.398 702.294 L234.165 697.551 L234.85 695.597 L234.987 694.256 L234.511 692.926 L233.708 691.599 L232.693 690.939 L232.135 690.837 L231.02 692.612 L230.123 695.931 L230.201 699.808 L231.303 704.371 L233.459 708.924 L239.594 719.691 L241.739 721.776 L242.756 722.204 L243.845 722.132 "/></g><g><path fill="none" stroke="#000000" stroke-width="6" stroke-linecap="round" stroke-linejoin="round" d="M266.397 696.409 L257.674 704.327 L255.806 706.872 L254.128 710.89 L254.074 714.168 L254.683 716.087 L255.229 716.731 L256.553 717.42 L258.134 717.574 L258.992 717.211 L260.38 717.378 L262.471 717.06 L264.052 716.49 L265.744 715.268 L269.028 712.147 L270.788 708.984 L271.159 706.509 L271.083 704.371 L270.172 699.413 L269.701 701.659 L269.919 707.599 L270.682 713.796 L274.141 731.586 L274.615 736.409 L274.385 742.46 L272.65 748.365 L269.455 755.345 L265.771 761.145 L263.598 763.28 L261.657 764.504 L259.401 764.997 L257.224 764.11 L255.393 762.245 L254.768 760.951 L254.484 759.187 L254.652 756.453 L255.967 750.892 L256.651 749.21 "/></g><g><path fill="none" stroke="#000000" stroke-width="6" stroke-linecap="round" stroke-linejoin="round" d="M304.233 708.015 L300.875 706.555 L300.031 706.59 L299.653 706.221 L297.626 706.381 L294.141 707.5 L290.528 709.816 L287.445 712.321 L285.218 715.134 L284.281 717.43 L284.06 719.469 L284.268 721.047 L285.033 722.228 L286.29 722.801 L289.479 723.219 L295.199 721.854 L298.562 719.714 L302.542 716.367 L306.286 712.062 L307.841 709.704 L309.373 706.513 L309.766 703.096 L308.835 699.874 L308.36 700.285 L308.116 701.749 L306.384 703.404 L305.555 705.703 L305.799 709.845 L306.816 714.186 L308.071 717.324 L310.451 721.688 L312.316 723.179 L315.841 725.125 L317.104 725.255 "/></g><g><path fill="none" stroke="#000000" stroke-width="6" stroke-linecap="round" stroke-linejoin="round" d="M329.929 704.595 L329.229 706.41 L329.806 713.508 L328.997 722.006 "/></g><g><path fill="none" stroke="#000000" stroke-width="6" stroke-linecap="round" stroke-linejoin="round" d="M330.551 676.898 L329.272 676.017 L329.495 675.684 L331.846 677.081 L334.338 677.603 "/></g><g><path fill="none" stroke="#000000" stroke-width="6" stroke-linecap="round" stroke-linejoin="round" d="M342.402 703.908 L342.025 706.574 L342.722 710.862 L343.472 711.935 L347.266 715.094 L348.58 714.497 L350.406 712.27 L359.136 698.061 L361.102 696.012 L362.126 695.56 L362.599 695.717 L362.767 696.238 L361.142 703.61 L360.65 707.254 L360.639 709.936 L361.637 713.805 L362.895 716.695 L365.205 718.975 L368.227 719.89 L371.528 719.283 "/></g><g><path fill="none" stroke="#000000" stroke-width="6" stroke-linecap="round" stroke-linejoin="round" d="M403.074 690.873 L398.665 693.148 L396.372 695.591 L393.753 697.747 L391.11 700.755 L390.209 702.422 L389.428 705.186 L389.695 706.802 L390.754 707.467 L399.417 706.436 L402.614 705.595 L403.791 704.926 L406.942 704.829 L408.621 705.719 L409.214 706.594 L409.321 708.724 L407.783 713.063 L406.057 715.745 L401.684 720.844 L398.85 725.664 L397.926 726.738 L397.96 727.147 "/></g><g><path fill="none" stroke="#000000" stroke-width="6" stroke-linecap="round" stroke-linejoin="round" d="M430.042 669.267 L429.508 669.192 L428.889 672.2 L427.88 675.112 L425.316 697.252 L424.948 706.804 L425.357 718.704 L426.163 722.89 L427.339 725.915 L428.801 728.419 L429.948 729.701 L431.504 729.95 L433.069 729.541 L436.441 727.304 L437.283 726.35 "/></g><g><path fill="none" stroke="#000000" stroke-width="6" stroke-linecap="round" stroke-linejoin="round" d="M421.934 690.798 L423.944 690.148 L425.178 690.241 L433.155 688.338 L443.355 685.262 L446.821 684.761 "/></g><g><path fill="none" stroke="#000000" stroke-width="6" stroke-linecap="round" stroke-linejoin="round" d="M502.281 701.587 L502.096 701.901 L502.017 701.358 L502.618 701.196 L503.267 701.907 L508.441 714.206 L510.269 717.655 L515.878 724.763 L517.421 725.413 "/></g><g><path fill="none" stroke="#000000" stroke-width="6" stroke-linecap="round" stroke-linejoin="round" d="M527.915 698.551 L527.072 698.389 L526.307 699.45 L521.785 711.299 L519.354 718.147 L513.1 739.004 L512.085 741.408 L508.014 755.762 L507.632 760.825 L508.433 763.745 L507.857 765.771 L507.545 765.831 L507.411 765.498 "/></g><g><path fill="none" stroke="#000000" stroke-width="6" stroke-linecap="round" stroke-linejoin="round" d="M551.592 697.569 L551.048 698.225 L548.52 699.667 L547.52 700.913 L546.747 703.456 L546.153 707.472 L546.307 709.194 L547.871 714.856 L549.869 718.162 L551.847 719.303 L552.678 719.525 L554.754 719.108 L561.553 715.119 L562.638 715.252 L563.119 714.586 L566.852 712.262 L568.959 709.936 L568.422 709.124 L563.471 706.148 L558.393 701.38 L556.305 698.737 L555.414 698.213 L555.8 698.715 "/></g><g><path fill="none" stroke="#000000" stroke-width="6" stroke-linecap="round" stroke-linejoin="round" d="M578.371 693.791 L577.941 694.246 L578.714 695.212 L579.441 695.573 L579.913 697.772 L579.588 701.41 L577.815 710.986 L578.333 715.471 L579.328 717.139 L579.779 717.386 L580.205 716.949 L580.423 717.295 L581.236 717.457 L584.101 716.182 L588.82 712.38 L592.873 708.124 L594.008 707.342 L595.527 705.218 L597.594 703.162 L599.369 700.275 L600.634 696.978 L601.42 693.267 L601.148 694.037 L601.37 707.018 L602.538 714.629 L604.176 718.663 L604.682 718.893 L605.621 720.161 L606.911 720.891 L608.353 720.109 "/></g><g><path fill="none" stroke="#000000" stroke-width="6" stroke-linecap="round" stroke-linejoin="round" d="M619.292 720.247 L618.919 720.263 L619.148 720.074 L619.441 720.553 L619.522 722.868 "/></g><g><path fill="none" stroke="#000000" stroke-width="6" stroke-linecap="round" stroke-linejoin="round" d="M-554.654 811.727 L-555.309 811.449 L-555.225 811.22 L-554.533 811.409 L-554.273 811.751 L-553.837 814.479 L-553.881 827.073 L-552.85 836.104 L-552.301 844.37 L-552.089 869.389 L-551.939 870.71 L-551.301 871.687 L-550.237 872.129 L-550.178 871.283 "/></g><g><path fill="none" stroke="#000000" stroke-width="6" stroke-linecap="round" stroke-linejoin="round" d="M-589.059 810.016 L-589.178 809.756 L-589.623 810.051 L-587.265 809.517 L-584.578 809.497 L-570.647 807.495 L-551.071 805.507 L-547.437 805.565 L-542.163 806.5 L-537.45 806.825 L-532.777 806.264 L-532.046 805.654 L-530.686 805.729 L-531.355 806.617 L-531.429 807.007 L-531.072 806.661 L-531.065 806.953 "/></g><g><path fill="none" stroke="#000000" stroke-width="6" stroke-linecap="round" stroke-linejoin="round" d="M-513.797 804.216 L-514.32 803.795 L-514.281 803.398 L-514.465 803.667 L-514.142 805.479 L-514.091 813.868 L-512.994 833.054 L-513.441 852.575 L-514.589 865.245 L-514.649 870.558 L-514.372 871.814 L-513.939 872.812 L-513.634 872.683 L-513.682 871.472 L-512.553 864.254 L-510.778 858.203 L-507.847 850.884 L-505.015 845.478 L-503.352 844.121 L-501.29 843.159 L-500.726 843.344 L-499.584 844.738 L-498.573 847.614 L-497.442 852.279 L-495.48 865.998 L-493.917 870.457 L-492.503 873.541 L-491.846 873.899 L-490.734 873.735 L-489.604 872.732 "/></g><g><path fill="none" stroke="#000000" stroke-width="6" stroke-linecap="round" stroke-linejoin="round" d="M-478.413 858.19 L-479.233 858.043 L-476.041 856.354 L-472.9 853.717 L-469.567 849.266 L-468.006 846.357 L-467.832 845.114 L-469.339 842.311 L-470.431 841.079 L-472.02 841.641 L-472.848 842.575 L-477.238 852.979 L-477.956 855.792 L-478.301 859.254 L-478.069 861.635 L-477.42 863.649 L-475.815 865.861 L-474.448 866.613 L-471.09 867.489 L-468.654 867.315 L-467.504 866.922 L-465.199 866.939 L-463.363 866.403 L-459.413 866.468 L-455.57 864.591 "/></g><g><path fill="none" stroke="#000000" stroke-width="6" stroke-linecap="round" stroke-linejoin="round" d="M-443.059 843.83 L-445.219 845.247 L-446.717 847.139 L-448.177 850.103 L-447.103 860.811 L-446.221 866.298 L-444.476 873.473 L-442.934 877.671 L-442.077 877.729 L-441.786 876.954 L-437.266 852.96 L-436.384 849.565 L-435.079 846.399 L-433.279 844.199 L-431.526 843.897 L-427.558 844.98 L-424.484 847.104 "/></g><g><path fill="none" stroke="#000000" stroke-width="6" stroke-linecap="round" stroke-linejoin="round" d="M-414.305 858.368 L-414.45 857.707 L-413.533 858.009 L-410.434 855.754 L-409.725 854.688 L-404.093 851.079 L-402.369 849.505 L-400.793 847.507 L-400.251 846.252 L-400.09 844.449 L-400.904 843.355 L-403.395 843.097 L-404.881 843.388 L-406.738 843.02 L-408.291 844.541 L-409.091 845.881 L-411.384 851.28 L-412.624 856.439 L-412.734 862.916 L-411.367 870.063 L-409.979 873.894 L-409.002 875.755 L-406.816 878.243 L-403.994 879.562 L-401.263 880.012 L-399.121 879.549 L-394.47 877.834 L-388.135 873.652 L-386.505 872.961 L-385.749 872.229 "/></g><g><path fill="none" stroke="#000000" stroke-width="6" stroke-linecap="round" stroke-linejoin="round" d="M-305.621 849.312 L-306.008 850.254 L-306.457 850.332 L-306.998 852.254 L-307.406 856.272 L-306.333 863.61 L-302.87 875.612 L-300.354 878.471 L-298.631 878.301 "/></g><g><path fill="none" stroke="#000000" stroke-width="6" stroke-linecap="round" stroke-linejoin="round" d="M-310.755 832.736 L-314.061 831.787 L-311.68 831.556 "/></g><g><path fill="none" stroke="#000000" stroke-width="6" stroke-linecap="round" stroke-linejoin="round" d="M-270.565 843.19 L-270.351 841.677 L-269.029 839.195 L-266.984 836.362 L-266.798 836.766 L-269.59 840.679 L-275.313 851.373 L-276.459 856.162 L-276.072 857.307 L-275.058 857.503 L-273.586 857.244 L-270.759 856.151 L-266.981 853.184 L-260.437 850.019 L-258.643 849.857 L-257.776 850.147 L-257.434 852.586 L-258.057 856.678 L-259.303 860.877 L-263.989 870.956 L-270.456 882.518 L-270.999 884.64 L-270.487 884.805 "/></g><g><path fill="none" stroke="#000000" stroke-width="6" stroke-linecap="round" stroke-linejoin="round" d="M-119.095 859.535 L-121.298 857.634 L-122.61 855.007 L-124.153 853.088 L-125.924 851.772 L-127.599 851.167 L-130.277 852.417 L-131.512 853.425 L-133.381 855.434 L-136.674 859.855 L-137.682 861.64 L-138.909 865.032 L-140.397 870.499 L-140.667 873.103 L-140.504 878.689 L-140.029 881.273 L-139.18 882.483 L-138.314 883.054 L-136.583 882.855 L-133.839 880.839 L-132.261 878.999 L-129.654 874.737 L-124.479 863.925 L-123.253 859.976 L-122.994 857.338 L-123.666 858.97 L-122.803 866.689 L-122.178 869.869 L-119.992 876.52 L-117.911 880.443 L-116.415 882.307 L-115.685 882.523 L-114.428 884.034 L-112.39 885.699 L-110.45 885.824 "/></g><g><path fill="none" stroke="#000000" stroke-width="6" stroke-linecap="round" stroke-linejoin="round" d="M-23.5505 827.593 L-24.8399 827.167 L-25.42 826.395 L-24.2293 824.889 L-22.4081 823.337 L-20.7247 822.478 L-18.2712 819.803 L-16.6962 818.592 L-15.8433 818.312 L-13.91 816.506 L-12.5778 816.093 L-11.9953 817.234 L-12.4616 825.9 L-16.1783 850.065 L-17.3948 860.834 L-18.4435 876.693 L-18.116 883.903 L-17.8599 884.157 "/></g><g><path fill="none" stroke="#000000" stroke-width="6" stroke-linecap="round" stroke-linejoin="round" d="M25.8197 829.959 L23.6579 831.405 L22.907 832.291 L17.131 841.396 L13.7745 849.176 L10.2749 860.868 L9.06512 867.799 L9.15411 873.922 L9.83795 877.682 L11.1044 879.665 L12.4937 880.714 L14.5403 880.565 L19.4555 878.585 L24.7269 873.979 L35.3096 858.585 L37.5609 853.045 L38.4992 849.085 L38.6954 845.486 L38.0651 842.161 L36.1661 837.971 L33.6598 834.005 L31.004 831.26 L28.0032 828.876 L22.1032 827.122 L21.2615 827.507 L21.1767 827.977 "/></g><g><path fill="none" stroke="#000000" stroke-width="6" stroke-linecap="round" stroke-linejoin="round" d="M128.116 816.415 L128.226 815.168 L127.996 815.255 L126.103 818.458 L123.42 821.851 L115.601 833.423 L106.392 849.856 L100.53 861.06 L93.4135 876.018 L92.9123 877.339 L93.0395 877.695 L97.204 872.892 "/></g><g><path fill="none" stroke="#000000" stroke-width="6" stroke-linecap="round" stroke-linejoin="round" d="M91.1096 811.002 L89.9741 811.18 L89.2036 810.629 L89.4397 811.272 L88.8734 815.127 L88.7933 818.861 L89.6763 821.275 L91.4666 822.134 L92.622 821.982 L94.7305 819.357 L95.1921 819.252 L96.1107 816.497 L96.4355 813.87 L95.9236 812.444 L95.0854 811.829 L93.5376 811.511 L91.9314 811.74 "/></g><g><path fill="none" stroke="#000000" stroke-width="6" stroke-linecap="round" stroke-linejoin="round" d="M139.009 867.377 L138.009 865.029 L137.227 863.833 L136.741 863.704 L136.274 864.187 L135.168 864.337 L134.083 865.179 L132.149 868.144 L130.424 872.252 L130.029 875.043 L130.208 878.288 L130.691 879.486 L131.539 880.455 L133.687 881.132 L136.281 880.372 L138.569 878.317 L140.182 876.253 L141.333 874.41 L142.091 871.913 L142.212 869.436 L141.302 867.087 L140.365 866.246 L138.415 865.299 L135.915 864.624 L135.96 865.367 "/></g><g><path fill="none" stroke="#000000" stroke-width="6" stroke-linecap="round" stroke-linejoin="round" d="M246.227 845.287 L246.072 843.421 L245.565 842.05 L244.975 841.478 L244.189 841.918 L243.236 841.591 L240.533 843.055 L234.626 848.495 L231.617 853.119 L229.055 859.453 L228.515 861.74 L228.462 863.709 L228.939 867.013 L229.979 869.012 L232.111 870.629 L235.602 871.965 L239.17 872.774 L244.041 872.841 L246.921 872.413 L252.625 870.604 L256.544 867.927 "/></g><g><path fill="none" stroke="#000000" stroke-width="6" stroke-linecap="round" stroke-linejoin="round" d="M263.642 807.331 L262.31 806.535 L263.704 817.562 L264.042 824.167 L263.38 850.166 L263.629 859.384 L263.411 865.204 L264.599 876.679 L264.33 877.261 L263.51 875.917 L263.492 872.686 L264.159 867.919 L265.317 864.069 L267.499 858.891 L271.75 851.343 L273.812 848.453 L275.5 847.071 L276.54 846.689 L277.716 847.218 L279.343 850.364 L280.558 860.638 L281.322 872.403 L281.889 873.55 L283.061 874.719 "/></g><g><path fill="none" stroke="#000000" stroke-width="6" stroke-linecap="round" stroke-linejoin="round" d="M307.121 852.956 L307.667 851.003 L307.77 851.361 L307.388 851.202 L306.668 852.023 L303.622 853.775 L298.821 857.998 L297.273 859.944 L295.119 863.289 L292.865 868.623 L291.917 873.24 L292.174 876.096 L292.884 876.704 L294.118 876.634 L298.163 874.487 L301.219 871.461 L308.221 863.176 L313.601 854.551 L314.797 850.156 L314.666 849.41 L314.115 848.922 L312.777 849.407 L311.94 850.205 L310.848 852.775 L310.763 858.315 L311.546 863.928 L313.554 869.415 L315.342 872.347 L318.486 874.717 L320.135 875.173 L321.591 875.076 "/></g><g><path fill="none" stroke="#000000" stroke-width="6" stroke-linecap="round" stroke-linejoin="round" d="M327.86 852.028 L325.842 851.652 L325.434 851.885 L324.982 857.081 L325.163 860.264 L325.71 862.721 L327.114 865.905 L328.407 867.248 L329.368 867.32 L330.367 866.785 L332.324 864.606 L333.678 862.526 L336.472 856.897 L340.34 850.843 L343.22 847.878 L344.15 848.263 L345.396 849.444 L346.194 851.071 L347.571 856.104 L350.592 864.246 L353.713 870.293 L355.639 872.743 L356.905 873.762 L358.261 874.375 L359.361 874.426 "/></g><g><path fill="none" stroke="#000000" stroke-width="6" stroke-linecap="round" stroke-linejoin="round" d="M379.651 851.402 L378.636 850.613 L378.079 850.894 L377.861 851.493 L376.505 852.445 L374.873 854.693 L372.47 859.673 L371.501 862.616 L371.19 864.919 L371.406 867.276 L371.958 869.202 L373.836 872.718 L375.044 874.227 L377.27 876.071 L379.333 876.828 L381.185 877.008 L385.23 876.244 "/></g><g><path fill="none" stroke="#000000" stroke-width="6" stroke-linecap="round" stroke-linejoin="round" d="M403.929 862.118 L403.31 861.762 L403.842 860.859 L404.821 861.01 L410.353 857.31 L412.069 856.55 L418.806 850.377 L421.121 847.101 L421.613 845.809 L421.293 844.585 L420.255 843.975 L418.16 843.82 L413.982 844.803 L409.061 848.674 L406.331 852.752 L402.27 860.835 L400.885 865.094 L400.619 867.887 L401.141 871.083 L402.092 873.237 L404.495 877.258 L407.467 879.442 L409.766 880.248 L414.961 880.327 L422.21 879.012 "/></g><g><path fill="none" stroke="#000000" stroke-width="6" stroke-linecap="round" stroke-linejoin="round" d="M-576.569 997.65 L-573.345 1005.5 L-567.443 1018.26 L-559.721 1029.89 L-559.502 1030.04 L-558.699 1028.89 "/></g><g><path fill="none" stroke="#000000" stroke-width="6" stroke-linecap="round" stroke-linejoin="round" d="M-544.378 993.9 L-545.964 993.209 L-545.607 993.521 L-545.622 995.946 L-546.955 1001.28 L-556.413 1025.04 L-562.597 1043.03 L-575.417 1083.33 L-571.645 1076.07 "/></g><g><path fill="none" stroke="#000000" stroke-width="6" stroke-linecap="round" stroke-linejoin="round" d="M-515.581 1001.68 L-517.945 1000.36 L-519.352 998.432 L-520.123 998.455 L-523.652 1000.32 L-526.632 1003.46 L-527.561 1004.87 L-529.999 1010.29 L-530.811 1013.09 L-530.743 1020.31 L-530.026 1026.27 L-529.463 1028.35 L-527.934 1030.47 L-526.794 1031.14 L-523.898 1031.12 L-520.244 1029.22 L-518.949 1027.95 L-515.304 1025.55 L-511.442 1019.85 L-510.245 1017.28 L-509.622 1013.96 L-509.803 1011.55 L-510.475 1009.19 L-513.321 1003.8 L-514.963 1001.47 L-516.63 997.147 L-516.238 998.176 L-515.532 998.631 "/></g><g><path fill="none" stroke="#000000" stroke-width="6" stroke-linecap="round" stroke-linejoin="round" d="M-488.559 999.056 L-490.571 999.088 L-492.04 998.616 L-492.25 998.876 L-491.918 998.69 L-491.64 999.383 L-492.076 1003.16 L-492.099 1007.05 L-491.328 1015.59 L-489.007 1026.44 L-488.239 1028.44 L-487.483 1028.71 L-485.802 1026.89 L-484.22 1023.42 L-482.702 1018.59 L-479.85 1011.27 L-479.424 1009.73 L-478.882 1003.39 L-477.968 1001.85 L-477.602 1002 L-477.503 1002.98 L-476.735 1004.68 L-475.674 1013.01 L-474.935 1016.34 L-472.126 1022.81 L-469.946 1031.01 L-468.05 1034.27 L-466.972 1035.38 L-466.059 1035.76 "/></g><g><path fill="none" stroke="#000000" stroke-width="6" stroke-linecap="round" stroke-linejoin="round" d="M-447.254 1001.22 L-448.229 1002.11 L-448.073 1005.87 L-446.405 1013.06 L-445.031 1016.86 L-443.432 1024.09 L-443.054 1025.21 L-442.625 1025.53 L-442.992 1024.99 L-443.113 1022.19 L-442.193 1017.82 L-440.454 1012.56 L-437.715 1007.1 L-434.382 1002.7 L-430.104 998.902 L-426.167 997.346 L-419.513 996.21 L-416.846 996.231 L-415.382 996.6 "/></g><g><path fill="none" stroke="#000000" stroke-width="6" stroke-linecap="round" stroke-linejoin="round" d="M-326.581 1004.94 L-328.734 1001.01 L-329.461 998.363 L-330.246 997.03 L-334.126 998.897 L-335.695 1000.23 L-337.701 1002.59 L-341.645 1009.82 L-344.902 1017.98 L-346.471 1023.65 L-346.883 1027.19 L-346.764 1029.94 L-345.865 1031.76 L-344.718 1032.21 L-343.183 1032.3 L-340.595 1031.3 L-338.604 1029.72 L-337.34 1028.17 L-334.076 1022.5 L-328.866 1011.41 L-327.857 1007.95 L-327.477 1005.3 L-327.614 1003.71 L-328.114 1002.69 L-328.615 1002.5 L-329.446 1002.88 L-330.221 1004.04 L-331.178 1007.18 L-331.522 1012.32 L-330.889 1018.6 L-328.529 1025.6 L-326.282 1029.95 L-325.064 1031.12 L-323.364 1032.02 L-321.488 1032.46 "/></g><g><path fill="none" stroke="#000000" stroke-width="6" stroke-linecap="round" stroke-linejoin="round" d="M-306.168 969.894 L-307.53 970.578 L-307.953 971.808 L-307.574 975.953 L-308.184 1008.4 L-307.776 1015.25 L-307.177 1019.42 L-305.405 1025.68 L-304.471 1027.59 L-303.835 1028.61 L-303.335 1028.66 L-301.929 1027.97 L-301.184 1026.97 "/></g><g><path fill="none" stroke="#000000" stroke-width="6" stroke-linecap="round" stroke-linejoin="round" d="M-284.207 965.84 L-285.232 966.413 L-285.47 967.349 L-285.304 977.153 L-287.272 1009.51 L-286.68 1017.26 L-285.95 1019.76 L-285.137 1021.12 L-278.457 1028.65 L-276.422 1029.77 L-274.395 1030.19 L-272.127 1030.26 L-269.012 1029.4 "/></g><g><path fill="none" stroke="#000000" stroke-width="6" stroke-linecap="round" stroke-linejoin="round" d="M-312.166 992.724 L-312.751 992.772 L-312.264 992.403 L-311.446 992.521 L-310.643 991.854 L-309.726 992.185 L-305.049 991.99 L-296.83 990.973 L-290.827 989.874 L-282.937 989.323 L-280.737 989.605 L-274.694 991.376 L-270.62 993.066 L-266.786 995.851 "/></g><g><path fill="none" stroke="#000000" stroke-width="6" stroke-linecap="round" stroke-linejoin="round" d="M-233.378 999.558 L-234.724 999.688 L-235.922 997.681 L-237.14 997.083 L-240.508 997.422 L-243.855 998.767 L-247.203 1001.15 L-249.85 1003.78 L-251.083 1005.81 L-254.516 1009.76 L-257.576 1014.63 L-259.547 1020.65 L-259.856 1023.7 L-259.616 1025.96 L-258.654 1027.66 L-256.699 1028.66 L-251.13 1028.34 L-246.97 1025.48 L-242.552 1021.41 L-237.201 1015.64 L-235.156 1012.9 L-233.104 1009.56 L-231.618 1006.16 L-231.429 1004.76 L-231.891 1002.84 L-233.364 1001.32 L-234.487 1000.86 L-235.319 1001.86 L-236.887 1005.45 L-237.508 1010.73 L-237.207 1014.71 L-235.649 1020.6 L-234.104 1023.37 L-230.737 1026.95 L-227.829 1028.44 L-226.168 1028.67 L-223.821 1028.48 "/></g><g><path fill="none" stroke="#000000" stroke-width="6" stroke-linecap="round" stroke-linejoin="round" d="M-200.997 999.828 L-201.849 999.506 L-204.583 1001.29 L-207.126 1003.59 L-210.176 1007.08 L-213.113 1012.36 L-213.384 1013.77 L-213.059 1015.76 L-211.511 1018.57 L-209.676 1020.37 L-208.757 1021.19 L-204.922 1023.09 L-203.293 1023.6 L-200.592 1023.89 L-191.959 1023.16 "/></g><g><path fill="none" stroke="#000000" stroke-width="6" stroke-linecap="round" stroke-linejoin="round" d="M-182.579 973.319 L-183.877 972.002 L-182.753 972.741 L-182.231 973.521 L-181.43 976.56 L-180.953 980.09 L-180.254 992.991 L-180.21 1015.66 L-179.096 1026.58 L-178.348 1029.7 L-177.79 1030.76 L-176.791 1031.5 L-175.462 1031.82 L-174.324 1031.2 L-173.207 1028.9 L-171.027 1025.67 L-167.819 1019.41 L-164.065 1013.36 L-155.318 1001.96 L-154.907 1000.73 L-155.406 1001.18 L-156.674 1001.47 L-157.22 1002.26 L-158.007 1002.44 L-161.066 1004.58 L-164.458 1008.6 L-168.707 1015.49 L-170.625 1019.73 L-170.692 1021.39 L-169.478 1022.87 L-168.446 1023.14 L-167.839 1022.39 L-167.175 1023.02 L-166.118 1023.39 L-161.806 1023.98 L-153.29 1023.38 L-145.763 1023.38 "/></g><g><path fill="none" stroke="#000000" stroke-width="6" stroke-linecap="round" stroke-linejoin="round" d="M-139.977 1016.9 L-140.09 1016.07 L-139.172 1015.77 L-135.57 1013.05 L-127.714 1008.28 L-123.108 1005.06 L-122.228 1003.95 L-119.662 1001.82 L-118.831 999.59 L-119.756 997.514 L-120.846 996.859 L-123.591 996.219 L-125.39 996.483 L-126.963 997.12 L-129.885 999.425 L-131.628 1002.28 L-132.546 1004.34 L-133.374 1007.58 L-134.758 1015.48 L-134.756 1019.82 L-133.893 1024.11 L-131.523 1029.37 L-129.568 1032.42 L-127.448 1034.89 L-124.346 1036.74 L-122.415 1037.19 L-119.634 1037.26 L-114.774 1036.01 L-112.486 1034.95 L-110.521 1033.46 L-108.634 1031.49 "/></g><g><path fill="none" stroke="#000000" stroke-width="6" stroke-linecap="round" stroke-linejoin="round" d="M-106.742 1003.42 L-107.311 1004.9 L-107.453 1008.14 L-106.089 1019.34 L-104.728 1026.75 L-103.836 1029.66 L-101.986 1032.43 L-100.38 1033.79 L-98.9666 1034.05 L-97.4465 1033.23 L-96.8163 1032.43 L-95.943 1031.02 L-94.8994 1027.73 L-93.2686 1016.7 L-93.1637 1008.94 L-92.5605 1006.76 L-91.5588 1004.91 L-90.226 1003.72 L-88.716 1002.92 L-85.2599 1002.03 L-80.7618 1002.16 L-76.9481 1003.56 "/></g><g><path fill="none" stroke="#000000" stroke-width="6" stroke-linecap="round" stroke-linejoin="round" d="M-58.6896 997.435 L-59.9064 997.298 L-61.3622 997.784 L-63.2838 999.707 L-66.7714 1004.94 L-67.851 1008.07 L-67.6971 1009.2 L-67.0668 1009.35 L-62.2424 1008.68 L-57.1085 1006.9 L-52.2246 1004.63 L-49.6511 1004.02 L-48.4244 1004.04 L-46.606 1003.45 L-45.094 1003.26 L-43.9178 1003.48 L-43.1505 1003.74 L-43.0176 1004.57 L-43.4173 1006.16 L-44.6686 1008.24 L-54.3757 1022.79 L-56.183 1025.99 L-58.805 1029.57 L-63.9842 1035.23 L-64.2598 1035.85 L-64.0476 1035.86 L-63.3759 1035.08 L-62.0461 1034.67 "/></g><g><path fill="none" stroke="#000000" stroke-width="6" stroke-linecap="round" stroke-linejoin="round" d="M74.639 1006.05 L73.9885 1004.98 L74.6165 1005.23 L74.1017 1005.84 L69.7919 1008.81 L66.9728 1011.77 L64.4153 1013.74 L57.6132 1021.85 L55.7769 1025.21 L53.9214 1030.64 L53.6192 1034.67 L54.3541 1037.38 L55.3773 1038.07 L58.1986 1037.81 L62.2175 1034.02 L68.4078 1026.05 L72.1324 1018.89 L73.2065 1016.14 L75.0823 1009.49 L75.7266 1004.96 L75.9354 999.349 L75.7409 993.615 L75.1976 990.173 L74.0061 985.745 L72.5147 982.47 L70.8089 979.81 L69.4073 978.974 L69.2039 979.217 L69.4914 979.323 L69.6011 982.006 L73.5297 1004.53 L75.5919 1013.77 L77.3353 1019.64 L82.1431 1029.87 L85.4146 1035.07 L87.436 1036.98 L89.2551 1035.89 L89.8665 1035.03 "/></g><g><path fill="none" stroke="#000000" stroke-width="6" stroke-linecap="round" stroke-linejoin="round" d="M110.733 1011.19 L110.129 1010.83 L109.803 1009.73 L109.693 1010.04 L107.19 1010.67 L105.106 1011.83 L102.076 1014.55 L97.6967 1021.15 L95.5804 1025.31 L95.2518 1028.46 L95.5191 1030.07 L96.0035 1030.91 L97.5826 1031.09 L100.508 1029.73 L103.126 1027.87 L106.607 1024.07 L109.503 1021.44 L111.584 1018.96 L114.262 1016.51 L116.424 1013.51 L117.658 1011.04 L117.545 1011.86 L117.066 1012.03 L116.353 1013.79 L115.468 1020.86 L115.43 1024.79 L116.115 1030 L117.395 1034.7 L118.154 1036.11 L119.868 1037.25 L121.563 1036.67 "/></g><g><path fill="none" stroke="#000000" stroke-width="6" stroke-linecap="round" stroke-linejoin="round" d="M134.874 1013.36 L133.629 1014.57 L133.088 1016.32 L132.991 1018.92 L133.476 1024.1 L134.778 1030.12 L135.684 1031.98 L137.041 1033.82 L137.546 1034.06 L138.177 1033.88 L138.369 1032.1 L141.177 1026.76 L142.3 1023.7 L147.899 1013.26 L147.026 1015.3 L147.497 1024.4 L148.085 1028.42 L149.151 1030.11 L158.276 1012.56 L160.872 1009.18 L160.9 1010.63 L162.589 1017.94 L164.825 1024.77 L165.949 1026.71 L168.043 1029.18 L170.265 1029.85 L171.912 1029.55 "/></g><g><path fill="none" stroke="#000000" stroke-width="6" stroke-linecap="round" stroke-linejoin="round" d="M204.693 1010.35 L200.91 1011.92 L196.477 1015.01 L195.59 1016.46 L193.445 1018.48 L189.738 1023.14 L188.059 1026 L187.813 1027.45 L188.121 1028.06 L188.747 1028.2 L191.119 1028.08 L195.016 1024.88 L195.892 1024.61 L202.295 1015.2 L203.756 1011.5 L203.167 1013.07 L203.052 1016.56 L203.165 1019.21 L203.813 1022.8 L204.497 1025.09 L205.003 1025.57 L205.686 1028.63 L206.731 1030.36 L207.932 1031.63 L209.523 1032.7 "/></g><g><path fill="none" stroke="#000000" stroke-width="6" stroke-linecap="round" stroke-linejoin="round" d="M240.13 1009.34 L238.127 1010.98 L236.661 1013.09 L231.762 1021.93 L231.129 1023.63 L230.738 1026.59 L231.434 1029.31 L231.762 1029.2 L232.237 1029.76 L233.383 1030.09 L235.788 1029.41 "/></g><g><path fill="none" stroke="#000000" stroke-width="6" stroke-linecap="round" stroke-linejoin="round" d="M252.156 1011.79 L253.476 1007.15 L253.632 1002.31 L252.698 1000.73 L251.062 1001.63 L249.662 1003.41 L248.476 1005.7 L247.792 1008.36 L247.244 1011.66 L246.622 1019.93 L247.188 1032.59 L251.443 1057.22 L252.688 1068.35 L252.768 1077.02 L251.654 1083.44 L250.562 1086.77 L248.349 1090.41 L245.9 1091.74 L244.824 1091.47 L244.251 1091.82 L241.575 1092.04 L235.819 1091.26 L233.777 1090.2 L230.659 1087.86 L227.254 1084.14 L224.85 1079.02 L224.077 1075.76 L224.126 1073.73 "/></g><g><path fill="none" stroke="#000000" stroke-width="6" stroke-linecap="round" stroke-linejoin="round" d="M280.539 1019.08 L277.832 1018.96 L277.104 1019.59 L277.128 1019.85 L279.665 1019.71 L282.7 1018.97 L284.002 1018.17 L284.855 1017.47 L286.016 1015.45 L287.141 1014.24 L289.674 1009.89 L290.337 1007.52 L290.546 1004.31 L289.943 1001.65 L289.093 1000.17 L286.884 999.306 L284.468 1000.26 L280.713 1003.14 L277.091 1007.4 L274.201 1012.3 L272.52 1017.46 L271.272 1022.98 L271.398 1027.97 L271.926 1030.77 L273.634 1034.12 L275.728 1036.67 L277.229 1037.6 L280.793 1038.02 L284.591 1037.25 L292.228 1033.89 L293.947 1032.57 "/></g><g><path fill="none" stroke="#000000" stroke-width="6" stroke-linecap="round" stroke-linejoin="round" d="M394.626 979.895 L393.697 979.023 L392.291 976.528 L392.123 976.892 L392.416 979.709 L390.94 1005.27 L390.745 1026.88 L389.914 1037.44 L389.372 1039.95 L388.626 1041.05 L388.05 1041.36 L387.369 1040.91 L387.061 1041.02 L386.459 1039.75 L386.164 1037.01 L386.687 1033.34 L391.688 1007.82 L393.337 1003.72 L395.199 1001.48 L397.722 1000.47 L399.773 1000.56 L402.349 1001.4 L404.593 1003.26 L406.47 1006.31 L408.582 1011.83 L409.392 1016.42 L409.336 1020.46 L408.83 1023.51 L408.082 1025.67 L407.146 1027.67 L405.923 1029.26 L402.405 1032.17 L395.441 1036.97 L392.293 1037.81 L391.276 1037.55 L390.11 1038.08 L389.263 1038.11 L388.452 1037.72 L387.673 1036.76 L387.398 1035.02 L387.943 1032.79 L388.895 1030.94 "/></g><g><path fill="none" stroke="#000000" stroke-width="6" stroke-linecap="round" stroke-linejoin="round" d="M423.02 1014.18 L421.614 1014.31 L419.311 1015.11 L417.124 1016.86 L416.275 1018.25 L414.733 1021.08 L414.057 1023.28 L413.803 1026.26 L414.541 1028.69 L415.425 1029.52 L416.634 1029.39 L419.402 1028.56 L420.311 1027.49 L420.736 1027.62 L423.505 1026.36 L430.761 1019.09 L431.786 1017.83 L432.057 1016.8 L429.634 1017.99 L427.516 1019.62 L426.443 1020.89 L425.468 1022.7 L424.954 1024.57 L424.727 1027.28 L424.931 1029.51 L425.658 1031.01 L427.072 1032.7 L429.663 1034.15 L431.715 1034.79 L434.249 1033.83 "/></g><g><path fill="none" stroke="#000000" stroke-width="6" stroke-linecap="round" stroke-linejoin="round" d="M454.69 1012.38 L454.828 1011.91 L455.002 1012.25 L454.36 1013.3 L453.449 1016.42 L449.783 1025.03 L449.4 1028.01 L449.932 1029.99 L451.846 1032.14 L456.522 1032.9 L459.736 1033.03 L464.141 1032.15 "/></g><g><path fill="none" stroke="#000000" stroke-width="6" stroke-linecap="round" stroke-linejoin="round" d="M475.057 985.061 L475.645 985.062 L475.725 986.09 L476.537 1009.36 L476.51 1026.97 L475.795 1035.78 L475.952 1038.51 L476.523 1039.49 L476.835 1039.42 L478.545 1037.89 L489.325 1019.64 L495.416 1011.67 L494.909 1012.62 L494.365 1012.49 L493.31 1013.69 L489.813 1019.32 L486.994 1023 L484.297 1027.57 L482.127 1032.3 L481.859 1033.76 L482.365 1035.27 L487.502 1036.39 L490.111 1036.44 L494.872 1037.13 L497.796 1037.11 "/></g><g><path fill="none" stroke="#000000" stroke-width="6" stroke-linecap="round" stroke-linejoin="round" d="M524.604 999.446 L524.012 996.728 L523.993 990.81 L522.464 990.142 L522.116 990.251 L521.114 990.766 L519.893 992.459 L518.426 995.697 L517.082 1001.26 L515.671 1013.83 L515.41 1022.38 L516.009 1032.47 L516.725 1037.01 L519.178 1046.81 L520.26 1052.83 L520.6 1056.92 L520.399 1062.36 L519.355 1069.05 L518.987 1069.07 L518.575 1067.89 L518.28 1065.73 "/></g><g><path fill="none" stroke="#000000" stroke-width="6" stroke-linecap="round" stroke-linejoin="round" d="M505.52 1024.07 L505.499 1023.76 L506.061 1023.99 L507.446 1023.63 L508.263 1022.9 L510.817 1023.07 L514.849 1022.35 L516.141 1022.88 L525.655 1020.63 "/></g><g><path fill="none" stroke="#000000" stroke-width="6" stroke-linecap="round" stroke-linejoin="round" d="M534.873 1022.47 L534.987 1023.84 L536.47 1028.69 L536.921 1033.3 L537.473 1034.9 "/></g><g><path fill="none" stroke="#000000" stroke-width="6" stroke-linecap="round" stroke-linejoin="round" d="M533.727 1002.66 L532.852 1002.04 L532.989 1001.34 L534.021 1001.46 L534.882 1002.01 "/></g><g><path fill="none" stroke="#000000" stroke-width="6" stroke-linecap="round" stroke-linejoin="round" d="M543.974 1020.95 L543.812 1024.76 L544.484 1028.89 L546.009 1030.98 L548.003 1031.91 L550.017 1033.4 L550.159 1033.86 L551.654 1032.11 L555.934 1018.09 L557.682 1015.4 L559.157 1014.62 L562.546 1014.52 L565.502 1015.4 L567.78 1016.84 L568.412 1016.76 L569.34 1017.54 "/></g><g><path fill="none" stroke="#000000" stroke-width="6" stroke-linecap="round" stroke-linejoin="round" d="M582.128 1021.19 L584.062 1019.81 L585.679 1019.41 L591.307 1015.67 L592.827 1013.68 L593.683 1011.95 L594.026 1009.8 L592.966 1008.24 L590.733 1007.47 L589.182 1007.51 L586.148 1009.23 L582.532 1012.4 L581.407 1014.04 L578.327 1020.56 L578.053 1021.76 L577.983 1023.78 L579.07 1027.15 L581.344 1029.4 L583.643 1030.5 L590.891 1030.87 L593.866 1030.18 L595.045 1029.41 L603.621 1026.72 "/></g><g><path fill="none" stroke="#000000" stroke-width="6" stroke-linecap="round" stroke-linejoin="round" d="M631.625 1033.26 L630.792 1033.72 L630.482 1033.5 L631.108 1033.07 L633 1032.74 "/></g><g><path fill="none" stroke="#000000" stroke-width="6" stroke-linecap="round" stroke-linejoin="round" d="M-582.278 1137.46 L-582.57 1137 L-582.387 1136.43 L-583.981 1137.91 L-585.362 1138 L-585.022 1137.61 L-582.275 1139.9 L-567.047 1159.4 L-562.357 1164.35 L-559.537 1166.26 L-559.773 1165.75 L-559.252 1163.98 L-558.888 1160.78 "/></g><g><path fill="none" stroke="#000000" stroke-width="6" stroke-linecap="round" stroke-linejoin="round" d="M-539.724 1127.34 L-540.375 1127.71 L-540.852 1127.52 L-542.88 1130.43 L-547.458 1139.12 L-555.116 1157.69 L-558.337 1166.55 L-564.257 1186.61 L-565.836 1190.06 L-565.758 1190.44 L-565.277 1189.42 L-564.923 1188.22 L-565.705 1187.79 L-566.049 1188.41 L-565.984 1188.8 L-565.725 1188.42 "/></g><g><path fill="none" stroke="#000000" stroke-width="6" stroke-linecap="round" stroke-linejoin="round" d="M-538.717 1176.84 L-539.071 1176.64 L-538.84 1176.18 L-538.996 1175.99 L-539.066 1176.2 L-539.159 1175.66 L-539.035 1176.15 L-539.326 1176.2 L-539.349 1175.75 L-539.253 1176.12 L-540.5 1177.58 L-542.045 1184.15 L-542.424 1187.65 L-541.862 1193.99 L-541.368 1194.61 L-539.394 1195.31 L-538.442 1194.84 L-537.677 1195.2 L-536.086 1195.23 L-533.815 1193.78 L-532.506 1192.28 L-528.619 1186.6 L-527.696 1184.02 L-527.79 1181.98 L-529.577 1180.2 L-533.939 1177.09 L-535.646 1176.5 L-537.421 1174.49 L-537.615 1174.68 L-537.742 1174.33 L-538.057 1174.87 L-537.397 1175.25 "/></g><g><path fill="none" stroke="#000000" stroke-width="6" stroke-linecap="round" stroke-linejoin="round" d="M-513.04 1172.11 L-512.646 1172.01 L-512.977 1171.72 L-514.435 1172.98 L-514.992 1175.85 L-514.752 1182.92 L-514.178 1186.87 L-512.141 1190.71 L-511.384 1191.07 L-510.935 1190.95 L-509.945 1191.71 L-508.459 1192.2 L-506.958 1191.25 L-504.479 1188.12 L-500.093 1181.34 L-497.361 1176.37 L-494.034 1172.7 L-494.558 1174.11 L-493.294 1178.69 L-491.983 1187.39 L-490.392 1191.04 L-487.839 1193.9 L-487.075 1195.53 L-485.734 1196.14 L-484.536 1195.48 "/></g><g><path fill="none" stroke="#000000" stroke-width="6" stroke-linecap="round" stroke-linejoin="round" d="M-473.528 1173.18 L-474.828 1173.8 L-475.696 1175.01 L-476.094 1178.04 L-474.354 1190.53 L-473.181 1194.21 L-473.116 1193.82 L-473.477 1193.49 L-473.074 1192.58 L-472.672 1188.67 L-471.291 1183.66 L-469.306 1178.86 L-466.42 1175.41 L-459.063 1170.97 L-457.715 1170.75 L-456.141 1170.89 L-455.196 1171.42 L-454.055 1172.67 L-453.164 1174.53 "/></g><g><path fill="none" stroke="#000000" stroke-width="6" stroke-linecap="round" stroke-linejoin="round" d="M-370.59 1170.54 L-370.215 1170.3 L-369.772 1168.96 L-369.438 1166.28 L-369.843 1166.62 L-369.922 1166.31 L-370.67 1166.63 L-372.874 1168.01 L-376.317 1172.41 L-378.621 1176.57 L-379.234 1178.77 L-380.079 1186 L-380.059 1189.33 L-379.599 1192.33 L-378.597 1194.68 L-376.708 1196.71 L-376.308 1196.54 L-372.68 1198.03 L-370.369 1198.44 L-368.261 1199.75 L-364.954 1199.14 L-361.592 1199.06 L-359.65 1198.13 "/></g><g><path fill="none" stroke="#000000" stroke-width="6" stroke-linecap="round" stroke-linejoin="round" d="M-350.954 1140.04 L-351.821 1139.44 L-351.51 1142.73 L-351.734 1149.56 L-351.398 1165.47 L-351.742 1193.18 L-351.225 1197.77 L-350.172 1201.49 L-349.589 1202.39 L-349.219 1201.93 L-348.579 1202.16 L-347.294 1199.81 L-340.51 1180.8 L-338.863 1177.2 L-337.566 1176.14 L-336.247 1185.52 L-334.014 1192.34 L-332.191 1195.69 L-329.81 1198.26 L-328.573 1198.15 L-327.64 1197.59 "/></g><g><path fill="none" stroke="#000000" stroke-width="6" stroke-linecap="round" stroke-linejoin="round" d="M-311.659 1175.48 L-312.671 1176.47 L-313.118 1175.95 L-314.377 1177.49 L-319.031 1184.05 L-321.846 1188.68 L-323.405 1194.46 L-323.361 1197.38 L-322.47 1198.97 L-321.727 1199.61 L-320.108 1199.24 L-314.658 1193.46 L-313.728 1191.94 L-313.094 1190.37 L-311.308 1187.76 L-309.514 1182.08 L-308.663 1176.17 L-309.063 1173.33 L-309.928 1174.13 L-310.528 1175.31 L-311.012 1178.56 L-311.198 1181.59 L-310.438 1187.86 L-309.264 1193.71 L-308.408 1196.24 L-306.653 1197.87 L-305.425 1198.19 L-304.405 1197.84 "/></g><g><path fill="none" stroke="#000000" stroke-width="6" stroke-linecap="round" stroke-linejoin="round" d="M-293.827 1177.64 L-294.942 1178.5 L-295.092 1179.42 L-294.272 1182.54 L-293.647 1183.63 L-293.046 1186.71 L-292.248 1202.63 L-291.71 1207.01 L-291.117 1207.92 L-290.583 1207.19 L-286.267 1192.3 L-280.594 1176.31 L-279.696 1175.01 L-279.269 1175.33 L-279.163 1177 L-276.092 1190.93 L-275.162 1196.96 L-273.303 1200.76 L-271.454 1202.31 "/></g><g><path fill="none" stroke="#000000" stroke-width="6" stroke-linecap="round" stroke-linejoin="round" d="M-249.69 1176.39 L-249.766 1176.82 L-249.832 1176.45 L-249.942 1176.68 L-250.746 1176.33 L-251.621 1176.85 L-254.294 1179.24 L-257.092 1183.83 L-259.016 1189.73 L-259.366 1191.73 L-259.626 1196.52 L-259.327 1201.57 L-258.525 1203.81 L-257.833 1204.49 L-257.19 1204.59 L-253.729 1203.48 L-250.967 1203.18 L-248.854 1202.48 L-247.988 1202.69 L-246.38 1202.11 "/></g><g><path fill="none" stroke="#000000" stroke-width="6" stroke-linecap="round" stroke-linejoin="round" d="M-231.167 1190.04 L-231.554 1190.95 L-230.157 1188.7 L-229.454 1188.38 L-229.094 1188.76 L-228.962 1188.36 L-225.229 1185.27 L-222.387 1183.42 L-219.621 1181.06 L-216.896 1178.48 L-214.719 1175.86 L-213.349 1173.02 L-213.145 1171.79 L-213.96 1170.01 L-215.027 1168.86 L-217.589 1168.38 L-219.541 1168.87 L-220.621 1169.72 L-221.721 1169.85 L-223.32 1170.63 L-224.327 1170.57 L-227.451 1174.29 L-230.083 1179.65 L-231.777 1185.11 L-232.425 1189.92 L-232.263 1195.69 L-229.826 1201.05 L-227.929 1202.25 L-226.796 1202.48 L-223.929 1203.98 L-219.304 1204.83 L-216.896 1204.04 L-211.228 1200.84 "/></g><g><path fill="none" stroke="#000000" stroke-width="6" stroke-linecap="round" stroke-linejoin="round" d="M-106.794 1165.36 L-107.637 1165.19 L-107.966 1165.79 L-108.368 1164.65 L-109.501 1165.76 L-113.486 1172.01 L-115.97 1176.81 L-118.599 1186.26 L-119.137 1189.99 L-119.126 1192.8 L-118.637 1194.85 L-117.531 1197.09 L-115.797 1198.85 L-113.387 1199.87 L-111.196 1199.19 L-108.342 1197.02 L-103.708 1190.83 L-101.773 1186.82 L-100.595 1182.62 L-100.283 1178.63 L-100.697 1175.77 L-103.375 1171.47 L-103.787 1171.65 L-106.787 1170.34 L-112.041 1169.15 L-109.842 1170.34 "/></g><g><path fill="none" stroke="#000000" stroke-width="6" stroke-linecap="round" stroke-linejoin="round" d="M-82.7603 1140.33 L-83.0856 1130.43 L-83.1961 1134.7 L-83.6714 1136.56 L-84.3182 1142.85 L-85.5214 1180.41 L-86.4254 1193.47 L-89.1514 1222.57 L-89.1733 1227.35 L-88.5289 1231.7 L-87.0887 1237.02 L-87.4899 1235.86 L-87.451 1230.64 "/></g><g><path fill="none" stroke="#000000" stroke-width="6" stroke-linecap="round" stroke-linejoin="round" d="M-94.515 1189.25 L-94.7122 1186.04 L-94.1559 1183.93 L-93.1257 1182.12 L-92.3793 1181.83 L-88.9817 1181.7 L-88.0507 1181.97 L-85.9435 1181.66 L-84.8051 1181.14 L-81.9919 1181 L-77.2698 1179.95 L-74.8434 1178.9 L-73.3618 1177.79 L-72.9288 1177.81 "/></g><g><path fill="none" stroke="#000000" stroke-width="6" stroke-linecap="round" stroke-linejoin="round" d="M0.983276 1141.17 L1.45758 1136.51 L0.839966 1133.44 L0.703796 1133.21 L-0.602417 1133.92 L-0.906372 1134.46 L-1.21277 1134.16 L-1.66833 1134.79 L-2.32355 1136.61 L-3.09991 1140.77 L-4.08356 1149.25 L-4.18823 1175.92 L-5.21063 1214.46 L-4.98511 1227.62 L-3.81189 1242.75 L-3.86914 1243.98 L-4.10278 1243.82 L-4.32373 1241.05 "/></g><g><path fill="none" stroke="#000000" stroke-width="6" stroke-linecap="round" stroke-linejoin="round" d="M-11.9629 1177.06 L-12.7533 1176.51 L-12.4726 1177.16 L-10.2368 1175.63 L-5.67383 1174.87 L-1.21094 1174.73 L1.54358 1174.44 L2.87006 1173.98 L7.00488 1174.49 L9.68158 1174.02 L10.7174 1174.28 L11.7296 1173.91 "/></g><g><path fill="none" stroke="#000000" stroke-width="6" stroke-linecap="round" stroke-linejoin="round" d="M21.8954 1173.81 L20.158 1175.23 L19.2361 1176.63 L18.0954 1179.78 L17.82 1184.42 L18.6915 1196.45 L17.9842 1200.6 "/></g><g><path fill="none" stroke="#000000" stroke-width="6" stroke-linecap="round" stroke-linejoin="round" d="M17.2932 1156.37 L16.7322 1156.03 L16.699 1155.35 L19.3405 1156.5 L22.1658 1157.28 "/></g><g><path fill="none" stroke="#000000" stroke-width="6" stroke-linecap="round" stroke-linejoin="round" d="M31.3288 1171.13 L31.3536 1176.98 L34.77 1192.4 L35.7841 1191.36 L36.5562 1189.74 L44.6951 1171.2 L46.7391 1169.66 L47.4239 1169.81 L47.7178 1170.23 L52.3823 1178.37 L53.2344 1180.29 L53.9681 1183.79 L54.924 1185.21 "/></g><g><path fill="none" stroke="#000000" stroke-width="6" stroke-linecap="round" stroke-linejoin="round" d="M72.9535 1164.7 L72.1478 1164.58 L70.9211 1165.48 L66.5922 1172.72 L63.4918 1179.69 L61.969 1184.71 L61.4568 1189.49 L61.5093 1193.63 L62.3683 1198.01 L63.7606 1201.2 L65.5026 1202.95 L67.4791 1203.37 L69.5783 1202.55 L72.6162 1200.09 L74.8641 1197.08 L79.7675 1188.51 L82.3431 1178.71 L82.7889 1170.16 L80.7451 1138.46 L80.8775 1125.29 L80.1873 1122.46 L79.7816 1123.35 L79.2659 1138.6 L81.4409 1169.96 L82.4673 1178.62 L83.7147 1183.91 L85.918 1190.02 L86.6316 1191.24 L87.8051 1192.14 L87.7438 1192.84 L87.5164 1192.81 "/></g><g><path fill="none" stroke="#000000" stroke-width="6" stroke-linecap="round" stroke-linejoin="round" d="M93.557 1186.22 L94.4569 1186.42 L95.2239 1187.18 L96.3008 1187.63 L96.6655 1188.75 L96.8658 1193.97 L96.1797 1196.42 L95.9099 1196.56 "/></g><g><path fill="none" stroke="#000000" stroke-width="6" stroke-linecap="round" stroke-linejoin="round" d="M90.7991 1161.65 L90.2571 1159.42 L95.7633 1156.59 "/></g><g><path fill="none" stroke="#000000" stroke-width="6" stroke-linecap="round" stroke-linejoin="round" d="M105.265 1165.68 L105.732 1169.39 L108.003 1178.14 L107.99 1186.09 L108.217 1186.91 L108.785 1186.68 L109.431 1184.42 L110.435 1183.1 L115.248 1174.49 L118.99 1170.81 L120.285 1169.91 L123.183 1168.39 L124.762 1168.07 L125.033 1168.34 L126.22 1170.44 L126.94 1174.45 L127.019 1177.64 L126.034 1185.87 L126.188 1188.2 L126.725 1188.39 L127.602 1189.54 "/></g><g><path fill="none" stroke="#000000" stroke-width="6" stroke-linecap="round" stroke-linejoin="round" d="M152.847 1173.01 L153.571 1171.72 L153.455 1171.39 L153.365 1171.85 L152.417 1172.25 L149.759 1175.26 L147.753 1177.99 L144.799 1183.28 L140.544 1194.73 L139.948 1199.23 L140.512 1200.25 L140.871 1200.06 L141.478 1200.41 L143.927 1199.49 L145.457 1197.06 L147.788 1192.1 L150.968 1182.61 L152.572 1173.76 L154.071 1167.91 L153.821 1168.05 L153.35 1170.77 L153.398 1176.26 L154.017 1188.13 L156.928 1227.05 L157.529 1240.18 L157.277 1252.92 L156.812 1256.88 L155.598 1262.68 L154.292 1264.79 L153.483 1265.02 L152.747 1266.14 L151.051 1267.27 L149.026 1267.4 L147.407 1267.24 L144.995 1266.44 L138.713 1262.1 L136.278 1259.4 L133.327 1255.21 L130.111 1248.6 L129.58 1246.04 L129.605 1243.86 L130.132 1242.08 L131.667 1239.71 "/></g><g><path fill="none" stroke="#000000" stroke-width="6" stroke-linecap="round" stroke-linejoin="round" d="M248.642 1172.86 L248.622 1174.64 L248.604 1173.97 L248.204 1173.47 L247.281 1173.98 L246.279 1175.16 L245.254 1177.13 L243.329 1182.17 L241.52 1189.32 L240.919 1194.86 L241.338 1196.42 L242.527 1198.22 L244.984 1200.26 L246.7 1200.92 L248.907 1201.46 L252.021 1200.59 L256.522 1197.11 L261.066 1191.24 L263.103 1187.74 L264.448 1183.81 L264.365 1181.02 L262.165 1175.21 L260.29 1172.49 L258.437 1170.68 L257.187 1170.03 L255.131 1169.65 L254.375 1169.87 L253.088 1170.8 L251.986 1172.42 L251.539 1174.54 L252.059 1176.48 "/></g><g><path fill="none" stroke="#000000" stroke-width="6" stroke-linecap="round" stroke-linejoin="round" d="M273.642 1175.34 L274.119 1173.75 L274.528 1173.45 L274.861 1173.78 L275.356 1174.51 L276.072 1177.95 L276.905 1186.88 L276.366 1195.51 L276.485 1198.53 L276.887 1198.71 L280.046 1197.27 L283.479 1193.48 L288.791 1185.68 L292.529 1178.93 L294.873 1173.58 L294.43 1175.17 L295.217 1185.74 L295.865 1191.83 L297.063 1197.9 L297.852 1199.32 L298.264 1199.39 L299.063 1200.28 L299.498 1200.03 L301.227 1200.32 L302.724 1199.35 L303.545 1198.42 "/></g><g><path fill="none" stroke="#000000" stroke-width="6" stroke-linecap="round" stroke-linejoin="round" d="M316.143 1139.43 L315.614 1140.34 L314.972 1144.46 L314.481 1152.26 L315.126 1168.08 L315.66 1176.82 L316.677 1185.53 L317.716 1191.12 L319.934 1195.99 L320.121 1196.65 L319.59 1196.34 "/></g><g><path fill="none" stroke="#000000" stroke-width="6" stroke-linecap="round" stroke-linejoin="round" d="M299.285 1169.32 L297.823 1168.51 L297.979 1168.18 L300.708 1167.23 L302.011 1167.23 L314.613 1163.11 L317.589 1161.92 L319.261 1160.9 L324.033 1159.42 L328.203 1156.89 "/></g><g><path fill="none" stroke="#000000" stroke-width="6" stroke-linecap="round" stroke-linejoin="round" d="M420.648 1163.18 L419.328 1163.55 L419.168 1164.16 L419.879 1171.19 L422.395 1185.08 L424.478 1191.62 L425.194 1192.27 L425.836 1191.98 L426.572 1190.21 L428.352 1188.29 L430.549 1184.6 L432.858 1179.43 L433.839 1175.47 L434.39 1166.01 L434.647 1165.47 L436.114 1167.9 L437.58 1172.39 L440.666 1188.7 L441.912 1193.03 L443.123 1194.63 L443.608 1194.76 L445.196 1193.25 L446.556 1192.57 L448.231 1189.94 L450.346 1185.13 L452.378 1178.89 L453.603 1174.63 L454.202 1170.99 L455.56 1155.45 L456.307 1150.71 "/></g><g><path fill="none" stroke="#000000" stroke-width="6" stroke-linecap="round" stroke-linejoin="round" d="M464.877 1138.01 L462.373 1184.41 L462.628 1192.47 L464.405 1200.93 L465.96 1198.09 L469.557 1189.53 L472.03 1182.8 L474.27 1175.34 L476.089 1171.46 L477.549 1169.36 L478.895 1168.53 L479.902 1168.88 L480.68 1171.49 L481.594 1180.22 L481.983 1187.74 L482.845 1193.77 L483.28 1194.87 L485.409 1193.36 "/></g><g><path fill="none" stroke="#000000" stroke-width="6" stroke-linecap="round" stroke-linejoin="round" d="M498.445 1172.12 L497.503 1170.86 L496.921 1170.77 L496.727 1170.39 L496.348 1170.82 L494.558 1177.32 L493.736 1186.98 L494.235 1191.15 L494.742 1192.69 L496.446 1195.26 L498.544 1196.71 L502.525 1192.08 L505.829 1187.2 L507.391 1184.22 L508.678 1180.23 L508.395 1178.87 L507.197 1177.41 L502.657 1174.97 L500.595 1174.3 L498.467 1172.8 L497.454 1172.43 L494.96 1168.08 L494.44 1164.52 "/></g><g><path fill="none" stroke="#000000" stroke-width="6" stroke-linecap="round" stroke-linejoin="round" d="M-578.745 1325.14 L-578.234 1325.13 L-577.617 1324.55 L-577.686 1322.3 L-577.073 1319.91 L-577.367 1320.4 L-577.19 1320.74 L-577.658 1320.22 L-579.39 1320.72 L-582.11 1322.6 L-583.722 1324.87 L-585.279 1328.72 L-586.608 1333.35 L-587.104 1338.61 L-586.952 1341.49 L-586.197 1344.88 L-584.526 1347.74 L-583.356 1348.77 L-581.202 1349.43 L-577.916 1348.79 L-575.758 1347.75 L-572.496 1345.19 L-569.125 1342 L-564.974 1335.31 L-563.294 1329.4 L-563.107 1325.8 L-563.969 1320.2 L-565.541 1315.14 L-566.326 1313.69 L-566.907 1313.78 L-567.747 1319.7 L-567.869 1326.11 L-565 1344.36 L-563.807 1349.12 L-562.772 1352.25 L-559.529 1357.67 L-558.008 1358.66 L-556.146 1359.03 L-555.509 1358.99 L-554.692 1357.9 "/></g><g><path fill="none" stroke="#000000" stroke-width="6" stroke-linecap="round" stroke-linejoin="round" d="M-538.445 1293.45 L-538.999 1291.7 L-538.617 1289.47 L-538.86 1289.62 L-538.578 1290.03 L-539.023 1291.38 L-540.213 1299.27 L-540.719 1307.67 L-543.012 1328.94 L-543.018 1335.93 L-542.149 1341.36 L-540.644 1345.24 L-539.16 1347.99 L-537.061 1349.64 L-533.62 1349.65 L-532.225 1349.05 "/></g><g><path fill="none" stroke="#000000" stroke-width="6" stroke-linecap="round" stroke-linejoin="round" d="M-516.477 1291.29 L-517.517 1290.73 L-517.947 1291.33 L-519.573 1295.68 L-520.401 1301.07 L-521.232 1304.29 L-521.732 1312.9 L-521.726 1323.46 L-521.368 1329.4 L-520.406 1336.95 L-518.798 1343.34 L-517.52 1346.79 L-515.973 1350.54 L-514.006 1353.88 L-511.847 1355.96 L-507.819 1357.73 L-506.536 1357.84 L-504.921 1357.48 L-503.591 1356.81 L-502.466 1355.56 "/></g><g><path fill="none" stroke="#000000" stroke-width="6" stroke-linecap="round" stroke-linejoin="round" d="M-551.263 1314.19 L-547.27 1312.12 L-540.83 1310.27 L-537.586 1309.6 L-526.986 1308.86 L-523.727 1308.06 L-519.074 1307.59 L-516.809 1307.67 L-507.366 1305.04 "/></g><g><path fill="none" stroke="#000000" stroke-width="6" stroke-linecap="round" stroke-linejoin="round" d="M-479.958 1321.04 L-482.119 1320.11 L-482.511 1319.27 L-484.55 1321.62 L-486.832 1323.44 L-491.848 1330.4 L-493.688 1334.1 L-495.481 1340.8 L-495.566 1343.95 L-495.068 1347 L-493.851 1348.81 L-492.04 1349.79 L-491.295 1349.42 L-490.635 1349.71 L-488.917 1349.67 L-487.295 1349.14 L-484.871 1347.65 L-481.769 1344.56 L-477.117 1337.19 L-475.425 1333.71 L-473.351 1328.04 L-472.123 1322.95 L-471.626 1318.97 L-471.717 1313.66 L-472.097 1312.84 L-472.522 1314.84 L-473.428 1327.11 L-473.221 1331.64 L-472.197 1339.92 L-470.25 1349.38 L-468.954 1353.08 L-465.347 1359.28 L-463.384 1360.72 "/></g><g><path fill="none" stroke="#000000" stroke-width="6" stroke-linecap="round" stroke-linejoin="round" d="M-431.408 1324.78 L-431.83 1324.48 L-433.081 1324.45 L-433.962 1323.85 L-435.255 1323.99 L-437.622 1325.33 L-442.232 1329.58 L-444.637 1333.34 L-446.944 1339.09 L-447.364 1342 L-447.001 1345.41 L-445.582 1348.2 L-443.735 1350.25 L-441.188 1351.48 L-436.976 1352.71 L-433.886 1353.08 L-429.656 1353.01 L-428.398 1352.38 L-424.669 1352.3 L-423.816 1351.58 L-421.523 1350.55 "/></g><g><path fill="none" stroke="#000000" stroke-width="6" stroke-linecap="round" stroke-linejoin="round" d="M-413.246 1295.86 L-412.829 1296.42 L-414.207 1306.92 L-414.72 1314.3 L-414.711 1323.1 L-415.673 1342.72 L-415.155 1353.86 L-413.705 1359.46 L-412.872 1359.97 L-412.03 1359.09 L-407.564 1349.5 L-394.901 1326.52 L-392.396 1320.92 L-392.567 1320.79 L-392.804 1321.43 L-392.916 1321.08 L-393.986 1321.38 L-394.954 1322.43 L-397.241 1323.91 L-401.646 1328.97 L-404.193 1333.81 L-405.201 1336.51 L-405.767 1339.49 L-405.707 1341.58 L-405.019 1343.98 L-402.066 1346.34 L-398.439 1347.54 L-396.2 1347.84 L-391.766 1349.04 L-386.645 1351.69 "/></g><g><path fill="none" stroke="#000000" stroke-width="6" stroke-linecap="round" stroke-linejoin="round" d="M-378.095 1336.6 L-374.43 1334.57 L-371.476 1333.67 L-369.684 1332.11 L-368.772 1331.9 L-365.897 1328.43 L-363.151 1326.9 L-360.58 1323.71 L-359.851 1322.3 L-359.587 1321.01 L-360.274 1320.27 L-362.301 1319.61 L-368.86 1320.51 L-370.783 1321.66 L-371.847 1322.73 L-372.872 1323.05 L-375.537 1325.35 L-377.027 1327.69 L-377.946 1330.8 L-378.539 1333.25 L-378.683 1337.92 L-378.385 1339.51 L-377.463 1341.14 L-376.497 1342.18 L-373.951 1343.83 L-369.245 1344.43 L-364.325 1344.18 L-362.54 1344.38 L-359.559 1343.43 "/></g><g><path fill="none" stroke="#000000" stroke-width="6" stroke-linecap="round" stroke-linejoin="round" d="M-341.401 1323.78 L-342.084 1323.11 L-342.531 1322.05 L-342.892 1322.08 L-342.904 1322.45 L-342.886 1322.07 L-345.519 1327.44 L-349.437 1333.9 L-352.875 1341.1 L-354.75 1350.03 L-354.391 1354.88 L-353.009 1357.12 L-352.394 1357.53 L-350.89 1357.7 L-347.767 1356.64 L-344.305 1354.41 L-341.262 1351.39 L-338.548 1347.78 L-335.997 1342.88 L-334.063 1338.08 L-332.453 1332.45 L-331.534 1324.73 L-331.409 1316.1 L-332.942 1305.6 L-335.459 1296.42 L-336.256 1290.47 L-336.316 1286.27 L-335.993 1283.2 L-335.435 1281.18 L-334.6 1280.45 L-334.052 1282.53 L-334.609 1287.16 L-334.79 1293.47 L-334.366 1301.85 L-331.149 1324.99 L-327.438 1341.33 L-325.937 1345.13 L-324.644 1347.19 L-321.589 1350.87 L-318.897 1352.89 L-315.342 1354.62 L-309.213 1353.45 "/></g><g><path fill="none" stroke="#000000" stroke-width="6" stroke-linecap="round" stroke-linejoin="round" d="M-212.173 1318.53 L-206.804 1331.85 L-204.201 1340.23 L-202.444 1344.1 L-200.083 1347.99 L-197.2 1351.18 L-195.885 1351.38 L-194.506 1350.99 "/></g><g><path fill="none" stroke="#000000" stroke-width="6" stroke-linecap="round" stroke-linejoin="round" d="M-182.626 1305.5 L-182.922 1305.6 L-183.077 1306.37 L-183.651 1314.93 L-184.898 1323.4 L-186.956 1333.54 L-188.786 1340.66 L-192.038 1351.22 L-205.827 1385.68 L-210.607 1401.83 L-211.663 1409.35 L-211.847 1412.53 L-211.523 1415.68 L-211.193 1416.48 L-210.836 1416.51 L-209.036 1412.7 "/></g><g><path fill="none" stroke="#000000" stroke-width="6" stroke-linecap="round" stroke-linejoin="round" d="M-167.173 1330.54 L-168.098 1330.83 L-169.454 1330.6 L-170.016 1330.07 L-170.152 1330.4 L-170.329 1330.21 L-169.381 1330.39 L-169.383 1330.64 L-169.896 1331.63 L-170.618 1335.11 L-170.947 1341.01 L-170.347 1344.52 L-168.691 1348.91 L-167.426 1350.5 L-165.102 1352.61 L-163.32 1353.27 L-160.634 1353.16 L-157.474 1351.8 L-155.067 1349.5 L-152.554 1346.36 L-151.115 1342.75 L-151.173 1340.43 L-151.671 1338.23 L-151.903 1337.52 L-157.136 1330.73 L-163.402 1325.59 L-167.978 1323.2 L-170.518 1322.32 L-170.589 1322.86 L-169.326 1323.98 L-168.772 1325.27 "/></g><g><path fill="none" stroke="#000000" stroke-width="6" stroke-linecap="round" stroke-linejoin="round" d="M-131.149 1318.01 L-130.849 1315.46 L-130.313 1314.29 L-129.151 1313.17 L-128.967 1313.44 L-129.104 1316.43 L-128.648 1325.54 L-129.402 1339.14 L-128.986 1343.04 L-128.46 1344.51 L-127.579 1345.01 L-125.645 1344 L-124.146 1342.4 L-122.496 1339.06 L-119.245 1334.14 L-110.192 1316.1 L-111.141 1318.8 L-111.656 1330.15 L-111.674 1338.95 L-110.132 1347.4 L-108.941 1350.17 L-108.068 1350.47 "/></g><g><path fill="none" stroke="#000000" stroke-width="6" stroke-linecap="round" stroke-linejoin="round" d="M-15.8038 1318.89 L-16.4501 1320.08 L-17.0514 1323.64 L-17.0031 1328.77 L-11.899 1347.64 L-10.4373 1350.62 "/></g><g><path fill="none" stroke="#000000" stroke-width="6" stroke-linecap="round" stroke-linejoin="round" d="M-21.821 1299.34 L-21.5242 1299 L-21.3422 1299.44 L-21.0793 1299.13 L-19.8201 1299.02 L-18.2586 1299.93 L-16.8656 1301.22 "/></g><g><path fill="none" stroke="#000000" stroke-width="6" stroke-linecap="round" stroke-linejoin="round" d="M-0.628723 1323.71 L-1.1723 1324.05 L-1.15289 1324.96 L1.65033 1332.54 L2.44995 1337.18 L2.19727 1345.66 L7.09845 1337.99 L10.7551 1331.48 L13.3097 1326.16 L15.1887 1323.43 L16.8932 1321.66 L17.3757 1321.71 L17.9592 1336.49 L18.5747 1341.27 L19.1667 1343.5 L19.8308 1344.45 "/></g><g><path fill="none" stroke="#000000" stroke-width="6" stroke-linecap="round" stroke-linejoin="round" d="M54.3725 1321.45 L53.4651 1320.53 L53.3231 1321.1 L52.7531 1320.09 L52.0431 1319.78 L47.4271 1323.6 L44.6561 1326.97 L43.5853 1327.5 L37.9497 1337.59 L36.9632 1341.11 L36.9642 1343.49 L37.8794 1346.45 L39.1243 1347.95 L42.5027 1349.88 L48.3432 1351.68 L54.1938 1350.18 L56.9913 1348.56 "/></g><g><path fill="none" stroke="#000000" stroke-width="6" stroke-linecap="round" stroke-linejoin="round" d="M79.6581 1314.43 L78.4805 1314.41 L78.137 1314.07 L77.3485 1324.45 L77.0322 1338.11 L77.2807 1341.75 L77.8098 1344.37 L79.0879 1344.24 L80.6312 1342.11 L84.1616 1333.09 L86.6732 1324.48 L88.034 1321.06 L89.0901 1319.34 L89.7346 1319.13 L92.1879 1316.84 L95.2161 1316.02 L96.5127 1316.82 L97.2927 1318.86 "/></g><g><path fill="none" stroke="#000000" stroke-width="6" stroke-linecap="round" stroke-linejoin="round" d="M101.534 1336.1 L104.335 1335.78 L105.378 1334.91 L107 1334.21 L108.098 1332.79 L111.058 1330.97 L116.022 1326.65 L120.716 1321.39 L122.775 1318.45 L123.502 1316.07 L122.056 1314.89 L118.545 1314.98 L116.593 1315.68 L114.759 1315.86 L113.71 1315.58 L110.524 1318.32 L108.153 1320.91 L105.084 1325.04 L102.305 1330.62 L100.976 1334.76 L99.7532 1340.4 L99.7573 1342.94 L100.239 1344.12 L102.815 1346.17 L104.178 1346.63 L105.706 1346.78 L110.099 1346.25 L115.232 1344.86 L117.046 1343.95 "/></g><g><path fill="none" stroke="#000000" stroke-width="6" stroke-linecap="round" stroke-linejoin="round" d="M146.24 1321.31 L145.759 1320.62 L145.469 1318.34 L145.006 1317.94 L143.758 1317.85 L141.907 1318.64 L140.213 1320 L136.773 1323.98 L134.033 1327.9 L132.707 1331.55 L131.825 1337.3 L132.18 1340.51 L132.868 1342.47 L133.715 1343.64 L135.657 1344.8 L137.15 1344.39 L139.01 1343.13 L141.377 1339.89 L144.044 1334.35 L144.954 1331.2 L145.308 1326.07 L144.728 1322.6 L144.819 1324.95 L146.742 1337.22 L149.108 1345.96 L150.14 1347.53 L151.174 1348.44 L152.24 1348.82 L153.563 1348.78 "/></g><g><path fill="none" stroke="#000000" stroke-width="6" stroke-linecap="round" stroke-linejoin="round" d="M180.11 1312.21 L176.749 1314.18 L174.589 1316.57 L171.55 1322.25 L170.961 1324.32 L171.388 1326.2 L173.156 1327.09 L175.003 1327.38 L179.045 1326.3 L180.112 1326.46 L183.465 1324.76 L186.195 1324.34 L187.101 1324.63 L187.916 1324.48 L188.579 1324.59 L189.775 1325.54 L190.212 1327.91 L189.979 1329.62 L189.013 1332.45 L186.293 1337.92 L183.19 1342.15 L177.615 1348.39 "/></g><g><path fill="none" stroke="#000000" stroke-width="6" stroke-linecap="round" stroke-linejoin="round" d="M198.825 1332.95 L200.148 1331.79 L201.607 1329.65 L203.831 1327.59 L206.115 1324.67 L207.133 1322.85 L208.266 1320.1 L208.45 1318.19 L208.319 1316.99 L207.552 1315.97 L206.721 1316.08 L203.107 1319.41 L196.123 1331.79 L195.056 1334.58 L194.424 1338.43 L194.546 1340.32 L195.32 1342.13 L197.731 1342.68 L201 1342.56 L204.791 1341.15 L206.826 1339.81 "/></g><g><path fill="none" stroke="#000000" stroke-width="6" stroke-linecap="round" stroke-linejoin="round" d="M230.867 1315.12 L230.522 1315.43 L230.121 1315.14 L229.484 1316.77 L227.02 1320.63 L225.865 1323.24 L225.961 1324.88 L226.596 1325.12 L227.299 1324.94 L227.757 1324.27 L228.496 1324.25 L232.797 1322.01 L236.253 1320.67 L237.634 1320.69 L239.186 1321.57 L240.033 1322.77 L240.224 1324.61 L239.075 1331.79 L237.12 1338.16 L234.547 1343.53 L232.758 1345.97 L228.89 1349.79 "/></g><g><path fill="none" stroke="#000000" stroke-width="6" stroke-linecap="round" stroke-linejoin="round" d="M327.027 1307.57 L326.673 1306.85 L326.853 1305.83 L326.99 1306.27 L328.469 1327.89 L328.908 1340.08 L329.521 1345.77 L330.173 1347.29 L330.871 1348.07 L333.588 1349.78 L336.377 1350.22 L340.056 1349.51 "/></g><g><path fill="none" stroke="#000000" stroke-width="6" stroke-linecap="round" stroke-linejoin="round" d="M325.407 1328.73 L331.569 1326.46 L338.427 1323 L347.012 1319.43 "/></g><g><path fill="none" stroke="#000000" stroke-width="6" stroke-linecap="round" stroke-linejoin="round" d="M377.908 1324.52 L376.182 1322.29 L374.567 1321.76 L373.023 1321.98 L370.01 1323.88 L367.283 1326.68 L364.588 1330.93 L362.433 1335.93 L361.8 1339.91 L362.719 1343.32 L364.306 1345.23 L367.301 1347.01 L370.1 1347.7 L373.097 1347.21 L375.888 1346.26 L377.945 1344.4 L382.255 1339.86 L384.287 1336.45 L384.555 1334.85 L384.388 1333.9 L383.149 1330.51 L381.152 1327.84 L377.34 1324.05 L374.685 1320.84 L371.79 1315.76 L371.327 1314.11 L371.436 1313.7 L371.763 1313.86 "/></g><g><path fill="none" stroke="#000000" stroke-width="6" stroke-linecap="round" stroke-linejoin="round" d="M473.239 1302.78 L471.367 1304.06 L471.31 1304.71 L474.714 1304.69 L475.639 1304.32 L477.135 1304.48 L480.052 1304.02 L482.091 1303.41 L488.36 1300.35 L492.737 1299.18 L501.226 1295.27 L500.179 1296.88 L498.763 1300.33 L496.659 1307.78 L488.793 1341.03 L486.914 1346.88 L482.978 1355.95 L482.193 1358.61 L482.063 1361 L483.135 1356.51 "/></g><g><path fill="none" stroke="#000000" stroke-width="6" stroke-linecap="round" stroke-linejoin="round" d="M482.197 1332.17 L481.313 1331.36 L481.765 1331.07 L489.204 1330.11 L490.782 1329.57 L494.866 1329.09 L496.702 1329.2 L500.063 1328.23 L501.604 1327.42 L507.457 1326.73 "/></g><g><path fill="none" stroke="#000000" stroke-width="6" stroke-linecap="round" stroke-linejoin="round" d="M530.225 1303.2 L530.164 1302.51 L526.889 1305.71 L522.453 1312.63 L520.662 1317.25 L520.758 1319.03 L521.372 1320.58 L522.848 1321.48 L524.483 1321.63 L525.528 1321.2 L531.046 1320.8 L536.027 1319.6 L541.279 1318.87 L542.68 1318.32 L544.554 1318.74 L546.521 1319.67 L547.884 1321.37 L547.869 1323.02 L545.884 1326.98 L542.196 1332.99 L541.23 1335.23 L534.432 1344.36 L531.937 1346.4 L527.169 1349.11 L525.28 1349.69 L523.754 1349.75 L523.311 1348.67 "/></g><g><path fill="none" stroke="#000000" stroke-width="6" stroke-linecap="round" stroke-linejoin="round" d="M525.596 1304.69 L523.736 1304.09 L523.908 1303.6 L525.703 1304.15 L528.04 1303.94 L529.013 1303.5 L537.554 1302.57 L549.045 1298.97 "/></g><g><path fill="none" stroke="#000000" stroke-width="6" stroke-linecap="round" stroke-linejoin="round" d="M603.155 1302.86 L605.943 1299.28 L606.868 1298.61 L606.768 1298.38 L605.679 1299.97 L602.168 1303.46 L596.917 1311.21 L587.801 1327.64 L584.974 1335.64 L584.397 1340.6 L584.878 1340.86 L585.326 1340.09 "/></g><g><path fill="none" stroke="#000000" stroke-width="6" stroke-linecap="round" stroke-linejoin="round" d="M580.582 1290.48 L579.776 1290.73 L579.584 1291.18 L580.006 1291.39 L580.865 1293.58 L581.276 1295.8 L582.247 1296.1 L586.92 1291.79 L587.145 1291.12 L586.811 1286.93 "/></g><g><path fill="none" stroke="#000000" stroke-width="6" stroke-linecap="round" stroke-linejoin="round" d="M612.416 1333.05 L611.315 1332.55 L610.487 1332.59 L609.688 1333.06 L609.432 1333.85 L607.802 1334.53 L606.221 1336.01 L605.372 1338.93 L605.556 1340.84 L606.033 1341.52 L607.59 1341.66 L610.562 1340.49 L615.724 1335.34 L616.195 1333.98 L615.806 1333.01 L615.255 1332.56 L607.248 1329.43 L606.682 1328.95 "/></g>
</svg>