<svg width="1404" height="1872" viewBox="-702 0 1404 1872" xmlns="http://www.w3.org/2000/svg" xmlns:xlink="http://www.w3.org/1999/xlink" version="1.2" baseProfile="tiny"><title>Regler</title>\n<g><path fill="none" stroke="#000000" stroke-width="6" stroke-linecap="round" stroke-linejoin="round" d="M-542.049 178.923 L-541.424 178.808 L-541.492 177.119 L-540.854 175.298 L-540.769 175.946 L-542.249 180.524 L-542.929 184.049 L-544.844 202.383 L-548.203 226.657 L-550.314 236.92 L-551.792 246.695 L-552.174 252.464 L-551.531 256.769 L-551.016 257.703 L-550.521 257.681 L-547.113 254.642 L-545.373 251.878 L-544.706 251.413 L-542.975 250.884 L-536.786 250.065 L-520.763 249.219 L-514.926 249.584 L-506.23 251.258 L-504.913 251.806 L-504.648 252.297 L-503.785 252.33 L-504.801 252.564 L-506.246 253.68 "/></g><g><path fill="none" stroke="#000000" stroke-width="6" stroke-linecap="round" stroke-linejoin="round" d="M-548.887 211.169 L-550.197 211.648 L-548.792 211.894 L-547.308 213.268 L-545.926 213.822 L-530.037 217.368 L-525.593 216.809 L-523.59 215.417 "/></g><g><path fill="none" stroke="#000000" stroke-width="6" stroke-linecap="round" stroke-linejoin="round" d="M-541.475 177.225 L-541.599 176.003 L-537.276 174.849 L-533.853 175.296 L-526.726 177.278 L-522.661 177.719 L-511.053 177.268 L-504.149 176.178 L-497.462 174.452 L-494.405 174.369 "/></g><g><path fill="none" stroke="#000000" stroke-width="6" stroke-linecap="round" stroke-linejoin="round" d="M-485.331 221.523 L-485.574 219.272 L-486.021 218.534 L-486.273 219.118 L-485.55 220.125 L-482.886 231.986 L-480.585 240.396 L-479.374 243.671 L-476.793 247.865 L-475.515 249.095 L-473.582 249.936 L-473.258 249.71 L-473.728 249.443 L-473.4 249.206 L-472.5 242.892 L-464.42 212.061 L-463.691 210.971 L-463.878 211.957 L-462.683 212.811 L-462.199 213.824 L-461.628 216.759 "/></g><g><path fill="none" stroke="#000000" stroke-width="6" stroke-linecap="round" stroke-linejoin="round" d="M-446.661 233.501 L-446.848 232.002 L-446.553 230.789 L-444.285 228.782 L-442.215 227.745 L-441.452 226.8 L-440.569 226.501 L-438.024 224.593 L-434.916 221.736 L-433.106 219.042 L-432.874 217.617 L-433.152 216.169 L-434.386 214.244 L-436.366 213.093 L-438.912 212.49 L-440.565 213.073 L-442.05 214.082 L-443.99 216.448 L-446.474 221.229 L-448.011 225.795 L-449.065 231.063 L-449.339 235.772 L-448.682 240.562 L-447.531 243.48 L-444.505 247.48 L-441.729 249.249 L-440.012 249.624 L-436.841 249.366 L-433.999 248.686 L-424.774 240.592 L-421.564 236.803 L-418.915 232.831 "/></g><g><path fill="none" stroke="#000000" stroke-width="6" stroke-linecap="round" stroke-linejoin="round" d="M-413.36 217.003 L-413.695 215.156 L-414.149 214.971 L-415.26 217 L-416.403 221.39 L-417.33 229.739 L-417.345 250.46 L-416.687 254.278 L-416.245 254.952 L-415.872 254.984 L-415.65 254.533 L-415.717 253.948 L-414.259 251.372 L-412.433 246.873 L-409.824 238.251 L-406.286 223.742 L-404.793 220.617 L-401.492 216.754 L-398.718 214.806 L-398.254 215.073 L-397.179 216.993 L-396.33 219.521 L-395.586 223.61 "/></g><g><path fill="none" stroke="#000000" stroke-width="6" stroke-linecap="round" stroke-linejoin="round" d="M-381.313 226.1 L-382.57 225.409 L-383.149 225.369 L-383.187 225.628 L-382.817 226.194 L-382.121 230.833 L-381.548 232.709 L-379.346 237.586 L-374.486 245.127 L-373.165 246.718 L-371.063 248.309 L-368.952 248.122 L-367.315 246.735 L-362.575 236.109 L-358.814 223.453 L-356.441 214.04 L-358.083 220.652 L-359.436 228.508 L-364.944 272.711 L-369.536 301.193 L-369.209 303.674 L-368.434 303.284 L-367.929 302.495 "/></g><g><path fill="none" stroke="#000000" stroke-width="6" stroke-linecap="round" stroke-linejoin="round" d="M-275.246 208.739 L-276.979 207.165 L-277.435 207.245 L-277.979 207.898 L-278.67 212.343 L-279.062 219.663 L-277.533 269.845 L-275.364 312.232 L-278.812 275.13 L-279.972 248.272 L-279.928 229.921 L-279.154 222.061 L-277.916 217.085 L-275.728 212.83 L-273.704 210.347 L-269.19 207.094 L-265.373 205.265 L-261.987 204.464 L-259.441 204.53 L-256.565 205.888 L-254.907 207.28 L-252.75 210.089 L-251.089 214.061 L-249.101 222.908 L-247.588 236.958 L-248.056 243.591 L-249.434 247.794 L-250.572 249.814 L-252.189 251.87 L-255.016 253.786 L-256.983 254.427 L-259.959 254.834 L-262.098 254.955 L-265.37 254.565 L-266.999 254.184 L-267.735 253.581 L-269.382 253.517 L-272.325 251.945 L-274.503 249.983 L-276.197 247.208 L-276.727 244.758 L-276.038 242.329 L-274.171 239.835 "/></g><g><path fill="none" stroke="#000000" stroke-width="6" stroke-linecap="round" stroke-linejoin="round" d="M-229.366 183.792 L-231.65 182.079 L-232.091 181.951 L-232.59 182.551 L-232.014 187.37 L-230.002 221.414 L-230.026 251.049 L-230.964 259.731 L-230.721 261.633 L-230.128 261.582 "/></g><g><path fill="none" stroke="#000000" stroke-width="6" stroke-linecap="round" stroke-linejoin="round" d="M-203.019 222.913 L-203.911 221.922 L-204.466 222 L-204.71 221.731 L-206.202 222.863 L-209.671 226.958 L-213.221 232.653 L-216.468 240.479 L-217.273 244.734 L-216.854 247.307 L-215.24 248.983 L-214.259 249.37 L-212.657 248.796 L-210.821 246.93 L-203.106 236.404 L-201.76 233.796 L-200.331 229.966 L-201.313 232.473 L-201.995 238.119 L-201.404 243.074 L-200.104 246.786 L-198.015 250.521 L-195.295 253.348 L-192.437 255.61 L-191.405 255.994 L-189.55 255.694 "/></g><g><path fill="none" stroke="#000000" stroke-width="6" stroke-linecap="round" stroke-linejoin="round" d="M-182.144 227.136 L-182.039 230.724 L-180.84 237.277 L-179.942 240.563 L-176.817 249.13 L-170.554 261.293 L-168.269 264.551 L-166.981 265.232 L-166.369 264.792 L-165.628 263.088 L-162.991 253.278 L-161.997 245.882 L-161.27 236.091 L-160.244 229.839 L-157.727 222.301 L-157.223 221.358 L-156.884 221.055 L-156.802 221.287 L-157.852 229.748 L-159.482 238.146 L-167.162 272.615 L-168.707 281.903 L-169.484 288.291 L-169.844 296.616 L-171.513 308.452 L-170.621 307.176 L-169.388 304.104 "/></g><g><path fill="none" stroke="#000000" stroke-width="6" stroke-linecap="round" stroke-linejoin="round" d="M-141.265 236.431 L-141.976 237.128 L-141.319 237.561 L-136.453 237.464 L-132.114 236.164 L-127.201 233.759 L-122.169 230.211 L-119.757 227.993 L-118.325 225.809 L-118.186 225.124 L-118.509 224.241 L-119.179 223.828 L-121.357 223.508 L-125.263 223.724 L-127.237 224.844 L-129.789 226.923 L-133.123 231.672 L-136.256 237.825 L-137.912 242.828 L-138.363 248.077 L-138.071 252.506 L-137.042 256.832 L-135.684 259.108 L-134.175 260.895 L-131.742 263.001 L-128.709 265.07 L-124.818 265.076 L-120.303 263.604 L-117.679 262.217 "/></g><g><path fill="none" stroke="#000000" stroke-width="6" stroke-linecap="round" stroke-linejoin="round" d="M-99.7625 231.601 L-101.887 233.07 L-103.624 235.657 L-104.862 238.928 L-105.25 242.65 L-104.433 248.512 L-101.692 261.008 L-100.037 264.976 L-98.973 266.913 L-98.3925 267.158 L-97.9438 266.698 L-97.0825 264.194 L-94.7253 255.568 L-93.4547 247.753 L-92.4335 238.553 L-91.4092 234.948 L-88.1815 230.61 L-83.9725 227.76 L-81.7161 226.903 L-78.4518 226.449 L-77.2617 226.548 L-75.4994 227.246 "/></g><g><path fill="none" stroke="#000000" stroke-width="6" stroke-linecap="round" stroke-linejoin="round" d="M-1.06256 216.939 L-0.873352 215.362 L-0.942139 215.807 L0.227295 218.34 L0.609619 220.877 L0.513428 236.583 L1.31512 245.638 L1.55933 245.849 L1.7533 244.997 L5.92224 237.626 L9.35132 229.722 L14.4241 219.395 L14.886 219.323 L14.9528 219.574 L14.6415 220.529 L14.8407 233.482 L15.7568 237.019 L16.8048 238.978 L17.4573 239.515 L17.9993 239.067 L18.6859 239.101 L20.2617 237.746 L23.0068 234.455 L30.3373 220.491 L30.9788 219.636 L32.3059 219.435 L32.6098 226.274 L32.0517 236.181 L32.0762 247.186 L32.6049 249.182 L33.2039 249.567 L33.702 249.461 "/></g><g><path fill="none" stroke="#000000" stroke-width="6" stroke-linecap="round" stroke-linejoin="round" d="M56.5284 226.065 L56.5826 223.356 L56.1512 224.096 L53.5989 226.23 L51.1221 229.733 L48.6351 232.519 L45.6979 236.795 L44.2159 240.565 L43.972 243.271 L44.4785 245.336 L46.1032 247.304 L48.0547 247.57 L51.8992 245.629 L55.0835 242.667 L56.2998 241.119 L59.4852 235.681 L60.7521 230.463 L60.8189 228.021 L60.4991 226.786 L59.9832 227.398 L60.17 227.996 L59.5188 231.094 L59.4142 233.358 L59.7457 236.862 L60.859 241.114 L63.056 246.344 L65.2394 250.423 L69.1665 255.865 L69.8843 256.111 "/></g><g><path fill="none" stroke="#000000" stroke-width="6" stroke-linecap="round" stroke-linejoin="round" d="M81.549 197.212 L80.3835 197.519 L79.8779 199.212 L79.6843 201.896 L80.1039 223.718 L79.4344 263.739 L79.6526 267.747 L80.0486 267.47 L81.3859 264.419 L84.28 256.756 L85.233 255.466 L87.7559 250.312 L89.7071 245.568 L92.8281 236.427 L96.561 227.325 L98.2316 223.8 L99.0635 222.833 L89.0067 242.362 L84.344 256.077 L84.2336 257.651 L84.7227 258.243 L96.9894 259.766 L104.811 261.823 L108.367 262.359 "/></g><g><path fill="none" stroke="#000000" stroke-width="6" stroke-linecap="round" stroke-linejoin="round" d="M121.703 231.91 L119.593 230.847 L119.798 231.304 L122.145 231.072 L128.572 229.558 L132.252 227.401 L136.695 223.8 L137.907 222.388 L138.184 221.034 L138.06 219.773 L137.026 217.574 L135.894 216.85 L134.527 216.525 L133.198 216.626 L131.275 217.295 L127.319 219.77 L124.049 222.858 L121.389 226.702 L118.55 232.014 L116.454 238.618 L116.073 241.69 L116.203 243.146 L117.72 247.227 L119.954 250.44 L121.593 251.77 L124.06 252.708 L126.611 252.877 L129.525 252.543 L135.887 251.119 L141.82 248.93 "/></g><g><path fill="none" stroke="#000000" stroke-width="6" stroke-linecap="round" stroke-linejoin="round" d="M166.523 214.637 L164.495 214.785 L163.848 215.103 L161.903 216.786 L160.473 218.518 L156.278 226.759 L155.296 230.477 L155.524 231.303 L156.201 231.545 L159.474 231.591 L164.915 230.083 L168.954 229.376 L172.913 229.328 L173.719 229.498 L175.55 230.676 L176.706 233.142 L176.941 234.996 L176.784 238.028 L175.287 243.481 L170.131 254.017 L165.484 260.192 L165.241 260.602 L165.756 260.797 "/></g><g><path fill="none" stroke="#000000" stroke-width="6" stroke-linecap="round" stroke-linejoin="round" d="M276.409 178.731 L276.094 176.456 L276.427 182.881 L275.037 200.482 L272.683 219.459 L272.22 230.78 L272.858 235.957 L273.812 237.927 L275.128 239.4 L276.786 240.5 L279.517 241.656 L284.646 241.626 L290.622 239.474 "/></g><g><path fill="none" stroke="#000000" stroke-width="6" stroke-linecap="round" stroke-linejoin="round" d="M255.2 216.69 L254.927 216.305 L255.342 216.016 L263.295 213.121 L273.849 210.452 L276.74 210.034 L281.517 209.992 L285.741 210.855 L288.003 211.858 "/></g><g><path fill="none" stroke="#000000" stroke-width="6" stroke-linecap="round" stroke-linejoin="round" d="M304.861 218.476 L304.111 218.375 L304.01 218.716 L306.417 230.542 L308.521 236.792 L311.281 241.862 L316.621 233.785 L319.224 228.427 L322.967 218.54 L325.828 214.287 L325.507 214.988 L325.096 224.636 L325.352 229.164 L326.161 233.636 L327.722 237.811 L329.428 239.157 L331.333 239.725 L332.44 239.159 L333.35 238.035 L335.519 234.158 L339.788 220.334 L343.141 212.722 L343.956 211.734 L343.99 212.407 "/></g><g><path fill="none" stroke="#000000" stroke-width="6" stroke-linecap="round" stroke-linejoin="round" d="M359.257 223.797 L357.894 221.917 L357.401 221.653 L357.178 222.881 L353.15 231.768 L351.008 239.849 L350.767 242.959 L351.643 247.591 L352.723 250.253 L354.015 251.717 L356.003 253.057 L357.974 253.221 L361.735 252.432 L366.006 250.394 L369.572 247.79 L373.166 244.244 L375.841 240.709 L376.837 238.824 L376.748 236.078 L376.207 234.621 L375.035 233.24 L370.382 230.131 L365.493 228.626 L359.041 228.403 L357.932 228.907 "/></g><g><path fill="none" stroke="#000000" stroke-width="6" stroke-linecap="round" stroke-linejoin="round" d="M-544.511 368.618 L-544.232 367.189 L-543.307 365.372 L-543.655 366.033 L-544.539 365.826 L-546.237 366.273 L-548.953 367.987 L-553.721 372.928 L-557.165 377.013 L-562.169 384.306 L-563.862 387.644 L-564.971 392.14 L-565.169 397.335 L-563.908 401.143 L-561.981 403.868 L-558.251 406.574 L-552.195 408.387 L-547.638 408.98 L-543.124 409.051 L-539.421 408.413 L-531.492 405.502 L-527.837 402.914 "/></g><g><path fill="none" stroke="#000000" stroke-width="6" stroke-linecap="round" stroke-linejoin="round" d="M-519.244 346.782 L-521.082 344.995 L-521.391 345.379 L-521.679 347.292 L-521.861 358.575 L-521.3 368.596 L-520.864 386.865 L-520.6 391.742 L-519.684 396.584 L-516.939 403.126 L-514.344 407.448 L-512.521 405.841 L-510.119 400.336 L-508.387 395.375 L-505.811 384.659 L-504.415 380.557 L-502.521 377.536 L-501.375 376.537 L-500.511 376.775 L-500.44 376.463 L-497.666 387.722 L-497.114 392.407 L-494.645 401.849 L-491.356 407.605 L-489.946 408.22 L-487.027 408.162 "/></g><g><path fill="none" stroke="#000000" stroke-width="6" stroke-linecap="round" stroke-linejoin="round" d="M-465.683 379.453 L-465.973 378.858 L-467.653 378.036 L-469.655 378.982 L-471.156 381.185 L-472.841 384.66 L-475.916 394.394 L-476.381 401.028 L-476.133 404.022 L-475.648 405.871 L-474.018 408.542 L-469.266 411.309 L-466.627 411.722 L-463.863 411.622 L-460.175 410.446 L-458.061 408.97 L-456.376 406.966 L-455.015 403.808 L-454.718 400.92 L-454.953 398.87 L-455.771 396.494 L-458.814 390.533 L-463.455 385.468 L-468.386 381.086 L-468.604 380.536 L-468.471 380.819 L-467.036 380.786 "/></g><g><path fill="none" stroke="#000000" stroke-width="6" stroke-linecap="round" stroke-linejoin="round" d="M-436.389 385.346 L-437.555 386.196 L-438.588 387.987 L-438.872 391.322 L-438.578 394.832 L-436.889 401.888 L-435.752 405.17 L-434.715 406.813 L-433.957 409.54 L-433.116 410.706 L-431.654 411.527 L-429.975 410.483 L-429.083 409.397 "/></g><g><path fill="none" stroke="#000000" stroke-width="6" stroke-linecap="round" stroke-linejoin="round" d="M-434.371 364.02 L-435.286 363.642 L-435.171 363.359 L-434.017 362.349 L-433.675 362.624 "/></g><g><path fill="none" stroke="#000000" stroke-width="6" stroke-linecap="round" stroke-linejoin="round" d="M-399.521 382.97 L-399.934 380.813 L-399.348 379.823 L-399.649 379.991 L-399.85 379.63 L-402.275 380.478 L-407.143 383.79 L-409.197 385.764 L-413.98 392.17 L-415.744 395.267 L-417.248 399.334 L-417.65 402.852 L-417.52 404.909 L-416.478 408.177 L-415.216 409.624 L-411.991 411.328 L-409.023 412.229 L-402.124 412.986 L-398.07 412.937 L-393.88 412.445 L-389.35 411.309 L-387.443 410.615 L-386.214 409.736 "/></g><g><path fill="none" stroke="#000000" stroke-width="6" stroke-linecap="round" stroke-linejoin="round" d="M-373.848 392.994 L-374.808 393.217 L-373.694 393.314 L-371.312 392.669 L-370.974 392.312 L-367.98 391.316 L-364.301 389.157 L-361.465 386.785 L-360.578 385.57 L-357.296 382.446 L-355.414 378.88 L-354.997 375.512 L-355.382 374.015 L-356.025 372.987 L-356.954 372.143 L-358.443 371.657 L-360.122 371.682 L-361.958 372.258 L-364.368 373.788 L-368.504 378.209 L-370.231 381.804 L-371.613 385.787 L-372.445 391.781 L-372.307 394.559 L-371.618 397.582 L-369.852 401.536 L-365.353 404.983 L-358.541 406.257 L-352.688 405.275 L-349.07 404.253 L-345.229 402.858 L-339.421 400.037 "/></g><g><path fill="none" stroke="#000000" stroke-width="6" stroke-linecap="round" stroke-linejoin="round" d="M-309.683 366.54 L-311.514 368.2 L-312.187 370.142 L-319.097 381.146 L-320.976 385.627 L-321.245 387.309 L-320.765 388.366 L-317.812 389.563 L-315.068 389.326 L-309.363 387.576 L-300.033 383.753 L-297.096 383.41 L-294.227 383.773 L-291.969 384.761 L-290.9 385.761 L-289.636 388.331 L-289.82 391.133 L-290.54 393.07 L-297.157 403.125 L-302.037 411.662 L-302.671 412.936 L-302.716 414.298 L-302.205 414.632 "/></g><g><path fill="none" stroke="#000000" stroke-width="6" stroke-linecap="round" stroke-linejoin="round" d="M-192.515 382.043 L-192.749 381.949 L-192.512 381.619 L-191.281 382.757 L-189.109 383.328 L-185.313 382.703 L-181.295 381.144 L-177.113 377.675 L-175.63 375.836 L-174.794 373.749 L-174.916 372.8 L-175.367 372.224 L-179.746 370.233 L-181.128 370.059 L-181.833 370.439 L-183.586 370.507 L-187.66 373.538 L-190.5 376.564 L-193.341 381.037 L-195.639 387.302 L-195.89 393.209 L-195.364 397.103 L-194.243 399.455 L-192.486 401.159 L-191.6 401.635 L-186.532 402.89 L-174.205 404.251 L-170.807 403.551 L-166.923 402.108 "/></g><g><path fill="none" stroke="#000000" stroke-width="6" stroke-linecap="round" stroke-linejoin="round" d="M-143.023 378.419 L-143.99 376.69 L-146.848 377.482 L-154.063 382.997 L-157.688 386.62 L-161.016 390.853 L-162.899 394.926 L-163.296 398 L-162.621 401.247 L-161.942 401.93 L-160.82 402.262 L-159.505 402.303 L-156.497 401.525 L-154.396 400.331 L-151.838 398.157 L-146.516 391.46 L-145.619 389.59 L-143.307 383.212 L-142.472 378.511 L-142.759 380.671 L-142.312 384.928 L-140.755 391.611 L-137.03 396.541 L-134.959 401.318 L-133.777 401.87 L-132.432 401.552 "/></g><g><path fill="none" stroke="#000000" stroke-width="6" stroke-linecap="round" stroke-linejoin="round" d="M-107.497 377.168 L-107.979 376.414 L-108.631 376.087 L-110.998 376.526 L-113.768 379.059 L-119.535 385.823 L-121.697 388.888 L-123.618 392.491 L-124.165 395.021 L-123.728 397.429 L-122.49 398.964 L-119.643 401.251 L-115.893 402.202 L-113.095 402.53 L-108.367 402.681 L-98.2355 399.917 "/></g><g><path fill="none" stroke="#000000" stroke-width="6" stroke-linecap="round" stroke-linejoin="round" d="M-89.9257 348.829 L-90.4877 349.43 L-88.4694 373.846 L-88.0776 390.063 L-87.5112 394.669 L-86.5534 397.37 L-84.1974 400.33 L-82.065 400.733 L-76.8358 379.594 L-75.7495 377.392 L-74.1669 375.141 L-72.0424 373.764 L-70.5086 377.177 L-69.8337 380.596 L-66.9858 390.546 L-65.6541 396.826 L-65.0179 402.948 L-63.4022 405.392 L-61.965 405.493 "/></g><g><path fill="none" stroke="#000000" stroke-width="6" stroke-linecap="round" stroke-linejoin="round" d="M34.4268 348.651 L33.2606 348.683 L32.3858 358.341 L32.2561 376.665 L31.6635 390.665 L32.1659 394.487 L32.97 396.635 L34.792 400.086 L38.4424 405.223 L40.1832 406.403 L42.4577 406.959 L44.7322 406.576 L48.227 405.301 L56.3573 400.493 L58.838 398.598 "/></g><g><path fill="none" stroke="#000000" stroke-width="6" stroke-linecap="round" stroke-linejoin="round" d="M23.1324 373.159 L22.4252 372.883 L25.1691 372.117 L32.4397 370.81 L35.8019 370.98 L44.7054 372.479 L50.4245 372.412 "/></g><g><path fill="none" stroke="#000000" stroke-width="6" stroke-linecap="round" stroke-linejoin="round" d="M73.3088 373.47 L72.2024 373.151 L72.7458 374.492 L74.1925 399.322 L74.847 401.606 L76.1184 402.089 L79.2015 401.088 L83.9966 396.967 L91.3053 386.618 L94.0306 379.737 L95.4516 375.216 L95.6572 373.372 L95.113 375.324 L94.5853 381.905 L95.9842 392.768 L98.201 399.343 L100.776 402.981 L101.893 403.775 "/></g><g><path fill="none" stroke="#000000" stroke-width="6" stroke-linecap="round" stroke-linejoin="round" d="M115.894 375.335 L115.043 377.868 L114.783 380.031 L115.055 383.657 L115.698 386.993 L117.787 391.54 L123.084 399.198 L123.449 398.651 L123.612 398.882 L124.122 397.697 L125.888 392.631 L127.692 381.789 L128.324 374.265 L129.008 371.445 L129.594 370.356 L130.855 369.69 L131.572 369.891 L132.987 369.664 L138.243 373.051 L140.651 375.743 "/></g><g><path fill="none" stroke="#000000" stroke-width="6" stroke-linecap="round" stroke-linejoin="round" d="M154.989 369.613 L154.403 370.195 L154.244 371.433 L156.713 391.505 L158.398 395.502 L161.027 398.796 L162.109 398.991 L163.209 398.739 L165.199 396.199 L166.208 394.007 L171.34 385.377 L174.329 378.075 L176.268 372.092 L177.314 370.677 L178.113 373.273 L179.565 375.339 L182.242 383.455 L183.629 386.431 L185.451 389.542 L187.439 391.27 L188.285 392.425 L188.675 394.076 L188.608 395.892 "/></g><g><path fill="none" stroke="#000000" stroke-width="6" stroke-linecap="round" stroke-linejoin="round" d="M217.457 393.877 L215.817 392.684 "/></g><g><path fill="none" stroke="#000000" stroke-width="6" stroke-linecap="round" stroke-linejoin="round" d="M-554.153 505.095 L-553.962 501.504 L-554.425 502.217 L-556.129 502.632 L-557.652 503.41 L-561.607 506.758 L-564.469 510.824 L-567.587 517.457 L-570.002 523.245 L-571.086 527.611 L-571.379 540.182 L-570.616 549.598 L-568.659 556.309 L-567.242 558.852 L-565.06 561.506 L-563.166 562.935 L-561.198 563.849 L-556.574 564.988 L-552.42 565.31 L-548.123 564.747 L-541.455 561.477 L-539.567 560.136 L-536.268 556.872 L-529.834 549.43 L-524.761 541.757 L-521.536 534.015 L-521.062 528.481 L-521.278 525.361 L-522.311 520.981 L-524.304 516.392 L-528.09 511.22 L-532.789 506.38 L-535.118 504.75 L-538.708 503.455 L-544.747 503.003 L-548.977 503.688 L-552.65 504.891 L-555.185 506.22 L-557.016 508.061 L-557.083 511.005 L-555.243 514.332 "/></g><g><path fill="none" stroke="#000000" stroke-width="6" stroke-linecap="round" stroke-linejoin="round" d="M-510.765 543.023 L-511.995 540.723 L-511.77 542.807 L-512.061 547.068 L-511.443 565.226 L-510.44 568.876 L-509.905 569.177 L-508.001 568.923 L-506.879 567.659 L-505.514 564.122 L-503.054 560.144 L-497.494 549.192 L-495.44 547.209 L-493.888 546.328 L-493.048 546.659 L-492.652 547.619 L-491.559 552.387 L-490.634 563.735 L-489.928 567.641 L-488.993 569.815 L-487.263 572.555 L-485.812 573.151 L-485.081 572.747 "/></g><g><path fill="none" stroke="#000000" stroke-width="6" stroke-linecap="round" stroke-linejoin="round" d="M-467.586 552.395 L-468.221 552.048 L-468.918 552.364 L-468.803 552.086 L-467.669 552.582 L-466.642 552.44 L-461.415 551.306 L-459.601 550.59 L-457.031 549.186 L-452.776 545.914 L-451.238 544.346 L-450.029 542.096 L-450.477 541.25 L-450.781 541.326 L-452.156 540.268 L-457.202 540.75 L-459.48 541.591 L-462.762 543.499 L-466.856 546.864 L-469.038 549.792 L-471.224 555.481 L-471.679 557.915 L-470.999 561.853 L-469.704 563.935 L-466.313 566.79 L-463.804 567.918 L-460.746 568.549 L-456.286 568.508 L-454.263 568.081 L-447.055 566.016 L-442.842 563.988 "/></g><g><path fill="none" stroke="#000000" stroke-width="6" stroke-linecap="round" stroke-linejoin="round" d="M-349.424 546.426 L-350.074 546.261 L-350.944 545.099 L-351.507 545.061 L-351.994 544.03 L-352.845 543.975 L-355.821 545.391 L-358.631 548.919 L-361.481 556.343 L-363.895 566.028 L-364.06 570.652 L-363.496 572.826 L-362.45 574.238 L-359.062 576.166 L-355.417 577.197 L-352.642 577.094 L-350.222 576.391 L-344.263 573.31 L-340.8 570.828 L-339.073 568.87 "/></g><g><path fill="none" stroke="#000000" stroke-width="6" stroke-linecap="round" stroke-linejoin="round" d="M-329.733 508.38 L-331.388 508.647 L-332.427 509.424 L-332.875 510.147 L-333.229 512.679 L-330.785 538.397 L-329.027 551.943 L-327.973 556.112 L-324.556 564.981 L-323.379 569.079 L-323.429 568.375 L-319.306 557.906 L-314.813 544.315 L-312.984 540.803 L-311.957 539.524 L-311.284 538.911 L-309.689 538.381 L-308.75 538.517 L-308.373 539.333 L-307.74 542.9 L-307.424 558.468 L-307.038 562.591 L-306.57 563.982 L-305.167 565.7 L-304.652 566.297 L-303.691 566.521 "/></g><g><path fill="none" stroke="#000000" stroke-width="6" stroke-linecap="round" stroke-linejoin="round" d="M-283.835 541.668 L-286.027 542.61 L-287.934 544.385 L-289.342 546.761 L-290.842 551.14 L-291.356 553.714 L-291.652 556.964 L-291.13 561.738 L-289.411 564.737 L-287.417 567.05 L-285.781 567.342 L-282.626 566.798 L-280.36 565.739 L-277.23 563.528 L-270.318 557.148 L-267.74 553.447 L-266.357 550.005 L-266.392 548.174 L-266.809 547.134 L-268.487 545.859 L-271.551 544.846 L-281.552 542.653 L-281.973 542.293 L-282.181 542.599 L-281.335 542.798 "/></g><g><path fill="none" stroke="#000000" stroke-width="6" stroke-linecap="round" stroke-linejoin="round" d="M-253.727 543.109 L-254.065 542.547 L-254.109 543.218 L-253.134 546.629 L-252.132 552.442 L-250.939 565.369 L-250.2 567.895 L-249.31 569.469 L-248.465 569.951 L-247.439 570.062 "/></g><g><path fill="none" stroke="#000000" stroke-width="6" stroke-linecap="round" stroke-linejoin="round" d="M-252.336 521.484 L-251.833 519.781 L-250.816 520.307 "/></g><g><path fill="none" stroke="#000000" stroke-width="6" stroke-linecap="round" stroke-linejoin="round" d="M-216.814 543.467 L-218.617 543.541 L-222.677 545.215 L-227.783 549.289 L-230.562 552.57 L-232.259 556.127 L-233.387 560.632 L-233.462 563.879 L-232.412 566.258 L-230.604 568.287 L-229.437 568.937 L-225.485 570.303 L-222.761 570.643 L-217.956 570.158 L-208.001 567.346 L-201.867 566.048 "/></g><g><path fill="none" stroke="#000000" stroke-width="6" stroke-linecap="round" stroke-linejoin="round" d="M-192.145 557.305 L-190.238 556.308 L-185.77 555.264 L-180.637 552.672 L-176.774 549.624 L-172.582 546.991 L-170.566 544.753 L-169.682 543.275 L-169.347 541.859 L-169.445 540.156 L-170.287 538.537 L-171.753 537.383 L-173.646 536.441 L-175.515 535.935 L-178.683 535.645 L-182.223 536.027 L-184.466 537.017 L-186.615 539.128 L-188.402 541.708 L-190.869 547.125 L-192.288 552.8 L-191.818 555.922 L-190.287 558.695 L-188.376 560.305 L-185.385 561.749 L-183.484 562.227 L-178.326 562.377 L-170.864 561.089 L-162.028 557.071 "/></g><g><path fill="none" stroke="#000000" stroke-width="6" stroke-linecap="round" stroke-linejoin="round" d="M-50.9517 506.991 L-51.5317 502.739 L-52.3969 501.289 L-55.6334 502.259 L-58.7626 503.637 L-63.5961 508.944 L-65.6358 512.388 L-67.8531 518.113 L-69.8329 525.657 L-71.207 533.336 L-72.6827 549.683 L-72.3976 563.7 L-70.5801 576.31 L-65.8901 594.68 L-63.6554 605.546 L-62.7542 613.674 L-62.7759 618.474 L-63.1116 621.022 L-63.4625 620.998 L-64.4421 616.946 "/></g><g><path fill="none" stroke="#000000" stroke-width="6" stroke-linecap="round" stroke-linejoin="round" d="M-85.4035 556.125 L-87.0093 553.249 L-87.2637 551.701 L-86.8995 550.787 L-85.21 549.635 L-80.0255 548.296 L-75.7465 548.347 L-72.2167 549.764 L-66.262 551.34 L-55.6383 552.242 "/></g><g><path fill="none" stroke="#000000" stroke-width="6" stroke-linecap="round" stroke-linejoin="round" d="M-45.2813 548.109 L-46.027 549.513 L-46.2527 551.616 L-45.6132 556.914 L-44.5909 560.736 L-43.2902 563.151 L-42.3859 564.141 L-38.4999 566.637 L-37.5826 566.665 L-36.1754 564.401 L-35.2252 561.637 L-32.6005 547.055 L-30.7151 542.482 L-28.3054 540.335 L-25.7136 539.134 L-23.5217 539.436 L-19.9947 541.694 "/></g><g><path fill="none" stroke="#000000" stroke-width="6" stroke-linecap="round" stroke-linejoin="round" d="M2.67279 538.753 L1.66052 537.863 L-0.197876 538.175 L-3.25415 540.461 L-5.03442 542.321 L-7.47101 545.64 L-9.6853 550.564 L-10.4528 555.04 L-9.79077 558.485 L-7.47003 561.351 L-4.39105 562.659 L2.16241 560.962 L4.17627 559.662 L7.12433 557.269 L13.3413 551.306 L15.0116 549.34 L16.244 547.239 L17.2621 543.987 L17.2713 542.087 L16.4204 540.127 L13.773 537.359 L9.64648 534.91 L7.84827 534.325 L6.0498 534.385 L3.94165 535.487 L2.58038 537.063 L2.24042 536.997 L1.93396 538.301 L2.20337 538.936 L2.81305 539.166 L5.94788 539.653 "/></g><g><path fill="none" stroke="#000000" stroke-width="6" stroke-linecap="round" stroke-linejoin="round" d="M33.7011 544.27 L33.0303 545.631 L32.7153 549.99 L32.7944 555.608 L33.3015 560.135 L33.795 562.371 L34.794 564.576 L37.4001 568.767 L38.3531 569.257 L40.7144 565.667 L43.1422 560.049 L47.7459 547.623 L49.9377 543.886 L51.2972 542.292 L53.1908 541.708 L53.5647 542.105 L53.8132 548.957 L53.5714 554 L53.9894 556.284 L55.4871 558.034 L58.2791 559.391 L59.8101 558.964 L61.398 557.403 L71.4437 541.355 L75.4372 535.961 L74.3571 547.866 L74.3476 552.903 L74.6647 555.422 L75.9654 559.482 L77.7058 562.88 L80.9184 565.456 L83.5667 565.305 "/></g><g><path fill="none" stroke="#000000" stroke-width="6" stroke-linecap="round" stroke-linejoin="round" d="M189.67 544.895 L190.744 545.414 L192.786 545.314 L196.028 544.236 L199.835 542.43 L204.656 538.467 L205.531 536.854 L205.922 535.325 L205.374 533.861 L203.55 532.425 L200.077 531.946 L197.438 532.632 L195.278 534.083 L190.406 539.15 L186.617 545.073 L184.912 549.027 L184.559 552.33 L184.949 555.151 L185.938 556.703 L192.351 560.915 L198.362 562.249 L199.718 561.915 L206.514 561.715 "/></g><g><path fill="none" stroke="#000000" stroke-width="6" stroke-linecap="round" stroke-linejoin="round" d="M230.05 540.183 L221.524 549.409 L218.156 553.851 L215.909 557.81 L215.229 559.637 L215.048 561.456 L215.329 562.348 L216.174 563.385 L217.768 563.638 L219.684 563.092 L224.036 561.294 L226.983 559.03 L230.649 554.713 L233.363 549.816 L234.182 546.128 L234.03 544.05 L233.469 543.273 L231.727 545.539 L231.233 548.211 L231.641 550.144 L233.557 553.601 L234.889 555.191 L240.132 559.456 L242.787 561.022 L245.058 561.816 L245.448 562.248 L246.719 562.266 "/></g><g><path fill="none" stroke="#000000" stroke-width="6" stroke-linecap="round" stroke-linejoin="round" d="M268.566 540.999 L266.427 538.786 L265.969 539.79 L263.79 541.729 L259.805 546.437 L257.299 550.119 L255.336 554.046 L254.321 557.693 L254.525 559.293 L255.53 561.271 L256.811 562.561 L257.769 563.167 L261.27 563.81 L265.652 563.956 L274.278 560.977 "/></g><g><path fill="none" stroke="#000000" stroke-width="6" stroke-linecap="round" stroke-linejoin="round" d="M293.781 519.003 L292.051 519.049 L291.276 534.058 L291.809 542.949 L293.093 553.473 L293.658 556.357 L295.726 562.488 L296.671 563.958 L296.895 563.328 L297.732 562.789 L298.902 561.206 L303.626 551.948 L306.762 546.97 L309.835 543.566 L311.299 542.792 L312.095 543.136 L312.365 545.117 L312.086 559.123 L312.444 562.762 L313.042 563.899 L316.919 567.8 L317.787 568.117 L318.375 567.88 "/></g><g><path fill="none" stroke="#000000" stroke-width="6" stroke-linecap="round" stroke-linejoin="round" d="M412.367 545.981 L413.409 543.523 L413.289 542.521 L412.717 542.876 L411.876 542.739 L409.849 543.341 L407.583 544.952 L402.803 550.637 L400.651 555.915 L399.768 560.49 L399.92 563.065 L402.127 564.595 L404.474 564.7 L406.27 564.023 L410.868 561.953 L416.813 558.113 L421.409 554.417 L423.935 551.586 L424.69 550.14 L424.428 548.527 L422.799 546.784 L420.285 544.88 L418.788 544.453 L417.944 543.646 L417.684 542.951 L423.395 541.33 "/></g><g><path fill="none" stroke="#000000" stroke-width="6" stroke-linecap="round" stroke-linejoin="round" d="M448.538 518.374 L451.305 505.738 L453.756 498.778 L453.967 497.36 L452.392 495.167 L452.605 495.7 L451.981 500.055 L451.365 516.969 L447.799 549.434 L447.278 567.976 L447.664 583.874 L447.466 594.47 L447.744 596.17 L446.716 592.131 L446.316 588.821 "/></g><g><path fill="none" stroke="#000000" stroke-width="6" stroke-linecap="round" stroke-linejoin="round" d="M433.32 537.347 L435.593 535.182 L440.677 534.368 L443.766 534.005 L457.994 533.714 L472.846 531.302 L474.444 530.718 L475.329 530.836 "/></g><g><path fill="none" stroke="#000000" stroke-width="6" stroke-linecap="round" stroke-linejoin="round" d="M-565.253 659.296 L-565.789 658.856 L-565.238 657.846 L-564.642 657.455 L-564.964 658.172 L-565.97 679.067 L-567.315 697.584 L-567.747 711.752 L-567.787 721.563 L-567.036 727.119 L-565.674 730.528 L-563.059 734.051 L-560.133 735.654 L-557.646 736.055 L-555.871 735.89 L-553.298 734.855 L-550.141 732.67 L-547.061 728.601 L-543.838 723.016 "/></g><g><path fill="none" stroke="#000000" stroke-width="6" stroke-linecap="round" stroke-linejoin="round" d="M-577.274 695.873 L-563.24 690.954 L-558.206 689.599 L-554.885 689.125 L-550.712 689.234 "/></g><g><path fill="none" stroke="#000000" stroke-width="6" stroke-linecap="round" stroke-linejoin="round" d="M-521.795 669.883 L-522.891 670.022 L-523.378 672.377 L-523.655 679.454 L-522.935 696.174 L-521.874 706.429 L-520.726 712.909 L-519.161 718.155 L-518.423 719.632 L-516.97 720.615 L-516.12 720.657 L-514.988 719.712 L-510.924 708.473 L-509.376 700.862 L-507.101 695.257 L-506.453 694.298 L-504.444 692.741 L-503.228 692.056 L-500.928 691.568 L-499.646 691.628 L-498.351 692.263 L-497.27 694.2 L-496.209 699.671 L-495.805 706.478 L-495.079 711.358 L-492.339 718.221 "/></g><g><path fill="none" stroke="#000000" stroke-width="6" stroke-linecap="round" stroke-linejoin="round" d="M-480.025 698.284 L-479.335 698.793 L-475.959 698.599 L-473.377 696.616 L-469.376 691.5 L-469.418 690.14 L-470.654 689.214 L-471.855 689.027 L-473.494 689.401 L-478.484 692.921 L-481.033 696.041 L-483.691 700.902 L-486.009 706.702 L-486.655 712.391 L-486.191 715.011 L-485.203 716.935 L-482.956 718.92 L-476.792 720.642 L-470.279 720.206 L-465.325 718.504 L-463.906 717.656 "/></g><g><path fill="none" stroke="#000000" stroke-width="6" stroke-linecap="round" stroke-linejoin="round" d="M-442.831 693.074 L-444.991 692.496 L-447.015 694.006 L-448.024 695.342 L-450.235 700.692 L-450.594 702.577 L-450.416 705.212 L-449.49 707.414 L-448.653 707.789 L-445.37 707.86 L-443.477 707.291 L-442.467 706.354 L-440.749 706.042 L-437.47 704.536 L-436.455 704.222 L-433.991 704.24 L-432.794 704.628 L-431.8 705.884 L-430.689 710.101 L-431.099 713.186 L-432.187 716.049 L-436.459 723.806 L-438.934 727.105 L-441.552 731.455 L-442.04 734.645 L-441.379 734.685 "/></g><g><path fill="none" stroke="#000000" stroke-width="6" stroke-linecap="round" stroke-linejoin="round" d="M-415.003 708.051 L-414.876 707.628 L-413.113 706.967 L-410.874 705.466 L-409.833 705.378 L-407.734 703.003 L-400.96 696.853 L-397.645 693.085 L-396.216 690.723 L-395.891 688.08 L-396.272 687.126 L-397.185 686.193 L-398.538 685.604 L-402.018 685.592 L-405.028 686.813 L-406.475 688.299 L-407.204 688.34 L-409.912 690.322 L-412.078 692.828 L-413.725 695.688 L-415.342 700.049 L-416.665 707.864 L-416.404 712.811 L-415.241 716.136 L-413.551 718.793 L-411.261 720.682 L-408.37 722.088 L-404.777 722.7 L-396.524 723.055 L-385.769 720.201 L-375.147 716.049 "/></g><g><path fill="none" stroke="#000000" stroke-width="6" stroke-linecap="round" stroke-linejoin="round" d="M-231.32 689.96 L-231.911 688.181 L-231.705 686.864 L-231.802 687.651 L-232.648 688.646 L-234.906 688.786 L-239.723 691.404 L-243.665 694.304 L-247.193 697.872 L-249.559 702.034 L-250.995 705.289 L-251.365 709.177 L-250.535 713.079 L-249.089 714.983 L-246.37 716.738 L-242.33 717.859 L-239.433 718.17 L-233.096 717.693 L-227.973 716.333 L-221.568 715.838 "/></g><g><path fill="none" stroke="#000000" stroke-width="6" stroke-linecap="round" stroke-linejoin="round" d="M-190.073 689.586 L-192.597 688.02 L-194.114 687.893 L-195.993 688.967 L-202.707 695.083 L-209.291 703.975 L-211.085 708.164 L-211.095 710.18 L-210.075 711.554 L-207.277 711.656 L-203.775 710.772 L-201.899 709.604 L-198.597 707.029 L-194.379 702.514 L-191.244 698.122 L-187.268 693.693 L-187.348 694.563 L-187.858 695.21 L-188.277 697.776 L-188.146 707.592 L-187.361 712.116 L-185.685 716.676 L-183.252 719.811 L-182.345 720.572 L-181.294 720.941 L-179.356 720.896 L-175.104 719.205 L-174.495 718.684 "/></g><g><path fill="none" stroke="#000000" stroke-width="6" stroke-linecap="round" stroke-linejoin="round" d="M-155.172 665.733 L-156.604 664.002 L-156.024 665.362 L-155.871 668.685 L-156.12 676.364 L-155.976 691.491 L-156.638 704.211 L-156.131 711.028 L-155.476 713.761 L-154.569 715.899 L-152.168 720.09 L-150.409 722.049 L-148.028 722.667 L-147.726 723.279 L-147.254 723.426 L-144.315 719.761 "/></g><g><path fill="none" stroke="#000000" stroke-width="6" stroke-linecap="round" stroke-linejoin="round" d="M-169.002 692.112 L-170.513 691.147 L-171.895 691.04 L-164.703 691.972 L-163.133 691.802 L-157.066 692.342 L-143.413 691.015 "/></g><g><path fill="none" stroke="#000000" stroke-width="6" stroke-linecap="round" stroke-linejoin="round" d="M-123.528 702.472 L-124.288 702.44 L-124.137 701.771 L-121.041 698.697 L-118.547 699.504 L-115.734 699.468 L-111.579 698.591 L-109.384 697.713 L-108.255 696.603 L-104.792 694.994 L-101.12 692.162 L-98.55 689.327 L-96.5449 685.452 L-97.2083 683.01 L-99.585 681.001 L-104.748 680.261 L-108.259 682.236 L-113.517 687.815 L-117.261 693.964 L-120.488 701.244 L-122.222 708.864 L-121.908 712.896 L-120.241 716.698 L-119.418 717.901 L-116.163 721.036 L-113.86 722.266 L-112.234 722.365 L-108.4 721.222 L-100.497 715.606 "/></g><g><path fill="none" stroke="#000000" stroke-width="6" stroke-linecap="round" stroke-linejoin="round" d="M-66.7796 689.645 L-68.2106 688.857 L-68.7881 689.26 L-70.4135 689.314 L-71.1113 689.835 L-72.9528 691.515 L-74.3448 693.656 L-76.8956 696.188 L-79.3599 699.303 L-80.9045 701.667 L-82.8536 706.57 L-83.7697 710.368 L-83.806 712.838 L-82.7016 715.721 L-81.4196 717.035 L-79.235 718.489 L-76.7812 718.542 L-73.2419 716.968 L-71.0146 715.214 L-67.1103 711.167 L-63.3171 706.012 L-60.7953 699.351 L-60.4364 695.14 L-61.9755 689.283 L-62.8817 688.481 L-63.7549 688.206 L-64.7986 688.807 L-65.4848 690.417 L-65.7482 694.71 L-65.1376 701.777 L-64.1053 708.294 L-62.8929 713.919 L-60.2043 723.576 L-57.41 738.439 L-56.7499 746.658 L-57.0055 750.142 L-57.8311 753.676 L-58.8387 755.978 L-62.8078 758.89 L-67.7232 760.984 L-71.6993 760.783 L-76.4359 759.175 L-79.9585 757.321 L-83.8974 753.73 L-85.4054 750.651 L-85.2505 749.629 L-84.0733 747.922 "/></g><g><path fill="none" stroke="#000000" stroke-width="6" stroke-linecap="round" stroke-linejoin="round" d="M-28.1249 692.769 L-29.9084 691.271 L-31.8979 690.751 L-32.9752 691.206 L-35.9849 694.568 L-37.0493 696.352 L-38.1068 699.5 L-38.5999 704.186 L-38.3732 707.674 L-37.3789 712.102 L-36.2517 714.513 L-31.6881 720.078 L-29.4139 722.171 L-27.2357 723.04 L-25.6339 723.143 L-23.8406 721.934 L-22.6506 720.671 L-17.5867 712.301 L-15.2114 706.431 L-14.3904 697.463 L-15.0168 691.553 L-15.7036 689.763 L-17.034 688.001 L-18.0689 687.372 L-19.5579 687.508 L-22.3153 688.007 L-27.5948 690.22 L-30.5585 692.896 L-30.4573 693.604 L-29.1799 693.611 "/></g><g><path fill="none" stroke="#000000" stroke-width="6" stroke-linecap="round" stroke-linejoin="round" d="M2.14307 683.325 L1.27203 688.072 L1.40375 691.583 L4.58276 713.534 L5.45111 716.295 L6.38287 716.999 L7.37335 717.04 L9.18054 715.598 L12.0628 709.679 L13.1153 706.21 L16.2149 690.692 L17.29 687.352 L19.6866 683.273 L20.1644 683.284 L21.159 682.423 L21.5035 682.915 L24.6265 689.81 L25.8146 695.17 "/></g><g><path fill="none" stroke="#000000" stroke-width="6" stroke-linecap="round" stroke-linejoin="round" d="M43.5007 690.873 L42.3221 691.595 L42.065 694.841 L43.1269 715.305 L43.7729 718.751 L44.1152 719.304 L44.3972 719.263 L44.8813 720.572 L45.4159 720.307 "/></g><g><path fill="none" stroke="#000000" stroke-width="6" stroke-linecap="round" stroke-linejoin="round" d="M39.0945 668.195 L37.9661 666.299 L37.9689 665.525 L40.0284 664.818 "/></g><g><path fill="none" stroke="#000000" stroke-width="6" stroke-linecap="round" stroke-linejoin="round" d="M60.3005 696.947 L58.9735 697.237 L61.2728 697.116 L66.8174 694.032 L72.6188 689.663 L73.6927 689.161 L76.8719 686.54 L79.848 684.785 L81.4825 682.134 L81.4817 680.753 L80.8857 680.043 L80.4654 680.125 L79.3414 679.269 L77.5746 678.981 L75.5594 679.111 L72.6705 680.302 L68.4374 683.818 L63.707 689.724 L61.8536 693.212 L60.0809 697.268 L59.5512 701.517 L59.8633 703.386 L61.5986 707.008 L63.3187 709.079 L65.2598 710.191 L69.1793 710.846 L72.8842 710.535 L77.7745 710.9 L81.4791 710.771 L85.5314 711.601 "/></g><g><path fill="none" stroke="#000000" stroke-width="6" stroke-linecap="round" stroke-linejoin="round" d="M110.773 679.676 L109.912 679.045 L108.546 678.846 L106.638 680.639 L102.848 687.371 L98.6982 693.13 L97.7181 695.881 L103.613 696.224 L119.345 692.72 L122.806 692.425 L125.399 692.922 L126.429 694.386 L126.801 696.572 L126.452 698.559 L125.272 701.771 L121.463 709.276 L119.47 712.396 L114.152 719.009 L112.162 722.316 L111.194 724.85 L111.508 726.334 "/></g><g><path fill="none" stroke="#000000" stroke-width="6" stroke-linecap="round" stroke-linejoin="round" d="M161.329 672.57 L161.744 672.267 L159.471 669.447 L158.468 669.296 L158.041 669.565 L157.156 669.238 L155.614 670.603 L154.46 672.166 L152.426 676.058 L152.641 677.989 L153.883 678.634 L155.632 678.76 L157.083 678.488 L160.655 677.227 L162.346 676.015 L162.807 675.535 L163.771 673.053 L163.667 672.058 L163.076 671.318 "/></g><g><path fill="none" stroke="#000000" stroke-width="6" stroke-linecap="round" stroke-linejoin="round" d="M154.989 705.66 L154.799 704.337 L154.158 705.142 L152.446 706.321 L150.706 708.988 L150.159 710.961 L150.355 712.731 L151.545 713.757 L152.797 714.035 L154.852 713.955 L158.45 712.982 L159.567 711.272 L159.514 710.387 L158.565 709.204 L156.753 705.437 "/></g><g><path fill="none" stroke="#000000" stroke-width="6" stroke-linecap="round" stroke-linejoin="round" d="M-356.515 999.704 L-357.326 999.111 L-356.797 999.279 L-356.719 998.926 L-357.003 999.126 L-356.629 999.535 L-354.174 999.929 L-351.637 1000.78 L-343.892 1001.5 L-339.618 1001.37 L-338.805 1000.98 L-336.345 1001.33 L-331.727 1000.45 L-332.492 1000.72 L-332.069 1000.58 L-332.458 1001.19 L-332.491 1002.63 "/></g><g><path fill="none" stroke="#000000" stroke-width="6" stroke-linecap="round" stroke-linejoin="round" d="M-284.859 1027.29 L-285.53 1027.25 L-285.546 1027.02 L-285.304 1026.77 L-285.132 1027.3 L-284.906 1027.18 L-285.096 1027.02 L-283.485 1022.83 L-280.92 1017.75 L-278.421 1011.33 L-275.582 1001.9 L-272.9 991.565 L-271.087 982.895 L-269.842 978.918 L-267.202 973.391 L-265.108 970.97 L-264.801 970.961 L-264.73 971.503 L-265.127 971.957 L-264.075 975.038 L-259.487 1003.83 L-257.709 1010.72 L-254.063 1021.45 L-249.796 1038.16 "/></g><g><path fill="none" stroke="#000000" stroke-width="6" stroke-linecap="round" stroke-linejoin="round" d="M-278.556 1010.4 L-278.991 1010.04 L-277.373 1010.43 L-274.579 1010.31 L-273.697 1009.76 L-273.343 1009.93 L-271.127 1009.58 L-268.728 1008.63 L-266.298 1008.18 L-264.946 1008.24 L-264.401 1008.8 L-263.091 1008.7 L-260.852 1009.58 L-259.411 1009.6 L-258.524 1009.18 "/></g><g><path fill="none" stroke="#000000" stroke-width="6" stroke-linecap="round" stroke-linejoin="round" d="M-232.858 988.651 L-233.769 988.486 L-233.852 988.153 L-233.415 988.232 L-233.922 991.301 L-234.62 1006.63 L-235.526 1017.53 L-235.6 1023.11 L-234.555 1029.31 L-233.625 1030.58 L-231.773 1032.13 L-229.292 1032.63 L-225.06 1031.86 L-223.533 1031.25 L-222.661 1031.37 L-219.757 1030.17 L-218.94 1029.49 L-218.639 1028.74 "/></g><g><path fill="none" stroke="#000000" stroke-width="6" stroke-linecap="round" stroke-linejoin="round" d="M-206.59 981.944 L-206.593 980.996 L-206.321 980.684 L-206.035 980.913 L-206.306 983 L-208.844 991.559 L-209.57 995.872 L-209.873 1000.03 L-210.007 1015.57 L-208.573 1021.48 L-206.564 1024.58 L-205.503 1025.3 L-204.839 1025.22 L-202.328 1026.34 L-199.675 1026.55 L-194.715 1026.15 L-188.184 1024.54 L-187.128 1023.92 "/></g><g><path fill="none" stroke="#000000" stroke-width="6" stroke-linecap="round" stroke-linejoin="round" d="M-250.727 1003.19 L-251.244 1003.14 L-251.741 1002.63 L-252.069 1002.75 L-250.754 1002.8 L-247.685 1001.86 L-243.789 1001.94 L-242.641 1001.66 L-222.003 1000.6 L-211.443 1000.69 L-199.708 1002.12 L-194.887 1001.2 L-190.236 1001 L-186.231 1000.01 "/></g><g><path fill="none" stroke="#000000" stroke-width="6" stroke-linecap="round" stroke-linejoin="round" d="M-158.555 1005.16 L-160.364 1004.78 L-161.524 1005.53 L-164.105 1004.43 L-166.975 1004.56 L-171.394 1006.03 L-172.773 1007.26 L-176.085 1011.05 L-177.48 1014.08 L-177.676 1015.94 L-177.186 1019.45 L-176.06 1022.55 L-174.077 1024.2 L-171.944 1024.38 L-167.863 1023.09 L-163.998 1020.51 L-159.102 1013.89 L-157.616 1011.03 L-156.495 1006.68 L-156.986 1004.86 L-157.383 1004.66 L-157.069 1009.9 L-156.016 1014.77 L-154.671 1018.25 L-154.085 1018.84 L-151.763 1023.43 L-149.402 1026.27 L-146.647 1028.23 L-144.802 1029.2 L-142.842 1029.25 L-141.578 1028.9 "/></g><g><path fill="none" stroke="#000000" stroke-width="6" stroke-linecap="round" stroke-linejoin="round" d="M-119.371 998.391 L-121.104 997.983 L-122.672 998.579 L-128.795 1007.29 L-131.527 1012.94 L-133.923 1019.26 L-134.438 1022.48 L-134.33 1024.75 L-133.733 1026.26 L-132.38 1028.21 L-129.727 1030.76 L-127.544 1031.8 L-124.978 1032.3 L-116.796 1032.8 L-113.869 1032.02 L-112.727 1031.33 L-111.182 1031.39 "/></g><g><path fill="none" stroke="#000000" stroke-width="6" stroke-linecap="round" stroke-linejoin="round" d="M-96.1096 970.151 L-95.8644 970.196 L-97.0233 972.31 L-98.9507 980.116 L-99.5163 987.2 L-98.6837 1015.26 L-96.7858 1032.01 L-96.0811 1035.24 L-94.951 1035.9 L-93.4474 1035.75 L-91.8077 1034.58 L-90.8266 1033.44 L-89.4627 1031.14 L-86.7016 1025.02 L-80.6633 1009.87 L-79.5862 1008.37 L-78.478 1005.38 L-76.5511 1001.81 L-75.6145 1000.59 L-74.835 1000.35 L-74.8826 1002.02 L-77.0742 1005.74 L-79.0903 1008.16 L-81.2646 1010.1 L-83.3643 1013.09 L-84.9233 1014.73 L-86.4877 1017.39 L-88.2525 1021.82 L-88.6776 1024.18 L-88.4932 1025.15 L-86.7594 1027.31 L-84.2881 1029 L-70.7328 1032.92 L-63.3792 1036.28 L-62.1237 1036.49 L-57.977 1038.26 L-55.3131 1038.69 L-52.5082 1039.67 "/></g><g><path fill="none" stroke="#000000" stroke-width="6" stroke-linecap="round" stroke-linejoin="round" d="M-358.288 1080.84 L-359.037 1080.83 L-359.734 1081.76 L-360.347 1082.1 L-360.749 1081.85 L-361 1082.14 L-360.6 1082.25 L-360.531 1081.94 L-358.401 1082.26 L-357.936 1082.86 L-355.533 1082.5 L-351.109 1082.7 L-345.659 1082.1 L-338.574 1083.02 L-336.278 1084.36 "/></g><g><path fill="none" stroke="#000000" stroke-width="6" stroke-linecap="round" stroke-linejoin="round" d="M-291.78 1065.25 L-291.986 1062.89 L-291.788 1061.93 L-291.619 1062.84 L-292.003 1063.49 L-292.377 1066.74 L-292.306 1071.73 L-290.93 1082.48 L-290.256 1096.74 L-289.395 1101.85 L-288.218 1106.29 L-288.03 1095.73 L-289.787 1078.9 L-290.106 1071 L-289.704 1067.44 L-289.209 1065.78 L-287.226 1062.62 L-285.781 1061.25 L-279.723 1061.26 L-277.723 1061.98 L-275.768 1063.18 L-272.799 1065.51 L-266.069 1073.33 L-261.381 1080.59 L-258.831 1086.87 L-257.343 1094.13 L-256.828 1097.86 L-256.876 1101.31 L-257.424 1104.67 L-258.51 1108.12 L-260.191 1111.04 L-261.955 1113.14 L-267.314 1117.53 L-271.376 1118.69 L-275.872 1118.75 L-278.293 1118.52 L-283.095 1116.28 L-285.969 1114.06 L-287.989 1110.57 L-287.875 1108.79 L-287.187 1107.3 L-285.477 1106 L-284.79 1106.02 "/></g><g><path fill="none" stroke="#000000" stroke-width="6" stroke-linecap="round" stroke-linejoin="round" d="M-237.471 1095.47 L-237.901 1096.52 L-237.761 1095.77 L-237.535 1096.37 L-237.356 1096.07 L-234.885 1096 L-232.9 1095.54 L-230.356 1094.08 L-227.032 1091.18 L-224.521 1086.61 L-223.461 1083.46 L-223.682 1080.84 L-225.081 1078.91 L-226.756 1078.33 L-228.434 1078.18 L-230.893 1078.77 L-234.543 1082.41 L-236.169 1085.45 L-239.97 1096.11 L-240.86 1101.11 L-240.723 1105.36 L-239.669 1109.18 L-238.407 1110.86 L-236.467 1112.16 L-235.634 1113.16 L-228.424 1114.15 L-224.186 1114.11 L-221.186 1113.54 L-216.835 1112.44 L-213.101 1110.82 "/></g><g><path fill="none" stroke="#000000" stroke-width="6" stroke-linecap="round" stroke-linejoin="round" d="M-182.42 1061.96 L-182.137 1059.71 L-182.281 1058.95 L-183.066 1058.03 L-185.399 1056.71 L-187.01 1057.13 L-188.625 1060.59 L-189.359 1063.21 L-189.872 1067.97 L-189.802 1072.19 L-188.917 1078.86 L-186.745 1088.12 L-185.386 1096.19 L-181.37 1111.65 L-180.271 1124.65 L-180.135 1149.71 L-179.777 1151.62 L-179.433 1151.4 L-179.099 1145.46 "/></g><g><path fill="none" stroke="#000000" stroke-width="6" stroke-linecap="round" stroke-linejoin="round" d="M-198.5 1095.67 L-198.55 1095.33 L-198.443 1095.58 L-197.13 1095.63 L-195.377 1095.08 L-194.387 1094.41 L-179.674 1093.09 L-174.902 1093.51 L-172.27 1094.56 "/></g><g><path fill="none" stroke="#000000" stroke-width="6" stroke-linecap="round" stroke-linejoin="round" d="M-162.825 1093.99 L-164.158 1093.72 L-164.113 1093.29 L-163.116 1093.6 L-161.122 1092.95 L-155.998 1090.09 L-152.696 1086.6 L-148.576 1082.98 L-147.678 1081.44 L-147.696 1080.14 L-148.14 1079.31 L-149.247 1078.34 L-153.673 1076.87 L-155.454 1077.23 L-157.983 1078.86 L-160.158 1081.5 L-162.863 1086.19 L-163.838 1089.49 L-164.239 1093.22 L-163.273 1098.04 L-162.609 1099.92 L-160.174 1103.19 L-154.982 1107.08 L-152.449 1108.58 L-147.848 1109.39 L-143.516 1108.94 L-141.837 1108.06 L-140.935 1107.19 L-140.13 1106.99 "/></g><g><path fill="none" stroke="#000000" stroke-width="6" stroke-linecap="round" stroke-linejoin="round" d="M-136.096 1083 L-138.266 1081.26 L-136.613 1091.23 L-134.752 1096.51 L-132.781 1100.18 L-130.12 1103.74 L-130.006 1104.9 L-128.552 1103.18 L-126.674 1099.97 L-120.924 1086.55 L-119.767 1084.43 L-119.051 1084.01 L-118.772 1084.47 L-118.509 1084.36 L-118.314 1090.81 L-117.794 1094.71 L-116.145 1099.75 L-113.114 1104.41 L-111.177 1106.03 L-107.771 1105.3 "/></g><g><path fill="none" stroke="#000000" stroke-width="6" stroke-linecap="round" stroke-linejoin="round" d="M-79.7481 1077.43 L-81.4908 1075.33 L-82.2321 1075.08 L-82.9034 1075.3 L-85.1856 1078.19 L-87.6866 1080.53 L-94.4103 1090.23 L-98.0466 1097.08 L-98.9033 1100.4 L-98.386 1103.78 L-96.6591 1106.68 L-93.6042 1108.92 L-90.4434 1107.66 L-88.049 1106 L-84.0825 1101.94 L-82.0355 1099.24 L-78.3037 1091.83 L-76.9763 1085.67 L-76.763 1078.54 L-78.2657 1068.33 L-79.5923 1062.31 L-80.6275 1059.97 L-80.5287 1059.47 L-80.2062 1060.35 L-80.1427 1064.77 L-79.474 1071.34 L-78.3043 1076.96 L-76.4575 1083.06 L-72.7609 1091.1 L-71.9117 1093.64 L-63.9271 1103.38 L-59.509 1107.31 L-58.9474 1107.13 "/></g><g><path fill="none" stroke="#000000" stroke-width="6" stroke-linecap="round" stroke-linejoin="round" d="M-362.287 1167.73 L-363.102 1167.47 L-362.892 1167.3 L-363.106 1167.64 L-362.915 1167.17 L-362.879 1167.59 L-362.728 1167.31 L-358.318 1166.46 L-356.878 1165.9 L-356.493 1165.14 L-355.115 1165.05 L-347.13 1162.9 L-346.204 1162.97 L-339.446 1161.43 L-338.526 1161.5 L-338.484 1161.79 L-338.382 1161.42 L-338.761 1161.73 L-338.482 1161.79 L-338.7 1161.7 L-338.592 1162.32 L-338.815 1162.39 L-338.063 1162.87 L-335.564 1162.72 "/></g><g><path fill="none" stroke="#000000" stroke-width="6" stroke-linecap="round" stroke-linejoin="round" d="M-297.441 1151.75 L-297.086 1151.56 L-297.363 1151.72 L-297.063 1151.87 L-296.836 1153.12 L-296.763 1158.48 L-296.146 1165.95 L-296.129 1179.08 L-296.379 1185.7 L-297.017 1190.53 L-296.915 1191.13 L-296.868 1190.66 L-296.653 1190.81 L-296.902 1191.82 L-297.039 1191.51 L-295.724 1188.69 "/></g><g><path fill="none" stroke="#000000" stroke-width="6" stroke-linecap="round" stroke-linejoin="round" d="M-303.012 1148.11 L-303.518 1147.51 L-303.675 1146.69 L-303.409 1144.19 L-303.056 1143.79 L-302.969 1144.21 L-302.892 1143.42 L-301.13 1141.91 L-300.93 1141.13 L-297.293 1139.6 L-284.69 1136.5 L-282.068 1136.6 L-280.615 1136.29 L-274.303 1137.12 L-273.269 1136.65 L-269.101 1139.12 L-264.551 1143.01 L-262.357 1146.1 L-262.296 1149.3 L-262.665 1150.22 L-262.926 1150.23 L-264.153 1153.25 L-265.54 1155.27 L-273.506 1164.32 L-276.684 1167.2 L-285.843 1172.65 L-287.864 1173.55 L-289.071 1173.48 L-291.573 1175.01 L-296.165 1176.28 L-297.079 1175.8 L-297.572 1176.02 L-297.575 1176.32 L-297.518 1175.72 L-297.651 1176.06 L-296.919 1175.86 L-294.755 1176.17 L-294.121 1175.66 L-293.796 1176.07 L-291.647 1176.93 L-282.292 1178.27 L-269.965 1182.54 L-267.11 1185.4 L-265.645 1186.13 L-264.949 1185.77 L-261.283 1190.14 L-259.675 1191.52 L-259.383 1192.76 L-259.216 1192.27 "/></g><g><path fill="none" stroke="#000000" stroke-width="6" stroke-linecap="round" stroke-linejoin="round" d="M-229.734 1172.17 L-230.077 1172.46 L-230.726 1172.4 L-231.35 1171.1 L-231.644 1171.38 L-232.114 1170.6 L-233.216 1170.3 L-235.879 1171.49 L-237.121 1172.88 L-242.905 1181.62 L-243.614 1184.05 L-243.961 1188.26 L-243.741 1189.06 L-242.85 1190.08 L-241.853 1190.33 L-239.339 1190.15 L-237.105 1189.28 L-235.09 1187.69 L-234.26 1186.64 L-232.431 1185.39 L-231.391 1185.25 L-229.938 1183.91 L-223.728 1176.62 L-222.438 1173.06 L-222.346 1168.55 L-222.478 1167.67 L-223.049 1166.84 L-223.579 1167.16 L-224.352 1166.73 L-224.701 1170.48 L-224.191 1174.62 L-223.578 1176.92 L-219.988 1184.7 L-218.313 1186.66 L-217.781 1186.54 L-217.107 1187.44 L-215.358 1188.71 L-215.151 1188.59 L-214.805 1189.1 L-213.602 1189.51 L-212.096 1189.55 L-211.711 1189.93 L-210.951 1189.71 "/></g><g><path fill="none" stroke="#000000" stroke-width="6" stroke-linecap="round" stroke-linejoin="round" d="M-191.704 1165.88 L-192.766 1166.05 L-192.727 1165.57 L-192.836 1165.87 L-192.654 1166.88 L-194.426 1173.11 L-194.951 1176.73 L-194.896 1180.42 L-193.277 1188.86 L-192.983 1188.97 L-191.87 1191.7 L-190.227 1193.05 L-189.309 1193.22 L-187.436 1192.88 L-185.773 1192.1 L-184.415 1191.18 L-182.458 1188.74 "/></g><g><path fill="none" stroke="#000000" stroke-width="6" stroke-linecap="round" stroke-linejoin="round" d="M-193.019 1144.36 L-193.088 1143.68 L-192.148 1143.54 L-191.486 1145.16 "/></g><g><path fill="none" stroke="#000000" stroke-width="6" stroke-linecap="round" stroke-linejoin="round" d="M-146.136 1163.78 L-146.986 1163.29 L-148.221 1163.19 L-148.668 1163.56 L-149.848 1163.12 L-150.853 1163.65 L-151.297 1163.53 L-155.774 1168.78 L-157.693 1171.62 L-159.5 1175.42 L-160.505 1178.89 L-160.095 1181.39 L-158.304 1183.94 L-157.849 1183.69 L-157.418 1184.28 L-155.713 1184.78 L-153.502 1184.84 L-151.898 1184.26 L-150.274 1183.18 L-149.966 1183.32 L-143.609 1174.78 L-140.468 1167.81 L-139.558 1164.45 L-139.212 1161.31 L-139.504 1149.35 L-140.642 1131.97 L-141.342 1127.61 L-142.739 1125.48 L-144.129 1125.34 L-145.374 1127.75 L-145.992 1134.54 L-144.922 1141.94 L-142.188 1151.2 L-138.597 1160.07 L-131.242 1172.44 L-126.9 1181.69 L-126.264 1182.12 L-124.813 1185.73 L-123.822 1187.02 L-123.455 1186.94 L-122.555 1188.77 L-122.705 1188.29 L-121.552 1186.46 "/></g><g><path fill="none" stroke="#000000" stroke-width="6" stroke-linecap="round" stroke-linejoin="round" d="M-353.556 1321.72 L-353.967 1321.14 L-355.901 1320.28 L-356.301 1320.27 L-356.195 1320.77 L-356.333 1320.47 L-355.942 1320.2 L-355.591 1321.32 L-355.326 1321.07 L-354.496 1321.18 L-350.788 1322.77 L-347.227 1323.42 L-339.712 1323.22 L-337.133 1323.61 L-336.603 1323.31 L-335.936 1323.89 L-335.67 1324.71 L-335.509 1324.47 L-334.184 1324.5 L-333.425 1324.19 L-333.438 1323.91 L-333.4 1324.73 L-333.384 1323.9 L-333.544 1324.43 L-333.441 1324.09 L-333.299 1324.42 L-332.924 1324.1 L-332.414 1324.69 L-331.969 1323.92 L-331.507 1324.48 L-331.603 1324.2 L-331.798 1324.62 L-331.442 1326.12 "/></g><g><path fill="none" stroke="#000000" stroke-width="6" stroke-linecap="round" stroke-linejoin="round" d="M-259.289 1291.21 L-258.449 1290.88 L-259.039 1290.47 L-259.104 1290.79 L-259.213 1290.2 L-259.48 1290.71 L-261.436 1290.25 L-263.202 1291.01 L-266.101 1293.06 L-271.676 1299.16 L-274.339 1303.22 L-277.325 1306.23 L-279.243 1309.45 L-281.307 1313.45 L-284.422 1323.77 L-285.948 1332.53 L-286.273 1338.87 L-285.764 1347.86 L-285.236 1350.13 L-283.235 1355.6 L-280.943 1357.63 L-277.314 1359.51 L-274.224 1360.27 L-269.968 1360.57 L-266.68 1359.69 L-259.689 1357.09 L-253.195 1353.72 L-249.025 1350.56 L-247.341 1348.77 L-244.11 1346.25 L-243.478 1346.08 L-239.198 1339.9 L-238.845 1338.95 L-238.64 1336.78 L-240.862 1333.82 L-246.803 1330.34 L-249.324 1329.38 L-250.699 1329.28 L-255.349 1326.98 L-260.898 1326.77 L-262.224 1327.54 L-262.504 1327.36 L-262.727 1329.02 L-262.02 1330.59 L-259.786 1332.47 "/></g><g><path fill="none" stroke="#000000" stroke-width="6" stroke-linecap="round" stroke-linejoin="round" d="M-211.679 1326.43 L-212.857 1324.41 L-214.07 1324.46 L-214.628 1323.86 L-219.566 1326.75 L-227.758 1335.09 L-229.783 1337.85 L-231.185 1341.33 L-231.498 1344.8 L-230.744 1347.71 L-229.875 1348.37 L-229.325 1348.24 L-227.671 1349.02 L-225.229 1348.83 L-221.455 1347.16 L-218.977 1345.13 L-215.274 1340.25 L-208.758 1329.73 L-206.851 1325.89 L-206.867 1323.06 L-207.396 1323.42 L-207.534 1324.23 L-208.268 1325.35 L-208.872 1329.78 L-208.09 1336.24 L-206.15 1343.02 L-203.526 1347.19 L-199.713 1351.18 L-196.257 1352.83 "/></g><g><path fill="none" stroke="#000000" stroke-width="6" stroke-linecap="round" stroke-linejoin="round" d="M-183.457 1326.57 L-184.115 1326.66 L-184.218 1327.12 L-183.187 1333.33 L-183.136 1343.33 L-183.549 1348.59 L-184.635 1351.81 "/></g><g><path fill="none" stroke="#000000" stroke-width="6" stroke-linecap="round" stroke-linejoin="round" d="M-184.739 1304.1 L-185.884 1303.73 L-187.077 1302.17 L-186.746 1302.79 L-185.625 1303.07 L-185.187 1303.8 L-184.105 1304.51 "/></g><g><path fill="none" stroke="#000000" stroke-width="6" stroke-linecap="round" stroke-linejoin="round" d="M-161.817 1323 L-162.206 1323.7 L-162.311 1326.25 L-159.754 1340.4 L-159.015 1350.5 L-158.082 1352.29 L-157.489 1352.31 L-156.606 1351.32 L-154.319 1347.14 L-151.353 1342.84 L-147.987 1335.68 L-144.359 1329.4 L-140.234 1324.67 L-139.57 1326.02 L-138.302 1333.08 L-136.478 1346.42 L-134.708 1350.49 L-134.464 1350.14 L-134.174 1350.35 L-133.975 1351.1 L-132.541 1352.2 "/></g><g><path fill="none" stroke="#000000" stroke-width="6" stroke-linecap="round" stroke-linejoin="round" d="M-44.1591 1289.1 L-45.3459 1288.02 L-45.2671 1287.47 L-44.9024 1289.09 L-44.8312 1291.36 L-45.2316 1308.4 L-44.1651 1331.34 L-43.9371 1343.21 L-43.2195 1349.83 L-42.7941 1349.94 L-42.6089 1349.42 L-42.4172 1349.83 L-39.8209 1343.9 L-37.665 1337.63 L-34.8538 1327.39 L-31.6813 1319.68 L-27.7644 1313.81 L-25.7472 1312.56 L-25.0204 1311.73 L-23.7197 1312.12 L-23.1342 1314.11 L-22.2215 1324.24 L-21.9108 1331.8 L-21.0455 1336.39 L-19.8148 1340.05 L-17.2172 1344.85 L-16.2438 1345.89 L-15.7766 1345.85 L-15.4436 1345.34 L-15.3437 1345.7 L-14.0915 1346.22 "/></g><g><path fill="none" stroke="#000000" stroke-width="6" stroke-linecap="round" stroke-linejoin="round" d="M3.75287 1324.87 L5.33606 1323.02 L8.17859 1321.35 L10.4484 1320.13 L11.2325 1320.09 L13.4008 1319.08 L14.8394 1319 L16.7726 1318.07 L17.6957 1317.27 L20.5126 1313.85 L21.2955 1312.4 L21.887 1310.56 L21.5236 1308.77 L20.1172 1308.12 L16.757 1307.81 L13.9387 1309.31 L11.5992 1311.62 L8.16907 1315.91 L5.97382 1319.85 L2.20996 1327.31 L1.41394 1330.81 L1.44781 1333.01 L2.36639 1336.25 L4.43512 1338.34 L7.0863 1339.9 L12.2147 1340.27 L15.001 1339.25 L19.6298 1336.87 "/></g><g><path fill="none" stroke="#000000" stroke-width="6" stroke-linecap="round" stroke-linejoin="round" d="M42.375 1318 L41.7042 1317.52 L41.2292 1317.66 L40.6047 1317.04 L39.1579 1318 L31.3986 1326.5 L27.1089 1334.61 L26.191 1339.22 L26.7418 1342.22 L28.179 1343.78 L29.5107 1344.05 L31.2781 1343.57 L33.309 1342.47 L39.5035 1334.8 L42.5726 1329.8 L45.0179 1324.54 L48.3127 1319.45 L47.6763 1320.67 L46.952 1323.48 L46.5483 1326.95 L46.7408 1330.25 L47.8369 1335.41 L50.3778 1342.11 L52.4833 1346.13 L54.2594 1347.6 L54.9409 1347.51 L56.6352 1348.09 "/></g><g><path fill="none" stroke="#000000" stroke-width="6" stroke-linecap="round" stroke-linejoin="round" d="M73.0214 1287.14 L74.7599 1278.81 L73.2808 1282.43 L72.3386 1286.01 L72.0701 1292.27 L72.7374 1306.66 L75.0096 1332.57 L75.2567 1345.06 L76.608 1350.9 L77.9891 1353.03 L79.1478 1353.22 "/></g><g><path fill="none" stroke="#000000" stroke-width="6" stroke-linecap="round" stroke-linejoin="round" d="M108.858 1298.89 L108.683 1303.28 L107.368 1312.59 L106.414 1322.69 L106.587 1332.05 L108.064 1340.15 L110.037 1345.51 L110.874 1347.07 L113.551 1350.32 L114.822 1350.87 L115.315 1350.36 L115.651 1350.62 "/></g><g><path fill="none" stroke="#000000" stroke-width="6" stroke-linecap="round" stroke-linejoin="round" d="M95.9255 1322.91 L94.0742 1321.26 L94.3394 1321.78 L94.7047 1321.36 L94.9006 1321.89 L95.2579 1321.43 L96.6271 1321.53 L100.764 1322.66 L110.001 1323.16 L111.09 1323.61 L114.258 1322.48 L117.921 1322.37 "/></g><g><path fill="none" stroke="#000000" stroke-width="6" stroke-linecap="round" stroke-linejoin="round" d="M134.545 1291.01 L133.922 1289.5 L133.746 1288.09 L134.419 1290.82 L134.682 1293.85 L135.417 1314.3 L137.129 1329.21 L138.073 1342.38 L138.385 1342.17 L138.322 1341.51 L139.374 1340.54 L141.606 1336.45 L143.747 1333.37 L149.256 1321.61 L152.708 1316.18 L155.471 1313.13 L157.729 1311.32 L159.213 1310.7 L160.681 1310.68 L162.361 1311.92 L163.588 1313.94 L166.75 1329.86 L170.19 1343.03 L171.432 1347.25 L172.68 1349.21 L173.215 1349.49 "/></g><g><path fill="none" stroke="#000000" stroke-width="6" stroke-linecap="round" stroke-linejoin="round" d="M-363.454 1402.85 L-363.644 1403.62 L-363.421 1402.98 L-363.344 1403.48 L-361.032 1402.82 L-351.939 1402.68 L-348.447 1402.33 L-346.574 1402.75 L-344.971 1402.72 L-344.152 1402.19 L-342.948 1402.5 L-338.674 1402.48 "/></g><g><path fill="none" stroke="#000000" stroke-width="6" stroke-linecap="round" stroke-linejoin="round" d="M-263.628 1373.35 L-264.292 1372.96 L-263.791 1371.35 L-265.342 1370.16 L-266.063 1370.24 L-266.212 1370.53 L-267.008 1370.01 L-268.316 1371.44 L-269.941 1372.39 L-277.724 1381.38 L-281.836 1386.97 L-285.563 1393.4 L-287.73 1400.06 L-287.912 1406.83 L-287.54 1409.74 L-286.635 1412.77 L-285.486 1415.55 L-283.312 1419.25 L-280.736 1422.32 L-276.392 1425.87 L-275.392 1426.45 L-270.589 1427.86 L-267.201 1427.01 L-260.971 1424.72 L-248.382 1418.35 L-242.647 1414.11 L-241.268 1412.03 L-240.59 1409.23 L-240.666 1407.88 L-241.586 1405.92 L-244.082 1404.42 L-249.484 1402.65 L-256.699 1401.81 L-264.092 1401.65 L-267.039 1401.96 L-268.181 1402.45 L-268.761 1403.22 L-267.751 1404.29 "/></g><g><path fill="none" stroke="#000000" stroke-width="6" stroke-linecap="round" stroke-linejoin="round" d="M-209.446 1407.69 L-209.263 1405.61 L-208.517 1402.73 L-208.878 1402.07 L-211.808 1402.13 L-213.791 1401.63 L-217.144 1402.51 L-219.627 1403.55 L-224.336 1407.26 L-226.02 1408.24 L-228.873 1410.71 L-229.563 1411.73 L-230.389 1413.35 L-230.735 1414.91 L-229.158 1418.04 L-227.632 1419.23 L-225.793 1420.11 L-219.936 1420.99 L-216.874 1420.92 L-212.059 1418.37 L-210.096 1416.31 L-207.042 1413.86 L-203.076 1408.44 L-202.066 1406.42 L-200.795 1402.46 L-200.62 1401.1 L-201.114 1400.35 L-202.84 1401.2 L-204.056 1402.99 L-204.25 1403.89 L-204.222 1408.48 L-202.635 1414.79 L-199.993 1420.72 L-196.022 1425.62 L-192.756 1427.89 L-191.414 1427.86 L-190.754 1427.35 L-190.062 1427.44 "/></g><g><path fill="none" stroke="#000000" stroke-width="6" stroke-linecap="round" stroke-linejoin="round" d="M-182.458 1406.57 L-182.706 1406.59 L-181.613 1407.83 L-181.183 1409.24 L-180.737 1409.62 L-179.497 1412.82 L-178.872 1418.99 L-178.794 1425.68 "/></g><g><path fill="none" stroke="#000000" stroke-width="6" stroke-linecap="round" stroke-linejoin="round" d="M-184.64 1385.6 L-185.98 1383.65 L-185.88 1382.85 L-185.074 1383.5 L-182.602 1384.06 L-181.038 1385.01 "/></g><g><path fill="none" stroke="#000000" stroke-width="6" stroke-linecap="round" stroke-linejoin="round" d="M-165.493 1402.19 L-166.055 1402.51 L-166.189 1403.08 L-163.303 1409.88 L-161.657 1414.77 L-160.621 1421.4 L-159.658 1422.63 L-158.719 1422.14 L-156.89 1419.45 L-151.67 1409.47 L-149.547 1406.5 L-147.754 1404.72 L-146.912 1404.34 L-145.433 1404.09 L-144.487 1404.41 L-142.753 1408.16 L-140.92 1414.49 L-140.178 1421 L-139.234 1425.76 L-138.025 1428.44 L-137.376 1429.1 L-136.871 1429.1 "/></g><g><path fill="none" stroke="#000000" stroke-width="6" stroke-linecap="round" stroke-linejoin="round" d="M-36.7404 1399.47 L-35.7607 1398.06 L-35.9427 1397.55 L-38.9338 1397.17 L-41.4844 1397.52 L-44.1281 1399.05 L-47.8519 1402.85 L-50.2574 1404.49 L-54.6929 1410.21 L-56.6984 1413.67 L-57.4124 1416.16 L-57.3679 1419.6 L-56.2101 1423.37 L-54.0435 1425.6 L-51.7425 1426.05 L-47.9854 1425.42 L-42.4931 1420.15 L-35.5815 1411.41 L-32.7585 1405.63 L-32.2595 1403.46 L-32.3431 1402.18 L-33.0103 1401.21 L-34.635 1402.11 L-35.8875 1404.07 L-36.1439 1406.29 L-35.2366 1412.69 L-32.4444 1426.85 L-29.7813 1438.21 L-27.5397 1449.79 L-26.2423 1459.55 L-26.276 1464.41 L-26.7214 1468.3 L-28.6205 1474.62 L-30.1028 1476.81 L-32.5154 1479.16 L-37.5224 1481.95 L-41.1892 1481.32 L-43.0153 1480.53 L-47.0427 1477.65 L-49.6045 1474.66 L-51.2943 1469.83 L-51.5546 1466.9 L-50.867 1463.77 L-48.6302 1459.88 L-46.7687 1457.79 "/></g><g><path fill="none" stroke="#000000" stroke-width="6" stroke-linecap="round" stroke-linejoin="round" d="M-0.195618 1399.55 L-2.92749 1400.65 L-4.86725 1401.97 L-7.62238 1404.4 L-8.66425 1406.21 L-12.3139 1419.76 L-12.8459 1424.36 L-12.613 1429.15 L-11.4935 1432 L-10.1125 1433.46 L-8.80298 1434.22 L-4.82635 1434.61 L-2.04041 1433.75 L1.61139 1431.48 L7.09998 1426.64 L9.45386 1424.13 L11.4196 1421.09 L12.3849 1418.64 L12.6749 1415.98 L12.0559 1412.96 L10.8477 1410.65 L8.15393 1407.01 L6.04712 1404.91 L3.18164 1402.75 L2.37964 1402.3 L0.612183 1402.42 L-0.190613 1402.95 L-0.612915 1403.71 L-0.384827 1404.15 L0.338135 1404.28 "/></g><g><path fill="none" stroke="#000000" stroke-width="6" stroke-linecap="round" stroke-linejoin="round" d="M32.7663 1376.14 L32.3347 1375.13 L32.3949 1374.33 L32.5305 1374.82 L32.9048 1374.33 L33.2233 1374.73 L33.8083 1374.44 L35.2 1375.07 L36.7035 1377.31 L37.5049 1381.1 L37.9686 1386.41 L36.4872 1408.66 L36.9359 1418.49 L37.9399 1426.62 L38.4633 1428.53 L39.4443 1430.12 L41.177 1431.49 L42.2617 1431.95 L44.1684 1432.17 L47.7058 1431.4 L49.1053 1430.09 L51.8466 1429.04 L54.1264 1427.48 "/></g><g><path fill="none" stroke="#000000" stroke-width="6" stroke-linecap="round" stroke-linejoin="round" d="M85.7991 1406.39 L84.7334 1404.44 L83.7756 1403.38 L80.2037 1405.03 L76.6219 1407.99 L70.6177 1414.69 L67.8371 1418.72 L66.6501 1422.14 L66.7726 1425.64 L67.8324 1427.73 L70.8393 1429.92 L74.5135 1430.39 L78.1189 1429.6 L81.8507 1428.06 L84.2377 1425.92 L86.0952 1423.65 L88.9392 1419.2 L90.4484 1415.9 L91.2338 1411.67 L91.1101 1408.14 L89.2781 1401.62 L88.3631 1399.88 L84.4375 1388.33 L83.7143 1384.14 L83.9327 1385.53 L85.7099 1389.4 L88.1951 1396.36 L92.6287 1410.31 L96.7097 1419.91 L99.1404 1424.51 L101.186 1426.01 L103.694 1427.3 L104.692 1427.42 L107.388 1429.24 L111.787 1431.26 "/></g><g><path fill="none" stroke="#000000" stroke-width="6" stroke-linecap="round" stroke-linejoin="round" d="M-362.326 1474.33 L-363.074 1473.46 L-362.922 1473.23 L-362.457 1473.79 L-361.948 1473.67 L-357.088 1475.83 L-356.465 1475.52 L-356.174 1475.83 L-354.247 1476.23 L-352.425 1476.05 L-349.094 1474.97 L-348.346 1475.15 L-348.153 1474.86 L-347.703 1475.19 "/></g><g><path fill="none" stroke="#000000" stroke-width="6" stroke-linecap="round" stroke-linejoin="round" d="M-290.785 1448.71 L-291.786 1448.47 L-292.216 1447.81 L-292.775 1447.94 L-292.51 1448.08 L-293.252 1449.67 L-294.104 1453.72 L-294.505 1458.85 L-292.821 1480.84 L-290.953 1491.26 L-288.984 1496.93 L-285.618 1501.31 L-283.866 1501.57 L-281.954 1500.94 L-278.034 1498.21 L-272.152 1489.55 L-269.087 1483.11 L-265.048 1472.1 L-263.559 1464.67 L-263.594 1459.85 L-265.036 1455.59 L-268.356 1450.35 L-268.929 1448.89 L-268.693 1448.95 "/></g><g><path fill="none" stroke="#000000" stroke-width="6" stroke-linecap="round" stroke-linejoin="round" d="M-244.22 1480.14 L-244.038 1478.96 L-243.835 1479.33 L-244.038 1480.06 L-243.487 1485.71 L-242.177 1521.62 L-242.629 1531.15 L-243.616 1541.37 L-244.916 1545.85 L-244.696 1544.77 L-245.003 1537.35 L-244.077 1521.38 L-243.945 1512.67 L-243.073 1501.38 L-242.102 1493.14 L-240.955 1488.88 L-239.132 1483.91 L-237.556 1480.85 L-234.121 1476.78 L-231.646 1475.28 L-229.452 1474.92 L-227.975 1475.4 L-227.101 1476.44 L-225.163 1477.24 L-223.885 1478.76 L-221.385 1483.33 L-220.555 1485.71 L-220.236 1487.68 L-220.538 1491.7 L-221.896 1495.38 L-223.956 1498.4 L-227.803 1501.24 L-230.748 1501.94 L-231.97 1502.93 L-233.878 1503.34 L-234.722 1503.97 L-237.123 1503.87 L-238.647 1504.18 L-238.842 1503.95 L-238.093 1503.43 "/></g><g><path fill="none" stroke="#000000" stroke-width="6" stroke-linecap="round" stroke-linejoin="round" d="M-194.173 1481.21 L-196.077 1475.4 L-196.193 1475.9 L-196.37 1475.68 L-196.935 1476.55 L-200.237 1479.51 L-203.536 1483.92 L-205.037 1486.36 L-206.413 1490.37 L-207.656 1495.84 L-207.815 1500.88 L-207.337 1503.02 L-206.287 1505.07 L-205.25 1506.08 L-204.011 1506.53 L-203.102 1506.58 L-201.091 1505.96 L-197.859 1503.46 L-192.083 1495.12 L-188.754 1488.62 L-186.984 1482.2 L-186.83 1479.7 L-187.413 1476.61 L-188.422 1476.06 L-189.151 1476.66 L-189.36 1481.58 L-186.196 1509.84 L-185.762 1518.47 L-185.885 1524.31 L-187.114 1537.59 L-189.348 1549.59 L-189.883 1551.53 L-190.871 1553.31 L-191.694 1554.41 L-192.468 1554.48 L-192.908 1554.9 L-198.044 1554.53 L-200.271 1553.49 L-204.699 1549.69 L-206.811 1547.41 L-207.866 1544.96 L-209.17 1539.18 L-208.939 1536.76 L-208.484 1535.6 L-207.336 1533.49 L-206.231 1532.41 "/></g><g><path fill="none" stroke="#000000" stroke-width="6" stroke-linecap="round" stroke-linejoin="round" d="M-167.584 1476.03 L-170.483 1477.34 L-170.57 1482.04 L-169.264 1487.53 L-166.115 1495.73 L-162.775 1509.45 L-162.278 1510.37 L-159.868 1499.79 L-158.186 1483.52 L-156.505 1478.85 L-155.54 1477.44 L-153.952 1476.29 L-150.296 1475.34 L-147.014 1475.67 L-146.248 1475.95 L-145.302 1476.91 L-144.906 1476.73 L-143.598 1477.1 "/></g><g><path fill="none" stroke="#000000" stroke-width="6" stroke-linecap="round" stroke-linejoin="round" d="M-124.372 1480.51 L-127.11 1479.4 L-128.638 1479.31 L-129.262 1479.87 L-129.603 1481.26 L-130.598 1483.05 L-133.404 1486.87 L-136.459 1493.94 L-137.468 1497.04 L-138.271 1500.77 L-138.316 1502.21 L-137.852 1504.18 L-136.978 1505.31 L-136.096 1505.68 L-134.994 1505.65 L-133.675 1504.98 L-131.65 1503.17 L-128.124 1497.74 L-126.493 1494.35 L-123.379 1486.03 L-122.047 1478.53 L-122.231 1476.65 L-122.626 1477.45 L-123.051 1481.2 L-123.02 1486.41 L-122.693 1489.44 L-121.028 1494.66 L-119.776 1497.76 L-114.814 1505.51 L-112.382 1507.99 L-110.338 1509.03 L-109.867 1508.96 "/></g><g><path fill="none" stroke="#000000" stroke-width="6" stroke-linecap="round" stroke-linejoin="round" d="M-80.0815 1482.64 L-80.5963 1481.89 L-80.9782 1480.35 L-81.489 1476.85 L-81.8986 1476.54 L-84.0741 1477.26 L-85.7921 1478.24 L-88.6111 1480.47 L-92.2101 1484.38 L-95.8571 1490.85 L-97.6344 1495.31 L-98.8136 1500.61 L-98.6626 1503.33 L-98.1301 1505.25 L-95.5797 1508.68 L-92.5281 1511 L-89.4919 1512.08 L-86.3334 1511.95 L-83.4972 1510.55 L-81.0876 1508.15 L-78.3588 1502.46 L-77.5101 1499.86 L-75.8657 1492.4 L-75.2365 1486.55 L-75.1678 1478.63 L-75.4442 1475.45 L-77.6899 1466.95 L-83.6721 1452.62 L-83.1523 1452.98 L-83.0404 1452.79 L-82.9533 1453.44 L-82.8314 1453.1 L-81.6649 1456.28 L-78.3405 1476.01 L-76.2466 1485.86 L-74.8817 1490.9 L-71.4788 1499.63 L-70.9679 1502.29 L-69.0575 1506.71 L-67.6683 1508.3 L-64.9976 1510.3 L-63.1488 1510.68 "/></g><g><path fill="none" stroke="#000000" stroke-width="6" stroke-linecap="round" stroke-linejoin="round" d="M-48.6556 1489.2 L-48.7083 1486.92 L-47.9317 1485.61 L-46.6575 1485.04 L-42.0573 1484.09 L-37.839 1481.47 L-34.9645 1479.14 L-30.9281 1473.25 L-30.867 1471.19 L-32.4433 1469.35 L-36.1819 1469.43 L-38.2314 1469.84 L-39.8254 1470.69 L-41.2158 1471.57 L-42.4289 1472.87 L-45.5712 1477.29 L-49.3417 1484.8 L-51.6834 1493.69 L-52.078 1496.88 L-51.9814 1499.58 L-51.0099 1501.97 L-48.8073 1503.76 L-46.5441 1504.77 L-43.7282 1505.24 L-38.8475 1504.85 L-33.3447 1503.53 L-25.1509 1500.33 L-20.2165 1497.11 L-16.0792 1494.87 "/></g><g><path fill="none" stroke="#000000" stroke-width="6" stroke-linecap="round" stroke-linejoin="round" d="M56.7894 1473.8 L57.3439 1473.39 L56.2133 1472.71 L56.1364 1472.26 L56.026 1472.95 L56.0205 1472.35 L56.347 1472.6 L58.5461 1486.88 L61.3539 1500.78 L63.6413 1509.74 L64.2686 1510.2 L65.3276 1509.9 L65.3571 1510.19 L66.6556 1508.62 L69.5188 1498.59 L70.6495 1492.81 L72.7157 1477.92 L74.511 1472.61 L74.1796 1474.24 L74.4111 1473.58 L75.9982 1476.57 L77.3145 1481.09 L80.5297 1497.7 L82.6469 1504.56 L83.3457 1505.75 L84.185 1506.36 L85.6593 1506.68 L87.2719 1505.22 L89.2783 1501.85 L93.1438 1489.71 L93.9174 1485.25 L94.4673 1479.32 L94.4735 1473.1 L94.2051 1470.01 L94.0051 1470.43 L94.0143 1470.83 L94.2623 1470.6 L94.5694 1470.87 "/></g><g><path fill="none" stroke="#000000" stroke-width="6" stroke-linecap="round" stroke-linejoin="round" d="M106.342 1484.96 L104.843 1484.92 L105.614 1484.64 L106.36 1483.75 L106.773 1483.69 L107.026 1484.01 L107.707 1483.57 L110.336 1483.47 L111.415 1483.06 L114.226 1481.13 L116.745 1478.83 L117.869 1477.31 L118.561 1475.74 L118.439 1474.52 L117.809 1473.62 L116.781 1473.2 L116.39 1473.81 L116.227 1473.56 L114.897 1473.6 L113.439 1474.56 L111.767 1476.11 L106.888 1482.14 L105.711 1484.19 L104.801 1487.21 L104.316 1492.58 L104.527 1494.76 L105.638 1498.68 L107.283 1501.06 L109.462 1502.74 L115.121 1505.75 L115.64 1505.93 L120.88 1505.38 L121.891 1505.53 L125.182 1503.37 "/></g><g><path fill="none" stroke="#000000" stroke-width="6" stroke-linecap="round" stroke-linejoin="round" d="M146.597 1476.45 L146.381 1474.67 L145.874 1473.72 L144.041 1473.56 L142.643 1474.56 L140.533 1475.2 L136.053 1479.58 L133.42 1482.84 L129.967 1489.18 L127.857 1496.01 L127.83 1499.56 L129.027 1501.98 L129.873 1502.42 L130.311 1502.28 L131.901 1502.74 L134.735 1501.72 L136.172 1500.41 L141.608 1493.39 L143.998 1489 L145.58 1483.52 L145.731 1481.93 L145.491 1480.87 L145.122 1481.48 L145.453 1492.66 L145.674 1494.14 L148.153 1501.58 L150.885 1505.44 L153.444 1506.47 L154.778 1505.86 "/></g><g><path fill="none" stroke="#000000" stroke-width="6" stroke-linecap="round" stroke-linejoin="round" d="M167.391 1476.05 L168.327 1478.56 L169.286 1483.95 L169.749 1492.05 L169.83 1500.58 L168.995 1520.95 L168.538 1543.29 L168.768 1554.82 L169.355 1562.08 L169.887 1563.47 L169.714 1551.84 L168.374 1538.37 L165.891 1519.15 L165.204 1508.12 L165.273 1494.83 L165.824 1488.56 L166.749 1483.25 L169.295 1475.92 L172.611 1470.96 L174.181 1469.63 L175.826 1468.94 L178.592 1468.59 L182.247 1470.75 L185.947 1476.34 L188.034 1480.94 L189.148 1484.92 L189.727 1488.53 L189.593 1493.76 L188.066 1497.53 L186.445 1499.82 L181.912 1504.87 L178.675 1507.21 L173.752 1510.09 L171.201 1510.78 L170.514 1511.29 L169.195 1511.01 L168.805 1510.46 L170.354 1508.84 "/></g><g><path fill="none" stroke="#000000" stroke-width="6" stroke-linecap="round" stroke-linejoin="round" d="M204.725 1481.04 L203.391 1479.23 L202.678 1478.95 L202.566 1479.26 L202.311 1478.88 L198.168 1486.09 L197.297 1488.17 L196.638 1490.93 L196.079 1496.42 L196.226 1501.2 L197.541 1505.39 L199.729 1508.18 L202.596 1508.11 L204.523 1507.49 L207.676 1505.46 L210.519 1503.07 L214.352 1497.83 L215.895 1494.68 L216.477 1491.95 L216.261 1490.27 L214.907 1487.03 L209.322 1480.62 L204.944 1476.48 "/></g><g><path fill="none" stroke="#000000" stroke-width="6" stroke-linecap="round" stroke-linejoin="round" d="M230.222 1476.48 L229.541 1476.22 L229.323 1476.56 L227.571 1489.48 L227.002 1498.76 L227.831 1501.76 L228.395 1502.55 L229.004 1502.62 L229.13 1502.22 L229.523 1502.29 L230.297 1501.62 L231.282 1500.17 L235.323 1491.17 L239.12 1481.65 L242.546 1476.88 L244.227 1476.27 L244.918 1476.35 L246.27 1478.18 L247.159 1483.27 L248.188 1495.87 L248.748 1510.22 L249.056 1510.81 L249.108 1510.48 L249.646 1510.59 L250.494 1509.71 "/></g><g><path fill="none" stroke="#000000" stroke-width="6" stroke-linecap="round" stroke-linejoin="round" d="M324.874 1476.3 L322.368 1472.06 L319.828 1472.69 L317.986 1474.45 L317.155 1475.92 L312.676 1481.5 L310.887 1484.61 L306.578 1494.48 L304.666 1502.18 L304.249 1506.04 L304.511 1507.92 L304.953 1508.88 L307.339 1509.16 L308.18 1508.37 L310.321 1507.65 L312.303 1505.6 L318.563 1497.19 L323.117 1487.93 L326.933 1476.26 L328.225 1466.72 L328.325 1459.84 L327.198 1454.81 L325.583 1450.37 L325.434 1450.74 L325.776 1452.31 L325.95 1452.11 L324.77 1460.31 L324.837 1464.61 L327.089 1480.72 L327.219 1485.98 L328.018 1491.53 L329.478 1496.72 L332.939 1503.81 L335.865 1508.17 L337.005 1508.95 L337.75 1508.93 "/></g><g><path fill="none" stroke="#000000" stroke-width="6" stroke-linecap="round" stroke-linejoin="round" d="M361.313 1477.98 L360.117 1475.98 L358.97 1476.64 L357.176 1478.65 L354.32 1483.56 L352.422 1487.45 L347.743 1498.91 L346.982 1501.72 L347.102 1504.21 L348.245 1505.16 L350.341 1504.34 L352.661 1502.19 L356.72 1497.23 L362.198 1488.42 L365.831 1479.34 L365.301 1480.76 L365.122 1482.87 L364.991 1490.36 L365.158 1495.12 L366.166 1501.17 L368.483 1506.55 L370.238 1507.39 L372.045 1506.98 "/></g><g><path fill="none" stroke="#000000" stroke-width="6" stroke-linecap="round" stroke-linejoin="round" d="M383.468 1477.7 L382.446 1477.75 L382.116 1478.25 L381.686 1482.25 L382.405 1489.99 L383.329 1493.78 L383.888 1499.9 L383.695 1498.94 L389.046 1489.73 L391.78 1483.25 L393.725 1480.11 L394.407 1479.66 L396.37 1492.42 L398.668 1499.89 L398.988 1498.88 L400.578 1497.55 L404.612 1491.25 L407.206 1486.04 L410.859 1477.16 L412.283 1475.01 L413.302 1474.38 L413.97 1475.85 L414.064 1477.17 L413.786 1486.55 L414.265 1495.15 L414.972 1497.03 L415.349 1497.47 L415.563 1497.33 "/></g><g><path fill="none" stroke="#000000" stroke-width="6" stroke-linecap="round" stroke-linejoin="round" d="M438.445 1477.21 L438.292 1476.5 L436.29 1477.57 L431.489 1482.22 L428.1 1488.5 L424.37 1498.99 L424.37 1500.85 L424.956 1502.26 L426.363 1502.68 L429.395 1501.11 L432.396 1498.22 L438.947 1487.1 L440.382 1481.98 L440.673 1479.92 L440.412 1479.49 L438.921 1487.04 L438.818 1490.48 L439.2 1494.22 L441.129 1501.45 L441.587 1501.92 L442.382 1502.08 L445.267 1501.71 "/></g><g><path fill="none" stroke="#000000" stroke-width="6" stroke-linecap="round" stroke-linejoin="round" d="M469.145 1474.24 L467.686 1474.35 L466.754 1475.56 L461.61 1486.01 L456.352 1499.34 L455.117 1505.32 L455.424 1506.15 L456.35 1506.54 L458.522 1505.85 L460.869 1503.46 L464.978 1498.12 L467.309 1493.47 L468.916 1487.75 L470.073 1479.51 L470.182 1476.52 L469.504 1487.06 L470.207 1504.12 L470.496 1533.85 L470.158 1538.77 L469.278 1543.59 L467.788 1547.09 L466.392 1549.23 L464.403 1551.08 L461.707 1552.05 L455.476 1552.03 L452.542 1550.83 L450.9 1549.55 L449.698 1548.05 L448.568 1544.13 L448.502 1541.74 L449.775 1537.11 "/></g><g><path fill="none" stroke="#000000" stroke-width="6" stroke-linecap="round" stroke-linejoin="round" d="M501.571 1481.68 L501.563 1480.57 L503.066 1480.99 L506.201 1480.62 L511.232 1475.84 L514.032 1471.54 L513.629 1468.27 L512.249 1466.32 L510.744 1466.09 L507.236 1466.28 L504.927 1467.86 L501.671 1471.17 L497.439 1476.71 L493.139 1484.34 L491.471 1489.32 L490.888 1492.16 L490.777 1495.08 L491.18 1497.1 L492.269 1499 L493.873 1500.55 L495.788 1501.49 L496.956 1501.41 L498.615 1502.27 L501.074 1502.95 L505.317 1502.25 L509.573 1500.43 L520.653 1493.87 "/></g>
</svg>