<svg width="1404" height="1872" viewBox="-702 0 1404 1872" xmlns="http://www.w3.org/2000/svg" xmlns:xlink="http://www.w3.org/1999/xlink" version="1.2" baseProfile="tiny"><title>Regler</title>\n<g><path fill="none" stroke="#000000" stroke-width="6" stroke-linecap="round" stroke-linejoin="round" d="M-516.773 174.674 L-517.072 174.535 L-517.2 173.079 L-517.01 173.629 L-517.348 174.602 L-518.922 189.859 L-520.236 198.834 L-521.937 221.489 L-521.897 236.52 L-521.539 240.629 L-520.678 247.466 L-519.022 253.283 L-518.802 253.394 L-518.909 252.747 L-520.71 249.563 L-522.596 241.915 L-525.684 222.119 L-526.362 212.1 L-526.469 203.703 L-525.908 195.615 L-524.595 186.816 L-522.973 180.692 L-521.53 177.304 L-519.328 174.434 L-516.401 172.131 L-508.241 167.541 L-504.644 166.243 L-500.371 165.653 L-496.931 165.583 L-494.548 165.881 L-488.878 167.353 L-482.118 170.832 L-477.668 174.446 L-476.444 176.005 L-475.044 178.708 L-474.099 182.681 L-474.403 188.13 L-476.061 193.177 L-478.013 197.119 L-480.981 201.334 L-485.773 205.738 L-491.14 209.743 L-502.165 214.55 L-513.32 217.873 L-518.675 218.018 L-522.492 217.415 L-522.761 217.026 L-522.126 216.835 L-518.86 217.393 L-514.064 217.419 L-510.344 218.348 L-508.315 219.4 L-501.908 224.956 L-500.38 226.712 L-497.143 229.125 L-490.418 232.67 L-486.687 235.154 L-478.386 239.331 L-466.77 245.824 L-465.506 247.046 L-465.187 247.822 L-466.959 250.732 L-466.336 250.008 "/></g><g><path fill="none" stroke="#000000" stroke-width="6" stroke-linecap="round" stroke-linejoin="round" d="M-453.149 224.231 L-453.875 224.292 L-453.522 223.924 L-449.124 223.069 L-444.983 221.311 L-440.166 218.115 L-435.12 215.26 L-432.59 213.12 L-430.984 211.269 L-430.714 209.789 L-431.431 208.219 L-432.627 206.986 L-433.965 206.155 L-438.001 205.59 L-441.55 206.077 L-446.007 208.106 L-450.555 211.988 L-456.146 220.194 L-457.768 223.577 L-460.218 231.595 L-459.982 234.488 L-459.466 236.089 L-457.681 238.751 L-455.951 240.427 L-453.064 242.343 L-451.41 243.12 L-447.888 244.055 L-443.877 244.34 L-437.696 243.412 L-433.791 242.072 L-429.843 240.664 L-419.548 235.735 "/></g><g><path fill="none" stroke="#000000" stroke-width="6" stroke-linecap="round" stroke-linejoin="round" d="M-389.791 200.755 L-391.241 199.924 L-392.554 199.883 L-394.626 200.395 L-396.349 201.566 L-398.649 203.444 L-406.725 211.791 L-408.269 213.735 L-409.693 216.485 L-409.616 217.734 L-408.874 218.758 L-404.434 219.569 L-399.491 219.358 L-388.054 217.422 L-384.982 217.192 L-381.572 217.485 L-380.883 218.332 L-381.087 219.529 L-382.763 222.396 L-388.386 228.8 L-395.736 235.245 L-400.189 238.577 L-401.085 239.503 L-401.143 239.895 L-400.901 239.858 "/></g><g><path fill="none" stroke="#000000" stroke-width="6" stroke-linecap="round" stroke-linejoin="round" d="M-346.669 212.873 L-348.414 210.557 L-349.514 210.191 L-352.649 211.338 L-356.851 214.522 L-362.12 220.398 L-364.648 223.764 L-368.661 231.193 L-369.562 233.416 L-370.145 236.299 L-369.863 238.535 L-369.372 239.746 L-367.719 241.732 L-366.614 242.479 L-365.309 243.187 L-362.473 243.862 L-357.681 243.496 L-353.107 241.972 L-343.542 237.155 L-336.184 232.132 L-332.916 228.897 L-331.634 227.069 L-331.217 225.345 L-331.518 223.816 L-332.98 221.894 L-338.457 218.054 L-347.185 214.121 L-351.406 211.38 L-351.62 210.767 L-351.306 210.314 L-346.629 209.425 "/></g><g><path fill="none" stroke="#000000" stroke-width="6" stroke-linecap="round" stroke-linejoin="round" d="M-313.853 205.835 L-314.297 206.104 L-314.799 207.142 L-315.244 209.738 L-314.999 209.64 L-315.053 209.397 L-315.301 209.507 L-315.068 210.258 L-315.194 215.526 L-317.75 231.361 L-317.58 235.19 L-316.913 237.324 L-315.378 237.976 L-314.238 237.854 L-310.672 236.432 L-307.357 233.971 L-304.264 230.343 L-300.474 225.129 L-294.952 214.366 L-291.042 205.144 L-291.672 206.807 L-291.288 210.973 L-291.115 222.03 L-290.422 227.794 L-288.213 233.043 L-286.381 236.017 L-283.807 238.679 L-282.515 238.703 "/></g><g><path fill="none" stroke="#000000" stroke-width="6" stroke-linecap="round" stroke-linejoin="round" d="M-267.16 206.601 L-267.846 207.773 L-268.499 210.779 L-269.003 217.292 L-266.026 234.993 L-264.842 238.847 L-263.867 240.934 L-263.111 241.649 L-262.254 234.646 L-262.048 222.601 L-261.637 217.018 L-260.309 211.381 L-258.823 208.817 L-256.811 207.342 L-255.121 206.56 L-248.542 205.239 L-239.504 204.775 L-230.578 206.212 "/></g><g><path fill="none" stroke="#000000" stroke-width="6" stroke-linecap="round" stroke-linejoin="round" d="M-218.464 207.041 L-218.443 205.465 L-218.863 206.491 L-223.946 212.16 L-230.009 221.122 L-231.217 224.375 L-231.923 227.491 L-232.012 229.624 L-231.194 233.576 L-229.737 235.84 L-227.585 237.447 L-226.001 238.273 L-222.276 239.119 L-218.454 239.122 L-217.101 238.65 L-212.32 238.079 L-208.097 236.884 "/></g><g><path fill="none" stroke="#000000" stroke-width="6" stroke-linecap="round" stroke-linejoin="round" d="M-182.73 213.716 L-183.712 213.651 L-184.101 214.191 L-183.712 213.985 L-180.785 214.609 L-178.021 214.489 L-174.208 213.313 L-168.08 210.442 L-161.077 206.317 L-157.564 203.614 L-155.673 201.149 L-155.773 200.157 L-156.433 199.427 L-159.664 198.039 L-162.825 197.425 L-167.912 197.548 L-169.62 197.945 L-173.838 199.915 L-179.502 203.502 L-184.802 208.732 L-187.504 213.071 L-188.838 216.502 L-189.879 220.79 L-189.641 225.733 L-189.223 227.657 L-188.124 230.108 L-185.783 232.504 L-182.691 234.331 L-177.807 236.008 L-174.383 236.578 L-164.489 236.992 L-156.475 235.544 L-150.038 233.485 "/></g><g><path fill="none" stroke="#000000" stroke-width="6" stroke-linecap="round" stroke-linejoin="round" d="M-116.478 198.752 L-118.995 198.901 L-123.082 200.105 L-125.599 201.233 L-127.53 202.872 L-128.554 204.432 L-129.065 206.673 L-128.647 208.696 L-127.439 210.955 L-125.138 212.372 L-122.747 212.76 L-119.321 212.537 L-107.666 210.46 L-103.188 210.507 L-100.11 211.239 L-97.5828 212.418 L-95.8742 214.333 L-94.5395 217.758 L-94.0495 221.476 L-94.5616 225.531 L-95.1904 227.382 L-96.2502 228.921 L-97.8811 230.422 L-100.422 232.401 L-104.759 234.889 L-115.697 239.578 "/></g><g><path fill="none" stroke="#000000" stroke-width="6" stroke-linecap="round" stroke-linejoin="round" d="M-541.086 256.428 L-542.095 256.163 L-542.718 256.493 L-541.293 256.329 L-537.451 257.436 L-530.356 258.879 L-519.074 259.498 L-492.236 257.874 L-456.477 257.072 L-397.736 258.522 L-367.582 258.521 L-331.097 257.374 L-314.107 256.432 L-288.749 254.319 L-254.263 252.469 L-218.059 251.432 L-195.103 251.213 L-150.191 251.283 L-125.786 251.663 L-97.565 253.091 L-87.4152 254.578 L-85.2619 255.375 L-84.8747 255.256 L-84.9965 254.997 L-84.3094 255.298 L-84.3519 255.034 L-83.3062 255.213 "/></g><g><path fill="none" stroke="#000000" stroke-width="6" stroke-linecap="round" stroke-linejoin="round" d="M-79.0693 367.28 L-78.584 366.44 L-78.3523 367.111 L-77.7515 367.321 L-74.053 367.285 L-62.5385 363.771 L-56.0482 362.646 L-51.8531 362.792 L-45.2267 364.015 L-43.4475 363.934 L-41.3264 364.448 L-42.1345 364.62 L-42.2962 364.956 "/></g><g><path fill="none" stroke="#000000" stroke-width="6" stroke-linecap="round" stroke-linejoin="round" d="M73.7217 331.866 L73.2203 331.605 L73.4138 331.379 L74.0457 331.565 L75.293 331.298 L76.6153 331.423 L77.4965 332.113 L77.0901 331.869 L76.543 332.214 L74.3388 332.515 L69.8287 335.435 L65.7707 338.591 L59.1185 344.917 L53.0616 352.422 L50.2949 356.36 L47.0796 362.379 L45.0112 367.092 L42.7781 374.88 L42.0606 381.027 L42.0637 385.559 L42.8003 392.329 L44.2885 398.688 L45.9628 402.999 L48.8672 407.453 L51.7542 409.853 L55.4565 412.102 L60.8452 413.391 L66.1961 413.686 L70.4672 413.114 L77.5095 410.624 L83.7325 407.166 L93.0256 400.91 L95.8802 398.45 L98.4032 395.628 L100.434 392.519 L101.443 389.453 L101.542 387.482 L100.787 384.054 L98.8538 380.896 L97.1396 379.202 L95.7745 378.326 L93.5497 377.1 L90.8079 376.192 L86.3004 375.605 L81.4603 375.54 L75.5385 375.705 L72.2001 376.249 L66.8926 377.698 L64.0754 379.158 L63.8093 379.615 L64.0544 379.785 L68.2872 380.676 "/></g><g><path fill="none" stroke="#000000" stroke-width="6" stroke-linecap="round" stroke-linejoin="round" d="M116.544 387.103 L116.247 386.633 L120.165 385.548 L129.471 381.351 L134.447 378.044 L136.652 375.975 L137.256 374.662 L136.789 373.599 L135.189 372.579 L132.115 372.088 L127.768 373.073 L124.882 374.618 L121.27 377.888 L118.925 380.467 L116.983 383.879 L115.718 388.541 L115.892 391.709 L117.391 394.878 L119.352 397.298 L121.652 398.966 L123.422 399.594 L126.279 400.41 L129.323 400.846 L135.723 401.237 L141.783 399.854 "/></g><g><path fill="none" stroke="#000000" stroke-width="6" stroke-linecap="round" stroke-linejoin="round" d="M162.311 352.299 L161.701 351.58 L162.374 356.856 L162.999 377.955 L163.625 383.816 L164.85 388.55 L166.972 394.064 L169.263 397.312 L170.444 397.777 L170.934 397.618 "/></g><g><path fill="none" stroke="#000000" stroke-width="6" stroke-linecap="round" stroke-linejoin="round" d="M149.811 374.852 L150.252 374.374 L150.912 374.641 L160.367 373.926 L171.495 373.925 "/></g><g><path fill="none" stroke="#000000" stroke-width="6" stroke-linecap="round" stroke-linejoin="round" d="M265.365 348.74 L265.731 348.947 L265.786 348.569 L266.738 348.359 L269.047 346.878 L275.302 344.115 L274.743 344.638 L275.334 351.397 L275.157 365.586 L276.626 382.963 L276.923 390.035 L278.005 395.453 L278.998 398.313 L281.54 402.824 L281.713 403.025 L281.971 402.692 "/></g><g><path fill="none" stroke="#000000" stroke-width="6" stroke-linecap="round" stroke-linejoin="round" d="M261.909 399.185 L263.255 399.074 L267.314 399.625 L280.854 399.589 L293.56 398.852 L295.043 398.654 L294.555 398.49 "/></g><g><path fill="none" stroke="#000000" stroke-width="6" stroke-linecap="round" stroke-linejoin="round" d="M358.099 345.817 L357.735 344.613 L357.362 348.191 L357.299 357.454 L358.043 370.903 L358.358 390.703 L358.949 398.913 L359.462 400.493 L360.292 401.502 L360.626 401.139 L360.794 401.41 L360.943 400.475 L367.391 387.122 L371.837 379.897 L374.421 376.76 L376.386 374.944 L379.715 372.631 L381.182 372.3 L381.367 372.648 L380.797 373.943 L381.064 379.759 L380.878 392.838 L382.048 398.491 L384.903 402.898 L386.958 404.735 L387.644 404.873 L389.255 404.381 L390.698 403.032 "/></g><g><path fill="none" stroke="#000000" stroke-width="6" stroke-linecap="round" stroke-linejoin="round" d="M406.578 383.731 L406.307 382.437 L406.454 386.178 L405.748 393.856 L406.311 407.532 L408.95 423.045 L412.823 435.946 L412.5 435.536 L412.401 434.255 L412.532 427.929 L413.506 417.457 L417.377 395.039 L418.758 388.578 L422.06 378.281 L424.036 375.43 L427.762 372.024 L429.929 373.56 L431.379 375.173 L433.571 378.618 L435.575 385.133 L436.374 390.701 L436.464 395.807 L435.911 398.636 L435.18 399.947 L434.489 400.716 L432.959 401.223 L427.022 399.708 L423.571 397.252 L420.066 395.989 L418.748 394.805 "/></g><g><path fill="none" stroke="#000000" stroke-width="6" stroke-linecap="round" stroke-linejoin="round" d="M-102.883 521.716 L-103.375 522.093 L-102.641 522.615 L-99.7822 523.172 L-83.7501 519.565 L-80.3277 519.262 L-78.8131 519.482 L-78.428 519.965 "/></g><g><path fill="none" stroke="#000000" stroke-width="6" stroke-linecap="round" stroke-linejoin="round" d="M11.9955 494.986 L11.5434 494.504 L11.4179 494.939 L9.38977 494.941 L7.68707 495.458 L4.7926 496.983 L-1.20258 501.296 L-7.10205 506.847 L-10.4555 510.573 L-15.8198 517.742 L-18.7197 522.742 L-21.2466 527.905 L-22.589 531.48 L-25.0906 544.494 L-25.3144 552.37 L-24.9454 555.057 L-23.554 559.634 L-21.877 562.484 L-19.4697 564.809 L-13.7433 567.742 L-7.94238 569.035 L-5.68359 569.176 L-0.448853 568.77 L3.44537 568.117 L12.2719 565.359 L24.5873 560.145 L26.5315 559.879 L32.8621 555.756 L34.8578 553.669 L35.8569 551.35 L35.6591 549.684 L34.3776 547.163 L31.1196 544.349 L26.3323 541.884 L18.2087 539.229 L12.5612 538.415 L8.41577 538.435 L3.68958 539.102 L2.54413 539.865 L2.34247 540.851 L5.4259 543.024 "/></g><g><path fill="none" stroke="#000000" stroke-width="6" stroke-linecap="round" stroke-linejoin="round" d="M56.7702 543.118 L54.6634 542.784 L53.2234 543.012 L53.2344 543.367 L57.1914 545.048 L61.2664 545.516 L64.2629 545.173 L70.6546 543.22 L75.5218 540.146 L78.6558 537.221 L79.3263 535.668 L79.0546 534.529 L78.4634 533.572 L77.3565 532.702 L74.0643 531.315 L70.7739 531.191 L68.6954 531.585 L63.6633 534.432 L60.3376 537.491 L57.5199 540.78 L55.8967 543.815 L55.1052 546.184 L54.1419 551.631 L54.3302 556.582 L55.3901 560.272 L56.2067 561.833 L57.7603 563.685 L60.9178 566.123 L66.5293 568.301 L70.4713 568.598 L74.7971 567.847 L79.4534 566.111 L84.9798 563.465 L89.0123 560.51 "/></g><g><path fill="none" stroke="#000000" stroke-width="6" stroke-linecap="round" stroke-linejoin="round" d="M111.245 504.586 L109.878 505.801 L108.364 508.212 L107.548 510.712 L106.823 515.672 L106.442 521.741 L106.268 538.853 L106.459 543.661 L106.926 546.579 L107.669 549.209 L109.717 553.52 L112.016 556.876 L114.042 558.724 L117.675 559.855 L119.994 559.155 L121.804 557.997 "/></g><g><path fill="none" stroke="#000000" stroke-width="6" stroke-linecap="round" stroke-linejoin="round" d="M96.2028 522.574 L96.1851 522.207 L99.0779 523.699 L101.958 524.457 L106.686 525.104 L112.532 525.248 L119.492 524.459 "/></g><g><path fill="none" stroke="#000000" stroke-width="6" stroke-linecap="round" stroke-linejoin="round" d="M211.324 509.541 L211.334 507.071 L212.922 507.199 L214.725 506.618 L220.591 506.464 L225.668 505.659 L226.224 505.812 L223.895 533.704 L223.802 541.128 L224.235 546.611 L225.489 554.137 L229.135 566.65 L230.336 569.297 L232.166 571.555 L233 571.93 L233.651 570.044 "/></g><g><path fill="none" stroke="#000000" stroke-width="6" stroke-linecap="round" stroke-linejoin="round" d="M213.071 561.68 L214.58 562.445 L217.442 562.749 L221.953 561.818 L231.44 560.576 L242.987 560.235 "/></g><g><path fill="none" stroke="#000000" stroke-width="6" stroke-linecap="round" stroke-linejoin="round" d="M331.692 530.718 L329.413 529.095 L327.04 529.566 L320.505 536.757 L316.58 542.134 L315.24 545.476 L315.096 547.903 L315.549 549.725 L317.302 553.614 L318.258 555.14 L320.156 557.194 L322.047 558.365 L324.101 558.935 L327.662 559.139 L331.221 558.713 L334.252 557.899 L344.487 553.993 "/></g><g><path fill="none" stroke="#000000" stroke-width="6" stroke-linecap="round" stroke-linejoin="round" d="M363.014 535.152 L360.199 535.216 L357.796 536.485 L355.499 538.773 L354.392 540.407 L352.711 544.465 L352.434 549.051 L353.275 552.897 L354.883 555.23 L357.678 556.479 L362.484 556.23 L366.316 554.958 L369.114 553.536 L371.111 552.276 L372.709 550.7 L374.487 548.426 L375.62 546.322 L375.999 543.367 L374.781 541.224 L371.26 538.209 L364.741 533.733 L363.333 533.308 L365.372 535.669 "/></g><g><path fill="none" stroke="#000000" stroke-width="6" stroke-linecap="round" stroke-linejoin="round" d="M392.461 531.681 L393.245 535.663 L393.042 549.756 L393.996 552.024 L394.717 552.717 L395.838 552.854 "/></g><g><path fill="none" stroke="#000000" stroke-width="6" stroke-linecap="round" stroke-linejoin="round" d="M393.596 507.872 L394.887 508.873 "/></g><g><path fill="none" stroke="#000000" stroke-width="6" stroke-linecap="round" stroke-linejoin="round" d="M414.046 529.36 L413.771 538.136 L414.093 541.292 L414.763 544.094 L417.343 550.136 L419.833 552.486 L421.661 553.208 L422.53 552.566 L427.642 546.087 L431.87 539.854 L437.329 530.842 L440.398 524.765 L440.819 524.466 L443.693 529.974 L444.615 533.329 L446.105 541.881 L447.351 546.079 L449.127 549.501 L453.237 555.958 L454.907 559.307 "/></g><g><path fill="none" stroke="#000000" stroke-width="6" stroke-linecap="round" stroke-linejoin="round" d="M-110.699 678.463 L-111.706 678.406 L-111.795 679.242 L-111.292 680.6 L-108.675 681.141 L-104.01 680.985 L-89.7614 678.78 L-86.9418 678.946 L-86.3671 679.593 L-86.4487 680.338 "/></g><g><path fill="none" stroke="#000000" stroke-width="6" stroke-linecap="round" stroke-linejoin="round" d="M-5.62433 662.514 L-5.92365 663.524 L-9.46216 664.344 L-11.1991 665.07 L-16.5566 668.912 L-21.9995 674.584 L-27.4304 682.236 L-30.7036 689.105 L-31.8758 692.69 L-32.6718 696.484 L-33.1479 703.071 L-32.67 707.347 L-31.1297 712.606 L-28.8931 715.233 L-26.0128 717.238 L-19.6485 718.367 L-16.3507 718.608 L-8.60571 717.785 L-0.432434 715.906 L8.91272 712.486 L19.4023 706.599 L20.8578 705.045 L21.5197 703.667 L21.3694 702.372 L20.7656 701.018 L15.5009 694.72 L10.4634 691.141 L7.50311 690.644 L4.74744 690.595 L1.72955 691.189 L0.628845 691.706 L-3.8833 694.508 L-4.91095 695.849 L-4.91296 696.656 L-3.6048 697.331 L-2.57916 697.418 "/></g><g><path fill="none" stroke="#000000" stroke-width="6" stroke-linecap="round" stroke-linejoin="round" d="M40.5644 699.176 L39.9841 698.639 L40.5494 699.166 L42.5109 699.817 L45.9701 699.275 L49.7798 697.588 L51.0894 696.481 L52.4611 694.518 L52.418 693.409 L50.2203 691.869 L48.7516 691.615 L46.5653 691.923 L43.1801 693.765 L39.9792 697.11 L37.8025 700.107 L36.1151 703.86 L34.9465 709.87 L35.4954 713.363 L36.547 715.202 L37.9971 716.194 L40.3122 717.248 L42.3904 717.787 L50.0297 718.143 L54.4731 717.653 L57.1528 716.95 L60.9445 715.493 L63.421 714.109 "/></g><g><path fill="none" stroke="#000000" stroke-width="6" stroke-linecap="round" stroke-linejoin="round" d="M78.7327 671.255 L78.2769 670.562 L77.8627 671.245 L77.3011 674.502 L77.2233 692.502 L76.4312 705.2 L76.855 712.7 L77.534 714.142 L78.5557 714.958 L79.5491 715.389 L81.8239 715.454 L84.7795 714.506 L89.4699 711.974 "/></g><g><path fill="none" stroke="#000000" stroke-width="6" stroke-linecap="round" stroke-linejoin="round" d="M65.0182 686.677 L64.7803 686.62 L65.1114 687.382 L67.0515 689.173 L68.6022 689.89 L71.8137 690.227 L78.6628 689.358 L83.0651 688.2 L85.4326 688.1 L90.3425 686.468 "/></g><g><path fill="none" stroke="#000000" stroke-width="6" stroke-linecap="round" stroke-linejoin="round" d="M170.078 666.551 L169.719 665.57 L168.89 664.758 L167.926 665.661 L169.407 665.368 L173.591 665.642 L176.202 666.294 L177.265 667.083 L178.291 669.904 L178.273 675.972 L176.87 688.999 L176.66 697.185 L178.404 715.186 L178.441 727.846 L179.116 729.646 L180.177 730.278 L180.754 730.091 L181.339 728.532 "/></g><g><path fill="none" stroke="#000000" stroke-width="6" stroke-linecap="round" stroke-linejoin="round" d="M166.476 721.207 L165.568 721.791 L165.388 722.397 L165.675 722.616 L169.008 723.116 L173.239 723.293 L177.824 722.946 L181.009 723.259 L185.432 722.65 L188.751 721.547 "/></g><g><path fill="none" stroke="#000000" stroke-width="6" stroke-linecap="round" stroke-linejoin="round" d="M238.84 700.256 L236.214 699.03 L233.94 703.02 L231.516 709.286 L230.918 713.909 L231.331 716.938 L231.958 717.475 L234.128 716.363 L236.529 713.636 L239.17 709.643 L240.33 707.364 L241.655 703.46 L241.967 700.721 L241.75 699.988 L241.261 699.584 L241.051 705.796 L242.152 709.452 L243.02 710.768 L244.202 712.146 L246.112 713.605 L249.156 715.186 L250.911 715.828 L252.566 715.748 L253.116 715.398 "/></g><g><path fill="none" stroke="#000000" stroke-width="6" stroke-linecap="round" stroke-linejoin="round" d="M261.946 678.667 L261.462 700.552 L262.469 709.888 L263.57 713.248 L266.493 718.216 L267.717 719.565 L269.399 720.545 L270.167 720.696 L271.279 720.375 "/></g><g><path fill="none" stroke="#000000" stroke-width="6" stroke-linecap="round" stroke-linejoin="round" d="M278.353 676.86 L277.879 677.32 L277.67 678.479 L278.073 682.219 L277.461 704.53 L277.68 709.387 L278.093 711.152 L279.168 713.583 L280.433 714.723 L282.191 715.686 L287.557 717.572 L291.49 717.2 "/></g><g><path fill="none" stroke="#000000" stroke-width="6" stroke-linecap="round" stroke-linejoin="round" d="M255.136 693.224 L254.407 692.309 L254.688 692.679 L257.89 692.854 L258.826 693.228 L270.268 693.99 L279.237 694.11 L282.371 693.756 "/></g><g><path fill="none" stroke="#000000" stroke-width="6" stroke-linecap="round" stroke-linejoin="round" d="M309.001 697.743 L308.528 697.431 L307.667 697.514 L305.073 698.348 L303.794 699.357 L301.554 702.076 L297.782 708.52 L297.056 710.522 L296.751 713.884 L297.33 715.415 L298.61 715.93 L300.401 715.601 L304.359 713.529 L310.366 708.891 L312.792 706.25 L313.543 704.214 L313.43 702.316 L312.343 700.488 L311.56 699.77 L310.256 699.292 L309.885 699.342 L309.411 700.402 L309.167 703.046 L310.186 707.393 L310.901 708.847 L313.705 712.666 L316.706 715.857 L319.59 717.62 L321.89 718.166 "/></g><g><path fill="none" stroke="#000000" stroke-width="6" stroke-linecap="round" stroke-linejoin="round" d="M338.695 692.952 L337.125 694.05 L336.253 695.078 L335.766 696.542 L335.039 697.314 L332.641 702.418 L331.47 706.863 L331.874 710.154 L332.851 711.391 L335.108 713.049 L339.471 714.611 L343.046 714.746 L349.726 714.269 "/></g><g><path fill="none" stroke="#000000" stroke-width="6" stroke-linecap="round" stroke-linejoin="round" d="M361.279 658.669 L360.004 660.183 L359.293 664.006 L359.427 673.825 L362.72 705.366 L364.063 711.214 L365.289 714.249 L366.917 716.411 L368.005 717.103 L371.896 709.487 L376.79 701.775 L380.019 695.918 L382.783 689.776 L384.671 687.222 L382.411 691.122 L380.863 693.123 L378.297 697.891 L373.827 703.669 L373.095 706.231 L373.516 708.01 L375.329 709.807 L378.74 710.87 L386.755 712.09 L398.218 714.681 L402.198 715.874 "/></g><g><path fill="none" stroke="#000000" stroke-width="6" stroke-linecap="round" stroke-linejoin="round" d="M471.126 697.449 L471.251 695.714 L472.024 694.131 L471.88 693.64 L466.127 694.703 L458.966 698.292 L453.762 702.231 L450.532 705.619 L448.48 708.672 L447.48 711.751 L447.424 713.053 L447.924 715.161 L448.76 716.308 L450.935 717.834 L452.191 718.229 L455.086 718.454 L460.046 717.753 L466.996 714.484 L473.405 710.127 L477.999 705.556 L480.386 702.148 L482.517 696.343 L483.393 692.584 L483.855 688.21 L483.667 684.682 L482.635 680.163 L480.777 674.254 L477.374 665.694 L475.16 661.577 L474.624 661.433 L474.452 661.853 L474.884 664.266 L474.384 672.98 L474.57 678.169 L475.113 682.423 L477.288 689.648 L479.298 694.247 L482.464 699.822 L485.737 707.167 L487.611 710.613 L489.91 713.254 L491.191 714.191 L492.78 714.74 L493.807 714.173 "/></g><g><path fill="none" stroke="#000000" stroke-width="6" stroke-linecap="round" stroke-linejoin="round" d="M511.659 692.728 L511.059 691.667 L509.348 692.296 L506.267 694.593 L502.614 698.018 L500.112 700.967 L497.784 704.577 L496.637 707.097 L496.413 709.183 L497.52 710.119 L499.91 710.625 L502.244 710.365 L504.661 709.677 L507.762 708.358 L511.622 706.117 L515.15 703.263 L516.418 701.291 L517.128 698.969 L517.161 696.1 L516.624 694.277 L515.684 692.55 L514.993 691.766 L513.356 690.892 L512.069 690.875 L511.161 691.364 L509.807 691.508 L508.492 692.615 L507.742 694.09 L506.962 696.938 L506.932 698.839 L507.768 703.856 L509.715 707.508 L512.025 710.307 L515.827 712.938 L520.423 714.92 L522.276 715.239 "/></g><g><path fill="none" stroke="#000000" stroke-width="6" stroke-linecap="round" stroke-linejoin="round" d="M526.521 689.891 L526.713 694.453 L527.71 699.45 L530.776 709.135 L532.238 711.902 L532.819 711.977 L534.101 710.537 L536.942 705.702 L539.317 698.089 L541.223 689.439 L541.45 700.728 L541.843 703.705 L542.692 705.982 L544.568 707.985 L545.493 707.639 L546.857 705.628 L547.794 704.808 L549.494 702.099 L551.73 697.686 L554.543 690.138 L556.21 687.067 L555.888 689.241 L557.398 699.485 L559.317 703.852 L560.103 704.225 L561.446 703.569 "/></g><g><path fill="none" stroke="#000000" stroke-width="6" stroke-linecap="round" stroke-linejoin="round" d="M573.947 688.552 L572.879 688.236 L571.17 688.403 L570.067 688.858 L567.113 690.756 L565.578 692.823 L563.864 695.807 L562.605 699.969 L562.527 702.239 L562.981 705.176 L563.615 706.189 L564.937 706.969 L567.581 707.118 L570.777 705.978 L573.876 704.304 L575.959 701.992 L578.51 697.071 L579.242 694.221 L578.919 692.022 L578.002 690.815 L576.82 691.563 L575.452 693.496 L574.238 697.286 L574.189 700.343 L574.836 705.388 L576.557 708.757 L578.696 710.741 L582.062 712.249 L584.085 712.222 "/></g><g><path fill="none" stroke="#000000" stroke-width="6" stroke-linecap="round" stroke-linejoin="round" d="M596.591 686.587 L594.715 687.798 L593.477 689.723 L590.539 697.382 L588.07 705.922 L588.173 707.735 L588.878 709.571 L590.211 710.372 L593.271 710.493 L596.393 709.366 L599.974 707.184 L603.493 704.345 L604.833 702.708 L605.969 699.818 L606.693 696.09 L606.409 693.435 L604.885 689.722 L603.899 688.846 L603.236 688.698 L602.587 689.014 L601.936 689.859 L600.298 693.729 L598.269 703.44 L596.749 720.31 L595.987 735.647 L595.779 748.906 L596.534 768.955 L595.956 772.646 L595.345 774.046 L593.812 775.407 L592.749 775.431 L589.146 774.243 L586.072 772.723 L583.657 771.011 L581.229 768.826 L577.818 765.02 L574.147 759.288 L573.091 756.218 L572.411 751.732 L572.495 749.624 L572.952 748.002 L574.078 746.642 L575.765 745.437 "/></g><g><path fill="none" stroke="#000000" stroke-width="6" stroke-linecap="round" stroke-linejoin="round" d="M630.936 702.089 L630.867 701.583 L630.885 701.941 L633.609 703.327 L638.034 703.086 L643.763 701.266 L649.628 698.279 L650.979 696.965 L653.967 691.646 L654.626 689.069 L653.889 687.414 L651.498 686.402 L649.112 686.137 L646.906 686.327 L640.142 687.914 L632.104 690.84 L625.793 694.352 L622.599 697.05 L620.633 700.066 L619.916 702.362 L619.66 704.556 L619.993 707.485 L620.622 709.237 L623.184 713.693 L626.167 716.878 L629.416 718.984 L636.441 721.777 L641.12 722.947 L650.986 723.497 L655.856 722.597 "/></g><g><path fill="none" stroke="#000000" stroke-width="6" stroke-linecap="round" stroke-linejoin="round" d="M-454.02 739.754 L-454.147 739.54 L-454.133 739.983 L-455.134 739.255 L-456.344 739.221 L-456.605 739.605 L-457.405 739.441 L-458.892 740.37 L-461.234 740.991 L-464.71 742.987 L-468.261 745.301 L-470.028 746.839 L-475.964 752.939 L-479.852 758.984 L-482.791 765.03 L-485.917 772.768 L-486.703 775.725 L-486.986 778.813 L-486.326 784.735 L-483.932 789.342 L-477.341 795.95 L-474.933 797.399 L-470.835 799.149 L-465.1 800.246 L-459.53 800.074 L-455.678 799.308 L-450.66 797.556 L-440.352 792.987 L-434.663 789.35 L-434.177 788.865 L-434.599 788.615 "/></g><g><path fill="none" stroke="#000000" stroke-width="6" stroke-linecap="round" stroke-linejoin="round" d="M-406.873 781.399 L-408.028 778.054 L-409.475 777.453 L-410.688 777.916 L-411.545 778.819 L-413.365 781.758 L-414.568 785.41 L-415.35 790.915 L-415.218 793.511 L-414.166 798.41 L-413.108 800.242 L-412.255 801.047 L-410.261 801.353 L-405.509 800.913 L-402.046 799.882 L-399.452 798.681 L-394.907 795.283 L-390.578 790.977 L-389.17 788.252 L-389.07 786.943 L-389.477 785.601 L-390.959 783.312 L-397.185 777.645 L-402.646 775.942 L-404.144 775.711 L-406.438 775.968 L-406.618 776.618 L-406.242 777.044 L-403.103 779.35 "/></g><g><path fill="none" stroke="#000000" stroke-width="6" stroke-linecap="round" stroke-linejoin="round" d="M-369.634 771.674 L-369.46 771.543 L-369.996 771.201 L-370.499 771.956 L-374.845 775.561 L-376.135 778.063 L-376.217 779.269 L-375.859 779.982 L-373.532 780.739 L-364.519 778.765 L-359.914 778.627 L-358.635 778.946 L-357.302 779.795 L-356.335 782.209 L-355.952 784.147 L-355.9 786.48 L-356.427 789.043 L-359.103 793.971 L-362.408 798.132 L-364.898 800.71 L-366.86 801.337 L-366.307 800.899 "/></g><g><path fill="none" stroke="#000000" stroke-width="6" stroke-linecap="round" stroke-linejoin="round" d="M-327.831 749.52 L-328.422 750.385 L-328.978 753.112 L-329.703 759.822 L-330.511 778.935 L-329.922 785.241 L-328.902 787.873 L-327.391 790.479 L-323.416 794.08 L-320.583 795.317 L-317.845 794.26 L-316.546 793.154 "/></g><g><path fill="none" stroke="#000000" stroke-width="6" stroke-linecap="round" stroke-linejoin="round" d="M-350.185 768.282 L-350.317 767.778 L-346.29 768.388 L-342.146 767.886 L-337.188 767.743 L-330.331 766.866 L-321.191 765.142 "/></g><g><path fill="none" stroke="#000000" stroke-width="6" stroke-linecap="round" stroke-linejoin="round" d="M-291.744 762.746 L-293.12 763.07 L-295.526 764.619 L-296.922 766.95 L-298.7 769.084 L-299.109 771.45 L-298.196 773.76 L-296.525 774.441 L-294.185 774.387 L-289.984 773.748 L-284.78 772.063 L-281.683 771.768 L-277.535 772.311 L-275.663 773.737 L-275.455 774.654 L-276.641 778.134 L-279.328 781.673 L-287.063 788.636 L-289.847 790.241 L-291.192 790.621 L-290.765 790.817 "/></g><g><path fill="none" stroke="#000000" stroke-width="6" stroke-linecap="round" stroke-linejoin="round" d="M-164.179 740.783 L-165.209 739.46 L-166.353 735.423 L-167.788 752.472 L-171.852 775.52 L-172.146 780.864 L-171.884 783.678 L-170.207 789.17 L-169.228 791.041 L-167.23 793.405 L-163.749 795.289 L-159.264 796.357 L-155.933 796.387 "/></g><g><path fill="none" stroke="#000000" stroke-width="6" stroke-linecap="round" stroke-linejoin="round" d="M-180.341 768.846 L-180.419 767.399 L-180.057 767.692 L-179.817 767.393 L-178.381 767.218 L-167.2 766.965 L-145.855 764.996 "/></g><g><path fill="none" stroke="#000000" stroke-width="6" stroke-linecap="round" stroke-linejoin="round" d="M-126.351 741.943 L-127.808 742.765 L-128.943 745.247 L-130.269 754.019 L-130.081 776.195 L-130.847 789.522 L-130.771 791.858 L-130.15 793.787 L-129.252 795.491 L-128.79 795.467 L-128.582 794.4 L-124.797 786.021 L-121.118 776.029 L-119.684 773.683 L-118.456 773.172 L-117.362 775.624 L-114.82 786.831 L-113.697 789.022 L-111.79 790.903 L-109.983 792.013 L-107.863 792.732 L-105.626 792.567 "/></g><g><path fill="none" stroke="#000000" stroke-width="6" stroke-linecap="round" stroke-linejoin="round" d="M-95.2592 778.635 L-94.7737 777.965 L-86.8098 775.035 L-78.621 770.227 L-77.1044 768.616 L-77.7524 766.821 L-78.4249 766.448 L-82.2682 765.837 L-85.5554 766.031 L-88.3587 766.655 L-90.7992 767.785 L-93.7064 770.148 L-97.7267 774.945 L-100.949 781.197 L-101.44 783.047 L-101.638 785.84 L-100.954 789.261 L-99.6497 791.378 L-96.4667 793.987 L-92.9237 795.349 L-89.634 795.884 L-84.7476 795.657 L-77.9279 794.717 L-66.922 790.665 "/></g><g><path fill="none" stroke="#000000" stroke-width="6" stroke-linecap="round" stroke-linejoin="round" d="M20.4698 758.291 L18.7606 758.044 L18.7839 757.339 L18.3272 757.728 L17.4512 757.682 L15.92 758.375 L14.6359 759.252 L2.8913 770.165 L0.736084 772.664 L0.15271 774.018 L0.720215 775.014 L6.40741 775.631 L19.157 773.89 L25.1642 773.623 L28.6086 774.289 L30.0786 775.692 L30.4398 776.696 L30.2669 778.031 L27.3645 782.525 L24.6773 785.372 L20.9097 788.372 L15.1064 791.807 L9.83441 795.683 L13.5061 794.21 "/></g><g><path fill="none" stroke="#000000" stroke-width="6" stroke-linecap="round" stroke-linejoin="round" d="M50.6914 772.457 L49.8414 771.683 L48.5522 771.202 L44.9529 771.177 L41.6383 772.587 L37.8316 775.637 L35.9676 777.772 L32.949 783.088 L31.8475 786.017 L31.8577 789.101 L32.999 790.407 L36.0889 790.806 L39.9149 788.343 L42.5544 785.776 L45.1688 781.798 L46.3199 778.731 L46.469 775.094 L46.111 773.81 L45.6352 773.509 L44.8762 773.998 L44.6609 776.401 L45.2935 781.135 L46.8987 785.646 L49.7119 790.631 L53.4375 793.934 L55.4088 794.757 L58.3687 795.585 L59.65 794.65 "/></g><g><path fill="none" stroke="#000000" stroke-width="6" stroke-linecap="round" stroke-linejoin="round" d="M71.6946 771.69 L70.8726 772.627 L69.8215 774.912 L68.6464 780.442 L67.8823 787.626 L68.118 789.641 L68.991 790.864 L70.3237 791.235 L71.7321 791.165 L74.7115 788.043 L76.3843 785.702 L77.9252 783.195 L79.3951 779.884 L81.0155 774.82 L81.3688 773.25 L81.1794 772.995 L80.8217 774.677 L81.2704 777.368 L81.8956 786.642 L82.5679 788.19 L83.1533 788.693 L84.0521 788.861 L85.0865 788.546 L86.2095 787.579 L89.9079 783.242 L93.7869 777.634 L95.1802 774.339 L96.2859 772.706 L97.8461 771.326 L98.1154 771.564 L97.4717 784.254 L98.0584 787.269 L100.493 791.105 L101.915 791.345 L103.656 790.804 "/></g><g><path fill="none" stroke="#000000" stroke-width="6" stroke-linecap="round" stroke-linejoin="round" d="M120.374 778.586 L119.964 778.52 L120.046 778.212 L120.982 778.709 L126.46 777.247 L135.633 773.598 L138.582 771.846 L139.632 770.809 L139.968 770.041 L139.44 769.447 L136.402 768.663 L135.225 768.651 L130.237 769.451 L128.176 770.117 L123.068 773.137 L119.216 777.63 L117.1 781.263 L116.068 784.971 L116.495 787.657 L117.18 788.912 L118.634 790.472 L121.502 791.961 L125.054 793.253 L130.476 794.211 L135.123 794.237 L140.111 793.718 L145.943 792.501 L150.294 791.058 "/></g><g><path fill="none" stroke="#000000" stroke-width="6" stroke-linecap="round" stroke-linejoin="round" d="M237.751 771.838 L236.283 766.866 L232.355 768.903 L228.73 771.866 L221.33 779.567 L218.045 784.325 L216.938 786.748 L216.625 788.236 L216.749 790.172 L217.384 791.409 L218.709 792.554 L221.187 793.134 L225.149 792.558 L233.353 788.156 L237.785 784.565 L242.925 777.986 L243.819 774.627 L243.783 772.164 L243.159 769.726 L241.508 767.805 L240 767.238 L239.524 768.087 L238.798 773.253 L238.58 778.942 L239.41 786.672 L240.041 789.724 L240.686 791.228 L241.738 793.24 L243.133 795.04 L245.129 796.378 L246.076 796.42 L248.115 797.84 L249.604 797.968 L250.616 797.659 L253.184 795.346 "/></g><g><path fill="none" stroke="#000000" stroke-width="6" stroke-linecap="round" stroke-linejoin="round" d="M288.895 761.909 L287.199 759.459 L286.395 759.126 L284.411 759.306 L280.185 761.453 L277.274 763.714 L272.805 767.828 L271.709 769.419 L271.393 770.446 L271.458 771.719 L272.053 772.408 L273.561 773.22 L276.27 773.88 L280.15 773.797 L294.932 772.401 L298.347 772.371 L299.973 773.433 L300.172 774.175 L299.262 775.63 L286.19 790.391 L282.822 794.962 L282.746 795.818 L284.623 796.243 "/></g><g><path fill="none" stroke="#000000" stroke-width="6" stroke-linecap="round" stroke-linejoin="round" d="M388.004 771.349 L386.816 770.579 L386.924 771.107 L390.104 777.09 L392.575 780.766 L395.669 784.4 L399.447 787.707 L403.48 790.6 L405.694 791.832 L406.814 791.951 L409.085 792.847 L411.62 791.475 L417.506 785.3 L422.642 777.663 L425.483 771.22 L426.353 767.516 L426.712 763.568 L426.46 762.77 L425.99 762.614 L425.39 763.36 L412.735 788.055 L397.6 813.939 L392.733 823.569 L389.96 831.203 L389.424 834.481 L389.396 837.537 L390.296 838.5 L391.081 838.299 L392.602 837.228 L395.273 834.522 "/></g><g><path fill="none" stroke="#000000" stroke-width="6" stroke-linecap="round" stroke-linejoin="round" d="M467.546 772.267 L466.402 771.574 L464.387 771.072 L459.185 772.106 L449.335 779.302 L446.947 781.946 L445.34 784.942 L444.679 787.83 L444.684 790.623 L444.987 793.121 L446.536 797.945 L447.876 799.398 L450.775 801.049 L453.893 801.413 L457.225 800.714 L460.926 798.901 L464.374 795.831 L466.262 793.106 L467.186 791.068 L467.856 787.218 L467.294 783.488 L466.24 780.857 L463.479 777.206 L456.807 772.708 L454.324 771.99 L451.946 771.653 L451.549 771.734 L451.333 772.193 L452.032 772.349 L453.568 774.118 L456.047 775.856 "/></g><g><path fill="none" stroke="#000000" stroke-width="6" stroke-linecap="round" stroke-linejoin="round" d="M486.411 766.407 L488.374 765.971 L489.51 765.003 L489.287 769.544 L487.948 780.699 L488.363 784.623 L489.151 786.682 L490.069 787.865 L490.848 788.456 L492.667 788.75 L496.223 787.841 L499.254 786.365 L501.691 784.581 L502.83 783.158 L504.455 779.323 L504.969 773.572 L504.787 768.576 L505.592 782.474 L507.047 788.911 L509.123 793.065 L511.676 795.533 L513.02 795.861 L517.202 795.408 "/></g><g><path fill="none" stroke="#000000" stroke-width="6" stroke-linecap="round" stroke-linejoin="round" d="M534.946 766.669 L533.529 766.214 L534.551 769.005 L533.949 778.868 L534.18 784.727 L535.952 793.213 L536.546 794.284 L537.294 794.896 L538.653 793.433 L540.434 790.043 L543.133 782.661 L543.916 778.336 L545.276 759.176 L546.054 756.283 L547.749 754.133 L549.094 753.419 L550.497 753.451 L555.741 754.824 L557.516 754.966 L562.746 756.944 L569.208 758.595 L573.505 760.281 L580.865 762.176 "/></g><g><path fill="none" stroke="#000000" stroke-width="6" stroke-linecap="round" stroke-linejoin="round" d="M-481.702 843.408 L-481.276 841.887 L-480.296 840.661 L-480.811 840.199 L-482.694 840.125 L-485.277 841.125 L-489.374 843.959 L-495.368 850 L-497.874 852.875 L-499.589 855.416 L-501.548 858.636 L-502.682 861.28 L-502.982 862.948 L-502.63 864.459 L-500.55 866.987 L-497.116 869.152 L-493.477 870.459 L-490.023 871.071 L-485.743 870.697 L-484.056 870.178 L-478.54 869.401 L-472.667 866.614 "/></g><g><path fill="none" stroke="#000000" stroke-width="6" stroke-linecap="round" stroke-linejoin="round" d="M-458.088 847.636 L-459.641 847.682 L-460.315 849.498 L-460.258 852.888 L-459.535 857.185 L-456.513 862.925 L-454.343 865.527 L-453.194 865.638 L-451.935 865.188 L-450.956 864.511 L-449.925 863.218 L-448.308 860.312 L-446.794 856.164 L-446.1 855.362 L-443.618 849.179 L-444.221 851.974 L-442.962 859.768 L-441.297 864.738 L-439.532 866.822 L-437.379 868.679 L-434.178 870.105 L-431.76 870.144 L-429.417 869.34 "/></g><g><path fill="none" stroke="#000000" stroke-width="6" stroke-linecap="round" stroke-linejoin="round" d="M-419.937 846.851 L-421.194 847.285 L-421.58 848.721 L-421.887 852.469 L-421.435 857.49 L-419.11 864.264 L-417.385 867.447 L-415.546 869.432 L-414.273 870.026 L-413.476 870.031 L-411.955 869.013 L-410.745 864.756 L-410.2 861.405 L-410.104 857.203 L-409.119 847.031 L-408.214 843.274 L-407.1 842.694 L-405.554 842.526 L-396.282 843.185 L-390.047 844.644 L-385.984 846.331 "/></g><g><path fill="none" stroke="#000000" stroke-width="6" stroke-linecap="round" stroke-linejoin="round" d="M-375.426 849.44 L-376.189 851.229 L-376.498 853.467 L-376.352 859.46 L-375.69 862.902 L-374.588 865.355 L-373.762 868.539 L-373.002 869.432 L-371.455 861.561 L-370.61 848.823 L-369.919 846.306 L-368.743 844.689 L-366.865 843.444 L-365.475 843.422 L-363.09 844.062 L-360.325 845.364 L-353.453 850.101 "/></g><g><path fill="none" stroke="#000000" stroke-width="6" stroke-linecap="round" stroke-linejoin="round" d="M-339.035 858.294 L-339.063 858.532 L-338.585 858.33 L-334.101 855.738 L-331.698 854.024 L-328.673 851.24 L-325.393 847.588 L-323.797 845.105 L-323.786 843.685 L-324.488 842.843 L-327.631 841.753 L-330.337 842.171 L-334.398 843.948 L-340.309 848.24 L-342.768 852.364 L-344.399 856.856 L-344.852 861.161 L-344.511 864.708 L-343.193 868.707 L-341.967 871.019 L-340.913 872.282 L-338.936 874.163 L-336.871 875.575 L-332.938 877.294 L-328.628 878.12 L-324.257 877.423 L-322.585 876.949 L-319.44 875.176 L-318.734 874.423 "/></g><g><path fill="none" stroke="#000000" stroke-width="6" stroke-linecap="round" stroke-linejoin="round" d="M-310.157 848.815 L-310.986 848.862 L-311.25 849.17 L-312.278 851.816 L-313.024 857.888 L-313.054 862.557 L-312.404 865.527 L-311.23 867.756 L-308.268 869.595 L-306.761 869.343 L-304.323 867.973 L-301.438 864.341 L-298.821 860.294 L-292.717 847.264 L-292.828 849.167 L-291.103 858.031 L-290.115 865.601 L-288.632 871.892 L-286.518 876.489 L-284.779 878.593 L-283.847 879.448 L-282.322 880.03 L-280.905 880.112 "/></g><g><path fill="none" stroke="#000000" stroke-width="6" stroke-linecap="round" stroke-linejoin="round" d="M-241.906 825.691 L-242.836 826.303 L-243.522 827.307 L-243.901 830.848 L-242.147 849.058 L-242.086 854.318 L-242.691 860.42 L-242.515 863.946 L-242.014 865.919 L-240.557 868.169 L-239.375 868.969 L-238.526 869.285 L-235.391 869.42 L-229.631 867.303 L-227.138 865.806 L-224.317 863.477 "/></g><g><path fill="none" stroke="#000000" stroke-width="6" stroke-linecap="round" stroke-linejoin="round" d="M-257.56 843.98 L-259.274 844.071 L-259.474 844.465 L-258.775 844.815 L-252.317 844.759 L-237.397 841.998 L-233.364 841.585 L-228.527 841.63 "/></g><g><path fill="none" stroke="#000000" stroke-width="6" stroke-linecap="round" stroke-linejoin="round" d="M-120.333 850.995 L-121.821 850.474 L-122.822 850.748 L-124.215 851.685 L-125.9 853.408 L-130.03 858.877 L-133.131 864.619 L-134.587 869.365 L-134.653 873.863 L-133.984 875.875 L-132.76 877.587 L-130.074 879.623 L-126.983 880.231 L-124.376 880.223 L-119.557 879.058 L-114.688 876.925 L-111.799 875.017 L-108.592 871.864 L-106.197 868.626 L-104.909 865.727 L-104.771 863.899 L-105.084 862.326 L-106.872 859.595 L-110.536 856.108 L-113.11 854.804 L-116.469 852.436 L-121.9 850.163 L-123.301 850.248 L-123.083 850.748 L-117.899 854.157 "/></g><g><path fill="none" stroke="#000000" stroke-width="6" stroke-linecap="round" stroke-linejoin="round" d="M-87.7511 850.154 L-88.1897 850.555 L-88.8918 852.332 L-89.2238 855.485 L-89.0886 858.645 L-86.5431 871.004 L-85.8601 872.234 L-84.8286 873.098 L-83.5807 873.395 L-81.4715 872.759 L-80.0622 871.619 L-77.8664 868.199 L-76.3234 863.406 L-75.1925 853.999 L-75.4429 849.749 L-75.381 850.954 L-74.6495 852.685 L-72.3261 856.666 L-69.2521 860.992 L-67.7912 862.837 L-66.3753 864.223 L-65.6683 864.365 L-62.5671 867.711 L-61.9128 869.145 L-61.8645 868.724 "/></g><g><path fill="none" stroke="#000000" stroke-width="6" stroke-linecap="round" stroke-linejoin="round" d="M-43.5092 854.886 L-44.5685 854.232 L-42.4139 855.029 L-40.292 855.29 L-39.2747 854.991 L-37.563 855.198 L-34.9757 854.964 L-31.7291 854.37 L-21.384 849.394 L-18.6609 846.977 L-17.3523 845.163 L-16.8703 843.922 L-17.0338 842.206 L-17.5715 840.992 L-18.927 839.734 L-20.5569 838.778 L-24.0994 838.177 L-30.0642 839.383 L-33.7655 841.486 L-41.2183 847.138 L-44.7717 851.709 L-46.7015 856.842 L-46.9263 860.536 L-45.7457 864.568 L-43.6497 867.119 L-39.5823 869.657 L-35.3832 871.207 L-29.4525 872.42 L-22.3723 872.859 L-13.5867 872.345 L-6.34845 869.313 "/></g><g><path fill="none" stroke="#000000" stroke-width="6" stroke-linecap="round" stroke-linejoin="round" d="M65.734 873.546 L64.8452 874.021 L62.2906 877.923 L58.1995 889.659 L58.3586 891.801 L59.0311 892.41 L60.5798 892.489 "/></g><g><path fill="none" stroke="#000000" stroke-width="6" stroke-linecap="round" stroke-linejoin="round" d="M154.069 851.766 L155.935 852.398 L159.588 851.517 L162.507 850.406 L170.27 846.606 L173.401 844.647 L175.595 842.812 L176.223 841.376 L175.818 840.417 L173.819 839.408 L172.234 839.098 L169.443 839.118 L162.236 840.271 L158.142 841.487 L156.484 842.291 L154.243 843.688 L151.136 846.473 L148.741 852.203 L148.197 856.722 L148.653 858.911 L149.614 861.024 L152.033 864.661 L154.934 867.211 L158.552 869.057 L163.127 870.129 L167.375 870.142 L172.595 869.315 L177.411 867.846 "/></g><g><path fill="none" stroke="#000000" stroke-width="6" stroke-linecap="round" stroke-linejoin="round" d="M193.501 869.207 L191.99 868.257 L191.267 868.7 L191.889 868.813 "/></g><g><path fill="none" stroke="#000000" stroke-width="6" stroke-linecap="round" stroke-linejoin="round" d="M226.251 846.25 L224.899 844.793 L223.641 844.552 L221.161 845.123 L216.197 847.346 L214.035 849.123 L212.517 851.404 L211.913 853.51 L212.054 855.539 L212.878 857.255 L214.267 858.589 L216.544 859.732 L218.686 860.191 L223.049 859.404 L224.421 858.837 L230.908 855.135 L233.527 852.478 L234.423 850.373 L234.503 849.102 L233.839 846.094 L232.508 844.357 L230.448 840.423 L230.173 840.501 L230.374 841.185 L229.96 844.858 L230.313 848.097 L233.499 860.893 L237.848 887.298 L238.168 891.534 L237.828 897.722 L236.298 903.518 L234.463 907.258 L231.884 911.035 L229.926 912.666 L227.429 913.692 L224.871 914.246 L222.97 914.393 L220.463 913.761 L219.304 913.107 L216.877 910.597 L216.084 908.386 L216.145 904.971 L216.91 902.77 L218.809 900.288 "/></g><g><path fill="none" stroke="#000000" stroke-width="6" stroke-linecap="round" stroke-linejoin="round" d="M253.954 869.988 L252.523 869.015 L253.595 869.192 "/></g><g><path fill="none" stroke="#000000" stroke-width="6" stroke-linecap="round" stroke-linejoin="round" d="M-502.498 975.353 L-503.113 973.291 L-503.181 973.705 L-496.592 983.755 L-491.213 993.045 L-487.607 997.724 L-485.676 999.267 L-482.367 1000.88 L-479.587 1000.71 L-477.958 999.768 "/></g><g><path fill="none" stroke="#000000" stroke-width="6" stroke-linecap="round" stroke-linejoin="round" d="M-461.57 968.29 L-462.244 967.455 L-462.614 967.906 L-465.628 975.491 L-469.904 987.157 L-479.91 1017.2 L-484.178 1033.78 L-488.181 1055.22 L-489.939 1061.7 L-489.864 1060.39 L-487.582 1055.38 "/></g><g><path fill="none" stroke="#000000" stroke-width="6" stroke-linecap="round" stroke-linejoin="round" d="M-446.986 1014.97 L-446.144 1012.28 L-446.067 1010.12 L-446.258 1009.67 L-448.092 1010.61 L-449.694 1013.04 L-451.889 1019.23 L-452.588 1023.01 L-452.568 1025.82 L-451.252 1028.97 L-449.474 1030.28 L-447.46 1030.89 L-444.954 1031.02 L-442.984 1030.58 L-438.909 1028.59 L-435.489 1026.34 L-431.031 1022.58 L-428.155 1019.01 L-427.717 1017.4 L-428.151 1016.04 L-428.982 1015 L-431.441 1013.24 L-433.852 1012.07 L-439.079 1009.77 L-444.532 1008.28 L-445.817 1008.53 L-446.164 1008.92 L-445.264 1009.05 L-442.815 1010.72 L-440.638 1011.61 "/></g><g><path fill="none" stroke="#000000" stroke-width="6" stroke-linecap="round" stroke-linejoin="round" d="M-406.515 1005.51 L-406.638 1005.12 L-406.921 1005.25 L-406.692 1017.49 L-405.937 1024.57 L-405.543 1025.98 L-404.74 1027.3 L-403.445 1027.35 L-402.426 1026.79 L-400.453 1024.51 L-393.634 1012.12 L-390.459 1004.36 L-390.966 1005.62 L-391.066 1006.93 L-390.957 1020.91 L-390.422 1025.33 L-389.453 1028.66 L-387.927 1030.95 L-385.64 1033.21 L-382.433 1034.01 L-378.868 1033.63 "/></g><g><path fill="none" stroke="#000000" stroke-width="6" stroke-linecap="round" stroke-linejoin="round" d="M-286.942 967.785 L-287.881 966.953 L-289.851 967.887 L-291.551 970.341 L-292.234 973.064 L-293.05 993.889 L-296.222 1022.62 L-296.251 1027.42 L-295.823 1029.33 L-295.145 1029.52 L-294.177 1028.37 L-285.67 1015.95 L-282.626 1010.66 L-278.484 1001.32 L-275.996 997.961 L-276.157 999.284 L-274.774 1001.61 L-273.865 1004.93 L-272.886 1019.05 L-272.112 1024.15 L-270.717 1026.78 L-269.347 1027.29 L-267.85 1026.96 "/></g><g><path fill="none" stroke="#000000" stroke-width="6" stroke-linecap="round" stroke-linejoin="round" d="M-241.23 1010.79 L-242.226 1009.53 L-244.139 1008.83 L-246.72 1010.37 L-249.642 1013.86 L-251.153 1017.72 L-251.957 1022.29 L-251.263 1025.28 L-249.958 1027.12 L-247.935 1027.82 L-246.571 1027.36 L-243.766 1024.86 L-240.546 1020.25 L-238.381 1016.52 L-237.771 1014.91 L-237.338 1011.87 L-237.41 1010.65 L-238.037 1009.32 L-238.757 1009.59 L-239.006 1010.48 L-239.313 1017.02 L-238.952 1019.57 L-237.318 1023.56 L-235.816 1025.08 L-231.299 1028.16 L-228.224 1028.33 L-226.367 1027.45 "/></g><g><path fill="none" stroke="#000000" stroke-width="6" stroke-linecap="round" stroke-linejoin="round" d="M-218.865 1009.73 L-219.27 1011.57 L-218.742 1018.84 L-217.943 1023.52 L-215.902 1029.67 L-214.614 1031.8 L-213.407 1032.67 L-212.498 1032.74 L-211.029 1032.62 L-209.703 1031.36 L-206.784 1026.41 L-205.095 1021.74 L-203.558 1012.13 L-203.199 1008 L-203.371 1007.02 L-203.104 1008.94 L-202.383 1010.61 "/></g><g><path fill="none" stroke="#000000" stroke-width="6" stroke-linecap="round" stroke-linejoin="round" d="M-172.271 1015.43 L-173.01 1015.26 L-173.136 1015.66 L-172.819 1015.23 L-172.08 1015.19 L-170.165 1014.15 L-169.373 1014.12 L-164.583 1009.32 L-163.386 1007.14 L-163.048 1005.83 L-163.272 1004.57 L-163.955 1003.81 L-165.063 1003.55 L-167.282 1003.7 L-171.349 1005.26 L-173.44 1007.46 L-175.896 1011.02 L-178.168 1015.33 L-178.912 1018.53 L-178.799 1021.81 L-177.56 1025.18 L-175.552 1027.78 L-174.284 1028.81 L-169.153 1031.31 L-165.771 1031.96 L-161.859 1032.21 L-155.813 1030.59 L-153.111 1029.37 L-150.203 1028.58 "/></g><g><path fill="none" stroke="#000000" stroke-width="6" stroke-linecap="round" stroke-linejoin="round" d="M-53.9414 978.186 L-50.7875 979.063 L-47.1111 978.429 L-34.5059 977.533 L-31.8814 977.756 L-30.7097 978.218 L-26.7817 978.158 L-23.2815 979.268 L-22.2473 980.635 L-22.4291 982.721 L-23.8118 985.064 L-26.6981 988.376 L-30.2162 991.015 L-34.1542 993.112 L-42.6572 996.252 L-41.1009 996.124 L-31.3856 997.61 L-26.5898 998.657 L-22.8737 1000.29 L-17.3019 1003.96 L-15.3504 1005.96 L-12.55 1010.32 L-11.5051 1013.45 L-11.0854 1016.69 L-11.1494 1018.82 L-11.9297 1021.2 L-13.463 1023.64 L-15.5954 1026.2 L-17.2983 1027.64 L-19.749 1029 L-23.2931 1030.25 L-29.2861 1031.83 L-31.5503 1032.76 L-39.4285 1033.99 L-43.6227 1034.31 L-47.1359 1033.78 L-48.296 1032.83 L-48.4536 1032.19 L-47.597 1029.76 L-45.9324 1027.07 L-42.1993 1022.85 "/></g><g><path fill="none" stroke="#000000" stroke-width="6" stroke-linecap="round" stroke-linejoin="round" d="M106.334 1010.75 L104.981 1008.45 L102.968 1006.33 L100.896 1005.34 L99.4913 1005.06 L95.8715 1006.42 L92.1418 1009.21 L89.4927 1011.71 L86.2147 1015.65 L83.398 1020.66 L82.5126 1023.55 L81.8298 1027.56 L81.5817 1031.37 L81.9394 1033.59 L83.3376 1035.44 L84.6044 1034.94 L87.0143 1033.29 L92.8912 1026.61 L95.6714 1022.89 L98.2814 1017.66 L99.7057 1013.62 L99.8827 1009.55 L99.3929 1008.27 L98.6477 1007.58 L97.9332 1008.07 L98.2317 1008.74 L98.4062 1012.64 L99.1942 1017.04 L100.278 1020.26 L102.736 1025.35 L105.394 1029.25 L109.348 1031.38 L111.544 1030.91 L112.644 1030.12 "/></g><g><path fill="none" stroke="#000000" stroke-width="6" stroke-linecap="round" stroke-linejoin="round" d="M135.306 971.524 L134.087 971.068 L133.641 971.187 L133.56 971.545 L132.809 983.082 L131.624 992.533 L128.894 1007.28 L128.578 1013.63 L128.879 1017.25 L130.744 1028.16 L131.774 1031.12 L132.941 1032.36 L135.099 1032.89 L137.223 1032.01 L138.238 1030.95 "/></g><g><path fill="none" stroke="#000000" stroke-width="6" stroke-linecap="round" stroke-linejoin="round" d="M157.436 973.745 L156.265 974.461 L155.474 975.887 L153.869 983.726 L153.141 989.651 L151.678 1012.42 L152.145 1016.65 L155.621 1028.16 L156.632 1032.56 L156.849 1035.4 "/></g><g><path fill="none" stroke="#000000" stroke-width="6" stroke-linecap="round" stroke-linejoin="round" d="M125.095 992.453 L124.534 991.838 L124.292 991.796 L124.305 992.13 L125.677 992.929 L129.44 994.44 L137.224 995.539 L141.753 995.113 L152.568 993.356 L158.219 991.838 L164.884 990.745 L167.017 990.103 L168.025 990.143 "/></g><g><path fill="none" stroke="#000000" stroke-width="6" stroke-linecap="round" stroke-linejoin="round" d="M187.844 1006.86 L186.265 1006.11 L184.775 1006.01 L181.565 1010.16 L175.57 1024.56 L175.12 1026.62 L175.21 1028.19 L176.256 1029.12 L178.301 1028.54 L182.75 1024.72 L185.374 1021.04 L187.138 1017.62 L188.775 1013.49 L189.761 1008.4 L189.79 1007.03 L189.188 1006.13 L188.165 1006.51 L187.621 1007.34 L186.458 1010.65 L185.95 1014.03 L186.017 1018.74 L186.601 1020.95 L187.589 1022.77 L189.54 1024.84 L192.754 1027.35 L196.616 1028.89 L200.814 1030.12 L203.067 1029.9 "/></g><g><path fill="none" stroke="#000000" stroke-width="6" stroke-linecap="round" stroke-linejoin="round" d="M221.376 1009.35 L219.687 1008.79 L218.517 1009.04 L216.919 1009.89 L214.758 1011.93 L212.551 1014.88 L210.053 1019.51 L209.754 1020.75 L209.955 1023.13 L210.903 1025.19 L212.412 1027.17 L214.803 1029.65 L218.412 1032.04 L220.145 1032.69 L223.083 1032.99 L225.773 1032.41 L228.857 1031.13 "/></g><g><path fill="none" stroke="#000000" stroke-width="6" stroke-linecap="round" stroke-linejoin="round" d="M246.983 970.83 L245.207 969.649 L244.768 969.949 L244.418 971.317 L244.107 978.627 L242.824 993.665 L239.901 1017.43 L239.829 1022.46 L240.389 1026.81 L243.148 1033.53 L243.914 1033.89 L244.929 1033.74 L246.172 1032.81 L250.34 1028.17 L253.771 1023.59 L256.328 1019.16 L262.899 1004.08 L266.503 998.445 L270.118 995.818 L270.492 995.985 L270.162 996.433 L269.996 996.286 L264.358 1002.69 L260.346 1007.92 L257.471 1012.34 L255.409 1017.15 L255.099 1018.97 L255.388 1021.01 L256.168 1022.38 L258.064 1023.95 L259.943 1025.11 L262.323 1026.03 L263.748 1025.54 L264.515 1025.96 L267.394 1026.55 L271.664 1026.99 L283.033 1026.74 "/></g><g><path fill="none" stroke="#000000" stroke-width="6" stroke-linecap="round" stroke-linejoin="round" d="M386.4 1011.48 L385.978 1008.84 L385.23 1007.28 L383.358 1005.81 L382.08 1005.57 L380.126 1005.73 L378.359 1006.35 L370.076 1010.93 L364.168 1017.18 L361.443 1021.4 L360.559 1024.57 L360.216 1027.91 L360.401 1029.92 L361.329 1032.22 L363.708 1033.68 L367.352 1033.73 L370.927 1032.28 L373.98 1030.35 L377.97 1025.99 L380.675 1022.18 L382.997 1016.27 L384.497 1008.06 L384.262 1001.15 L379.517 978.316 L379.133 974.226 L380.501 979.284 L380.679 982.202 L382.716 994.443 L385.621 1008.84 L387.077 1020.04 L388.816 1027.78 L391.137 1032.54 L392.877 1034.55 L395.351 1034.35 L397.972 1032.6 "/></g><g><path fill="none" stroke="#000000" stroke-width="6" stroke-linecap="round" stroke-linejoin="round" d="M421.809 1003.42 L420.333 1002.61 L418.669 1002.63 L415.361 1005.61 L403.761 1019.3 L402.75 1021.84 L402.728 1023.7 L403.236 1024.59 L404.802 1025.24 L407.878 1025.28 L411.224 1024.32 L416.133 1021.46 L421.831 1016.42 L424.24 1013.56 L426.253 1009.3 L426.287 1008.29 L425.558 1007.38 L424.266 1007.85 L423.377 1008.74 L421.462 1011.42 L420.965 1012.88 L419.798 1019.03 L419.842 1020.45 L420.684 1023.59 L422.706 1027.81 L423.849 1029.5 L427.973 1033.75 L430.484 1034.49 L433.863 1034.01 "/></g><g><path fill="none" stroke="#000000" stroke-width="6" stroke-linecap="round" stroke-linejoin="round" d="M441.991 1001.27 L441.913 1000.96 L441.698 1001.06 L441.377 1002.98 L440.978 1017.22 L441.805 1025.29 L442.086 1026.45 L442.909 1027.41 L445.24 1024.03 L448.437 1020.47 L451.403 1015.26 L453.632 1009.07 L453.65 1007.92 L453.318 1007.38 L452.729 1008.35 L451.969 1012.99 L451.557 1018.23 L452.071 1020.44 L453.481 1021.66 L454.437 1021.66 L457.993 1019.58 L463.267 1014.02 L465.344 1010.7 L468.43 1003.93 L470.676 1000.76 L469.944 1003.04 L469.47 1015.98 L469.664 1017.04 L470.81 1019.61 L472.264 1021.44 L472.956 1021.8 L473.356 1021.58 L474.86 1022 "/></g><g><path fill="none" stroke="#000000" stroke-width="6" stroke-linecap="round" stroke-linejoin="round" d="M496.887 1008.78 L496.227 1007.03 L494.802 1005.31 L492.608 1006.8 L489.516 1010.57 L485.949 1016.1 L484.295 1019.24 L483.645 1022.63 L484.255 1025.51 L485.379 1026.79 L486.169 1027.2 L487.242 1027.32 L488.536 1026.86 L490.58 1025.59 L494.193 1022.43 L496.13 1020.02 L499.371 1014.73 L500.794 1011.03 L501.036 1009.33 L500.861 1006.74 L499.167 1003.21 L499.327 1004.15 L498.544 1006.47 L498.616 1007.63 L499.479 1007.95 L499.681 1008.48 L500.624 1007.07 L500.274 1007.1 L500.231 1007.53 L500.393 1007.1 L500.687 1007.82 L502.089 1017.75 L503.908 1024.23 L505.341 1027.44 L507.903 1030.96 L510.42 1033.82 L511.483 1034.23 "/></g><g><path fill="none" stroke="#000000" stroke-width="6" stroke-linecap="round" stroke-linejoin="round" d="M527.907 1005.35 L528.288 1002.74 L527.759 1003.89 L526.675 1005.06 L510.628 1018.52 L509.482 1020.36 L509.673 1021.6 L510.919 1023.42 L513.698 1025.07 L516.588 1025.37 L518.578 1025.18 L523.744 1023.14 L527.875 1020.59 L532.975 1015.01 L534.519 1010.84 L534.661 1008.81 L534.273 1006.67 L532.626 1003.02 L530.597 1001.45 L530.143 1001.31 L529.73 1001.65 L529.479 1006.49 L529.674 1011.18 L532.744 1028.51 L533.361 1034.72 L534.144 1050.99 L533.953 1055.83 L532.391 1064.82 L531.502 1068.86 L529.338 1075.46 L528.177 1077.15 L526.61 1077.85 L525.714 1077.92 L521.879 1076.88 L518.93 1075.36 L517.313 1073.9 L516.405 1073.57 L511.63 1070.28 L506.695 1066.16 L503.481 1061.32 L502.021 1057.53 L501.937 1055.83 L502.304 1054.53 L502.775 1053.66 L504.136 1052.5 "/></g><g><path fill="none" stroke="#000000" stroke-width="6" stroke-linecap="round" stroke-linejoin="round" d="M551.511 1007.57 L550.933 1006.22 L551.454 1007.01 L553.364 1008.4 L560.367 1006.33 L567.183 1003.41 L574.653 999.186 L577.826 996.691 L579.329 994.718 L579.444 993.567 L578.757 991.739 L575.794 989.175 L573.491 988.974 L569.37 990.196 L565.098 992.918 L561.25 996.986 L557.972 1002.87 L556.24 1007.32 L554.928 1013.22 L555.159 1017.36 L557.22 1021.6 L560.205 1025.59 L562.449 1027.48 L568.176 1030.73 L571.784 1030.78 L576.732 1029.89 L581.792 1028.01 L584.311 1026.57 "/></g><g><path fill="none" stroke="#000000" stroke-width="6" stroke-linecap="round" stroke-linejoin="round" d="M604.82 1025.71 L603.755 1024.36 L604.179 1024.96 L606.104 1025.62 "/></g><g><path fill="none" stroke="#000000" stroke-width="6" stroke-linecap="round" stroke-linejoin="round" d="M-525.301 1140.81 L-527.235 1138.54 L-527.302 1138.96 L-525.88 1140.36 L-520.541 1152.6 L-517.597 1156.79 L-515.024 1159.15 L-511.921 1160.97 L-510.139 1161.63 L-507.891 1161.49 L-504.866 1160.04 L-502.079 1158.2 L-496.895 1153.05 L-492.455 1146.9 L-488.979 1141.14 L-485.366 1128.3 L-486.976 1133.57 L-489.218 1138.79 L-491.613 1145.71 L-501.342 1166.13 L-507.34 1180.31 L-511.552 1193.46 L-512.245 1197.63 L-512.344 1204.08 L-513.488 1206.65 L-513.845 1206.5 L-513.369 1205.38 "/></g><g><path fill="none" stroke="#000000" stroke-width="6" stroke-linecap="round" stroke-linejoin="round" d="M-465.6 1169.61 L-465.533 1168.5 L-466.155 1167.48 L-468.314 1166.72 L-469.598 1166.81 L-470.048 1166.56 L-473.089 1169.91 L-473.758 1171.12 L-475.257 1174.2 L-476.102 1177.61 L-476.093 1180.49 L-475.709 1182.3 L-475.085 1183.93 L-473.936 1185.37 L-472.271 1186.79 L-470.813 1187.38 L-466.941 1187.32 L-463.259 1185.75 L-456.911 1182.11 L-453.982 1179.37 L-452.24 1176.73 L-451.456 1174.64 L-451.446 1173.39 L-451.889 1172.64 L-454.17 1171.04 L-460.11 1169.1 L-467.654 1167.28 L-461.706 1168.23 "/></g><g><path fill="none" stroke="#000000" stroke-width="6" stroke-linecap="round" stroke-linejoin="round" d="M-435.32 1162.47 L-436.048 1161.97 L-436.635 1162.63 L-437.205 1164.49 L-436.513 1172.93 L-435.595 1176.61 L-434.577 1178.95 L-432.989 1180.9 L-431.672 1181.19 L-428.062 1180.41 L-426.106 1178.52 L-421.644 1170.95 L-417.204 1159.84 L-417.666 1162.69 L-416.912 1173.43 L-416.097 1178.69 L-415.002 1181.32 L-412.562 1184.14 L-408.641 1186.01 L-406.679 1186.13 "/></g><g><path fill="none" stroke="#000000" stroke-width="6" stroke-linecap="round" stroke-linejoin="round" d="M-325.989 1162.47 L-329.483 1161.3 L-330.466 1161.75 L-330.905 1162.76 L-329.678 1167.67 L-326.331 1175.68 L-323.791 1180.57 L-318.922 1188.43 L-316.653 1190.37 L-315.57 1190.09 L-313.852 1188.58 L-311.997 1185.67 L-308.896 1177.96 L-305.848 1158.98 L-305.695 1160.73 L-304.539 1163.75 L-303.25 1169.42 L-300.255 1179.56 L-297.207 1185.55 L-296.269 1186.36 L-294.719 1186.8 L-293.077 1185.66 L-292.222 1184.56 L-290.945 1182.31 L-288.734 1179.62 L-286.945 1176.08 L-284.446 1169.08 L-282.554 1159.36 L-282.556 1161.1 "/></g><g><path fill="none" stroke="#000000" stroke-width="6" stroke-linecap="round" stroke-linejoin="round" d="M-267.479 1168.93 L-269.003 1168.14 L-270.418 1168 L-271.968 1170.01 L-272.038 1174.02 L-271.389 1179.69 L-270.26 1184 L-269.011 1185.83 L-268.167 1186.14 L-266.583 1187.69 L-265.022 1187.37 L-264.5 1186.56 "/></g><g><path fill="none" stroke="#000000" stroke-width="6" stroke-linecap="round" stroke-linejoin="round" d="M-270.245 1152.71 L-270.694 1150.93 L-267.171 1150.75 "/></g><g><path fill="none" stroke="#000000" stroke-width="6" stroke-linecap="round" stroke-linejoin="round" d="M-251.606 1136.75 L-250.437 1149.97 L-249.064 1158.9 L-248.615 1164.3 L-248.771 1174.16 L-249.678 1185.22 L-249.247 1184.97 L-249.03 1184.27 L-248.258 1183.83 "/></g><g><path fill="none" stroke="#000000" stroke-width="6" stroke-linecap="round" stroke-linejoin="round" d="M-236.856 1134.66 L-237.375 1134.73 L-237.862 1135.32 L-238.35 1140.39 L-238.453 1145.03 L-237.995 1151.15 L-236.434 1163.65 L-235.297 1179.72 L-234.542 1183.06 L-232.976 1185.17 L-232.199 1185.14 "/></g><g><path fill="none" stroke="#000000" stroke-width="6" stroke-linecap="round" stroke-linejoin="round" d="M-157.039 1163.39 L-157.557 1161.46 L-158.61 1159.64 L-158.78 1159.83 L-158.196 1178.19 L-156.267 1184.04 L-154.394 1187.04 L-153.45 1188.01 L-152.238 1188.68 L-151.914 1188.23 L-149.257 1176.63 L-146.272 1168.28 L-143.676 1164.14 L-142.14 1163.52 L-141.606 1164.11 L-141.36 1163.86 L-140.851 1164.05 L-139.784 1166.14 L-138.878 1169.2 L-135.685 1188.54 L-134.889 1190.18 L-133.026 1191.84 L-132.242 1191.8 L-130.508 1190.14 "/></g><g><path fill="none" stroke="#000000" stroke-width="6" stroke-linecap="round" stroke-linejoin="round" d="M-115.615 1178.35 L-115.916 1177.02 L-113.974 1177.25 L-112.598 1176.89 L-111.78 1176.22 L-109.682 1175.94 L-106.559 1174.25 L-101.563 1170.54 L-98.4446 1167.22 L-98.1418 1165.73 L-98.4028 1165.02 L-99.2316 1164.3 L-100.457 1163.94 L-101.301 1164.31 L-103.474 1164.27 L-103.959 1163.85 L-104.553 1163.89 L-108.55 1166.99 L-110.841 1169.23 L-113.922 1173.1 L-116.785 1178.32 L-117.15 1180.86 L-116.985 1182.63 L-115.96 1184.97 L-114.876 1185.9 L-112.558 1187.07 L-109.697 1187.9 L-100.736 1187.7 L-95.3567 1187.16 "/></g><g><path fill="none" stroke="#000000" stroke-width="6" stroke-linecap="round" stroke-linejoin="round" d="M-82.4801 1168.16 L-83.2208 1168 L-84.2727 1169.26 L-83.9034 1168.92 L-79.373 1168.16 L-73.7227 1165.2 L-69.658 1161.75 L-69.3599 1160.52 L-69.5192 1159.58 L-70.6571 1159.19 L-74.7451 1159.35 L-77.1594 1160.52 L-78.3331 1161.7 L-80.1386 1162.39 L-85.9594 1167.13 L-88.2137 1169.71 L-89.7861 1172.5 L-90.1968 1174.38 L-89.6591 1175.97 L-88.8627 1177 L-86.7123 1178.44 L-85.6268 1178.95 L-84.4452 1178.85 L-81.9817 1180.04 L-75.1514 1180.48 "/></g><g><path fill="none" stroke="#000000" stroke-width="6" stroke-linecap="round" stroke-linejoin="round" d="M-31.4498 1159.29 L-33.2155 1157.1 L-34.576 1156.39 L-36.2549 1156.44 L-38.2365 1157.99 L-40.6641 1160.54 L-41.79 1162.33 L-44.9224 1165.14 L-47.6611 1168.15 L-50.7041 1172.18 L-52.272 1175.28 L-52.3583 1176.75 L-52.0839 1177.62 L-50.3927 1179.48 L-47.6046 1180.58 L-45.3869 1180.25 L-42.8904 1178.97 L-37.3788 1173.44 L-35.7271 1171.32 L-33.3253 1167.46 L-32.0823 1164.25 L-31.5524 1160.93 L-31.556 1158.24 L-32.6315 1150.38 L-36.9532 1136.31 L-38.0224 1133.7 L-39.629 1131.33 L-39.7333 1132.11 L-38.5928 1134.53 L-34.6875 1149.89 L-31.1722 1159.86 L-28.6333 1168.42 L-26.8648 1172.01 L-23.775 1176.64 L-20.2083 1181 L-19.3708 1181.32 L-18.8481 1181 "/></g><g><path fill="none" stroke="#000000" stroke-width="6" stroke-linecap="round" stroke-linejoin="round" d="M57.8069 1139.31 L55.8956 1139.02 L55.8772 1139.41 L56.4455 1139.22 L56.6739 1139.54 L57.6188 1138.64 L59.6846 1138.83 L67.1243 1136.8 L68.651 1136.04 L74.778 1135.72 L77.641 1135.75 L80.2393 1136.31 L83.0759 1137.58 L84.538 1139.14 L84.4609 1140.27 L82.5526 1141.97 L77.4197 1144.73 L76.2785 1144.7 L75.1902 1145.58 L70.1234 1147.86 L68.3415 1149.24 L79.7359 1153.45 L87.1317 1157.4 L89.5751 1159.69 L95.116 1167.08 L97.4366 1172.06 L98.8439 1176.91 L98.8063 1179.21 L98.3099 1181.67 L96.9801 1183.95 L94.9859 1185.86 L92.6474 1186.92 L89.1935 1187.96 L86.0239 1188.19 L79.3755 1187.89 L70.3224 1186.32 L69.7109 1186.48 L66.8906 1184.95 L65.8122 1183.4 L65.9583 1182.45 L66.6051 1181.53 L68.7529 1179.88 L71.683 1178.01 L73.5334 1177.44 "/></g><g><path fill="none" stroke="#000000" stroke-width="6" stroke-linecap="round" stroke-linejoin="round" d="M157.291 1165.77 L157.786 1163.7 L158.377 1163.16 L157.651 1164.09 L155.156 1164.75 L151.93 1166.66 L148.691 1169.57 L144.622 1175.01 L143.917 1178.31 L143.922 1179.91 L144.657 1182.97 L146.216 1184.58 L147.983 1185.79 L150.172 1186.89 L153.018 1187.68 L157.327 1188.23 L159.3 1188.04 "/></g><g><path fill="none" stroke="#000000" stroke-width="6" stroke-linecap="round" stroke-linejoin="round" d="M191.647 1167.43 L189.147 1165.69 L187.271 1164.79 L186.748 1164.91 L184.953 1166.1 L184.247 1167.06 L182.297 1168.53 L180.592 1170.69 L177.511 1175.98 L176.596 1179.06 L176.442 1180.9 L176.727 1182.54 L178.001 1185.01 L180.746 1187.15 L183.656 1188.39 L186.49 1188.45 L190.207 1187.58 L193.235 1186.48 L198.219 1183.02 L201.898 1178.3 L202.889 1176.03 L203.106 1173.1 L202.494 1170.78 L200.604 1167.85 L197.831 1165.21 L195.045 1163.82 L191.666 1163.55 L190.636 1164.64 L190.378 1165.71 L190.582 1166.36 "/></g><g><path fill="none" stroke="#000000" stroke-width="6" stroke-linecap="round" stroke-linejoin="round" d="M216.262 1165.59 L215.85 1166.51 L215.548 1169.57 L216.396 1179.23 L215.334 1185.47 L215.872 1186.13 L217.221 1185.94 "/></g><g><path fill="none" stroke="#000000" stroke-width="6" stroke-linecap="round" stroke-linejoin="round" d="M214.884 1141.24 L212.925 1140.6 L212.184 1141.25 L212.829 1142.7 L214.238 1143.87 "/></g><g><path fill="none" stroke="#000000" stroke-width="6" stroke-linecap="round" stroke-linejoin="round" d="M234.474 1166.57 L234.549 1171.77 L235.814 1178.53 L236.318 1179.92 L237.15 1180.38 L240.86 1173.46 L248.425 1161.8 L250.422 1158.09 L251.493 1157.09 L252.2 1157.08 L252.854 1158.74 L253.351 1161.84 L253.664 1171.4 L254.42 1175.24 L256.28 1178.91 L257.318 1179.82 L258.609 1180.35 L262.079 1179.9 "/></g><g><path fill="none" stroke="#000000" stroke-width="6" stroke-linecap="round" stroke-linejoin="round" d="M288.968 1151.22 L287.335 1150.82 L286.758 1151 L285.16 1152.59 L283.868 1154.37 L281.125 1157.18 L277.656 1161.85 L275.5 1165.63 L275.479 1166.46 L277.291 1167.25 L282.174 1167.05 L297.565 1163.3 L299.907 1163.41 L300.9 1163.15 L302.565 1164.02 L302.634 1164.82 L301.514 1167.13 L298.142 1171.64 L288.592 1181.72 L286.918 1185.19 "/></g><g><path fill="none" stroke="#000000" stroke-width="6" stroke-linecap="round" stroke-linejoin="round" d="M408.261 1140.91 L408.028 1138.8 L408.306 1138.16 L408.398 1138.72 L407.818 1138.98 L407.756 1138.72 L407.437 1139.34 L406.766 1141.63 L400.467 1179.47 L400.078 1182.25 L400.08 1185.86 L400.906 1189.56 L403.24 1192.3 L406.297 1193.19 L409.859 1193.05 L418.157 1190.26 L424.224 1187.71 L430.097 1184.21 "/></g><g><path fill="none" stroke="#000000" stroke-width="6" stroke-linecap="round" stroke-linejoin="round" d="M396.103 1157.31 L395.503 1156.92 L401.402 1156.46 L404.784 1155.89 L406.18 1155.34 L414.586 1155.03 L418.564 1155.38 L420.333 1155.05 L423.708 1155.67 "/></g><g><path fill="none" stroke="#000000" stroke-width="6" stroke-linecap="round" stroke-linejoin="round" d="M452.548 1162.14 L449.63 1162.47 L446.855 1164.48 L444.965 1167.02 L444.01 1170.19 L443.559 1173.62 L443.827 1179.75 L444.8 1185.82 L445.927 1188.81 L447.942 1190.29 L450.934 1191.35 L453.842 1191.22 L460.671 1189.23 L464.658 1187.08 L467.29 1184.99 L469.343 1182.3 L470.795 1178.48 L470.888 1175.68 L469.45 1172.93 L466.525 1169.51 L463.559 1166.69 L460.391 1163.82 L455.046 1160.79 L452.458 1159.1 L451.52 1158.15 L450.077 1157.81 L449.676 1158 L449.595 1158.63 "/></g><g><path fill="none" stroke="#000000" stroke-width="6" stroke-linecap="round" stroke-linejoin="round" d="M-529.315 1317.9 L-529.956 1318.03 L-530.9 1317.63 L-531.503 1316.78 L-532.129 1314.48 L-532.356 1315.49 L-531.648 1316.59 L-528.833 1332.43 L-526.482 1342.75 L-525.494 1345.75 L-523.85 1348.64 L-522.387 1349.62 L-520.534 1348.68 L-518.013 1346.76 L-515.849 1343.31 L-513.713 1338.88 L-512.082 1333.06 L-510.047 1323.9 L-508.929 1320.5 L-508.923 1321.12 L-508.761 1320.74 L-507.681 1321.47 L-506.897 1322.68 L-504.252 1329.15 L-502.354 1335.18 L-500.076 1344.77 L-498.987 1347.71 L-497.545 1349.68 L-495.336 1351.36 L-494.006 1351.01 L-492.812 1349.83 "/></g><g><path fill="none" stroke="#000000" stroke-width="6" stroke-linecap="round" stroke-linejoin="round" d="M-481.183 1318.71 L-481.357 1318.93 L-481.443 1318.59 L-481.245 1318.85 L-481.517 1319.31 L-481.496 1322.71 L-481.108 1327.79 L-479.968 1334.35 L-479.229 1351.43 L-479.535 1377.06 L-479.232 1380.88 L-479.196 1392.78 L-478.843 1398.17 L-478.077 1403.32 L-477.331 1406.92 L-476.014 1409.73 L-475.785 1408.95 L-476.881 1398.04 L-477.629 1376.31 L-479.379 1357.71 L-479.911 1345.69 L-479.36 1336.16 L-477.773 1327.8 L-475.99 1322.04 L-472.94 1317.17 L-469.015 1313.69 L-464.797 1311.98 L-463.657 1312.24 L-462.518 1311.85 L-459.702 1313.18 L-457.135 1317.55 L-455.359 1324.38 L-454.842 1328.11 L-454.921 1331.42 L-455.307 1334.54 L-456.378 1338.32 L-458.73 1342.53 L-460.833 1344.77 L-463.028 1346.34 L-465.841 1347.27 L-468.969 1347.51 L-471.758 1346.96 L-473.755 1345.78 L-476.913 1342.54 L-478.362 1339.98 L-478.744 1337.28 L-478.33 1335.33 "/></g><g><path fill="none" stroke="#000000" stroke-width="6" stroke-linecap="round" stroke-linejoin="round" d="M-426.653 1317.99 L-427.035 1318.05 L-427.191 1318.5 L-427.455 1317.98 L-428.06 1317.92 L-429.216 1317.07 L-430.699 1317.21 L-432.855 1318.36 L-437.362 1322.33 L-440.775 1326.63 L-442.692 1330.07 L-444.442 1336.06 L-444.575 1338.82 L-443.838 1341.28 L-443.149 1341.32 L-440.4 1342.73 L-437.929 1341.8 L-433.243 1338.18 L-429.158 1333.36 L-425.577 1327.7 L-422.744 1321.37 L-422.75 1318.99 L-423.232 1318.26 L-424.919 1317.5 L-427.089 1317.24 L-427.749 1317.74 L-428.01 1318.4 L-428.183 1318.21 L-426.45 1330.07 L-426.386 1332.84 L-423.652 1353.28 L-423.119 1359.5 L-422.377 1383.13 L-422.829 1387.95 L-423.864 1392.98 L-425.363 1396.73 L-427.101 1399.92 L-430.721 1403.8 L-433.564 1405.55 L-435.944 1405.7 L-439.29 1405.35 L-443.748 1402.09 L-446.22 1397.57 L-447.357 1393.76 L-448.079 1388.01 L-447.991 1384.49 L-446.928 1378.77 L-445.266 1373.09 L-441.264 1365.43 "/></g><g><path fill="none" stroke="#000000" stroke-width="6" stroke-linecap="round" stroke-linejoin="round" d="M-400.761 1314.06 L-401.48 1313.57 L-402.358 1313.58 L-402.557 1313.89 L-403.045 1316.82 L-403.144 1322.37 L-402.453 1339.13 L-401.812 1342.11 L-401.323 1342.78 L-400.865 1342.6 L-400.456 1343.2 L-399.774 1342.77 L-396.812 1334.25 L-395.209 1328.35 L-393.484 1319.49 L-392.069 1316.52 L-390.416 1315.42 L-388.527 1314.66 L-387.947 1314.57 L-386.639 1315.03 L-385.729 1314.79 L-384.18 1315.46 L-383.346 1316.18 L-380.463 1316.93 L-377.912 1318.84 "/></g><g><path fill="none" stroke="#000000" stroke-width="6" stroke-linecap="round" stroke-linejoin="round" d="M-358.304 1314.61 L-359.586 1314.47 L-362.008 1315.06 L-364.826 1316.47 L-366.593 1317.82 L-370.956 1323.49 L-374.696 1330.15 L-374.972 1332.61 L-374.685 1334.5 L-372.377 1335.15 L-369.677 1334.23 L-367.182 1332.65 L-365.108 1330.11 L-359.889 1319.43 L-360.251 1321.93 L-359.933 1324.44 L-357.914 1330.67 L-356.759 1333.29 L-355.774 1334.61 L-352.656 1337.13 L-347.085 1339.65 L-345.743 1339.6 "/></g><g><path fill="none" stroke="#000000" stroke-width="6" stroke-linecap="round" stroke-linejoin="round" d="M-318.376 1313.71 L-319.323 1313.54 L-320.242 1314.22 L-321.082 1314.03 L-323.001 1314.71 L-329.978 1324.89 L-333.63 1330.99 L-335.081 1335.65 L-335.689 1339.82 L-335.396 1342.92 L-334.829 1344.8 L-333.775 1346.26 L-331.45 1347.29 L-329.897 1347.63 L-327.222 1346.54 L-323.3 1342.57 L-321.435 1339.78 L-317.824 1332.57 L-316.688 1328.41 L-315.813 1323.22 L-315.778 1315.15 L-317.459 1304.74 L-321.192 1289.52 L-322.075 1284.29 L-321.709 1287.24 L-321.867 1297.45 L-321.601 1303.63 L-319.001 1316.26 L-315.378 1326.97 L-310.873 1335.57 L-307.071 1340.89 L-304.793 1342.4 L-304.32 1342.43 L-303.557 1341.87 "/></g><g><path fill="none" stroke="#000000" stroke-width="6" stroke-linecap="round" stroke-linejoin="round" d="M-292.24 1323.62 L-293.201 1323.48 L-292.851 1323.73 L-292.076 1322.68 L-289.603 1321.96 L-284.439 1318.84 L-281.305 1315.58 L-279.866 1314.65 L-279.277 1313.76 L-279.086 1312.61 L-280.372 1311.3 L-284.348 1311.05 L-290.268 1313.74 L-293.162 1316.27 L-294.87 1318.45 L-297.453 1324.35 L-297.978 1327.46 L-297.94 1331.37 L-297.28 1335.09 L-296.18 1338.68 L-292.714 1344.26 L-287.43 1347.84 L-284.518 1348.65 L-282.245 1348.83 L-278.581 1348.6 L-271.793 1347.48 L-265.072 1344.34 L-258.903 1340.6 "/></g><g><path fill="none" stroke="#000000" stroke-width="6" stroke-linecap="round" stroke-linejoin="round" d="M-163.726 1299.38 L-165.537 1295.75 L-165.086 1296.9 L-164.958 1298.83 L-164.914 1306.28 L-165.267 1311.26 L-167.624 1330.05 L-167.154 1337.18 L-164.667 1342.41 L-160.139 1343.95 L-156.834 1344.16 L-154.604 1343.8 L-152.466 1342.58 L-151.267 1341.22 "/></g><g><path fill="none" stroke="#000000" stroke-width="6" stroke-linecap="round" stroke-linejoin="round" d="M-182.918 1317.55 L-183.719 1317.45 L-183.611 1318.38 L-183.333 1317.9 L-182.306 1318.48 L-178.127 1319.35 L-171.623 1319.73 L-165.356 1318.72 L-149.252 1314.46 "/></g><g><path fill="none" stroke="#000000" stroke-width="6" stroke-linecap="round" stroke-linejoin="round" d="M-121.323 1321.48 L-123.609 1321.65 L-125.637 1322.48 L-127.791 1324.31 L-128.66 1326.1 L-129.065 1327.93 L-128.929 1330.91 L-128.105 1334.6 L-126.896 1337.21 L-125.461 1339.25 L-124.52 1339.55 L-124.021 1340.25 L-121.877 1341.79 L-120.653 1342.22 L-118.01 1342.4 L-114.28 1341.43 L-113.076 1340.73 L-110.639 1338.61 L-109.471 1336.83 L-109.128 1335.76 L-111.081 1330.38 L-115.596 1324.97 L-116.227 1324.29 L-121.544 1321.38 L-124.014 1319.39 L-124.674 1318.5 L-124.958 1317.32 L-124.998 1316.36 L-124.581 1315.5 "/></g><g><path fill="none" stroke="#000000" stroke-width="6" stroke-linecap="round" stroke-linejoin="round" d="M-39.6392 1288.07 L-40.0524 1286.56 L-40.1943 1287.46 L-40.5888 1287.62 L-43.3035 1298.3 L-44.2465 1303.6 L-44.1546 1308.82 L-43.6942 1310.48 L-42.4684 1312.33 L-40.4676 1313.28 L-37.3662 1313.82 L-30.3602 1311.44 L-24.5824 1308.99 L-18.7976 1306 L-17.9817 1306.14 L-17.6579 1306.99 "/></g><g><path fill="none" stroke="#000000" stroke-width="6" stroke-linecap="round" stroke-linejoin="round" d="M-12.3196 1283.29 L-13.6104 1282.16 L-14.1982 1282.06 L-14.5469 1281.32 L-14.7808 1281.73 L-16.3599 1309.06 L-15.7879 1316.92 L-13.5995 1332.84 L-13.1603 1341.89 L-13.5095 1344.93 L-13.3236 1345.23 L-13.2125 1344.63 L-13.0824 1345.06 L-13.0029 1344.77 L-12.1868 1344.49 "/></g><g><path fill="#000000" fill-rule="evenodd" d="M-260 697 L-260 696 L-259 696.5 L-260 697 "/></g><g><path fill="#000000" fill-rule="evenodd" d="M-255 691 L-255 690 L-254 690 L-254 690.5 L-254.5 691 L-255 691 "/></g><g><path fill="#000000" fill-rule="evenodd" d="M-212.5 712 L-218 710.25 L-219.5 710 L-223 706.5 L-223.25 705 L-223.375 695 L-222.25 690 L-221.5 688 L-220.5 686 L-220 684.5 L-216.5 681 L-212.5 680 L-208 684.5 L-208 686.5 L-210.5 689 L-211.5 688 L-212.5 688 L-214 689.5 L-215.25 693 L-216 698.5 L-217 699.5 L-216.5 700 L-215.5 700 L-215 700.5 L-216 701.5 L-215.75 702.75 L-214 703.5 L-212 703.625 L-209 702.5 L-206 701.625 L-200.5 701 L-199 702.5 L-199 705.5 L-201.5 708 L-203.5 708 L-205.5 710 L-211.5 711 L-212.5 712 "/></g><g><path fill="#000000" fill-rule="evenodd" d="M-230 711.375 L-234 711.5 L-240.5 709 L-248.5 701 L-253.5 706 L-254.75 706.25 L-255.25 707.75 L-257 708.5 L-261.5 711 L-263.5 713 L-266 713.375 L-271 713.25 L-272.75 712.75 L-273.25 710 L-273.25 702 L-272.5 700 L-271 697.5 L-265.5 690 L-264 687.5 L-255.5 679 L-248.25 678.125 L-246.75 681.75 L-245.25 682.25 L-245 683.5 L-241 687.5 L-242 693.5 L-243 694.5 L-242 695.5 L-242 696.5 L-235.5 703 L-234 703.375 L-229.25 705.25 L-228.625 707 L-228.25 710.75 L-230 711.375 M-255 691 L-257.5 694 L-258.5 694 L-260 695.5 L-260 696 L-261 696.5 L-260.5 697 L-260 697 L-261.5 698 L-263 699.5 L-262 700.5 L-263.5 702 L-264.5 702 L-265 703 L-262.5 703 L-256.5 697 L-255.5 697 L-252 693.5 L-252 689.5 L-252.5 689 L-254 690 L-254.5 689 L-255 689.5 L-255 690 L-256 690.5 L-255.5 691 L-255 691 "/></g><g><path fill="#000000" fill-rule="evenodd" d="M-309 684 L-310 684 L-310 683 L-309 683 L-309 684 "/></g><g><path fill="#000000" fill-rule="evenodd" d="M-311 683 L-312 683 L-312 682 L-311 682 L-311 683 "/></g><g><path fill="#000000" fill-rule="evenodd" d="M-311 676 L-312 676 L-312 675 L-311 675 L-311 676 "/></g><g><path fill="#000000" fill-rule="evenodd" d="M-314.5 715 L-318.5 715 L-320.5 713 L-321.5 713 L-324 710.5 L-327.5 705 L-328 703.5 L-328 703 L-329 703.5 L-333.25 709.75 L-338 712.375 L-341 713.375 L-347 713.25 L-348.5 713 L-352 709.5 L-352.625 706 L-352.625 704 L-351.375 700 L-350.5 698 L-344 687.5 L-334.5 678 L-330.5 677 L-329.5 676 L-328.5 677 L-326.5 677 L-324 679.5 L-322.75 684 L-323 694.5 L-324 695.5 L-323 696.5 L-320.75 700.75 L-319.25 701.25 L-319 702.5 L-315.5 706 L-311.25 707.25 L-311 708.5 L-310 709.5 L-311 710.5 L-311 711.5 L-314.5 715 M-333 689 L-333 688 L-334 688 L-334 689 L-333 689 M-342.5 706 L-341.5 705 L-340.5 705 L-338 702.5 L-337.75 701.25 L-336.5 701 L-336 700.5 L-337 699.5 L-336.5 699 L-335.5 699 L-333 696.5 L-333 695.5 L-332 694.5 L-333 693.5 L-333 690.5 L-334.5 689 L-336 690.5 L-336.25 691.75 L-337.75 692.25 L-339 695.5 L-342 698.5 L-343 702.5 L-345 704.5 L-344.5 705 L-342.5 706 "/></g><g><path fill="#000000" fill-rule="evenodd" d="M-505 722 L-505.5 723 L-506 722 L-505 722 "/></g><g><path fill="#000000" fill-rule="evenodd" d="M-446 718.5 L-448.5 719 L-449.5 718 L-450.5 719 L-452.5 719 L-453.5 718 L-454.5 719 L-461 718.375 L-465.5 717 L-469 713.5 L-469 712.5 L-471 710.5 L-471.375 708 L-471.5 697 L-469 690.5 L-465.5 687 L-464.5 687 L-463 685.5 L-462.75 684.25 L-458.25 682.75 L-457.75 681.25 L-456 681.25 L-451.5 682 L-449 684.5 L-447.75 688 L-447.625 693 L-448 695.5 L-451 698.5 L-451.25 699.75 L-460.5 703 L-462 704.5 L-461 705.5 L-461 706.5 L-459.5 708 L-456 708.5 L-450 708.5 L-444 707.5 L-438 707.75 L-436.5 708 L-435 709.5 L-435 712.5 L-437 714.5 L-437 715.5 L-437.5 716 L-438.5 715 L-439.5 716 L-441 716.5 L-446 718.5 M-467 691 L-467 690 L-468 690 L-468 691 L-467 691 "/></g><g><path fill="#000000" fill-rule="evenodd" d="M-185 660 L-186 660 L-186 659 L-185 659 L-185 660 "/></g><g><path fill="#000000" fill-rule="evenodd" d="M-135.5 714 L-139 713.5 L-143 712.5 L-162.5 710 L-163.5 711 L-164.5 710 L-171 709.25 L-174.5 708 L-176.5 706 L-178 707.5 L-177 708.5 L-178.5 710 L-179.5 710 L-182.5 713 L-185 713.625 L-187 713.5 L-189 712.5 L-190.5 712 L-193 709.5 L-193.5 708 L-195.375 704 L-199 691.5 L-197 689.5 L-195 673.5 L-196 672.5 L-195 671.5 L-195 665.5 L-194 664.5 L-195 663.5 L-195 662.5 L-194 661.5 L-195 660.5 L-195 658.5 L-194 657.5 L-195 656.5 L-194 655.5 L-195 654.5 L-195.25 640 L-195 638.5 L-193.5 637 L-189.5 638 L-187 640.5 L-188 647.5 L-188 648 L-187 647.5 L-187 646 L-186 646.5 L-187 655.5 L-186 656.5 L-187 657.5 L-186 658.5 L-187 659.5 L-186 663.5 L-185 664.5 L-187 666.5 L-187 668.5 L-186 669.5 L-187 670.5 L-186 671.5 L-186.625 675 L-187.5 677 L-187.5 682 L-188.625 685 L-188.5 691 L-189 693.5 L-188 694.5 L-189 695.5 L-188 696.5 L-187 702.5 L-186.5 703 L-183 699.5 L-182 695.5 L-180 693.5 L-179.625 692 L-178.5 689 L-178 686.5 L-176 684.5 L-176 682.5 L-174 680.5 L-173 678.5 L-170 674.5 L-168 671.5 L-166.5 670 L-162.25 667.75 L-161.75 666.25 L-156.5 665 L-154 667.5 L-154 672.5 L-156.5 675 L-157.75 675.25 L-163.5 686 L-168 692.5 L-169.375 695 L-170 697.5 L-168.5 699 L-143.5 701 L-142.5 702 L-141.5 701 L-139.5 703 L-136.25 704.25 L-133.5 709 L-133.5 711 L-134 712.5 L-135.5 714 "/></g><g><path fill="#000000" fill-rule="evenodd" d="M-278 671 L-279 671 L-279 670 L-278 670 L-278 671 "/></g><g><path fill="#000000" fill-rule="evenodd" d="M-295 665 L-294 665.5 L-295 666 L-295 665 "/></g><g><path fill="#000000" fill-rule="evenodd" d="M-295 666 L-296 676.75 L-294 676.5 L-292.5 676 L-291.5 675 L-290.5 676 L-289.5 675 L-288.5 675 L-287.5 676 L-287 675.5 L-287.25 663 L-287.5 661 L-287.5 659 L-287 657.5 L-282.5 653 L-281.5 654 L-279.125 654.25 L-280 672.75 L-273 674.75 L-271.5 675 L-270 676.5 L-270 679.5 L-271.5 681 L-275.5 682 L-276.5 683 L-277.5 682 L-279 683.5 L-279 684.5 L-278 685.5 L-279 686.5 L-279 690.5 L-278 691.5 L-279 692.5 L-278.75 693.75 L-277.5 694 L-277 694.5 L-278 695.5 L-277 696.5 L-277 697.5 L-278 698.5 L-277 699.5 L-276.5 703 L-275.5 707 L-275.75 713 L-276.25 714.75 L-279.5 715 L-282 712.5 L-282.5 710 L-285.375 701 L-287 691.5 L-286 690.5 L-287 689.5 L-287.125 684.125 L-294.5 684 L-296 685.5 L-295 700.5 L-293.5 702 L-292.125 702.25 L-292.75 707 L-293.25 708.75 L-295 709.375 L-298.5 710 L-302 706.5 L-303 691.5 L-304 690.5 L-303 689.5 L-304 688.5 L-304.125 684.25 L-307 683.375 L-309 682.5 L-310.5 682 L-312 680.5 L-312 677.5 L-310.5 676 L-309.5 676 L-307.5 674 L-305.5 676 L-304.25 675.75 L-304 673.5 L-303 672.5 L-304 671.5 L-303 670.5 L-304 669.5 L-303 668.5 L-302 654.5 L-299.5 652 L-298.5 653 L-297 652.5 L-295 652.5 L-293.5 653 L-292 654.5 L-293 657.5 L-295 659.5 L-295 662.5 L-294 663.5 L-295 665 L-296 665.5 L-295.5 666 L-295 666 M-278 675 L-278 674 L-279 674 L-279 675 L-278 675 "/></g><g><path fill="#000000" fill-rule="evenodd" d="M-297 652 L-298 652 L-298 651 L-297 651 L-297 652 "/></g><g><path fill="#000000" fill-rule="evenodd" d="M-415.5 715 L-418.5 713 L-420.75 711.75 L-425.5 698 L-426 694.5 L-427 693.5 L-426 692.5 L-427 691.5 L-427 689.5 L-426 688.5 L-427.5 687 L-429 686.5 L-433.5 684 L-434 683.5 L-433 682.5 L-433 680.5 L-432 679.5 L-433 678.5 L-431.5 677 L-430.5 678 L-428.5 678 L-427 676.5 L-427.75 666 L-427.375 662 L-426.75 660.25 L-425 659.75 L-420.25 659.125 L-420 660.5 L-419.5 661 L-418.5 660 L-417 661.5 L-418 662.5 L-417 663.5 L-417.625 667 L-418 668.5 L-419 669.5 L-418 670.5 L-419 673.5 L-418.5 674 L-417.5 673 L-417 673.5 L-417 676.5 L-419 678.5 L-419 679.5 L-417.5 681 L-416.5 681 L-416 680.5 L-417 679.5 L-416.5 679 L-412.5 681 L-411.5 680 L-410.5 681 L-409.25 681.25 L-408 684.5 L-411.5 688 L-414.5 688 L-415.5 689 L-416.5 688 L-417 688.5 L-416.375 695 L-415.5 698 L-414.375 701 L-414 702.5 L-412.5 704 L-409 704.625 L-407.25 705.25 L-407 706.5 L-406 707.5 L-407 708.5 L-409.25 712.75 L-411 713.375 L-414.5 714 L-415.5 715 "/></g><g><path fill="#000000" fill-rule="evenodd" d="M-506 722 L-507 722.5 L-509 722.625 L-512.5 722 L-514.5 724 L-517.5 724 L-518.5 723 L-519.5 724 L-521.5 722 L-522.5 723 L-524.5 723 L-525.5 722 L-526.5 723 L-527.5 723 L-528 722.5 L-527 721.5 L-527.5 721 L-528.5 721 L-529.5 722 L-530 721.5 L-530.25 720.25 L-532.5 720 L-534 718.5 L-534.25 717.25 L-535.5 717 L-537 715.5 L-536 714.5 L-536.25 713.25 L-537.75 712.75 L-538 711.5 L-537 710.5 L-539 708.5 L-539 703.5 L-538 702.5 L-539 701.5 L-538.25 691 L-536 681.5 L-535 680.5 L-536 679.5 L-535 678.5 L-534.5 676 L-533.5 673 L-533 670.5 L-531 668.5 L-530 664.5 L-528 662.5 L-527.375 660 L-523.75 654.25 L-522.5 654 L-519.5 651 L-515 651.75 L-513.25 652.25 L-513 653.5 L-512.5 654 L-511.5 653 L-509 655.5 L-509 658.5 L-511.5 661 L-515 661.625 L-516.5 662 L-518 663.5 L-519 666.5 L-521 668.5 L-521 670.5 L-523 672.5 L-523.5 675 L-527.5 690 L-528.375 696 L-528.375 706 L-526.75 711.75 L-524 712.25 L-509 712.25 L-505 711.5 L-500 709.5 L-496 707.5 L-494.5 707 L-489 701.5 L-488 698.5 L-489.5 697 L-494 695.75 L-502 695.75 L-506.75 697.25 L-507 698.5 L-509.5 701 L-512.5 701 L-513.5 702 L-514.5 701 L-516.5 701 L-519 698.5 L-519 697.5 L-520 696.5 L-519 695.5 L-518 691.5 L-516.5 690 L-515.5 690 L-513.5 688 L-511 687.375 L-507 685.625 L-503 684.625 L-493 684.625 L-489 685.625 L-485 687.5 L-483.5 688 L-478 693.5 L-477.75 695 L-477.75 702 L-478.5 704 L-481 708.5 L-484.5 712 L-485.75 712.25 L-486.25 713.75 L-488.75 714.25 L-489.25 715.75 L-490.5 716 L-491.5 717 L-492.5 716 L-493 716.5 L-493 717.5 L-493.5 718 L-494.5 717 L-495 717.5 L-495 718.5 L-495.5 719 L-496.5 718 L-497.5 719 L-498.75 719.25 L-499 720.5 L-499.5 721 L-500.5 720 L-502 720.5 L-505 722 L-505.5 721 L-506 721.5 L-506 722 "/></g><g><path fill="#000000" fill-rule="evenodd" d="M-544 568 L-545 568 L-545 567 L-544 567 L-544 568 "/></g><g><path fill="#000000" fill-rule="evenodd" d="M-209.5 556 L-216.5 555 L-221 550.5 L-221.5 549 L-222.375 547 L-223.375 544 L-224.375 539 L-224.25 531 L-223 526.5 L-221.5 525 L-220 524.625 L-216 524.625 L-214.5 525 L-213 526.5 L-213 528.5 L-218 533.5 L-217.5 537 L-216.25 542 L-215 545.5 L-212.5 548 L-205.5 547 L-204 548.5 L-205 552.5 L-206.5 554 L-207.5 554 L-209.5 556 "/></g><g><path fill="#000000" fill-rule="evenodd" d="M-185.5 563 L-189 562.375 L-190.5 562 L-192 560.5 L-192.5 559 L-196.5 549 L-198.375 541 L-199 529.5 L-198 528.5 L-199 527.5 L-198 526.5 L-198 524.5 L-196.5 523 L-193.5 522 L-191 524.5 L-191.375 539 L-189.5 547 L-188.5 550 L-188 552.5 L-187.5 553 L-186 551.5 L-185.5 550 L-176.375 527 L-176 525.5 L-172.5 522 L-171.5 522 L-170.5 521 L-169.5 522 L-168.5 522 L-165 525.5 L-165 526.5 L-163 528.5 L-162.5 531 L-158.375 545 L-156.625 549 L-156 551.5 L-153 554.5 L-153 555.5 L-152 556.5 L-153 557.5 L-153 558.5 L-154.5 560 L-155.5 559 L-156.5 560 L-159.5 559 L-163 555.5 L-163.625 552 L-166.5 545 L-168.5 538 L-169.625 535 L-170 533.5 L-170 533 L-171 533.5 L-171.375 535 L-177.5 551 L-180.5 557 L-181 558.5 L-185.5 563 "/></g><g><path fill="#000000" fill-rule="evenodd" d="M-215.125 506.875 L-220.5 507 L-226 501.5 L-226 498.5 L-224.5 497 L-223 496.5 L-221 496.5 L-219.25 497.25 L-219 498.5 L-215 502.5 L-215.125 506.875 "/></g><g><path fill="#000000" fill-rule="evenodd" d="M-257 555.625 L-260 555.5 L-263 554.375 L-264.5 554 L-267 551.5 L-267.375 550 L-268.5 547 L-268.5 543 L-267.375 540 L-262 530.5 L-260 528.5 L-260 526.5 L-257.5 524 L-256 523.5 L-248 523.5 L-246.5 524 L-245 525.5 L-245.375 527 L-245.75 529.75 L-240.5 533 L-237 536.5 L-236.5 538 L-235.625 540 L-235.625 543 L-236 544.5 L-242.5 551 L-244 551.5 L-248 553.375 L-251 554.375 L-257 555.625 M-254 547.375 L-251 546.375 L-247 544.5 L-245.5 544 L-244 542.5 L-244.25 540.25 L-250.5 536 L-253.5 533 L-258 537.5 L-258 539.5 L-260 541.5 L-260.375 543 L-261 546.5 L-259.5 548 L-254 547.375 "/></g><g><path fill="#000000" fill-rule="evenodd" d="M-290 557.5 L-302 557.25 L-307.5 556 L-311 552.5 L-311.25 551 L-311.25 542 L-310.375 539 L-308.625 535 L-308 532.5 L-306 530.5 L-305.375 528 L-304.5 526 L-301.75 521.25 L-297 518.5 L-295 518.5 L-293 519.5 L-291.25 520.25 L-290 524.5 L-291.5 526 L-295.5 526 L-297 527.5 L-297.5 529 L-303.25 542 L-304 546.5 L-305 547.5 L-303.5 549 L-274 548.75 L-270.25 550.25 L-270 553.5 L-272.5 556 L-282 556.5 L-290 557.5 "/></g><g><path fill="#000000" fill-rule="evenodd" d="M-416 508 L-417 508 L-417 507 L-416 507 L-416 508 "/></g><g><path fill="#000000" fill-rule="evenodd" d="M-404 552.25 L-411 552.375 L-416.5 551 L-419.5 548 L-420.75 547.75 L-423.5 543 L-424.125 541 L-425 526.125 L-429.5 526 L-430.5 525 L-431.5 526 L-434.5 525 L-438 521.5 L-438 518.5 L-436.5 517 L-426 517.875 L-425.5 509 L-424 499.5 L-422.5 498 L-418.5 497 L-417.5 496 L-415 498.5 L-415.625 501 L-417.375 506 L-418 512.5 L-419 513.5 L-418 514.5 L-417.75 517.75 L-416.5 518 L-415.5 517 L-414.5 518 L-413.5 517 L-405.5 517 L-403 519.5 L-403 521.5 L-405.5 524 L-416.875 525.125 L-417 530.5 L-418 531.5 L-417 532.5 L-417 539.5 L-413.5 543 L-412.5 543 L-410.5 545 L-402.5 545 L-400 547.5 L-400 549.5 L-402.5 552 L-404 552.25 "/></g><g><path fill="#000000" fill-rule="evenodd" d="M-452 562.5 L-460 564.375 L-473 564.125 L-476.5 563 L-481 558.5 L-482.25 554 L-483 543.5 L-484 542.5 L-481 539.5 L-481 538.5 L-482 537.5 L-481.5 537 L-480.5 537 L-478 534.5 L-479 533.5 L-478.5 533 L-477.25 532.75 L-476.75 530.25 L-475.5 530 L-475 529.5 L-476 528.5 L-474.5 527 L-473.5 528 L-471 525.5 L-471 524.5 L-470.5 524 L-469.5 525 L-468.5 524 L-458 523.75 L-453.5 526 L-452 527.5 L-451 533.5 L-453 535.5 L-453 536.5 L-454.5 538 L-456.5 539 L-462 542.5 L-472 546.625 L-473.5 547 L-475 548.5 L-474 549.5 L-473 555.5 L-472.5 556 L-471.5 555 L-469.5 557 L-468.5 556 L-467.5 557 L-466.5 556 L-465 556.5 L-463 556.625 L-460.5 556 L-459.5 555 L-458.5 556 L-457.5 555 L-454 554.5 L-451.25 553.75 L-450.75 552.25 L-448.5 552 L-446.5 550 L-445.5 551 L-444.5 550 L-440.5 550 L-439 551.5 L-439 552.5 L-438 553.5 L-439 554.5 L-439 555.5 L-441.5 558 L-443 558.5 L-452 562.5 M-466.5 536 L-465.5 535 L-464.5 535 L-463 533.5 L-463.5 533 L-465.5 533 L-467 535 L-466.5 536 M-467.5 537 L-467 536 L-468.5 536 L-469 537 L-467.5 537 M-470 538 L-470 537 L-471 537 L-471 538 L-470 538 "/></g><g><path fill="#000000" fill-rule="evenodd" d="M-515 564.5 L-520.5 566 L-521.5 565 L-522 565.5 L-522 566.5 L-522.5 567 L-523.5 566 L-525 566.5 L-527 567.5 L-529 567.5 L-530.5 567 L-531.5 568 L-532.5 567 L-534 567.5 L-536 568.5 L-537.5 569 L-539.5 567 L-547.5 566 L-548.5 567 L-551.5 564 L-553 563.5 L-555 562.5 L-556.75 561.75 L-557 560.5 L-557.5 560 L-558.5 561 L-560 559.5 L-559 558.5 L-559.5 558 L-560.75 557.75 L-561 556.5 L-563 554.5 L-562 553.5 L-562 552.5 L-562.5 552 L-563.5 553 L-564 552.5 L-564 549.5 L-563 548.5 L-564 547.5 L-564.625 543 L-564.625 540 L-563.875 534.25 L-562.5 534 L-562 533.5 L-563 532.5 L-562.5 529 L-560.5 524 L-558.625 520 L-558 517.5 L-556 515.5 L-555.5 514 L-554 511.5 L-547.75 503.25 L-546.25 502.75 L-545.75 501.25 L-543.5 500 L-537.5 496 L-535 494.75 L-530.5 494 L-529.5 493 L-528.5 494 L-526.5 494 L-524 496.5 L-524 502.5 L-527.5 506 L-530 506.5 L-534 506.375 L-537 507.5 L-539.5 509 L-541 510.5 L-545.5 517 L-551.5 530 L-552.5 534 L-554 549.5 L-552 551.5 L-552 552.5 L-549.5 555 L-540 557.375 L-530 557.375 L-525 556.5 L-521 555.5 L-514.5 553 L-510 548.5 L-509.375 546 L-509.25 544.25 L-512.5 543 L-513.5 544 L-514.5 543 L-517.5 543 L-518.5 544 L-519.5 543 L-522 543.5 L-526.75 545.25 L-527.25 546.75 L-531 548.375 L-534.5 549 L-538 545.5 L-538 540.5 L-533.5 536 L-532 535.625 L-523 532.625 L-516.5 532 L-515.5 531 L-514.5 532 L-508 532.75 L-504.5 534 L-499 539.5 L-498.625 542 L-498.625 548 L-499.625 551 L-500.5 553 L-501 554.5 L-508.5 562 L-510 562.5 L-515 564.5 M-556 518 L-556 517 L-557 517 L-557 518 L-556 518 "/></g><g><path fill="#000000" fill-rule="evenodd" d="M-169.5 450 L-173.75 449.875 L-175.125 445 L-178.5 406 L-179.625 401 L-181.375 396 L-181.375 393 L-180.875 391 L-180 380.5 L-178.5 379 L-177.5 379 L-175.5 377 L-173.5 377 L-171.5 379 L-170 377.5 L-168 373.5 L-162.5 368 L-158 365.75 L-149.5 365 L-145 369.5 L-144.5 371 L-143.5 373 L-142.75 375 L-141.75 380 L-141.75 394 L-142.625 398 L-144.25 401.75 L-149 404.25 L-154 405.375 L-167.5 405 L-168 405.5 L-167 406.5 L-168 407.5 L-167 408.5 L-167 447.5 L-169.5 450 M-153 396.25 L-151.5 396 L-150 394.5 L-149 390.5 L-150 389.5 L-149 388.5 L-150 385.5 L-149 384.5 L-150 383.5 L-151 376.5 L-153.5 374 L-155.5 374 L-159.5 378 L-160.75 378.25 L-162 381.5 L-164 383.5 L-165.5 390 L-166 393.5 L-167 394.5 L-166.5 395 L-159.5 397 L-158.5 396 L-157.5 397 L-153 396.25 "/></g><g><path fill="#000000" fill-rule="evenodd" d="M-220 391 L-219 391.5 L-220 392 L-220 391 "/></g><g><path fill="#000000" fill-rule="evenodd" d="M-448 373 L-449 373 L-449 372 L-448 372 L-448 373 "/></g><g><path fill="#000000" fill-rule="evenodd" d="M-422 400.375 L-435 400.25 L-438 399.5 L-441 398.375 L-445.5 396 L-449 392.5 L-450.25 388 L-451 379.5 L-450 378.5 L-451 377.5 L-449 375.5 L-449 374.5 L-447 372.5 L-446 368.5 L-441 363.5 L-442 362.5 L-440.5 361 L-438.5 361 L-436.5 359 L-432.25 357.75 L-431.75 356.25 L-430 356.25 L-424 357.75 L-420.5 359 L-419 360.5 L-418.5 362 L-417.625 364 L-417.5 367 L-418 370.5 L-420 372.5 L-420 373.5 L-423.5 377 L-432 381.5 L-433.75 382.25 L-434 383.5 L-435.5 385 L-440.75 386.25 L-441 387.5 L-439.5 389 L-435 391.125 L-423 391.375 L-418 390.5 L-410 388.375 L-400 384.5 L-397 384.625 L-395.5 385 L-394 386.5 L-394 387.5 L-393 388.5 L-394 389.5 L-394 390.5 L-397.5 394 L-398.5 394 L-399.5 395 L-400.5 394 L-401.5 395 L-403 395.375 L-416 399.5 L-422 400.375 M-434.5 374 L-433.5 373 L-432.25 372.75 L-432 371.5 L-431.5 371 L-430.5 372 L-430 371.5 L-428.5 369 L-427.25 366.25 L-430 366.625 L-431.5 367 L-437 372.5 L-436.5 373 L-434.5 374 M-437 375 L-437 373.5 L-438 373 L-438 374 L-437 375 M-442 386 L-442 385 L-443 385 L-443 386 L-442 386 "/></g><g><path fill="#000000" fill-rule="evenodd" d="M-522 404 L-523 404 L-523 403 L-522 403 L-522 404 "/></g><g><path fill="#000000" fill-rule="evenodd" d="M-226 345 L-227 345 L-227 344 L-226 344 L-226 345 "/></g><g><path fill="#000000" fill-rule="evenodd" d="M-224 337 L-225 337 L-225 336 L-224 336 L-224 337 "/></g><g><path fill="#000000" fill-rule="evenodd" d="M-219 389 L-219 388 L-220 388 L-220 389 L-219 389 M-220 392 L-220 393.5 L-222 395.5 L-221 396.5 L-223 398.5 L-222 399.5 L-225 402.5 L-224 403.5 L-225 404.5 L-225.25 405.75 L-226.75 406.25 L-227.25 408.75 L-229 409.25 L-233.75 409.875 L-235.125 406 L-236 391.5 L-235 390.5 L-236 389.5 L-235 388.5 L-235 357.5 L-236 356.5 L-235 355.5 L-236 354.5 L-236 351.5 L-235 350.5 L-236 349.5 L-235 348.5 L-234 334.5 L-232 332.5 L-232 331.5 L-230.5 330 L-228.5 330 L-225 333.5 L-226 334.5 L-226 336.5 L-225 337.5 L-225.5 338 L-226.875 338.25 L-227 357.5 L-228 358.5 L-227.5 359 L-226.5 359 L-226 359.5 L-227 360.5 L-227 367.5 L-226 368.5 L-227 369.5 L-227 381 L-226 380.5 L-225.5 379 L-223.5 375 L-223 373.5 L-216.5 367 L-212.5 366 L-211.5 365 L-210.5 366 L-209.5 365 L-205.25 367.25 L-205 368.5 L-203 370.5 L-197.75 402.875 L-193.5 403 L-191 405.5 L-192 409.5 L-193.5 411 L-194.5 411 L-196.5 413 L-201 412.25 L-204.75 410.75 L-205.5 409 L-206.5 407 L-207.25 405 L-208.625 398 L-210 393.5 L-209 392.5 L-210 391.5 L-210 387.5 L-211 386.5 L-210 385.5 L-211 377.5 L-212.5 376 L-215 378.5 L-214 379.5 L-214.5 380 L-215.5 380 L-216 380.5 L-215 381.5 L-218 384.5 L-217 385.5 L-217.5 386 L-218.5 386 L-219 386.5 L-218 387.5 L-218 388.5 L-220 391 L-221 391.5 L-220.5 392 L-220 392 "/></g><g><path fill="#000000" fill-rule="evenodd" d="M-361 396.5 L-365 396.5 L-369 395.5 L-372 394.375 L-378.75 389.75 L-381.5 385 L-382.25 383 L-383 373.5 L-384 372.5 L-383 371.5 L-383 362.5 L-383.5 362 L-384.5 363 L-397.5 362 L-400 359.5 L-399 358.5 L-399 357.5 L-397.5 356 L-389.5 355 L-388.5 356 L-387.5 355 L-382 354.875 L-381 335.5 L-379.5 334 L-375.5 334 L-373.5 336 L-372 336 L-372.5 337 L-373.75 337.25 L-373.25 341 L-374 348.5 L-373 349.5 L-374 350.5 L-373 351.5 L-373 352.5 L-372.5 353 L-371.5 352 L-367 351.5 L-362 350.5 L-357 350.75 L-355.125 351.25 L-355 355.5 L-356.5 357 L-358 357.25 L-374.875 361.25 L-375 365.5 L-374 366.5 L-375 367.5 L-376 370.5 L-375 371.5 L-376 372.5 L-375 381.5 L-369.5 387 L-366 388.25 L-361 388.25 L-359 387.625 L-355 387.625 L-353.125 388.25 L-353 392.5 L-354.5 394 L-355.5 394 L-357.5 396 L-361 396.5 M-374 353 L-374 351.5 L-375 351 L-375 352 L-374 353 "/></g><g><path fill="#000000" fill-rule="evenodd" d="M-510.25 405.75 L-511.5 406 L-512.5 405 L-513.5 406 L-514.5 406 L-515 405.5 L-514 404.5 L-514.5 404 L-516.5 404 L-517.5 405 L-519.5 403 L-522 402.375 L-524 401.5 L-528.5 399 L-531 396.5 L-531.25 395.25 L-532.5 395 L-533 394.5 L-532 393.5 L-534 391.5 L-534.25 388.25 L-535.5 388 L-536 387.5 L-535 386.5 L-535.625 383 L-536 381.5 L-535 380.5 L-536 379.5 L-536 376.5 L-535 375.5 L-536 374.5 L-536 372.5 L-535 371.5 L-536 370.5 L-535.5 370 L-534.5 370 L-534 369.5 L-535 368.5 L-533 364.5 L-534 363.5 L-532 361.5 L-531.5 360 L-530.5 358 L-530 356.5 L-529 355.5 L-530 354.5 L-529.5 354 L-528.5 354 L-526 351.5 L-522.75 346.25 L-521.25 345.75 L-517.75 340.25 L-516.25 339.75 L-515.75 338.25 L-506.5 331 L-504 329.75 L-499 328.5 L-495.25 328.25 L-494 332.5 L-496 334.5 L-496 335.5 L-495 336.5 L-495.5 337 L-496.5 337 L-497.5 338 L-498.5 337 L-499.5 338 L-503.5 340 L-515 351.5 L-516.5 354 L-519.5 358 L-521.5 361 L-523.5 366 L-525.375 374 L-525.125 386 L-524 389.5 L-520.5 393 L-517 394.125 L-501 394.25 L-496 393.5 L-485 390.625 L-482 389.375 L-479.5 388 L-476.5 386 L-474.5 385 L-474 384.5 L-475 383.5 L-475 382.5 L-478.5 379 L-484 375.5 L-486 374.625 L-490 373.5 L-493.5 373 L-494.5 374 L-495.5 373 L-497.75 373.25 L-498.25 374.75 L-502 375.5 L-505 375.5 L-507.5 375 L-510 372.5 L-510 369.5 L-511 368.5 L-510 367.5 L-510 366.5 L-507.5 364 L-499 362.625 L-489 362.625 L-481.5 364 L-479.5 366 L-478 366.5 L-476 367.5 L-470.5 371 L-468 373.5 L-464.5 379 L-463.75 381 L-463 387.5 L-465 389.5 L-465 390.5 L-466.5 392 L-467.75 392.25 L-468.25 393.75 L-470 394.5 L-475.5 398 L-478 399.375 L-492 403.75 L-493.5 404 L-494.5 405 L-495.5 404 L-496.5 405 L-497.5 405 L-498.5 404 L-499.5 405 L-507.5 404 L-508.5 405 L-509.5 404 L-510 404.5 L-510.25 405.75 M-511 347 L-511 346 L-512 346 L-512 347 L-511 347 "/></g>
</svg>