<svg width="1404" height="1872" viewBox="-702 0 1404 1872" xmlns="http://www.w3.org/2000/svg" xmlns:xlink="http://www.w3.org/1999/xlink" version="1.2" baseProfile="tiny"><title>Regler</title>\n<g><path fill="none" stroke="#000000" stroke-width="6" stroke-linecap="round" stroke-linejoin="round" d="M-534.475 79.9122 L-535.344 78.6666 L-535.21 78.1291 L-534.836 78.0159 L-534.94 77.5887 L-535.136 77.8359 L-534.923 77.901 L-535.765 78.5143 L-541.159 95.8943 L-549.59 118.385 L-561.554 147.511 L-563.25 153.171 L-563.232 155.219 L-562.345 157.411 L-560.672 158.606 L-557.554 159.331 L-549.267 159.639 L-541.609 159.326 L-527.322 157.807 L-513.418 156.905 L-509.473 157.026 L-490.429 155.565 L-487.323 155.021 L-481.456 154.943 L-476.021 154.322 L-472.276 153.2 L-471.099 152.485 L-470.271 151.635 L-470.786 150.95 "/></g><g><path fill="none" stroke="#000000" stroke-width="6" stroke-linecap="round" stroke-linejoin="round" d="M-558.651 117.944 L-560.08 117.84 L-559.911 117.627 L-553.917 117.606 L-548.645 116.723 L-527.733 111.759 L-511.847 109.265 "/></g><g><path fill="none" stroke="#000000" stroke-width="6" stroke-linecap="round" stroke-linejoin="round" d="M-543.539 80.6997 L-544.516 80.3672 L-545.646 79.434 L-537.8 80.5151 L-532.721 80.6048 L-528.707 80.217 L-523 78.9281 L-513.834 75.8391 L-494.436 68.2882 L-488.379 65.6774 L-480.56 61.8006 "/></g><g><path fill="none" stroke="#000000" stroke-width="6" stroke-linecap="round" stroke-linejoin="round" d="M-448.138 65.3063 L-450.218 63.3523 L-449.4 63.4801 L-447.801 62.2513 L-442.471 59.9505 L-439.721 59.3878 L-438.111 59.8233 L-436.247 61.3581 L-434.792 64.1371 L-434.078 68.9026 L-434.093 73.6077 L-434.647 78.155 L-435.795 82.9291 L-442.725 105.594 L-445.75 117.887 L-451.934 139.151 L-453.65 147.656 L-453.755 150.192 L-453.42 152.978 L-451.815 156.104 L-450.005 157.484 L-447.25 158.375 L-444.112 158.456 L-440.137 157.683 L-426.987 152.337 L-423.639 151.403 "/></g><g><path fill="none" stroke="#000000" stroke-width="6" stroke-linecap="round" stroke-linejoin="round" d="M-384.434 119.248 L-386.048 117.55 L-386.049 118.359 L-387.183 119.54 L-389.626 123.748 L-392.417 130.452 L-396.378 145.919 L-396.794 150.023 L-396.253 154.38 L-395.374 156.574 L-393.607 158.794 L-391.821 159.758 L-388.93 159.913 L-384.411 158.932 L-382.445 158.074 L-375.05 153.278 "/></g><g><path fill="none" stroke="#000000" stroke-width="6" stroke-linecap="round" stroke-linejoin="round" d="M-383.582 87.1 L-385.754 86.0344 L-386.311 85.9285 L-386.131 86.3596 "/></g><g><path fill="none" stroke="#000000" stroke-width="6" stroke-linecap="round" stroke-linejoin="round" d="M-352.472 123.977 L-353.896 121.365 L-354.811 120.387 L-354.589 122.102 L-355.667 125.86 L-356.783 132.079 L-357.413 138.994 L-357.561 143.093 L-357.023 151.318 L-355.728 158.852 L-354.965 161.355 L-354.442 161.91 L-354.096 161.923 L-353.623 161.359 L-351.288 156.604 L-345.708 143.36 L-343.489 135.927 L-341.905 126.834 L-342.251 129.224 L-339.424 137.036 L-336.111 147.944 L-334.512 150.168 L-333.504 150.741 L-332.525 150.813 L-330.682 149.839 L-329.766 148.787 L-317.799 127.391 L-315.431 122.531 L-314.262 121.239 L-313.567 120.901 L-313.118 121.592 L-313.257 123.252 L-311.536 130.289 L-311.154 133.544 L-309.109 141.341 L-307.237 146.714 L-306.142 153.626 L-306.238 156.094 L-306.721 157.723 L-308.113 159.894 L-308.526 160.169 L-308.278 159.651 "/></g><g><path fill="none" stroke="#000000" stroke-width="6" stroke-linecap="round" stroke-linejoin="round" d="M-282.539 125.8 L-283.423 126.434 L-283.735 128.215 L-283.567 136.892 L-283.974 142.153 L-283.568 148.169 L-282.612 151.713 L-281.548 153.459 L-279.021 155.271 L-271.021 154.219 L-268.683 153.056 "/></g><g><path fill="none" stroke="#000000" stroke-width="6" stroke-linecap="round" stroke-linejoin="round" d="M-284.664 95.3674 L-285.284 95.0801 L-286.103 93.8688 L-284.39 94.7036 "/></g><g><path fill="none" stroke="#000000" stroke-width="6" stroke-linecap="round" stroke-linejoin="round" d="M-261.89 121.216 L-262.69 121.012 L-261.786 122.065 L-259.427 126.235 L-255.742 135.898 L-254.024 143.408 L-252.505 152.954 L-250.729 158.588 L-250.418 158.539 L-249.895 156.557 L-244.429 142.588 L-239.388 125.344 L-237.931 122.571 L-236.726 121.684 L-235.988 122.217 L-235.36 123.747 L-231.879 129.041 L-230.805 132.379 L-229.719 138.213 L-228.676 151.958 L-227.456 157.533 L-226.495 159.37 L-225.502 160.25 L-224.623 160.317 L-222.708 159.728 "/></g><g><path fill="none" stroke="#000000" stroke-width="6" stroke-linecap="round" stroke-linejoin="round" d="M-175.879 130.864 L-175.521 128.817 L-176.406 129.402 L-179.489 129.579 L-183.885 130.724 L-189.603 134.071 L-193.041 137.037 L-196.775 141.195 L-198.711 143.948 L-200.793 147.79 L-202.288 152.538 L-202.625 157.163 L-202.312 159.309 L-201.222 161.386 L-200.124 162.286 L-197.365 162.317 L-195.194 161.584 L-191.599 159.488 L-188.937 157.144 L-184.971 152.779 L-180.48 146.702 L-173.854 135.85 L-172.196 132.107 L-173.946 133.409 L-175.645 134.196 L-176.56 136.514 L-176.642 142.065 L-175.236 147.833 L-173.685 151.434 L-167.294 161.542 L-164.662 164.506 L-162.343 166.254 L-160.765 166.703 L-159.843 166.594 "/></g><g><path fill="none" stroke="#000000" stroke-width="6" stroke-linecap="round" stroke-linejoin="round" d="M-139.669 90.0461 L-140.51 86.6707 L-139.724 89.1071 L-139.589 94.0215 L-140.389 106.076 L-142.577 129.613 L-142.527 133.031 L-141.83 139.229 L-140.602 144.464 L-138.819 148.947 L-137.195 151.564 L-133.715 155.403 L-131.357 157.378 L-128.79 158.869 L-126.242 159.361 L-122.536 158.886 L-120.946 158.344 "/></g><g><path fill="none" stroke="#000000" stroke-width="6" stroke-linecap="round" stroke-linejoin="round" d="M-156.836 122.492 L-157.722 120.566 L-157.706 119.989 L-157 119.481 L-150.654 118.554 L-142.589 118.069 L-132.6 118.756 L-125.924 120.339 L-120.941 122.169 "/></g><g><path fill="none" stroke="#000000" stroke-width="6" stroke-linecap="round" stroke-linejoin="round" d="M-100.296 128.992 L-101.38 128.864 L-102.059 128.127 L-101.572 128.7 L-99.8488 148.107 L-99.6912 154.85 L-100.228 167.054 L-100.076 169.207 L-99.276 171.32 L-98.1354 170.943 L-96.2129 169.655 "/></g><g><path fill="none" stroke="#000000" stroke-width="6" stroke-linecap="round" stroke-linejoin="round" d="M-100.526 100.899 L-100.712 98.8338 L-100.231 97.0227 L-98.7946 96.9832 L-96.8068 98.1631 "/></g><g><path fill="none" stroke="#000000" stroke-width="6" stroke-linecap="round" stroke-linejoin="round" d="M-71.879 131.509 L-73.0068 130.881 L-73.9778 130.881 L-74.769 131.225 L-75.2656 132.006 L-76.1518 136.166 L-82.6246 157.522 L-83.6899 161.935 L-83.9657 166.319 L-83.4869 168.935 L-81.859 171.43 L-79.1427 173.217 L-77.4462 173.646 L-75.0079 173.741 L-73.0732 173.441 L-71.0387 172.684 L-66.4995 169.928 L-61.1896 165.503 L-57.5463 161.114 L-55.3583 157.692 L-53.7856 154.423 L-52.6266 149.644 L-52.6183 145.084 L-53.7206 140.933 L-57.1234 135.876 L-60.5536 132.388 L-61.8968 131.452 L-64.0779 130.231 L-66.8978 129.33 L-68.171 129.29 L-70.0873 130.381 L-71.3038 133.687 "/></g><g><path fill="none" stroke="#000000" stroke-width="6" stroke-linecap="round" stroke-linejoin="round" d="M-25.4461 122.635 L-27.5544 121.822 L-29.2291 121.805 L-30.5355 122.533 L-31.5013 124.343 L-31.4846 134.714 L-30.5471 153.798 L-29.9965 157.539 L-29.3964 159.591 L-28.6497 160.917 L-27.4116 161.838 L-24.7656 161.293 L-21.9805 159.097 L-20.0784 156.386 L-15.7613 148.81 L-10.5884 137.566 L-8.78339 133.052 L-5.31805 121.381 L-4.52783 120.214 L-4.41028 121.719 L-3.4071 122.311 L0.0792847 126.399 L4.70538 134.681 L7.09192 140.673 L10.2605 152.389 L13.0293 160.764 L14.8172 164.133 L16.022 165.605 L16.7494 165.88 "/></g><g><path fill="none" stroke="#000000" stroke-width="6" stroke-linecap="round" stroke-linejoin="round" d="M-575.907 178.477 L-576.232 178.046 L-575.912 177.536 L-572.079 176.012 L-571.472 176.175 L-570.549 177.839 L-569.081 179.099 L-565.124 179.751 L-550.884 179.67 L-538.272 179.138 L-526.87 177.763 L-516.06 177.001 L-509.643 177.489 L-490.355 181.273 L-479.605 182.468 L-463.57 182.558 L-447.005 181.972 L-436.88 182.416 L-430.115 183.169 L-409.495 187.798 L-398.854 189.663 L-389.233 190.387 L-376.043 191.867 L-358.654 194.324 L-348.339 195.037 L-331.433 197.432 L-318.322 198.239 L-307.736 198.244 L-268.474 195.045 L-225.352 193.408 L-201.013 192.049 L-193.937 191.963 L-174.567 193.248 L-158.757 193.505 L-147.537 193.268 L-126.691 192.137 L-86.5928 191.132 L-56.4598 189.188 L-47.3884 187.858 L-31.553 186.672 L-18.2775 186.771 L-1.48572 187.768 L19.3687 187.786 L33.8337 186.939 L44.1 185.935 L59.2571 185.531 L64.9977 185.875 L69.2908 186.888 L70.6921 188.151 L69.5378 189.815 "/></g><g><path fill="none" stroke="#000000" stroke-width="6" stroke-linecap="round" stroke-linejoin="round" d="M-583.436 265.652 L-584.303 263.69 L-584.568 263.919 L-584.241 264.602 L-584.014 264.354 L-583.096 266.015 L-581.5 267.514 L-581.111 268.873 L-580.946 268.657 L-581.308 268.729 L-580.919 268.763 L-578.732 272.548 L-576.031 279.908 L-573.063 291.607 L-571.708 299.223 L-569.822 321.988 L-568.929 326.699 L-566.477 333.515 L-564.942 335.6 L-564.476 336.797 L-562.852 338.799 L-562.074 338.406 L-561.39 337.522 L-560.048 335.132 L-555.382 323.295 L-550.108 312.948 L-544.803 300.247 L-539.848 290.074 L-536.022 280.467 L-535.829 279.518 L-537.46 282.133 L-537.545 282.628 L-536.067 282.978 L-534.401 281.982 L-533.442 280.437 L-534.084 281.007 "/></g><g><path fill="none" stroke="#000000" stroke-width="6" stroke-linecap="round" stroke-linejoin="round" d="M-551.117 288.747 L-551.701 286.7 L-552.105 286.018 L-552.286 286.355 L-550.877 289.302 L-549.853 293.355 L-547.431 300.186 L-542.218 311.634 L-537.252 320.774 L-534.312 327.414 L-532.745 330.206 L-531.626 330.942 L-530.621 331.158 L-530.295 330.851 L-530.092 331.144 L-528.03 327.846 L-526.355 323.929 L-523.182 314.107 L-511.804 273.294 L-509.154 266.538 L-505.79 260.245 L-506.069 259.514 L-507.457 260.812 L-509.841 263.542 L-510.478 264.875 "/></g><g><path fill="none" stroke="#000000" stroke-width="6" stroke-linecap="round" stroke-linejoin="round" d="M-495.065 258.244 L-495.715 257.37 L-496.077 257.161 L-496.127 257.401 L-495.422 258.469 L-494.723 262.541 L-494.36 280.85 L-495.684 309.173 L-496.019 329.432 L-495.433 329.948 L-494.835 329.623 L-493.932 327.025 L-489.739 310.452 L-488.074 301.877 L-486.028 296.158 L-483.586 291.311 L-479.851 286.614 L-478.515 285.589 L-477.196 285.781 L-475.865 288.176 L-474.021 295.424 L-471.982 317.607 L-470.374 321.632 L-467.717 325.763 L-467.137 326.423 L-466.326 326.005 "/></g><g><path fill="none" stroke="#000000" stroke-width="6" stroke-linecap="round" stroke-linejoin="round" d="M-448.625 309.702 L-448.599 308.978 L-447.792 308.96 L-447.402 308.439 L-445.888 308.356 L-444.076 307.05 L-441.503 304.145 L-437.133 297.992 L-436.474 296.349 L-436.583 294.565 L-437.235 293.836 L-438.937 292.918 L-442.445 293.336 L-446.16 295.304 L-448.672 297.68 L-451.239 302.508 L-452.867 307.162 L-454.893 316.111 L-455.153 319.367 L-454.933 322.183 L-453.648 325.227 L-452.305 326.496 L-449.39 327.517 L-446.023 327.456 L-438.785 325.904 L-421.059 316.401 "/></g><g><path fill="none" stroke="#000000" stroke-width="6" stroke-linecap="round" stroke-linejoin="round" d="M-415.77 300.177 L-416.64 298.647 L-416.12 299.632 L-415.177 306.614 L-414.259 310.401 L-411.144 320.296 L-410.561 321.607 L-409.687 322.208 L-408.532 320.755 L-402.162 309.599 L-396.67 296.559 L-395.86 295.32 L-394.816 294.891 L-394.616 297.468 L-392.511 306.211 L-390.971 315.612 L-390.089 318.424 L-387.651 323.139 L-385.806 325.256 L-383.659 326.701 "/></g><g><path fill="none" stroke="#000000" stroke-width="6" stroke-linecap="round" stroke-linejoin="round" d="M-300.688 294.592 L-302.23 294.582 L-302.699 294.896 L-298.934 303.951 L-294.87 311.802 L-290.105 318.15 L-285.946 322.08 L-282.339 324.881 L-280.286 325.494 L-279.235 325.449 L-277.724 324.627 L-277.105 323.878 "/></g><g><path fill="none" stroke="#000000" stroke-width="6" stroke-linecap="round" stroke-linejoin="round" d="M-265.105 290.197 L-267.443 290.146 L-267.932 291.029 L-272.043 308.347 L-276.201 322.247 L-287.164 352.411 L-297.393 378.602 L-298.785 383.34 L-296.783 379.203 "/></g><g><path fill="none" stroke="#000000" stroke-width="6" stroke-linecap="round" stroke-linejoin="round" d="M-237.404 296.956 L-237.955 295.557 L-237.863 294.019 L-239.638 294.379 L-243.144 299.591 L-249.223 313.531 L-250.227 318.458 L-249.756 320.534 L-248.472 321.96 L-247.043 322.537 L-244.753 322.892 L-241.376 322.815 L-235.282 321.306 L-231.136 319.955 L-225.979 317.306 L-222.529 314.923 L-218.741 311.186 L-217.338 308.691 L-217.149 307.483 L-217.43 306.562 L-222.34 301.189 L-225.22 298.862 L-227.153 297.657 L-229.7 296.607 L-231.803 295.871 L-233.561 295.71 L-234.428 296.318 L-235.241 297.524 L-235.325 299.892 "/></g><g><path fill="none" stroke="#000000" stroke-width="6" stroke-linecap="round" stroke-linejoin="round" d="M-198.386 292.008 L-200.477 291.395 L-200.758 291.701 L-201.158 293.958 L-201.419 300.704 L-200.961 306.666 L-200.283 310.636 L-198.775 315.494 L-198.124 316.409 L-196.854 317.04 L-193.993 316.686 L-192.181 315.363 L-190.385 312.983 L-189.258 310.934 L-183.283 293.904 L-182.169 291.653 L-181.184 290.478 L-181.739 292.626 L-179.672 306.174 L-178.807 310.049 L-177.781 312.456 L-175.651 314.734 L-172.709 316.115 L-168.384 316.187 L-166.152 315.209 "/></g><g><path fill="none" stroke="#000000" stroke-width="6" stroke-linecap="round" stroke-linejoin="round" d="M-85.4595 301.581 L-86.1256 301.383 L-86.2178 301.66 L-81.5352 302.851 L-77.6641 303.282 L-73.8885 302.531 L-69.1113 300.845 L-61.5377 296.261 L-57.814 293.188 L-56.927 291.968 L-56.635 290.579 L-57.1183 289.543 L-58.8341 288.361 L-60.1473 287.91 L-62.6241 287.736 L-64.8732 288.058 L-68.3012 289.089 L-74.8223 292.332 L-79.0848 295.468 L-81.168 297.779 L-83.1682 302.026 L-83.3841 303.793 L-83.1895 306.726 L-82.3204 310.436 L-79.5914 316.995 L-77.1681 320.628 L-74.0203 323.989 L-71.5728 326.096 L-69.8323 327.363 L-67.234 328.659 L-65.459 329.13 L-62.673 329.298 L-58.5993 328.867 L-52.2245 326.349 L-47.5533 322.773 "/></g><g><path fill="none" stroke="#000000" stroke-width="6" stroke-linecap="round" stroke-linejoin="round" d="M-25.0857 260.807 L-26.1741 259.721 L-25.8063 260.681 L-25.1929 260.432 L-25.0129 260.005 L-25.2904 260.051 L-24.9172 259.91 L-24.0025 259.912 L-21.3636 259.075 L-20.6945 259.656 L-20.1715 262.406 L-20.2286 265.936 L-20.8358 270.111 L-22.219 275.671 L-24.8831 284.166 L-25.7913 289.682 L-25.7524 293.609 L-24.2835 304.029 L-22.6763 322.451 L-21.8005 325.807 L-20.3433 328.308 L-18.7916 329.202 L-15.3325 329.525 "/></g><g><path fill="none" stroke="#000000" stroke-width="6" stroke-linecap="round" stroke-linejoin="round" d="M3.23755 300.17 L2.2923 299.121 L0.624146 317.011 L0.877258 321.357 L1.99286 322.966 L3.35608 323.474 L5.51837 323.551 L7.60382 322.946 L11.5054 320.641 "/></g><g><path fill="none" stroke="#000000" stroke-width="6" stroke-linecap="round" stroke-linejoin="round" d="M0.484924 277.125 L-2.43866 273.599 L0.286743 274.6 "/></g><g><path fill="none" stroke="#000000" stroke-width="6" stroke-linecap="round" stroke-linejoin="round" d="M23.264 298.336 L24.4465 296.85 L24.2889 296.587 L24.1553 297.259 L23.897 297.274 L24.2546 303.39 L25.4616 313.156 L26.2365 315.902 L26.1803 320.101 L29.4414 312.979 L32.6038 303.83 L34.3553 299.809 L36.4103 296.379 L38.6012 294.007 L39.14 294.298 L39.1072 295.921 L40.3422 299.97 L43.4745 314.127 L44.0349 315.651 L44.8218 316.294 L47.7924 309.085 L50.3688 300.052 L51.7042 296.525 L53.2591 293.421 L54.3788 292.403 L55.053 292.999 L55.8682 295.692 L60.019 313.691 L61.0573 321.78 L61.2189 322.075 L61.8065 321.192 L62.0826 321.33 "/></g><g><path fill="none" stroke="#000000" stroke-width="6" stroke-linecap="round" stroke-linejoin="round" d="M77.9422 299.726 L76.7585 298.433 L76.3981 298.361 L76.2967 299.019 L77.0351 301.873 L77.1032 306.123 L75.9344 318.481 L76.3152 322.22 L76.9658 323.873 L77.6144 324.484 L79.0055 324.78 L80.6367 324.727 L83.7618 322.513 "/></g><g><path fill="none" stroke="#000000" stroke-width="6" stroke-linecap="round" stroke-linejoin="round" d="M70.0977 277.621 L68.1436 276.085 L70.1678 277.042 "/></g><g><path fill="none" stroke="#000000" stroke-width="6" stroke-linecap="round" stroke-linejoin="round" d="M96.6585 292.67 L96.3545 292.791 L95.9801 312.144 L96.2624 318.28 L96.9902 324.347 L97.4616 324.973 L97.6281 324.824 L97.9556 321.348 L100.408 313.925 L102.438 308.691 L103.74 305.932 L104.349 305.398 L104.676 305.635 L105.044 307.111 L105.244 306.92 L105.925 307.491 L107.314 309.29 L109.227 313.022 L111.098 320.324 L112.2 323.082 L113.187 324.347 L113.663 324.52 L115.778 324.993 L116.778 324.492 "/></g><g><path fill="none" stroke="#000000" stroke-width="6" stroke-linecap="round" stroke-linejoin="round" d="M140.827 300.349 L138.759 299.974 L136.978 300.152 L134.213 303.143 L129.179 311.544 L127.251 315.318 L125.683 319.034 L125.536 321.144 L125.971 321.683 L127.292 322.089 L129.967 321.772 L133.994 319.602 L138.037 316.442 L143.861 310.154 L146.017 306.871 L147.253 302.644 L146.818 300.771 L145.89 300.293 L144.784 300.318 L143.466 301.357 L142.587 302.884 L142.021 304.774 L141.539 310.459 L141.721 313.476 L142.541 317.832 L145.57 325.007 L149.075 330.562 L150.341 331.721 L152.177 332.537 L153.999 332.228 L154.829 331.683 "/></g><g><path fill="none" stroke="#000000" stroke-width="6" stroke-linecap="round" stroke-linejoin="round" d="M169.228 262.403 L167.822 262.619 L166.815 263.847 L165.741 265.966 L164.417 270.138 L163.432 275.924 L163.183 282.455 L163.439 290.315 L164.211 300.109 L165.241 307.999 L166.524 314.873 L168.218 319.359 L169.528 321.628 L171.536 324.307 L173.941 326.344 L175.11 326.675 L176.561 326.364 L177.791 325.343 "/></g><g><path fill="none" stroke="#000000" stroke-width="6" stroke-linecap="round" stroke-linejoin="round" d="M153.844 292.035 L152.12 291.505 L152.386 291.395 L156.013 291.605 L158.671 291.39 L178.355 288.412 "/></g><g><path fill="none" stroke="#000000" stroke-width="6" stroke-linecap="round" stroke-linejoin="round" d="M189.318 305.795 L188.491 304.56 L193.075 304.565 L195.933 303.961 L203.223 301.256 L208.611 298.302 L210.745 296.659 L212.027 294.909 L211.973 293.826 L211.243 293.099 L207.147 291.694 L202.77 291.863 L199.691 292.95 L194.794 295.987 L190.584 300.343 L187.946 304.58 L185.942 311.15 L185.833 313.85 L186.135 315.546 L187.158 317.647 L190.226 320.836 L193.81 322.593 L198.092 323.626 L203.357 323.998 L208.639 323.541 L213.938 322.195 L218.589 320.495 "/></g><g><path fill="none" stroke="#000000" stroke-width="6" stroke-linecap="round" stroke-linejoin="round" d="M303.549 289.684 L304.236 286.541 L303.152 288.313 L294.626 296.281 L288.1 303.028 L285.809 305.866 L285.315 307.242 L288.781 306.213 L293.06 305.453 L303.441 301.165 L310.269 299.254 L313.161 299.236 L315.173 300.13 L315.786 300.727 L316.057 301.653 L315.812 303.553 L314.318 307.595 L312.052 310.829 L305.855 316.53 L299.463 320.762 L293.208 325.566 L290.731 327.912 L289.574 329.496 L292.296 328.58 "/></g><g><path fill="none" stroke="#000000" stroke-width="6" stroke-linecap="round" stroke-linejoin="round" d="M341.454 301.063 L338.949 301.018 L336.221 301.769 L333.846 302.859 L331.164 304.793 L328.809 307.16 L326.401 309.954 L324.407 313.855 L323.882 316.066 L323.771 320.186 L324.932 327.029 L326.093 329.364 L328.34 331.411 L330.478 332.184 L334.848 332.293 L337.783 331.636 L342.018 329.299 L345.562 326.301 L348.664 322.794 L350.813 319.194 L351.897 315.801 L352.114 314.079 L351.377 309.976 L349.717 306.985 L345.787 303.028 L344.26 301.84 L341.101 300.773 L337.586 300.767 L334.065 302.08 L332.833 303.174 L332.427 304.123 L332.711 305.855 L333.428 306.5 "/></g><g><path fill="none" stroke="#000000" stroke-width="6" stroke-linecap="round" stroke-linejoin="round" d="M362.845 296.152 L360.922 296.93 L359.902 298.412 L359.406 300.609 L359.335 303.255 L360.052 311.401 L362.763 322.676 L363.126 323.239 L367.876 317.165 L374.708 305.682 L377.147 302.452 L376.621 304.622 L377.223 306.973 L377.632 311.421 L377.769 320.334 L378.074 322.1 L378.593 323.824 L379.581 324.968 L380.219 325.072 L382.252 324.251 L383.897 323.236 L386.119 321.213 L390.34 316.187 L394.102 310.842 L400.082 300.894 L399.877 302.202 L400.737 306.399 L401.519 321.465 L402.208 324.05 L403.127 325.569 L404.127 326.283 "/></g><g><path fill="none" stroke="#000000" stroke-width="6" stroke-linecap="round" stroke-linejoin="round" d="M422.766 309.188 L424.955 309.329 L426.504 308.831 L431.186 306.149 L436.023 302.879 L440.041 298.505 L440.525 297.346 L440.44 296.22 L439.197 295.446 L437.463 295.196 L435.853 295.157 L434.078 295.689 L426.902 299.016 L422.906 302.11 L418.602 306.461 L412.106 314.603 L409.187 320.043 L408.376 323.616 L408.986 326.126 L410.718 328.225 L412.616 329.43 L417.03 331.171 L421.547 331.313 L426.732 330.827 L438.335 327.493 "/></g><g><path fill="none" stroke="#000000" stroke-width="6" stroke-linecap="round" stroke-linejoin="round" d="M468.4 303.563 L466.678 304.548 L459.631 312.266 L450.101 321.377 L448.714 323.406 L448.623 324.994 L450.221 326.858 L452.582 327.773 L455.967 328.033 L458.57 327.641 L461.259 326.805 L467.651 323.682 L476.223 317.834 L480.899 313.239 L482.843 310.592 L482.941 309.344 L482.291 308.256 L478.883 306.467 L467.431 304.062 L464.415 304.127 "/></g><g><path fill="none" stroke="#000000" stroke-width="6" stroke-linecap="round" stroke-linejoin="round" d="M497.337 298.295 L496.73 298.804 L496.043 300.48 L495.291 309.85 L495.629 317.669 L496.611 319.833 L497.897 320.265 L500.289 318.97 L504.326 315.006 L511.573 305.765 L517.203 297.063 L516.422 298.794 L515.129 311.188 L515.066 314.596 L515.784 320.783 L516.626 323.122 L517.357 324.118 L518.44 324.991 L519.466 325.286 L520.365 325.224 L521.72 324.605 L525.149 321.898 "/></g><g><path fill="none" stroke="#000000" stroke-width="6" stroke-linecap="round" stroke-linejoin="round" d="M545.551 307.681 L545.029 308.289 L546.971 308.215 L550.733 307.205 L560.152 303.468 L565.11 301.025 L567.21 299.702 L569.836 297.395 L570.546 295.421 L570.185 294.68 L569.274 294.224 L566.038 293.307 L562.856 293.049 L560.101 293.356 L557.442 293.777 L553.933 294.95 L550.032 297.183 L545.751 301.513 L542.298 306.319 L540.678 309.337 L539.265 314.627 L539.539 318.814 L540.962 321.375 L543.336 323.58 L545.829 324.753 L548.983 325.742 L552.739 326.238 L555.516 326.4 L561.714 325.98 L568.334 324.855 L577.719 322.226 "/></g><g><path fill="none" stroke="#000000" stroke-width="6" stroke-linecap="round" stroke-linejoin="round" d="M-580.633 448.826 L-581.719 444.757 L-581.558 445.252 L-582.111 449.287 L-581.333 457.381 L-579.964 464.312 L-577.737 470.484 L-574.108 476.217 L-570.39 479.551 L-569.054 480.123 L-566.048 480.61 L-564.222 480.432 L-561.185 479.546 L-557.607 476.99 "/></g><g><path fill="none" stroke="#000000" stroke-width="6" stroke-linecap="round" stroke-linejoin="round" d="M-549.778 441.366 L-551.005 440.912 L-551.471 441.648 L-553.033 452.281 L-555.117 461.595 L-558.967 472.166 L-566.897 490.224 L-569.275 498.662 L-571.351 508.579 L-571.97 514.458 L-571.521 518.883 L-570.692 521.588 "/></g><g><path fill="none" stroke="#000000" stroke-width="6" stroke-linecap="round" stroke-linejoin="round" d="M-526.298 453.382 L-527.56 452.729 L-528.933 453.645 L-533.131 461.051 L-536.851 468.679 L-540.131 479.691 L-540.127 483.571 L-539.74 484.5 L-538.797 485.608 L-536.808 486.675 L-535.532 486.822 L-533.371 486.277 L-529.053 483.604 L-521.055 475.67 L-516.383 468.812 L-514.609 465.028 L-513.929 462.542 L-514.451 458.814 L-516.175 456.33 L-519.855 454.226 L-526.702 452.889 L-531.548 453.31 L-534.749 454.105 L-538.083 455.772 L-539.001 456.797 L-540.25 458.766 L-540.388 460.057 L-540.203 461.63 L-539.168 463.765 "/></g><g><path fill="none" stroke="#000000" stroke-width="6" stroke-linecap="round" stroke-linejoin="round" d="M-491.429 451.621 L-492.281 451.198 L-493.619 451.218 L-493.304 451.478 L-493.09 454.505 L-494.952 481.074 L-494.384 484.001 L-493.222 484.052 L-491.002 483.044 L-487.96 480.891 L-485.075 478.109 L-478.861 470.394 L-469.644 456.687 L-470.277 458.548 L-469.785 464.72 L-467.74 478.559 L-465.218 487.633 L-464.203 489.627 L-463.265 490.61 L-460.326 492.522 L-457.592 493.077 L-454.31 492.174 "/></g><g><path fill="none" stroke="#000000" stroke-width="6" stroke-linecap="round" stroke-linejoin="round" d="M-353.924 455.409 L-356.212 453.079 L-357.386 451.112 L-357.347 449.967 L-356.521 450.462 L-356.449 451.292 L-354.655 455.087 L-353.478 460.527 L-353.068 463.19 L-352.07 481.324 L-351.368 485.593 L-350.242 488.264 L-349.307 489.061 L-348.052 489.414 L-347.041 488.499 L-346.071 486.566 L-344.084 479.978 L-343.284 474.616 L-342.621 461.19 L-342.106 457.547 L-340.48 453.542 L-338.313 450.696 L-335.714 449.262 L-333.699 448.648 L-332.08 448.482 L-329.102 449.106 L-328.094 448.969 L-325.819 449.837 L-321.82 452.175 L-318.061 455.236 "/></g><g><path fill="none" stroke="#000000" stroke-width="6" stroke-linecap="round" stroke-linejoin="round" d="M-305.514 466.428 L-305.902 465.35 L-305.566 465.629 L-303.263 463.417 L-295.69 458.061 L-292.747 454.861 L-291.252 451.557 L-292.151 449.548 L-293.396 449.02 L-295.085 448.707 L-296.423 448.886 L-299.238 449.811 L-302.228 451.906 L-306.004 455.732 L-309.099 460.83 L-311.08 466.34 L-311.519 468.913 L-311.059 471.757 L-307.894 475.98 L-304.593 478.424 L-299.75 479.717 L-293.962 479.009 L-289.205 477.273 L-283.157 474.135 "/></g><g><path fill="none" stroke="#000000" stroke-width="6" stroke-linecap="round" stroke-linejoin="round" d="M-252.212 453.829 L-252.9 453.199 L-254.431 454.273 L-256.48 456.521 L-257.157 457.883 L-260.718 461.022 L-261.857 462.555 L-263.654 465.522 L-264.963 468.543 L-265.22 470.688 L-264.506 473.034 L-262.829 475.068 L-259.036 477.783 L-258.335 478.182 L-255.374 478.679 L-250.51 478.544 L-246.684 477.549 L-243.731 475.963 L-240.59 473.738 "/></g><g><path fill="none" stroke="#000000" stroke-width="6" stroke-linecap="round" stroke-linejoin="round" d="M-228.936 468.388 L-229.222 468.668 L-229.02 468.743 L-227.554 468.104 L-222.781 464.911 L-217.812 461.145 L-214.992 458.51 L-213.979 457.017 L-213.678 455.441 L-214.581 453.81 L-217.297 452.455 L-220.204 452.475 L-225.322 453.815 L-229.867 457.302 L-232.807 460.75 L-235.781 465.343 L-237.499 469.712 L-237.63 472.414 L-237.363 474.134 L-236.012 477.664 L-234.279 479.887 L-232.841 481.066 L-229.345 482.292 L-225.766 482.587 L-222.834 482.418 L-212.357 480.685 L-206.711 479.065 L-202.598 477.327 "/></g><g><path fill="none" stroke="#000000" stroke-width="6" stroke-linecap="round" stroke-linejoin="round" d="M-187.117 460.255 L-187.921 461.49 L-188.612 463.975 L-190.188 472.618 L-190.273 478.404 L-189.291 480.608 L-187.586 481.265 L-182.823 480.47 L-179.274 478.654 L-173.641 474.058 "/></g><g><path fill="none" stroke="#000000" stroke-width="6" stroke-linecap="round" stroke-linejoin="round" d="M-191.323 432.751 L-192.189 429.696 L-190.219 428.964 L-188.719 429.513 "/></g><g><path fill="none" stroke="#000000" stroke-width="6" stroke-linecap="round" stroke-linejoin="round" d="M-158.876 456.058 L-160.714 455.135 L-161.332 456.869 L-161.065 459.393 L-159.338 463.136 L-153.482 469.889 L-149.241 475.849 L-145.236 480.687 L-139.589 486.455 L-137.735 479.921 L-135.739 470.919 L-133.414 465.155 L-131.182 461.595 L-127.877 457.812 L-127.092 457.595 L-127.283 458.297 L-126.615 459.17 "/></g><g><path fill="none" stroke="#000000" stroke-width="6" stroke-linecap="round" stroke-linejoin="round" d="M-109.811 466.939 L-109.658 465.84 L-106.08 464.807 L-101.17 462.411 L-98.8343 461.173 L-97.0622 459.381 L-95.8334 457.326 L-95.8642 454.995 L-96.9122 453.16 L-98.6213 452.09 L-100.23 451.968 L-102.569 452.481 L-105.715 454.584 L-109.235 458.074 L-111.384 461.549 L-112.783 465.841 L-113.091 469.618 L-112.606 472.752 L-110.917 476.654 L-109.245 478.411 L-106.395 480.066 L-104.762 480.583 L-100.717 480.976 L-96.1699 480.364 L-92.4869 479.397 L-82.0978 475.415 "/></g><g><path fill="none" stroke="#000000" stroke-width="6" stroke-linecap="round" stroke-linejoin="round" d="M22.674 421.205 L21.2344 421.082 L20.0872 422.473 L18.0406 429.306 L17.1635 435.001 L15.6285 450.975 L15.4497 455.496 L15.853 462.686 L17.005 471.686 L17.9671 475.945 L18.7656 478.617 L19.6821 480.47 L21.7432 482.447 L23.9387 482.424 L29.0498 481.437 L37.6578 478.498 "/></g><g><path fill="none" stroke="#000000" stroke-width="6" stroke-linecap="round" stroke-linejoin="round" d="M5.18726 455.88 L4.13208 454.524 L3.90503 453.483 L4.87592 452.671 L7.33893 452.786 L9.95148 453.338 L14.4783 453.033 L21.8151 451.258 L28.6533 448.692 "/></g><g><path fill="none" stroke="#000000" stroke-width="6" stroke-linecap="round" stroke-linejoin="round" d="M44.0161 431.012 L42.7789 429.967 L43.1399 435.615 L45.0681 451.616 L45.4496 466.879 L46.1419 477.12 L46.5599 480.133 L47.4915 482.824 L48.4432 484.089 L50.369 484.984 L53.502 484.82 L54.6094 483.735 L57.4193 476.348 L59.6446 468.051 L61.3049 463.495 L63.7452 460.174 L65.9287 458.7 L66.2004 458.832 L66.2405 460.165 L67.4294 465.515 L68.4374 478.802 L69.1382 482.389 L69.7145 483.351 L71.1951 484.399 L75.7128 484.862 L76.5592 484.659 "/></g><g><path fill="none" stroke="#000000" stroke-width="6" stroke-linecap="round" stroke-linejoin="round" d="M88.5833 468.627 L86.5184 468.258 L86.721 468.629 L88.5853 468.364 L90.0674 467.483 L94.4063 464.578 L100.703 459.198 L102.099 457.196 L102.656 455.439 L102.039 454.247 L101.068 453.656 L98.0845 453.307 L94.0969 455.229 L90.4081 457.924 L87.7487 460.83 L85.8446 464.505 L84.861 468.76 L85.181 473.336 L86.2159 476.104 L87.9357 478.219 L89.384 479.293 L92.007 480.497 L95.5811 481.563 L103.194 481.762 L110.731 479.938 L116.273 478.109 "/></g><g><path fill="none" stroke="#000000" stroke-width="6" stroke-linecap="round" stroke-linejoin="round" d="M127.519 460.277 L125.43 461.461 L125.071 462.934 L125.347 475.617 L126.395 481.072 L127.678 483.262 L130.623 485.371 L133.149 485.878 L135.387 484.597 "/></g><g><path fill="none" stroke="#000000" stroke-width="6" stroke-linecap="round" stroke-linejoin="round" d="M121.327 439.835 L120.788 438.129 L120.92 437.595 L124.284 438.815 "/></g><g><path fill="none" stroke="#000000" stroke-width="6" stroke-linecap="round" stroke-linejoin="round" d="M148.659 455.369 L146.412 455.522 L145.626 456.867 L144.996 461.055 L145.084 464.831 L145.786 470.671 L147.651 479.22 L148.982 481.996 L150.963 482.979 L153.095 481.612 L154.683 479.782 L156.018 477.096 L156.991 474.17 L157.995 469.76 L159.047 462.49 L159.503 452.029 L159.882 451.128 L162.355 453.064 L168.868 455.337 L172.107 456.084 L178.264 456.187 L191.224 455.588 "/></g><g><path fill="none" stroke="#000000" stroke-width="6" stroke-linecap="round" stroke-linejoin="round" d="M298.102 451.724 L297.039 449.114 L296.528 448.94 L295.171 449.628 L294.91 449.358 L294.469 449.85 L290.097 452.162 L282.014 459.64 L277.297 465.352 L274.579 469.851 L273.089 473.932 L272.687 476.952 L272.819 478.432 L273.98 480.588 L275.426 481.893 L278.452 483.118 L281.424 483.776 L292.584 484.08 L307.593 483.203 "/></g><g><path fill="none" stroke="#000000" stroke-width="6" stroke-linecap="round" stroke-linejoin="round" d="M338.875 456.742 L336.558 455.47 L332.83 454.729 L329.46 455.574 L327.864 456.659 L325.977 459.134 L323.276 464.084 L322.46 466.552 L321.976 470.098 L322.231 473.677 L322.691 478.138 L323.757 481.073 L325.076 482.642 L326.853 483.686 L329.622 483.932 L332.022 483.486 L334.795 482.459 L337.758 480.66 L343.105 476.431 L345.714 472.806 L346.313 471.098 L346.511 468.743 L346.081 466.676 L344.472 464.066 L339.632 459.648 L331.273 455.332 L330.487 455.3 L330.267 455.8 L331.864 458.983 "/></g><g><path fill="none" stroke="#000000" stroke-width="6" stroke-linecap="round" stroke-linejoin="round" d="M363.065 461.266 L362.129 461.078 L361.779 461.68 L361.511 468.062 L361.941 474.813 L363.086 479.084 L364.001 480.88 L364.967 481.903 L368.61 483.817 L370.834 483.927 L372.448 483.276 "/></g><g><path fill="none" stroke="#000000" stroke-width="6" stroke-linecap="round" stroke-linejoin="round" d="M360.604 438.3 L359.17 436.547 L359.447 436.33 L360.883 437.087 L362.341 438.594 "/></g><g><path fill="none" stroke="#000000" stroke-width="6" stroke-linecap="round" stroke-linejoin="round" d="M380.117 462.742 L378.637 459.148 L379.315 462.109 L379.741 473.712 L380.247 477.782 L381.124 480.07 L384.219 482.957 L385.979 482.916 L392.218 474.217 L394.411 468.693 L395.757 462.918 L396.612 460.647 L396.263 462.355 L397.52 470.297 L399.523 476.14 L401.045 478.949 L404.705 484.096 L406.339 485.017 L408.273 484.579 "/></g><g><path fill="none" stroke="#000000" stroke-width="6" stroke-linecap="round" stroke-linejoin="round" d="M432.416 448.72 L430.009 446.808 L429.079 446.463 L428.106 446.894 L423.036 452.565 L419.219 456.04 L417.376 458.138 L415.757 460.425 L415.873 461.302 L418.211 462.096 L428.107 462.053 L439.177 460.833 L445.857 460.515 L450.901 461.782 L452.484 462.826 L452.787 463.809 L452.339 465.141 L450.395 467.81 L440.893 477.709 L437.752 480.364 L434.138 485.779 "/></g><g><path fill="none" stroke="#000000" stroke-width="6" stroke-linecap="round" stroke-linejoin="round" d="M542.46 457.859 L540.203 456.352 L538.355 456.225 L537.491 456.846 L537.091 456.732 L535.227 457.586 L531.621 460.731 L527.004 466.736 L523.742 472.443 L523.2 475.431 L523.263 476.965 L524.001 479.414 L525.05 480.384 L526.565 480.861 L529.891 480.891 L532.039 480.232 L535.81 478.353 L539.158 475.546 L541.766 472.399 L543.771 468.04 L544.973 461.958 L544.742 460.247 L544.15 459.917 L543.29 461.29 L542.853 466.539 L543.354 471.655 L544.141 475.24 L546.585 480.176 L548.738 483.308 L550.324 484.438 L551.208 484.704 L552.156 484.514 L553.785 483.271 "/></g><g><path fill="none" stroke="#000000" stroke-width="6" stroke-linecap="round" stroke-linejoin="round" d="M558.579 456.505 L558.109 457.292 L557.798 459.913 L558.346 464.097 L560.042 469.151 L562.769 475.72 L564.706 478.324 L565.698 478.699 L567.255 478.478 L568.959 476.97 L569.489 475.9 L572.591 469.021 L574.49 463.42 L576.269 454.872 L576.513 455.031 L576.925 460.249 L578.218 469.006 L580.095 475.088 L580.366 475.567 L581.855 476.311 L585.24 475.652 "/></g><g><path fill="none" stroke="#000000" stroke-width="6" stroke-linecap="round" stroke-linejoin="round" d="M615.505 452.936 L612.743 453.075 L610.654 453.562 L605.86 456.93 L599.381 463.276 L597.766 465.504 L595.63 469.507 L594.547 474.1 L594.921 476.268 L596.502 477.713 L598.483 478.361 L600.82 478.362 L605.013 477.158 L606.936 476.017 L610.857 472.577 L613.497 469.362 L615.708 465.431 L617.558 459.453 L616.573 455.279 L615.878 447.549 L615.677 440.667 L616.29 437.495 L616.282 433.494 L615.739 431.168 L615.032 430.396 L614.492 430.706 L614.219 432.077 L614.109 436.742 L612.904 448.651 L613.739 457.548 L614.816 464.196 L617.025 472.59 L617.094 476.096 L618.74 479.457 L620.78 481.258 L622.737 482.115 L624.417 482.352 L629.136 482.322 "/></g><g><path fill="none" stroke="#000000" stroke-width="6" stroke-linecap="round" stroke-linejoin="round" d="M-579.032 610.457 L-579.651 610.204 L-580.643 609.074 L-579.811 609.772 L-571.126 610.264 L-553.481 608.269 L-551.478 608.5 L-550.373 609.593 "/></g><g><path fill="none" stroke="#000000" stroke-width="6" stroke-linecap="round" stroke-linejoin="round" d="M-568.26 598.079 L-569.448 596.234 L-568.818 596.766 L-568.044 600.403 L-566.492 610.802 L-564.075 618.575 L-562.326 621.745 "/></g><g><path fill="none" stroke="#000000" stroke-width="6" stroke-linecap="round" stroke-linejoin="round" d="M-532.599 585.158 L-533.511 583.911 L-533.758 584.243 L-534.113 583.922 L-533.636 583.847 L-533.578 583.438 L-531.038 580.849 L-528.512 579.137 L-526.013 579.504 L-525.336 580.119 L-524.853 581.522 L-525.156 604.795 L-524.705 617.036 L-525.143 622.512 L-526.611 633.321 L-525.324 639.787 L-524.478 640.748 L-523.773 640.888 L-523.344 640.679 L-523.285 639.876 L-523.632 640.522 L-523.415 640.645 L-522.894 639.22 "/></g><g><path fill="none" stroke="#000000" stroke-width="6" stroke-linecap="round" stroke-linejoin="round" d="M-431.966 617.691 L-431.223 617.232 L-431.363 616.606 L-432.044 615.655 L-432.987 615.247 L-434.811 615.073 L-437.404 615.464 L-443.316 619.103 L-446.497 621.777 L-449.01 624.417 L-452.709 630.296 L-454.102 633.425 L-455.158 636.973 L-455.267 638.065 L-454.965 639.251 L-453.443 640.612 L-451.296 641.571 L-448.013 641.633 L-445.746 640.734 L-440.813 637.673 L-434.605 632.153 L-430.218 626.687 L-427.942 622.154 L-427.323 618.728 L-427.662 617.073 L-428.55 615.68 L-429.063 615.706 L-429.141 616.95 L-430.361 619.246 L-430.832 622.234 L-430.755 628.38 L-429.474 633.741 L-427.538 637.306 L-424.246 640.421 L-422.309 641.827 L-421.265 641.958 L-419.367 641.419 "/></g><g><path fill="none" stroke="#000000" stroke-width="6" stroke-linecap="round" stroke-linejoin="round" d="M-402.826 589.176 L-402.794 587.975 L-404.416 589.361 L-405.269 590.714 L-405.591 592.212 L-406.404 604.409 L-408.491 618.688 L-410.006 626.086 L-410.252 632.6 L-409.767 636.614 L-408.33 641.02 L-406.215 643.332 L-403.739 644.704 L-401.357 644.767 "/></g><g><path fill="none" stroke="#000000" stroke-width="6" stroke-linecap="round" stroke-linejoin="round" d="M-389.313 592.108 L-390.428 592.758 L-391.205 595.005 L-391.969 600.505 L-391.84 619.943 L-390.628 623.239 L-386.908 629.723 L-385.216 634.129 L-383.356 637.238 L-380.207 639.425 L-377.861 640.439 L-377.152 640.241 "/></g><g><path fill="none" stroke="#000000" stroke-width="6" stroke-linecap="round" stroke-linejoin="round" d="M-422.464 611.419 L-423.19 611.103 L-422.643 611.377 L-422.43 611.2 L-420.34 611.868 L-415.231 611.099 L-410.51 610.819 L-389.747 612.113 L-378.181 611.356 L-377.469 611.599 "/></g><g><path fill="none" stroke="#000000" stroke-width="6" stroke-linecap="round" stroke-linejoin="round" d="M-353.87 613.732 L-355.414 611.927 L-358.44 613.383 L-365.438 619.605 L-368.191 623.343 L-369.487 626.007 L-369.956 629.213 L-368.677 631.198 L-365.871 633.152 L-362.134 633.56 L-358.621 632.284 L-355.628 630.259 L-350.947 625.894 L-348.394 622.395 L-346.513 618.535 L-345.742 615.807 L-346.09 614.751 L-348.405 616.456 L-349.504 619.61 L-349.36 622.362 L-348.36 626.326 L-347.385 628.678 L-345.014 632.255 L-340.14 636.338 L-337.799 637.201 L-335.361 636.86 "/></g><g><path fill="none" stroke="#000000" stroke-width="6" stroke-linecap="round" stroke-linejoin="round" d="M-310.689 611.848 L-311.131 610.743 L-311.588 610.597 L-313.866 611.644 L-316.407 613.683 L-323.892 620.912 L-325.456 622.761 L-327.055 625.348 L-328.022 627.594 L-328.43 630.384 L-326.466 633.184 L-325.004 634.189 L-322.562 634.939 L-316.826 634.705 L-310.817 632.916 "/></g><g><path fill="none" stroke="#000000" stroke-width="6" stroke-linecap="round" stroke-linejoin="round" d="M-289.505 582.81 L-291.947 582.724 L-293.671 583.1 L-294.93 584.392 L-295.272 586.652 L-293.86 606.977 L-294.053 624.587 L-292.836 632.691 L-291.079 635.921 L-290.159 636.858 L-287.334 638.217 L-286.173 638.004 L-284.051 635.823 L-280.493 631.65 L-276.643 625.977 L-272.323 617.459 L-264.722 605.286 L-263.805 604.41 L-264.229 605.319 L-265.746 606.177 L-270.622 611.504 L-278.241 621.28 L-279.829 624.015 L-280.618 626.053 L-281.292 629.149 L-281.287 631.159 L-279.837 633.48 L-277.821 634.569 L-275.299 635.089 L-264.173 636.242 L-259.48 637.221 L-253.6 638.948 L-251.187 639.189 L-247.837 640.322 "/></g><g><path fill="none" stroke="#000000" stroke-width="6" stroke-linecap="round" stroke-linejoin="round" d="M-116.212 617.036 L-117.462 616.185 L-118.898 614.254 L-120.977 612.465 L-123.353 611.678 L-125.21 611.774 L-128.074 612.694 L-132.949 615.937 L-135.987 618.546 L-139.519 622.681 L-141.662 625.383 L-144.24 629.687 L-145.447 632.473 L-145.835 635.013 L-145.731 636.336 L-145.021 637.888 L-143.84 638.908 L-142.102 639.495 L-138.11 639.595 L-134.168 638.596 L-129.173 635.861 L-124.483 632.052 L-121.331 628.545 L-117.834 623.941 L-114.3 618.23 L-112.628 615.28 L-111.426 612.117 L-110.54 606.848 L-110.709 603.737 L-111.333 599.692 L-112.602 596.207 L-114.909 592.247 L-116.987 589.641 L-117.163 590.176 L-116.093 598.98 L-111.768 619.668 L-110.609 630.216 L-109.328 635.861 L-107.396 639.436 L-105.535 641.514 L-103.652 642.724 L-100.565 643.62 L-97.2886 643.329 "/></g><g><path fill="none" stroke="#000000" stroke-width="6" stroke-linecap="round" stroke-linejoin="round" d="M-79.1892 619.338 L-80.7223 618.134 L-82.4433 618.276 L-83.6971 618.977 L-85.2126 618.935 L-85.3285 619.493 L-85.9581 619.223 L-87.4437 619.945 L-88.9849 621.285 L-91.1136 624.122 L-96.8479 633.739 L-98.8088 638.739 L-98.9442 640.665 L-98.6562 642.202 L-97.0161 642.889 L-94.7327 642.546 L-90.0013 639.674 L-84.2335 633.956 L-81.1295 630.189 L-79.0975 626.331 L-78.5195 622.789 L-79.4084 619.279 L-80.3608 618.153 L-81.5966 617.717 L-83.1286 617.863 L-84.6526 618.562 L-86.2667 619.85 L-87.7868 621.909 L-88.3619 624.445 L-88.1833 627.21 L-86.2491 631.717 L-82.5472 636.552 L-80.3032 638.856 L-77.9247 640.544 L-76.2429 642.493 L-71.5164 643.767 L-68.7749 643.117 "/></g><g><path fill="none" stroke="#000000" stroke-width="6" stroke-linecap="round" stroke-linejoin="round" d="M-62.1582 617.906 L-63.941 618.016 L-64.7669 618.467 L-66.1927 620.746 L-67.082 625.164 L-67.002 629.456 L-66.2761 632.724 L-64.6947 635.628 L-63.2297 637.155 L-60.2991 638.253 L-57.8301 637.522 L-56.4651 636.73 L-53.3371 632.753 L-49.8664 625.807 L-44.537 613.143 L-45.8197 615.373 L-46.3594 617.817 L-46.9642 622.599 L-46.7587 626.205 L-46.0608 628.735 L-45.0488 630.205 L-42.9306 631.701 L-41.3093 631.703 L-38.8113 630.907 L-36.0976 628.46 L-34.0022 625.821 L-29.9537 618.887 L-25.7806 612.791 L-23.3143 610.122 L-21.5597 609.371 L-20.7192 611.361 L-19.841 616.28 L-19.2746 628.967 L-18.524 631.582 L-16.1709 636.292 L-13.4925 639.038 L-12.3162 639.636 L-11.0828 639.613 L-10.0417 639.096 "/></g><g><path fill="none" stroke="#000000" stroke-width="6" stroke-linecap="round" stroke-linejoin="round" d="M17.7309 616.917 L14.8073 613.708 L13.6088 613.384 L10.9614 613.441 L9.492 614.232 L3.68378 618.422 L-1.8042 623.91 L-7.05902 630.126 L-7.76501 631.724 L-7.59363 632.868 L-6.77557 633.753 L-3.17841 635.113 L1.14948 635.439 L3.76294 634.778 L6.8255 633.383 L11.8014 629.754 L16.9808 625.011 L18.3353 622.651 L19.1186 619.979 L18.9366 618.344 L18.1194 617.776 L15.6971 618.885 L12.7453 622.193 L10.7502 626.971 L10.5723 629.048 L10.8375 630.701 L12.1244 633.089 L12.8977 633.484 L13.6745 634.715 L14.98 635.935 L16.9463 637.128 L19.1465 638.118 L20.8981 638.39 L26.0933 638.365 "/></g><g><path fill="none" stroke="#000000" stroke-width="6" stroke-linecap="round" stroke-linejoin="round" d="M62.793 613.412 L60.8151 613.254 L56.8087 614.85 L49.1618 619.431 L46.5247 621.446 L43.0867 625.056 L38.7862 630.598 L36.8361 633.85 L36.3934 635.567 L36.792 636.619 L38.0767 636.962 L39.9969 636.916 L43.4626 635.974 L49.9004 632.838 L56.4653 628.538 L63.5135 622.957 L65.1824 620.946 L66.4019 619.187 L67.5172 616.697 L67.6652 614.869 L67.3372 613.6 L65.8965 612.446 L64.1167 612.165 L62.3814 612.331 L60.1415 613.085 L57.5564 615.043 L55.9938 617.469 L54.7239 620.436 L53.8543 623.616 L53.3687 628.412 L53.7079 634.375 L54.5195 638.647 L62.0004 666.149 L64.8278 678.081 L65.5211 684.796 L65.0396 687.731 L63.4817 690.097 L61.6616 691.6 L58.4799 692.713 L54.4306 693.351 L49.4738 693.513 L44.6448 692.982 L41.1931 692.147 L36.8349 690.49 L34.7465 689.414 L30.4928 686.155 L28.3847 683.993 L26.4728 681.067 L25.8759 678.006 L26.2986 675.194 L27.3591 673.005 L29.4637 670.698 "/></g><g><path fill="none" stroke="#000000" stroke-width="6" stroke-linecap="round" stroke-linejoin="round" d="M87.5844 623.64 L87.3989 622.558 L87.666 621.374 L88.6648 620.62 L94.1872 618.714 L98.8659 616.573 L101.211 615.215 L102.555 613.999 L103.746 612.262 L104.294 610.353 L103.86 608.913 L101.508 607.17 L97.9251 607.142 L95.0413 607.542 L90.6198 609.118 L88.0137 610.398 L84.6066 612.647 L81.9351 615.573 L79.7255 619.117 L79.0288 621.358 L78.8699 623.057 L79.5059 626.514 L80.7084 628.256 L83.8911 631.121 L90.0004 634.21 L100.259 637.65 L103.281 638.486 L105.186 638.497 L107.495 638.148 L112.063 636.737 "/></g><g><path fill="none" stroke="#000000" stroke-width="6" stroke-linecap="round" stroke-linejoin="round" d="M137.938 634.558 L136.406 632.118 L136.658 632.079 L138.137 633.838 "/></g><g><path fill="none" stroke="#000000" stroke-width="6" stroke-linecap="round" stroke-linejoin="round" d="M-560.541 802.077 L-560.755 802.753 L-559.699 802.392 L-560.027 795.053 L-559.39 791.721 L-551.135 772.508 L-548.146 762.887 L-545.32 750.613 L-544.379 748.927 L-542.599 746.836 L-540.183 745.47 L-539.027 746.154 L-538.3 747.188 L-537.029 751.314 L-534.335 755.764 L-531.873 761.438 L-527.748 781.117 L-526.441 794.727 L-524.781 804.453 L-521.249 814.549 L-520.615 814.497 L-519.507 813.454 "/></g><g><path fill="none" stroke="#000000" stroke-width="6" stroke-linecap="round" stroke-linejoin="round" d="M-559.33 780.714 L-559.592 780.217 L-559.884 780.412 L-558.839 779.998 L-555.409 780.219 L-551.317 779.245 L-544.445 778.238 L-532.533 777.966 L-530.263 778.256 "/></g><g><path fill="none" stroke="#000000" stroke-width="6" stroke-linecap="round" stroke-linejoin="round" d="M-506.84 775.564 L-508.538 774.664 L-508.12 775.127 L-507.911 783.159 L-507.133 789.746 L-505.591 796.328 L-504.783 798.126 L-503.438 797.355 L-501.961 795.24 L-499.791 788.791 L-498.042 779.955 L-497.348 778.183 L-495.443 775.948 L-494.436 776.52 L-493.519 777.754 L-490.657 785.034 L-489.534 793.919 L-488.289 797.67 L-487.478 799.241 L-486.562 800.046 L-485.416 800.354 L-484.494 799.692 "/></g><g><path fill="none" stroke="#000000" stroke-width="6" stroke-linecap="round" stroke-linejoin="round" d="M-464.264 776.071 L-467.287 777.203 L-471.522 781.503 L-473.317 784.137 L-475.03 788.111 L-476.796 793.497 L-476.98 796.109 L-476.299 797.914 L-475.312 798.767 L-473.877 799.416 L-472.603 799.507 L-469.774 798.801 L-464.433 795.339 L-459.054 790.018 L-456.779 786.67 L-455.516 784.144 L-454.837 781.236 L-454.897 779.691 L-455.375 778.349 L-456.663 777.059 L-459.853 775.371 L-462.327 774.833 L-465.058 774.768 L-466.353 775.056 L-466.528 775.51 L-466.197 776.088 "/></g><g><path fill="none" stroke="#000000" stroke-width="6" stroke-linecap="round" stroke-linejoin="round" d="M-427.55 745.604 L-429.261 745.486 L-429.988 745.731 L-430.89 746.69 L-431.848 748.297 L-432.093 751.879 L-429.51 784.016 L-427.395 792.537 L-425.049 797.397 L-423.605 799.611 L-422.172 801.076 L-420.664 801.674 L-417.125 801.197 L-414.513 799.755 L-410.878 797.099 "/></g><g><path fill="none" stroke="#000000" stroke-width="6" stroke-linecap="round" stroke-linejoin="round" d="M-444.824 768.549 L-444.432 768.115 L-443.564 767.893 L-441.087 767.863 L-437.956 769.015 L-432.596 769.182 L-431.175 768.934 L-429.602 768.117 L-424.126 767.143 L-420.682 765.984 "/></g><g><path fill="none" stroke="#000000" stroke-width="6" stroke-linecap="round" stroke-linejoin="round" d="M-405.379 745.547 L-406.518 744.67 L-407.421 744.538 L-405.69 751.531 L-404.357 759.187 L-403.086 768.371 L-402.867 772.042 L-400.922 783.805 L-399.773 796.661 L-399.177 797.19 L-397.673 795.292 L-396.255 792.673 L-393.941 786.398 L-392.712 781.175 L-391.648 778.309 L-390.013 775.039 L-389.169 774.64 L-388.458 773.737 L-388.165 773.969 L-388.455 775.095 L-385.629 790.197 L-384.757 792.685 L-384.187 793.346 L-382.69 793.946 L-380.382 795.845 L-379.367 796.28 "/></g><g><path fill="none" stroke="#000000" stroke-width="6" stroke-linecap="round" stroke-linejoin="round" d="M-361.658 780.871 L-362.669 780.829 L-362.708 781.225 L-362.355 781.454 L-360.3 780.539 L-357.314 778.289 L-356.472 777.123 L-353.121 774.318 L-351.147 771.796 L-349.6 769.06 L-349.363 767.833 L-349.63 766.811 L-350.066 766.443 L-353.663 766.557 L-356.279 767.72 L-358.968 769.495 L-362.617 773.288 L-364.738 776.335 L-367.401 781.117 L-370.224 789.197 L-370.742 792.307 L-370.637 793.663 L-369.331 795.342 L-366.575 796.437 L-362.335 797.119 L-358.814 796.863 L-353.939 795.339 L-341.361 789.339 "/></g><g><path fill="none" stroke="#000000" stroke-width="6" stroke-linecap="round" stroke-linejoin="round" d="M-325.098 771.585 L-326.389 771.884 L-327.37 773.197 L-328.531 776.83 L-329.464 782.106 L-329.751 791.325 L-329.128 794.958 L-328.69 795.052 L-326.352 788.688 L-324.429 781.685 L-322.662 771.347 L-322.307 771.525 L-321.509 770.624 L-320.238 770.497 L-305.981 766.021 L-302.206 765.16 "/></g><g><path fill="none" stroke="#000000" stroke-width="6" stroke-linecap="round" stroke-linejoin="round" d="M-199.3 769.069 L-201.391 768.169 L-201.709 768.292 L-202.245 769.816 L-203.126 774.776 L-204.05 787.222 L-204.061 797.3 L-203.478 814.21 L-201.265 835.567 L-201.144 840.85 L-201.248 838.618 L-204.3 819.071 L-205.654 806.196 L-206.064 796.524 L-205.427 786.127 L-203.721 778.467 L-202.384 775.432 L-199.796 771.203 L-197.818 769.141 L-190.716 764.808 L-189.737 764.365 L-186.269 763.907 L-183.601 764.227 L-181.291 764.991 L-177.884 768.277 L-175.75 771.641 L-174.632 774.094 L-174.113 776.67 L-173.978 779.732 L-174.849 785.681 L-176.098 789.351 L-178.342 792.151 L-183.061 793.207 L-191.227 793.473 L-196.244 792.591 L-200.941 790.398 L-203.677 787.896 L-204.041 786.765 L-203.715 785.445 "/></g><g><path fill="none" stroke="#000000" stroke-width="6" stroke-linecap="round" stroke-linejoin="round" d="M-160.178 740.107 L-161.677 735.593 L-160.723 736.702 L-160.144 736.866 L-158.672 736.794 L-157.836 736.408 L-155.762 736.532 L-154.875 736.146 L-153.375 736.05 L-152.669 736.511 L-151.578 736.29 L-150.277 736.97 L-148.98 739.579 L-148.409 745.65 L-150.032 769.916 L-149.509 789.836 L-148.565 797.731 L-146 806.33 L-144.205 808.522 L-142.315 808.877 L-140.285 808.154 L-137.019 806.224 L-134.636 804.624 L-132.372 802.421 "/></g><g><path fill="none" stroke="#000000" stroke-width="6" stroke-linecap="round" stroke-linejoin="round" d="M-105.883 780.082 L-106.936 778.274 L-107.968 778.549 L-111.41 780.528 L-113.96 782.708 L-120.311 792.515 L-122.212 796.006 L-123.38 800.288 L-123.417 802.576 L-122.893 803.893 L-121.679 805.008 L-119.055 805.202 L-117.313 804.524 L-114.942 802.945 L-111.402 799.888 L-107.696 794.432 L-104.721 788.311 L-104.086 786.296 L-104.053 784.682 L-104.621 783.494 L-105.554 783.045 L-106.536 784.117 L-106.866 785.427 L-106.947 787.291 L-106.427 790.429 L-104.569 795.087 L-101.537 800.33 L-100.084 802.108 L-99.4157 802.179 L-97.567 804.15 L-96.6909 804.499 L-94.7224 804.476 L-93.1439 803.359 "/></g><g><path fill="none" stroke="#000000" stroke-width="6" stroke-linecap="round" stroke-linejoin="round" d="M-86.2681 777.373 L-87.2942 777.488 L-87.5205 780.276 L-85.772 788.479 L-84.8588 790.841 L-82.937 794.001 L-80.4529 797.102 L-77.3387 798.531 L-75.5575 798.109 L-72.2411 795.826 L-64.3881 787.006 L-62.8209 784.361 L-61.6658 781.55 L-60.2807 775.428 L-60.2667 774.154 L-60.4854 772.976 L-61.8884 773.048 L-64.7725 775.217 L-67.3963 779.501 L-69.4583 785.416 L-78.204 816.461 L-83.2236 837.801 L-86.9529 850.708 L-86.8977 851.201 L-86.4821 851.011 L-84.4849 848.533 "/></g><g><path fill="none" stroke="#000000" stroke-width="6" stroke-linecap="round" stroke-linejoin="round" d="M-42.6934 788.62 L-43.4368 788.073 L-40.2499 788.611 L-38.4842 788.229 L-36.0978 787.293 L-33.2372 785.349 L-26.1716 777.908 L-24.4374 774.345 L-24.4969 773.451 L-25.1351 772.824 L-27.4305 773.164 L-31.9464 774.883 L-37.7172 779.003 L-41.5616 784.228 L-43.4836 787.756 L-44.5051 791.041 L-44.3538 793.929 L-42.853 796.313 L-38.384 800.216 L-34.0409 801.45 L-27.1741 800.736 L-22.8552 799.692 L-15.6285 796.129 "/></g><g><path fill="none" stroke="#000000" stroke-width="6" stroke-linecap="round" stroke-linejoin="round" d="M-5.38495 776.942 L-7.11157 777.65 L-8.09857 779.527 L-8.44531 783.232 L-7.99036 788.793 L-6.5318 792.875 L-5.5412 794.272 L-4.70203 795.148 L-3.05731 794.96 L-2.06665 793.756 L0.0357056 787.185 L1.03241 778.666 L1.06854 775.227 L1.56042 773.145 L2.57239 771.22 L4.64374 769.086 L8.76837 767.251 L12.7106 766.887 L18.6456 766.869 "/></g><g><path fill="none" stroke="#000000" stroke-width="6" stroke-linecap="round" stroke-linejoin="round" d="M140.17 768.335 L139.738 767.999 L139.966 767.847 L139.963 768.307 L139.703 768.354 L140.201 771.302 L143.354 782.079 L144.617 787.486 L145.512 792.529 L146.35 800.46 L147.585 803.677 L148.617 804.099 L151.676 803.272 L154.491 800.318 L155.941 798.196 L157.672 794.555 L165.867 771.338 L167.203 769.224 L168.328 769.137 L168.006 770.23 L168.531 770.394 L168.692 770.782 L168.99 770.661 L168.826 770.426 L168.612 770.972 L168.452 770.722 L169.014 771.08 L169.418 772.839 L170.301 781.912 L171.008 785.695 L172.452 790.097 L173.698 792.146 L177.335 795.843 L180.114 796.973 L184.202 796.445 L187.023 795.035 L188.879 793.031 L189.607 790.155 L188.279 779.513 L188.276 775.488 L189.055 770.908 L189.653 769.38 L190.388 768.548 "/></g><g><path fill="none" stroke="#000000" stroke-width="6" stroke-linecap="round" stroke-linejoin="round" d="M209.717 773.551 L209.348 772.74 L209.044 772.415 L208.916 772.613 L209.096 773.67 L208.332 789.94 L209.179 794.363 L209.472 794.963 L214.664 799.64 L215.485 799.663 L218.41 798.322 "/></g><g><path fill="none" stroke="#000000" stroke-width="6" stroke-linecap="round" stroke-linejoin="round" d="M212.049 746.932 L211.661 746.003 L211.546 746.35 L212.055 748.626 "/></g><g><path fill="none" stroke="#000000" stroke-width="6" stroke-linecap="round" stroke-linejoin="round" d="M236.414 742.479 L236.037 742.314 L235.815 742.634 L237.041 751.081 L237.41 759.896 L236.927 771.835 L235.087 790.255 L235.412 795.317 L236.587 797.413 L238.735 799.473 L243.193 801.846 L245.137 802.492 L247.999 802.758 L252.39 801.989 L254.955 800.725 L255.734 799.946 L256.077 799.086 "/></g><g><path fill="none" stroke="#000000" stroke-width="6" stroke-linecap="round" stroke-linejoin="round" d="M227.923 767.42 L226.855 765.424 L227.373 765.15 L233.483 766.108 L240.481 766.102 L242.512 765.836 L249.243 766.121 L251.411 766.479 "/></g><g><path fill="none" stroke="#000000" stroke-width="6" stroke-linecap="round" stroke-linejoin="round" d="M260.218 769.535 L259.869 769.616 L259.769 770.71 L260.933 778.479 L261.671 786.71 L262.066 799.409 L262.531 803.223 L263.277 804.41 L264.711 804.953 L266.082 804.246 L268.845 801.075 L272.513 794.908 L274.316 790.257 L275.929 784.502 L276.515 780.006 L276.479 772.776 L276.362 774.393 L278.052 778.917 L279.19 784.058 L280.675 788.333 L287.445 800.008 L288.359 801.096 L288.872 801.246 L289.564 800.344 "/></g><g><path fill="none" stroke="#000000" stroke-width="6" stroke-linecap="round" stroke-linejoin="round" d="M299.353 783.509 L300.097 782.37 L308.044 780.075 L312.796 777.998 L316.999 775.353 L318.604 773.977 L319.866 772.252 L319.902 771.113 L318.392 770.682 L313.258 772.228 L308.551 774.87 L305.036 777.5 L301.692 780.494 L297.985 785.12 L296.36 788.615 L296.411 790.484 L297.666 791.962 L302.586 794.612 L310.089 796.595 L316.33 796.981 L327.502 796.469 "/></g><g><path fill="none" stroke="#000000" stroke-width="6" stroke-linecap="round" stroke-linejoin="round" d="M360.509 766.989 L359.261 767.144 L356.859 768.232 L347.891 773.013 L340.966 777.835 L338.82 780.054 L339.181 780.765 L342.855 781.222 L345.406 781.042 L347.645 780.784 L361.157 777.651 L364.914 777.417 L366.436 777.846 L366.473 778.829 L364.732 782.386 L359.952 787.94 L353.395 794.389 L351.116 797.502 L349.754 800.095 L349.635 801.087 L351.039 802.69 L351.407 802.913 L351.729 802.677 "/></g><g><path fill="none" stroke="#000000" stroke-width="6" stroke-linecap="round" stroke-linejoin="round" d="M395.327 768.815 L392.181 768.541 L390.208 768.788 L387.707 769.488 L385.592 770.717 L381.086 774.567 L377.7 778.288 L376.941 780.697 L377.233 781.215 L379.271 781.895 L379.953 782.569 L385.017 782.992 L397.304 781.776 L406.835 780.236 L410.873 780.213 L413.016 780.657 L414.502 781.453 L415.422 782.561 L415.705 783.784 L415.32 785.247 L412.867 788.079 L401.629 797.546 L394.748 801.334 L390.985 804.317 L390.54 805.279 L390.68 805.933 L392.129 806.36 "/></g><g><path fill="none" stroke="#000000" stroke-width="6" stroke-linecap="round" stroke-linejoin="round" d="M502.37 744.593 L500.414 742.36 L499.927 740.757 L500.211 740.175 L500.757 740.427 L502.728 744.123 L503.99 749.077 L504.151 751.113 L503.931 757.85 L500.548 777.386 L499.78 783.399 L499.625 791.281 L500.685 797.631 L501.866 800.613 L503.708 802.796 L506.739 804.365 L508.714 805.008 L511.727 805.255 L515.218 804.796 L518.95 803.233 "/></g><g><path fill="none" stroke="#000000" stroke-width="6" stroke-linecap="round" stroke-linejoin="round" d="M491.405 772.929 L490.31 771.753 L496.034 774.607 L498.819 775.082 L502.182 774.948 L505.653 774.338 L509.97 773.083 L514.723 772.384 L521.433 770.297 "/></g><g><path fill="none" stroke="#000000" stroke-width="6" stroke-linecap="round" stroke-linejoin="round" d="M535.563 749.906 L533.733 748.527 L532.694 748.147 L533.762 748.592 L534.932 750.673 L536.228 756.443 L537.431 768.058 L538.186 785.855 L539.213 791.402 L540.961 795.878 L541.875 796.266 L544.92 794.147 L550.414 786.069 L552.478 781.516 L554.583 771.332 L555.364 769.529 L555.496 771.288 L556.564 774.009 L557.213 777.184 L557.495 780.422 L557.513 790.717 L558.448 796.179 L560.227 798.077 L562.152 797.727 L565.282 796.384 "/></g><g><path fill="none" stroke="#000000" stroke-width="6" stroke-linecap="round" stroke-linejoin="round" d="M574.85 778.102 L574.936 778.523 L580.42 779.175 L586.079 777.778 L591.598 774.75 L594.872 772.136 L596.526 769.467 L596.285 768.043 L595.568 767.348 L593.889 766.864 L590.419 766.744 L584.389 767.345 L580.311 768.637 L577.266 770.139 L575.835 771.246 L573.124 774.455 L571.854 777.517 L571.068 780.569 L571.645 783.198 L573.928 786.516 L575.16 787.697 L578.179 789.231 L581.782 790.531 L586.493 791.637 L590.313 791.9 L595.837 791.418 "/></g><g><path fill="none" stroke="#000000" stroke-width="6" stroke-linecap="round" stroke-linejoin="round" d="M-574.6 918.337 L-575.041 919.373 L-574.614 920.463 L-574.979 921.653 L-574.238 937.646 L-572.032 953.59 L-571.333 955.164 L-570.409 955.212 L-569.476 954.617 L-567.495 951.56 L-564.803 944.693 L-559.838 929.931 L-557.663 926.475 L-556.717 925.37 L-555.916 924.951 L-555.26 925.22 L-553.35 931.234 L-551.572 941.488 L-551.323 942.252 L-550.663 942.68 L-547.9 939.986 L-544.146 934.243 L-540.972 928.271 L-540.384 928.027 L-539.88 928.283 L-539.071 929.303 L-538.418 931.051 L-536.799 941.574 L-536.239 943.06 L-534.707 951.571 L-534.168 952.073 L-533.818 951.67 L-533.172 951.611 "/></g><g><path fill="none" stroke="#000000" stroke-width="6" stroke-linecap="round" stroke-linejoin="round" d="M-514.983 926.086 L-515.167 924.603 L-515.542 925.062 L-516.906 933.85 L-517.006 938.192 L-516.733 941.097 L-515.692 944.743 L-514.718 946.126 L-512.785 947.96 L-509.818 948.953 L-507.43 948.476 L-506.262 947.916 L-502.36 944.74 L-496.605 937.947 L-495.083 935.506 L-494.276 933.785 L-493.03 929.55 L-492.988 926.232 L-494.034 924.734 L-496.445 925.651 L-497.16 926.571 "/></g><g><path fill="none" stroke="#000000" stroke-width="6" stroke-linecap="round" stroke-linejoin="round" d="M-473.374 927.021 L-474.31 925.097 L-473.138 931.621 L-470.786 949.693 L-469.745 954.135 L-469.263 955.363 L-468.512 955.971 L-467.944 955.647 L-467.949 954.874 L-464.737 943.474 L-463.274 936.379 L-462.019 928.016 L-460.068 924.247 L-458.032 922.283 L-455.318 921.694 L-454.003 921.971 L-453.307 922.689 L-451.274 923.423 L-449.301 926.175 "/></g><g><path fill="none" stroke="#000000" stroke-width="6" stroke-linecap="round" stroke-linejoin="round" d="M-423.984 931.454 L-424.386 929.646 L-426.534 930.256 L-429.19 932.044 L-432.584 935.537 L-436.343 941.545 L-437.931 945.643 L-438.879 950.484 L-438.857 955.591 L-437.978 958.671 L-436.2 959.806 L-434.05 959.172 L-431.77 957.711 L-428.603 954.406 L-425.915 950.703 L-422.733 945.267 L-420.342 937.825 L-419.698 933.346 L-420.221 926.795 L-421.135 921.448 L-424.881 904.593 L-425.095 904.569 L-423.73 910.948 L-422.846 919.804 L-421.637 926.557 L-416.025 942.961 L-413.892 946.637 L-408.257 951.325 L-404.152 952.604 L-401.917 952.154 "/></g><g><path fill="none" stroke="#000000" stroke-width="6" stroke-linecap="round" stroke-linejoin="round" d="M-392.552 938.634 L-389.983 936.967 L-387.881 936.259 L-378.966 926.813 L-377.951 925.386 L-377.557 924.166 L-379.169 922.954 L-382.874 923.016 L-387.572 925.281 L-390.777 930.682 L-392.422 936.008 L-393.586 943.24 L-393.781 947.203 L-393.202 950.305 L-392.336 951.99 L-391.63 952.557 L-389.595 953.533 L-386.764 953.588 L-385.561 953.07 L-384.144 953.116 L-381.223 952.432 L-376.948 950.212 L-372.064 946.855 "/></g><g><path fill="none" stroke="#000000" stroke-width="6" stroke-linecap="round" stroke-linejoin="round" d="M-350.808 917.645 L-353.4 918.801 L-355.263 922.737 L-356.826 928.98 L-357.72 937.291 L-357.365 942.92 L-356.415 947.215 L-354.449 951.197 L-353.239 952.063 L-352.018 952.351 L-351.062 952.115 L-349.998 950.266 L-347.821 944.847 L-346.97 937.8 L-346.726 932.05 L-345.91 927.819 L-345.148 925.846 L-343.311 924.323 L-341.257 923.85 L-337.105 921.914 L-332.372 920.306 L-326.771 919.704 L-325.558 919.934 "/></g><g><path fill="none" stroke="#000000" stroke-width="6" stroke-linecap="round" stroke-linejoin="round" d="M-324.158 948.258 L-325.971 948.251 L-326.694 947.764 L-326.449 947.647 L-325.768 947.829 L-325.74 948.397 L-325.081 947.788 L-321.754 947.343 "/></g>
</svg>